%TF.GenerationSoftware,KiCad,Pcbnew,8.0.1*%
%TF.CreationDate,2024-03-26T10:43:22-04:00*%
%TF.ProjectId,heaterboard-3,68656174-6572-4626-9f61-72642d332e6b,3*%
%TF.SameCoordinates,Original*%
%TF.FileFunction,Soldermask,Bot*%
%TF.FilePolarity,Negative*%
%FSLAX46Y46*%
G04 Gerber Fmt 4.6, Leading zero omitted, Abs format (unit mm)*
G04 Created by KiCad (PCBNEW 8.0.1) date 2024-03-26 10:43:22*
%MOMM*%
%LPD*%
G01*
G04 APERTURE LIST*
G04 Aperture macros list*
%AMRoundRect*
0 Rectangle with rounded corners*
0 $1 Rounding radius*
0 $2 $3 $4 $5 $6 $7 $8 $9 X,Y pos of 4 corners*
0 Add a 4 corners polygon primitive as box body*
4,1,4,$2,$3,$4,$5,$6,$7,$8,$9,$2,$3,0*
0 Add four circle primitives for the rounded corners*
1,1,$1+$1,$2,$3*
1,1,$1+$1,$4,$5*
1,1,$1+$1,$6,$7*
1,1,$1+$1,$8,$9*
0 Add four rect primitives between the rounded corners*
20,1,$1+$1,$2,$3,$4,$5,0*
20,1,$1+$1,$4,$5,$6,$7,0*
20,1,$1+$1,$6,$7,$8,$9,0*
20,1,$1+$1,$8,$9,$2,$3,0*%
G04 Aperture macros list end*
%ADD10C,6.400000*%
%ADD11R,1.905000X2.000000*%
%ADD12O,1.905000X2.000000*%
%ADD13R,1.700000X1.700000*%
%ADD14O,1.700000X1.700000*%
%ADD15C,3.000000*%
%ADD16RoundRect,0.250002X1.599998X1.599998X-1.599998X1.599998X-1.599998X-1.599998X1.599998X-1.599998X0*%
%ADD17C,3.700000*%
%ADD18C,1.800000*%
%ADD19C,1.727200*%
%ADD20R,1.727200X1.727200*%
%ADD21C,1.270000*%
%ADD22RoundRect,0.250001X-0.499999X-0.759999X0.499999X-0.759999X0.499999X0.759999X-0.499999X0.759999X0*%
%ADD23O,1.500000X2.020000*%
G04 APERTURE END LIST*
D10*
%TO.C,H1*%
X162750000Y-107750000D03*
%TD*%
D11*
%TO.C,Q1*%
X94630000Y-88900000D03*
D12*
X97170000Y-88900000D03*
X99710000Y-88900000D03*
%TD*%
D13*
%TO.C,J6*%
X149860000Y-63500000D03*
D14*
X149860000Y-66040000D03*
X149860000Y-68580000D03*
X149860000Y-71120000D03*
X149860000Y-73660000D03*
X149860000Y-76200000D03*
X149860000Y-78740000D03*
X149860000Y-81280000D03*
X149860000Y-83820000D03*
X149860000Y-86360000D03*
X149860000Y-88900000D03*
X149860000Y-91440000D03*
X149860000Y-93980000D03*
X149860000Y-96520000D03*
X149860000Y-99060000D03*
%TD*%
D15*
%TO.C,J1*%
X85105000Y-96200000D03*
D16*
X85105000Y-88900000D03*
D17*
X85105000Y-83400000D03*
%TD*%
D15*
%TO.C,J2*%
X112085000Y-96200000D03*
D16*
X114935000Y-88900000D03*
D17*
X109235000Y-88900000D03*
X114935000Y-83400000D03*
X109235000Y-83400000D03*
%TD*%
D11*
%TO.C,U1*%
X94615000Y-76835000D03*
D12*
X97155000Y-76835000D03*
X99695000Y-76835000D03*
%TD*%
D18*
%TO.C,A1*%
X129540000Y-60960000D03*
X129540000Y-101600000D03*
X144780000Y-60960000D03*
X144780000Y-101600000D03*
D19*
X144780000Y-96520000D03*
X144780000Y-71120000D03*
X144780000Y-91440000D03*
X144780000Y-88900000D03*
X144780000Y-86360000D03*
X144780000Y-83820000D03*
X144780000Y-81280000D03*
X144780000Y-78740000D03*
X144780000Y-76200000D03*
X144780000Y-73660000D03*
X144780000Y-93980000D03*
X129540000Y-66040000D03*
X129540000Y-63500000D03*
X129540000Y-73660000D03*
X129540000Y-76200000D03*
X129540000Y-78740000D03*
X129540000Y-81280000D03*
X129540000Y-83820000D03*
X129540000Y-86360000D03*
X129540000Y-88900000D03*
X129540000Y-91440000D03*
X129540000Y-93980000D03*
X129540000Y-96520000D03*
X129540000Y-99060000D03*
X144780000Y-99060000D03*
D20*
X129540000Y-71120000D03*
X144780000Y-66040000D03*
D19*
X129540000Y-68580000D03*
X144780000Y-68580000D03*
X144780000Y-63500000D03*
%TD*%
D13*
%TO.C,J5*%
X124460000Y-63500000D03*
D14*
X124460000Y-66040000D03*
X124460000Y-68580000D03*
X124460000Y-71120000D03*
X124460000Y-73660000D03*
X124460000Y-76200000D03*
X124460000Y-78740000D03*
X124460000Y-81280000D03*
X124460000Y-83820000D03*
X124460000Y-86360000D03*
X124460000Y-88900000D03*
X124460000Y-91440000D03*
X124460000Y-93980000D03*
X124460000Y-96520000D03*
X124460000Y-99060000D03*
%TD*%
D21*
%TO.C,J4*%
X153910000Y-74240000D03*
X171910000Y-74240000D03*
D22*
X156910000Y-76200000D03*
D23*
X159910000Y-76200000D03*
X162910000Y-76200000D03*
X165910000Y-76200000D03*
X168910000Y-76200000D03*
%TD*%
M02*
