%TF.GenerationSoftware,KiCad,Pcbnew,8.0.1*%
%TF.CreationDate,2024-03-26T10:43:21-04:00*%
%TF.ProjectId,heaterboard-3,68656174-6572-4626-9f61-72642d332e6b,3*%
%TF.SameCoordinates,Original*%
%TF.FileFunction,Copper,L4,Bot*%
%TF.FilePolarity,Positive*%
%FSLAX46Y46*%
G04 Gerber Fmt 4.6, Leading zero omitted, Abs format (unit mm)*
G04 Created by KiCad (PCBNEW 8.0.1) date 2024-03-26 10:43:21*
%MOMM*%
%LPD*%
G01*
G04 APERTURE LIST*
G04 Aperture macros list*
%AMRoundRect*
0 Rectangle with rounded corners*
0 $1 Rounding radius*
0 $2 $3 $4 $5 $6 $7 $8 $9 X,Y pos of 4 corners*
0 Add a 4 corners polygon primitive as box body*
4,1,4,$2,$3,$4,$5,$6,$7,$8,$9,$2,$3,0*
0 Add four circle primitives for the rounded corners*
1,1,$1+$1,$2,$3*
1,1,$1+$1,$4,$5*
1,1,$1+$1,$6,$7*
1,1,$1+$1,$8,$9*
0 Add four rect primitives between the rounded corners*
20,1,$1+$1,$2,$3,$4,$5,0*
20,1,$1+$1,$4,$5,$6,$7,0*
20,1,$1+$1,$6,$7,$8,$9,0*
20,1,$1+$1,$8,$9,$2,$3,0*%
G04 Aperture macros list end*
%TA.AperFunction,ComponentPad*%
%ADD10C,6.400000*%
%TD*%
%TA.AperFunction,ComponentPad*%
%ADD11R,1.905000X2.000000*%
%TD*%
%TA.AperFunction,ComponentPad*%
%ADD12O,1.905000X2.000000*%
%TD*%
%TA.AperFunction,ComponentPad*%
%ADD13R,1.700000X1.700000*%
%TD*%
%TA.AperFunction,ComponentPad*%
%ADD14O,1.700000X1.700000*%
%TD*%
%TA.AperFunction,ComponentPad*%
%ADD15RoundRect,0.250002X1.599998X1.599998X-1.599998X1.599998X-1.599998X-1.599998X1.599998X-1.599998X0*%
%TD*%
%TA.AperFunction,ComponentPad*%
%ADD16C,3.700000*%
%TD*%
%TA.AperFunction,ComponentPad*%
%ADD17C,1.727200*%
%TD*%
%TA.AperFunction,ComponentPad*%
%ADD18R,1.727200X1.727200*%
%TD*%
%TA.AperFunction,ComponentPad*%
%ADD19RoundRect,0.250001X-0.499999X-0.759999X0.499999X-0.759999X0.499999X0.759999X-0.499999X0.759999X0*%
%TD*%
%TA.AperFunction,ComponentPad*%
%ADD20O,1.500000X2.020000*%
%TD*%
%TA.AperFunction,ViaPad*%
%ADD21C,0.800000*%
%TD*%
%TA.AperFunction,ViaPad*%
%ADD22C,1.270000*%
%TD*%
%TA.AperFunction,ViaPad*%
%ADD23C,2.540000*%
%TD*%
%TA.AperFunction,Conductor*%
%ADD24C,0.635000*%
%TD*%
%TA.AperFunction,Conductor*%
%ADD25C,0.250000*%
%TD*%
%TA.AperFunction,Conductor*%
%ADD26C,1.016000*%
%TD*%
G04 APERTURE END LIST*
D10*
%TO.P,H1,1,1*%
%TO.N,GND*%
X162750000Y-107750000D03*
%TD*%
D11*
%TO.P,Q1,1,G*%
%TO.N,/D9*%
X94630000Y-88900000D03*
D12*
%TO.P,Q1,2,D*%
%TO.N,Net-(J2-Pin_2)*%
X97170000Y-88900000D03*
%TO.P,Q1,3,S*%
%TO.N,GND*%
X99710000Y-88900000D03*
%TD*%
D13*
%TO.P,J6,1,Pin_1*%
%TO.N,+5V*%
X149860000Y-63500000D03*
D14*
%TO.P,J6,2,Pin_2*%
%TO.N,GND*%
X149860000Y-66040000D03*
%TO.P,J6,3,Pin_3*%
%TO.N,/RST2*%
X149860000Y-68580000D03*
%TO.P,J6,4,Pin_4*%
%TO.N,+5V*%
X149860000Y-71120000D03*
%TO.P,J6,5,Pin_5*%
%TO.N,/A7*%
X149860000Y-73660000D03*
%TO.P,J6,6,Pin_6*%
%TO.N,/A6*%
X149860000Y-76200000D03*
%TO.P,J6,7,Pin_7*%
%TO.N,/A5*%
X149860000Y-78740000D03*
%TO.P,J6,8,Pin_8*%
%TO.N,/A4*%
X149860000Y-81280000D03*
%TO.P,J6,9,Pin_9*%
%TO.N,/A3*%
X149860000Y-83820000D03*
%TO.P,J6,10,Pin_10*%
%TO.N,/A2*%
X149860000Y-86360000D03*
%TO.P,J6,11,Pin_11*%
%TO.N,/A1*%
X149860000Y-88900000D03*
%TO.P,J6,12,Pin_12*%
%TO.N,/A0*%
X149860000Y-91440000D03*
%TO.P,J6,13,Pin_13*%
%TO.N,/AREF*%
X149860000Y-93980000D03*
%TO.P,J6,14,Pin_14*%
%TO.N,+3V3*%
X149860000Y-96520000D03*
%TO.P,J6,15,Pin_15*%
%TO.N,/D13*%
X149860000Y-99060000D03*
%TD*%
D15*
%TO.P,J1,1,Pin_1*%
%TO.N,GND*%
X85105000Y-88900000D03*
D16*
%TO.P,J1,2,Pin_2*%
%TO.N,+12V*%
X85105000Y-83400000D03*
%TD*%
D15*
%TO.P,J2,1,Pin_1*%
%TO.N,Net-(J2-Pin_1)*%
X114935000Y-88900000D03*
D16*
%TO.P,J2,2,Pin_2*%
%TO.N,Net-(J2-Pin_2)*%
X109235000Y-88900000D03*
%TO.P,J2,3,Pin_3*%
%TO.N,Net-(J2-Pin_3)*%
X114935000Y-83400000D03*
%TO.P,J2,4,Pin_4*%
%TO.N,Net-(J2-Pin_4)*%
X109235000Y-83400000D03*
%TD*%
D11*
%TO.P,U1,1,ADJ*%
%TO.N,Net-(U1-ADJ)*%
X94615000Y-76835000D03*
D12*
%TO.P,U1,2,VO*%
%TO.N,+5V*%
X97155000Y-76835000D03*
%TO.P,U1,3,VI*%
%TO.N,+12V*%
X99695000Y-76835000D03*
%TD*%
D17*
%TO.P,A1,3V3,3.3V*%
%TO.N,+3V3*%
X144780000Y-96520000D03*
%TO.P,A1,5V,5V*%
%TO.N,+5V*%
X144780000Y-71120000D03*
%TO.P,A1,A0,A0*%
%TO.N,/A0*%
X144780000Y-91440000D03*
%TO.P,A1,A1,A1*%
%TO.N,/A1*%
X144780000Y-88900000D03*
%TO.P,A1,A2,A2*%
%TO.N,/A2*%
X144780000Y-86360000D03*
%TO.P,A1,A3,A3*%
%TO.N,/A3*%
X144780000Y-83820000D03*
%TO.P,A1,A4,A4/SDA*%
%TO.N,/A4*%
X144780000Y-81280000D03*
%TO.P,A1,A5,A5/SCL*%
%TO.N,/A5*%
X144780000Y-78740000D03*
%TO.P,A1,A6,A6*%
%TO.N,/A6*%
X144780000Y-76200000D03*
%TO.P,A1,A7,A7*%
%TO.N,/A7*%
X144780000Y-73660000D03*
%TO.P,A1,AREF,AREF*%
%TO.N,/AREF*%
X144780000Y-93980000D03*
%TO.P,A1,D0,D0/RX*%
%TO.N,/D0*%
X129540000Y-66040000D03*
%TO.P,A1,D1,D1/TX*%
%TO.N,/D1*%
X129540000Y-63500000D03*
%TO.P,A1,D2,D2_INT0*%
%TO.N,/D2*%
X129540000Y-73660000D03*
%TO.P,A1,D3,D3_INT1*%
%TO.N,/D3*%
X129540000Y-76200000D03*
%TO.P,A1,D4,D4*%
%TO.N,/D4*%
X129540000Y-78740000D03*
%TO.P,A1,D5,D5*%
%TO.N,/D5*%
X129540000Y-81280000D03*
%TO.P,A1,D6,D6*%
%TO.N,/D6*%
X129540000Y-83820000D03*
%TO.P,A1,D7,D7*%
%TO.N,/D7*%
X129540000Y-86360000D03*
%TO.P,A1,D8,D8*%
%TO.N,/D8*%
X129540000Y-88900000D03*
%TO.P,A1,D9,D9*%
%TO.N,/D9*%
X129540000Y-91440000D03*
%TO.P,A1,D10,D10*%
%TO.N,/D10*%
X129540000Y-93980000D03*
%TO.P,A1,D11,D11_MOSI*%
%TO.N,/D11*%
X129540000Y-96520000D03*
%TO.P,A1,D12,D12_MISO*%
%TO.N,/D12*%
X129540000Y-99060000D03*
%TO.P,A1,D13,D13_SCK*%
%TO.N,/D13*%
X144780000Y-99060000D03*
D18*
%TO.P,A1,GND1,GND*%
%TO.N,GND*%
X129540000Y-71120000D03*
%TO.P,A1,GND2,GND*%
X144780000Y-66040000D03*
D17*
%TO.P,A1,RST1,RESET*%
%TO.N,/RST1*%
X129540000Y-68580000D03*
%TO.P,A1,RST2,RESET*%
%TO.N,/RST2*%
X144780000Y-68580000D03*
%TO.P,A1,VIN,VIN*%
%TO.N,+5V*%
X144780000Y-63500000D03*
%TD*%
D13*
%TO.P,J5,1,Pin_1*%
%TO.N,/D1*%
X124460000Y-63500000D03*
D14*
%TO.P,J5,2,Pin_2*%
%TO.N,/D0*%
X124460000Y-66040000D03*
%TO.P,J5,3,Pin_3*%
%TO.N,/RST1*%
X124460000Y-68580000D03*
%TO.P,J5,4,Pin_4*%
%TO.N,GND*%
X124460000Y-71120000D03*
%TO.P,J5,5,Pin_5*%
%TO.N,/D2*%
X124460000Y-73660000D03*
%TO.P,J5,6,Pin_6*%
%TO.N,/D3*%
X124460000Y-76200000D03*
%TO.P,J5,7,Pin_7*%
%TO.N,/D4*%
X124460000Y-78740000D03*
%TO.P,J5,8,Pin_8*%
%TO.N,/D5*%
X124460000Y-81280000D03*
%TO.P,J5,9,Pin_9*%
%TO.N,/D6*%
X124460000Y-83820000D03*
%TO.P,J5,10,Pin_10*%
%TO.N,/D7*%
X124460000Y-86360000D03*
%TO.P,J5,11,Pin_11*%
%TO.N,/D8*%
X124460000Y-88900000D03*
%TO.P,J5,12,Pin_12*%
%TO.N,/D9*%
X124460000Y-91440000D03*
%TO.P,J5,13,Pin_13*%
%TO.N,/D10*%
X124460000Y-93980000D03*
%TO.P,J5,14,Pin_14*%
%TO.N,/D11*%
X124460000Y-96520000D03*
%TO.P,J5,15,Pin_15*%
%TO.N,/D12*%
X124460000Y-99060000D03*
%TD*%
D19*
%TO.P,J4,1,Pin_1*%
%TO.N,unconnected-(J4-Pin_1-Pad1)*%
X156910000Y-76200000D03*
D20*
%TO.P,J4,2,Pin_2*%
%TO.N,+12V*%
X159910000Y-76200000D03*
%TO.P,J4,3,Pin_3*%
%TO.N,Net-(J4-Pin_3)*%
X162910000Y-76200000D03*
%TO.P,J4,4,Pin_4*%
%TO.N,+12V*%
X165910000Y-76200000D03*
%TO.P,J4,5,Pin_5*%
%TO.N,GND*%
X168910000Y-76200000D03*
%TD*%
D21*
%TO.N,GND*%
X92500000Y-113500000D03*
X96500000Y-113500000D03*
D22*
X171450000Y-70485000D03*
X102870000Y-71120000D03*
X92090000Y-99695000D03*
X106680000Y-71120000D03*
X87630000Y-64770000D03*
X163830000Y-70485000D03*
X91440000Y-64770000D03*
X114300000Y-71120000D03*
X95250000Y-64770000D03*
X118110000Y-71120000D03*
%TO.N,+12V*%
X95250000Y-71120000D03*
D23*
X102250000Y-103505000D03*
D22*
X160020000Y-70485000D03*
%TO.N,+5V*%
X83820000Y-71120000D03*
X92090000Y-103505000D03*
X91400250Y-71159750D03*
%TD*%
D24*
%TO.N,+3V3*%
X144780000Y-96520000D02*
X149860000Y-96520000D01*
D25*
%TO.N,/A0*%
X144780000Y-91440000D02*
X149860000Y-91440000D01*
%TO.N,/A2*%
X144780000Y-86360000D02*
X149860000Y-86360000D01*
%TO.N,/A3*%
X144780000Y-83820000D02*
X149860000Y-83820000D01*
%TO.N,/A4*%
X144780000Y-81280000D02*
X149860000Y-81280000D01*
%TO.N,/A5*%
X144780000Y-78740000D02*
X149860000Y-78740000D01*
%TO.N,/A6*%
X144780000Y-76200000D02*
X149860000Y-76200000D01*
%TO.N,/A7*%
X144780000Y-73660000D02*
X149860000Y-73660000D01*
%TO.N,/AREF*%
X144780000Y-93980000D02*
X149860000Y-93980000D01*
%TO.N,/D0*%
X124460000Y-66040000D02*
X129540000Y-66040000D01*
%TO.N,/D1*%
X124460000Y-63500000D02*
X129540000Y-63500000D01*
%TO.N,/D2*%
X124460000Y-73660000D02*
X129540000Y-73660000D01*
%TO.N,/D3*%
X124460000Y-76200000D02*
X129540000Y-76200000D01*
%TO.N,/D4*%
X124460000Y-78740000D02*
X129540000Y-78740000D01*
%TO.N,/D5*%
X124460000Y-81280000D02*
X129540000Y-81280000D01*
%TO.N,/D6*%
X124460000Y-83820000D02*
X129540000Y-83820000D01*
%TO.N,/D7*%
X124460000Y-86360000D02*
X129540000Y-86360000D01*
%TO.N,/D8*%
X124460000Y-88900000D02*
X129540000Y-88900000D01*
D26*
%TO.N,/D9*%
X124460000Y-91440000D02*
X129540000Y-91440000D01*
D25*
%TO.N,/D10*%
X124460000Y-93980000D02*
X129540000Y-93980000D01*
%TO.N,/D11*%
X124460000Y-96520000D02*
X129540000Y-96520000D01*
%TO.N,/D12*%
X124460000Y-99060000D02*
X129540000Y-99060000D01*
%TO.N,/D13*%
X144780000Y-99060000D02*
X149860000Y-99060000D01*
D24*
%TO.N,+5V*%
X93345000Y-62230000D02*
X98425000Y-57150000D01*
X138430000Y-57150000D02*
X144780000Y-63500000D01*
X83820000Y-71120000D02*
X87630000Y-71120000D01*
X93345000Y-70485000D02*
X93345000Y-62230000D01*
X90883500Y-102298500D02*
X90883500Y-85026500D01*
X98425000Y-57150000D02*
X138430000Y-57150000D01*
X144780000Y-63500000D02*
X149860000Y-63500000D01*
X91360500Y-71120000D02*
X87630000Y-71120000D01*
X97155000Y-75644500D02*
X92670250Y-71159750D01*
X92670250Y-71159750D02*
X93345000Y-70485000D01*
X144780000Y-71120000D02*
X149860000Y-71120000D01*
X90883500Y-85026500D02*
X97155000Y-78755000D01*
X97155000Y-78755000D02*
X97155000Y-75644500D01*
X92090000Y-103505000D02*
X90883500Y-102298500D01*
X91400250Y-71159750D02*
X92670250Y-71159750D01*
D25*
%TO.N,/RST1*%
X124460000Y-68580000D02*
X129540000Y-68580000D01*
%TO.N,/RST2*%
X144780000Y-68580000D02*
X149860000Y-68580000D01*
%TD*%
M02*
