%TF.GenerationSoftware,KiCad,Pcbnew,8.0.1*%
%TF.CreationDate,2024-03-26T10:43:22-04:00*%
%TF.ProjectId,heaterboard-3,68656174-6572-4626-9f61-72642d332e6b,3*%
%TF.SameCoordinates,Original*%
%TF.FileFunction,Soldermask,Top*%
%TF.FilePolarity,Negative*%
%FSLAX46Y46*%
G04 Gerber Fmt 4.6, Leading zero omitted, Abs format (unit mm)*
G04 Created by KiCad (PCBNEW 8.0.1) date 2024-03-26 10:43:22*
%MOMM*%
%LPD*%
G01*
G04 APERTURE LIST*
G04 Aperture macros list*
%AMRoundRect*
0 Rectangle with rounded corners*
0 $1 Rounding radius*
0 $2 $3 $4 $5 $6 $7 $8 $9 X,Y pos of 4 corners*
0 Add a 4 corners polygon primitive as box body*
4,1,4,$2,$3,$4,$5,$6,$7,$8,$9,$2,$3,0*
0 Add four circle primitives for the rounded corners*
1,1,$1+$1,$2,$3*
1,1,$1+$1,$4,$5*
1,1,$1+$1,$6,$7*
1,1,$1+$1,$8,$9*
0 Add four rect primitives between the rounded corners*
20,1,$1+$1,$2,$3,$4,$5,0*
20,1,$1+$1,$4,$5,$6,$7,0*
20,1,$1+$1,$6,$7,$8,$9,0*
20,1,$1+$1,$8,$9,$2,$3,0*%
G04 Aperture macros list end*
%ADD10C,6.400000*%
%ADD11RoundRect,0.250000X-0.650000X0.412500X-0.650000X-0.412500X0.650000X-0.412500X0.650000X0.412500X0*%
%ADD12RoundRect,0.250000X0.625000X-0.400000X0.625000X0.400000X-0.625000X0.400000X-0.625000X-0.400000X0*%
%ADD13R,1.905000X2.000000*%
%ADD14O,1.905000X2.000000*%
%ADD15R,1.700000X1.700000*%
%ADD16O,1.700000X1.700000*%
%ADD17C,3.000000*%
%ADD18RoundRect,0.250002X1.599998X1.599998X-1.599998X1.599998X-1.599998X-1.599998X1.599998X-1.599998X0*%
%ADD19C,3.700000*%
%ADD20RoundRect,0.250000X-0.625000X0.400000X-0.625000X-0.400000X0.625000X-0.400000X0.625000X0.400000X0*%
%ADD21RoundRect,0.250000X0.650000X-0.412500X0.650000X0.412500X-0.650000X0.412500X-0.650000X-0.412500X0*%
%ADD22C,1.800000*%
%ADD23C,1.727200*%
%ADD24R,1.727200X1.727200*%
%ADD25C,1.270000*%
%ADD26RoundRect,0.250001X-0.499999X-0.759999X0.499999X-0.759999X0.499999X0.759999X-0.499999X0.759999X0*%
%ADD27O,1.500000X2.020000*%
%ADD28RoundRect,0.150000X0.825000X0.150000X-0.825000X0.150000X-0.825000X-0.150000X0.825000X-0.150000X0*%
G04 APERTURE END LIST*
D10*
%TO.C,H1*%
X162750000Y-107750000D03*
%TD*%
D11*
%TO.C,C6*%
X96000000Y-111875000D03*
X96000000Y-108750000D03*
%TD*%
%TO.C,C5*%
X92000000Y-111875000D03*
X92000000Y-108750000D03*
%TD*%
D12*
%TO.C,R7*%
X99060000Y-69140000D03*
X99060000Y-66040000D03*
%TD*%
D11*
%TO.C,C3*%
X102870000Y-66040000D03*
X102870000Y-69165000D03*
%TD*%
D13*
%TO.C,Q1*%
X94630000Y-88900000D03*
D14*
X97170000Y-88900000D03*
X99710000Y-88900000D03*
%TD*%
D15*
%TO.C,J6*%
X149860000Y-63500000D03*
D16*
X149860000Y-66040000D03*
X149860000Y-68580000D03*
X149860000Y-71120000D03*
X149860000Y-73660000D03*
X149860000Y-76200000D03*
X149860000Y-78740000D03*
X149860000Y-81280000D03*
X149860000Y-83820000D03*
X149860000Y-86360000D03*
X149860000Y-88900000D03*
X149860000Y-91440000D03*
X149860000Y-93980000D03*
X149860000Y-96520000D03*
X149860000Y-99060000D03*
%TD*%
D17*
%TO.C,J1*%
X85105000Y-96200000D03*
D18*
X85105000Y-88900000D03*
D19*
X85105000Y-83400000D03*
%TD*%
D12*
%TO.C,R2*%
X87630000Y-69285000D03*
X87630000Y-66185000D03*
%TD*%
D17*
%TO.C,J2*%
X112085000Y-96200000D03*
D18*
X114935000Y-88900000D03*
D19*
X109235000Y-88900000D03*
X114935000Y-83400000D03*
X109235000Y-83400000D03*
%TD*%
D13*
%TO.C,U1*%
X94615000Y-76835000D03*
D14*
X97155000Y-76835000D03*
X99695000Y-76835000D03*
%TD*%
D20*
%TO.C,R6*%
X171450000Y-66040000D03*
X171450000Y-69140000D03*
%TD*%
D11*
%TO.C,C4*%
X118110000Y-66040000D03*
X118110000Y-69165000D03*
%TD*%
D21*
%TO.C,C2*%
X91440000Y-69235000D03*
X91440000Y-66110000D03*
%TD*%
D22*
%TO.C,A1*%
X129540000Y-60960000D03*
X129540000Y-101600000D03*
X144780000Y-60960000D03*
X144780000Y-101600000D03*
D23*
X144780000Y-96520000D03*
X144780000Y-71120000D03*
X144780000Y-91440000D03*
X144780000Y-88900000D03*
X144780000Y-86360000D03*
X144780000Y-83820000D03*
X144780000Y-81280000D03*
X144780000Y-78740000D03*
X144780000Y-76200000D03*
X144780000Y-73660000D03*
X144780000Y-93980000D03*
X129540000Y-66040000D03*
X129540000Y-63500000D03*
X129540000Y-73660000D03*
X129540000Y-76200000D03*
X129540000Y-78740000D03*
X129540000Y-81280000D03*
X129540000Y-83820000D03*
X129540000Y-86360000D03*
X129540000Y-88900000D03*
X129540000Y-91440000D03*
X129540000Y-93980000D03*
X129540000Y-96520000D03*
X129540000Y-99060000D03*
X144780000Y-99060000D03*
D24*
X129540000Y-71120000D03*
X144780000Y-66040000D03*
D23*
X129540000Y-68580000D03*
X144780000Y-68580000D03*
X144780000Y-63500000D03*
%TD*%
D15*
%TO.C,J5*%
X124460000Y-63500000D03*
D16*
X124460000Y-66040000D03*
X124460000Y-68580000D03*
X124460000Y-71120000D03*
X124460000Y-73660000D03*
X124460000Y-76200000D03*
X124460000Y-78740000D03*
X124460000Y-81280000D03*
X124460000Y-83820000D03*
X124460000Y-86360000D03*
X124460000Y-88900000D03*
X124460000Y-91440000D03*
X124460000Y-93980000D03*
X124460000Y-96520000D03*
X124460000Y-99060000D03*
%TD*%
D20*
%TO.C,R4*%
X163830000Y-66040000D03*
X163830000Y-69140000D03*
%TD*%
%TO.C,R8*%
X106680000Y-66065000D03*
X106680000Y-69165000D03*
%TD*%
D12*
%TO.C,R1*%
X83820000Y-69210000D03*
X83820000Y-66110000D03*
%TD*%
%TO.C,R5*%
X167640000Y-69140000D03*
X167640000Y-66040000D03*
%TD*%
D25*
%TO.C,J4*%
X153910000Y-74240000D03*
X171910000Y-74240000D03*
D26*
X156910000Y-76200000D03*
D27*
X159910000Y-76200000D03*
X162910000Y-76200000D03*
X165910000Y-76200000D03*
X168910000Y-76200000D03*
%TD*%
D12*
%TO.C,R3*%
X160020000Y-69140000D03*
X160020000Y-66040000D03*
%TD*%
%TO.C,R9*%
X110490000Y-69140000D03*
X110490000Y-66040000D03*
%TD*%
D20*
%TO.C,R10*%
X114300000Y-66040000D03*
X114300000Y-69140000D03*
%TD*%
D21*
%TO.C,C1*%
X95250000Y-69235000D03*
X95250000Y-66110000D03*
%TD*%
D28*
%TO.C,U2*%
X99645000Y-103505000D03*
X99645000Y-102235000D03*
X99645000Y-100965000D03*
X99645000Y-99695000D03*
X94695000Y-99695000D03*
X94695000Y-100965000D03*
X94695000Y-102235000D03*
X94695000Y-103505000D03*
%TD*%
M02*
