%TF.GenerationSoftware,KiCad,Pcbnew,8.0.1*%
%TF.CreationDate,2024-03-26T10:43:21-04:00*%
%TF.ProjectId,heaterboard-3,68656174-6572-4626-9f61-72642d332e6b,3*%
%TF.SameCoordinates,Original*%
%TF.FileFunction,Copper,L3,Inr*%
%TF.FilePolarity,Positive*%
%FSLAX46Y46*%
G04 Gerber Fmt 4.6, Leading zero omitted, Abs format (unit mm)*
G04 Created by KiCad (PCBNEW 8.0.1) date 2024-03-26 10:43:21*
%MOMM*%
%LPD*%
G01*
G04 APERTURE LIST*
G04 Aperture macros list*
%AMRoundRect*
0 Rectangle with rounded corners*
0 $1 Rounding radius*
0 $2 $3 $4 $5 $6 $7 $8 $9 X,Y pos of 4 corners*
0 Add a 4 corners polygon primitive as box body*
4,1,4,$2,$3,$4,$5,$6,$7,$8,$9,$2,$3,0*
0 Add four circle primitives for the rounded corners*
1,1,$1+$1,$2,$3*
1,1,$1+$1,$4,$5*
1,1,$1+$1,$6,$7*
1,1,$1+$1,$8,$9*
0 Add four rect primitives between the rounded corners*
20,1,$1+$1,$2,$3,$4,$5,0*
20,1,$1+$1,$4,$5,$6,$7,0*
20,1,$1+$1,$6,$7,$8,$9,0*
20,1,$1+$1,$8,$9,$2,$3,0*%
G04 Aperture macros list end*
%TA.AperFunction,ComponentPad*%
%ADD10C,6.400000*%
%TD*%
%TA.AperFunction,ComponentPad*%
%ADD11R,1.905000X2.000000*%
%TD*%
%TA.AperFunction,ComponentPad*%
%ADD12O,1.905000X2.000000*%
%TD*%
%TA.AperFunction,ComponentPad*%
%ADD13R,1.700000X1.700000*%
%TD*%
%TA.AperFunction,ComponentPad*%
%ADD14O,1.700000X1.700000*%
%TD*%
%TA.AperFunction,ComponentPad*%
%ADD15RoundRect,0.250002X1.599998X1.599998X-1.599998X1.599998X-1.599998X-1.599998X1.599998X-1.599998X0*%
%TD*%
%TA.AperFunction,ComponentPad*%
%ADD16C,3.700000*%
%TD*%
%TA.AperFunction,ComponentPad*%
%ADD17C,1.727200*%
%TD*%
%TA.AperFunction,ComponentPad*%
%ADD18R,1.727200X1.727200*%
%TD*%
%TA.AperFunction,ComponentPad*%
%ADD19RoundRect,0.250001X-0.499999X-0.759999X0.499999X-0.759999X0.499999X0.759999X-0.499999X0.759999X0*%
%TD*%
%TA.AperFunction,ComponentPad*%
%ADD20O,1.500000X2.020000*%
%TD*%
%TA.AperFunction,ViaPad*%
%ADD21C,0.800000*%
%TD*%
%TA.AperFunction,ViaPad*%
%ADD22C,1.270000*%
%TD*%
%TA.AperFunction,ViaPad*%
%ADD23C,2.540000*%
%TD*%
G04 APERTURE END LIST*
D10*
%TO.N,GND*%
%TO.C,H1*%
X162750000Y-107750000D03*
%TD*%
D11*
%TO.N,/D9*%
%TO.C,Q1*%
X94630000Y-88900000D03*
D12*
%TO.N,Net-(J2-Pin_2)*%
X97170000Y-88900000D03*
%TO.N,GND*%
X99710000Y-88900000D03*
%TD*%
D13*
%TO.N,+5V*%
%TO.C,J6*%
X149860000Y-63500000D03*
D14*
%TO.N,GND*%
X149860000Y-66040000D03*
%TO.N,/RST2*%
X149860000Y-68580000D03*
%TO.N,+5V*%
X149860000Y-71120000D03*
%TO.N,/A7*%
X149860000Y-73660000D03*
%TO.N,/A6*%
X149860000Y-76200000D03*
%TO.N,/A5*%
X149860000Y-78740000D03*
%TO.N,/A4*%
X149860000Y-81280000D03*
%TO.N,/A3*%
X149860000Y-83820000D03*
%TO.N,/A2*%
X149860000Y-86360000D03*
%TO.N,/A1*%
X149860000Y-88900000D03*
%TO.N,/A0*%
X149860000Y-91440000D03*
%TO.N,/AREF*%
X149860000Y-93980000D03*
%TO.N,+3V3*%
X149860000Y-96520000D03*
%TO.N,/D13*%
X149860000Y-99060000D03*
%TD*%
D15*
%TO.N,GND*%
%TO.C,J1*%
X85105000Y-88900000D03*
D16*
%TO.N,+12V*%
X85105000Y-83400000D03*
%TD*%
D15*
%TO.N,Net-(J2-Pin_1)*%
%TO.C,J2*%
X114935000Y-88900000D03*
D16*
%TO.N,Net-(J2-Pin_2)*%
X109235000Y-88900000D03*
%TO.N,Net-(J2-Pin_3)*%
X114935000Y-83400000D03*
%TO.N,Net-(J2-Pin_4)*%
X109235000Y-83400000D03*
%TD*%
D11*
%TO.N,Net-(U1-ADJ)*%
%TO.C,U1*%
X94615000Y-76835000D03*
D12*
%TO.N,+5V*%
X97155000Y-76835000D03*
%TO.N,+12V*%
X99695000Y-76835000D03*
%TD*%
D17*
%TO.N,+3V3*%
%TO.C,A1*%
X144780000Y-96520000D03*
%TO.N,+5V*%
X144780000Y-71120000D03*
%TO.N,/A0*%
X144780000Y-91440000D03*
%TO.N,/A1*%
X144780000Y-88900000D03*
%TO.N,/A2*%
X144780000Y-86360000D03*
%TO.N,/A3*%
X144780000Y-83820000D03*
%TO.N,/A4*%
X144780000Y-81280000D03*
%TO.N,/A5*%
X144780000Y-78740000D03*
%TO.N,/A6*%
X144780000Y-76200000D03*
%TO.N,/A7*%
X144780000Y-73660000D03*
%TO.N,/AREF*%
X144780000Y-93980000D03*
%TO.N,/D0*%
X129540000Y-66040000D03*
%TO.N,/D1*%
X129540000Y-63500000D03*
%TO.N,/D2*%
X129540000Y-73660000D03*
%TO.N,/D3*%
X129540000Y-76200000D03*
%TO.N,/D4*%
X129540000Y-78740000D03*
%TO.N,/D5*%
X129540000Y-81280000D03*
%TO.N,/D6*%
X129540000Y-83820000D03*
%TO.N,/D7*%
X129540000Y-86360000D03*
%TO.N,/D8*%
X129540000Y-88900000D03*
%TO.N,/D9*%
X129540000Y-91440000D03*
%TO.N,/D10*%
X129540000Y-93980000D03*
%TO.N,/D11*%
X129540000Y-96520000D03*
%TO.N,/D12*%
X129540000Y-99060000D03*
%TO.N,/D13*%
X144780000Y-99060000D03*
D18*
%TO.N,GND*%
X129540000Y-71120000D03*
X144780000Y-66040000D03*
D17*
%TO.N,/RST1*%
X129540000Y-68580000D03*
%TO.N,/RST2*%
X144780000Y-68580000D03*
%TO.N,+5V*%
X144780000Y-63500000D03*
%TD*%
D13*
%TO.N,/D1*%
%TO.C,J5*%
X124460000Y-63500000D03*
D14*
%TO.N,/D0*%
X124460000Y-66040000D03*
%TO.N,/RST1*%
X124460000Y-68580000D03*
%TO.N,GND*%
X124460000Y-71120000D03*
%TO.N,/D2*%
X124460000Y-73660000D03*
%TO.N,/D3*%
X124460000Y-76200000D03*
%TO.N,/D4*%
X124460000Y-78740000D03*
%TO.N,/D5*%
X124460000Y-81280000D03*
%TO.N,/D6*%
X124460000Y-83820000D03*
%TO.N,/D7*%
X124460000Y-86360000D03*
%TO.N,/D8*%
X124460000Y-88900000D03*
%TO.N,/D9*%
X124460000Y-91440000D03*
%TO.N,/D10*%
X124460000Y-93980000D03*
%TO.N,/D11*%
X124460000Y-96520000D03*
%TO.N,/D12*%
X124460000Y-99060000D03*
%TD*%
D19*
%TO.N,unconnected-(J4-Pin_1-Pad1)*%
%TO.C,J4*%
X156910000Y-76200000D03*
D20*
%TO.N,+12V*%
X159910000Y-76200000D03*
%TO.N,Net-(J4-Pin_3)*%
X162910000Y-76200000D03*
%TO.N,+12V*%
X165910000Y-76200000D03*
%TO.N,GND*%
X168910000Y-76200000D03*
%TD*%
D21*
%TO.N,GND*%
X92500000Y-113500000D03*
X96500000Y-113500000D03*
D22*
X171450000Y-70485000D03*
X102870000Y-71120000D03*
X92090000Y-99695000D03*
X106680000Y-71120000D03*
X87630000Y-64770000D03*
X163830000Y-70485000D03*
X91440000Y-64770000D03*
X114300000Y-71120000D03*
X95250000Y-64770000D03*
X118110000Y-71120000D03*
%TO.N,+12V*%
X95250000Y-71120000D03*
D23*
X102250000Y-103505000D03*
D22*
X160020000Y-70485000D03*
%TO.N,+5V*%
X83820000Y-71120000D03*
X92090000Y-103505000D03*
X91400250Y-71159750D03*
%TD*%
%TA.AperFunction,Conductor*%
%TO.N,+12V*%
G36*
X117475000Y-104140000D02*
G01*
X117525000Y-104140000D01*
X161894161Y-104140000D01*
X161670454Y-104199942D01*
X161602430Y-104218169D01*
X161239543Y-104357469D01*
X160893201Y-104533940D01*
X160567214Y-104745637D01*
X160265128Y-104990262D01*
X160265120Y-104990269D01*
X159990269Y-105265120D01*
X159990262Y-105265128D01*
X159745637Y-105567214D01*
X159533940Y-105893201D01*
X159357469Y-106239543D01*
X159218169Y-106602430D01*
X159117561Y-106977904D01*
X159117561Y-106977906D01*
X159056754Y-107361822D01*
X159036411Y-107749999D01*
X159036411Y-107750000D01*
X159056754Y-108138177D01*
X159064478Y-108186945D01*
X159117562Y-108522099D01*
X159209514Y-108865270D01*
X159218169Y-108897569D01*
X159357469Y-109260456D01*
X159533940Y-109606799D01*
X159745637Y-109932785D01*
X159745641Y-109932790D01*
X159745643Y-109932793D01*
X159990266Y-110234876D01*
X160265124Y-110509734D01*
X160567207Y-110754357D01*
X160567211Y-110754359D01*
X160567214Y-110754362D01*
X160893200Y-110966059D01*
X160893205Y-110966062D01*
X161239547Y-111142532D01*
X161602438Y-111281833D01*
X161977901Y-111382438D01*
X162361824Y-111443246D01*
X162728530Y-111462463D01*
X162749999Y-111463589D01*
X162750000Y-111463589D01*
X162750001Y-111463589D01*
X162770344Y-111462522D01*
X163138176Y-111443246D01*
X163522099Y-111382438D01*
X163897562Y-111281833D01*
X164260453Y-111142532D01*
X164606795Y-110966062D01*
X164932793Y-110754357D01*
X165234876Y-110509734D01*
X165509734Y-110234876D01*
X165754357Y-109932793D01*
X165966062Y-109606795D01*
X166142532Y-109260453D01*
X166281833Y-108897562D01*
X166382438Y-108522099D01*
X166443246Y-108138176D01*
X166463589Y-107750000D01*
X166443246Y-107361824D01*
X166382438Y-106977901D01*
X166281833Y-106602438D01*
X166142532Y-106239547D01*
X165966062Y-105893206D01*
X165754357Y-105567207D01*
X165509734Y-105265124D01*
X165234876Y-104990266D01*
X164932793Y-104745643D01*
X164932790Y-104745641D01*
X164932785Y-104745637D01*
X164606799Y-104533940D01*
X164260456Y-104357469D01*
X163897569Y-104218169D01*
X163897562Y-104218167D01*
X163605839Y-104140000D01*
X174625000Y-104140000D01*
X174625000Y-116700621D01*
X174605315Y-116767660D01*
X174603050Y-116771061D01*
X174569353Y-116819879D01*
X174569348Y-116819888D01*
X174428321Y-117088590D01*
X174428321Y-117088591D01*
X174320706Y-117372344D01*
X174248081Y-117666998D01*
X174211500Y-117968261D01*
X174211500Y-122215572D01*
X174211184Y-122224418D01*
X174196951Y-122423418D01*
X174194433Y-122440930D01*
X174152970Y-122631533D01*
X174147986Y-122648509D01*
X174079812Y-122831288D01*
X174072462Y-122847380D01*
X173978983Y-123018576D01*
X173969418Y-123033461D01*
X173852512Y-123189628D01*
X173840926Y-123202998D01*
X173702998Y-123340926D01*
X173689628Y-123352512D01*
X173533461Y-123469418D01*
X173518576Y-123478983D01*
X173347380Y-123572462D01*
X173331288Y-123579812D01*
X173148509Y-123647986D01*
X173131533Y-123652970D01*
X172940930Y-123694433D01*
X172923418Y-123696951D01*
X172724418Y-123711184D01*
X172715572Y-123711500D01*
X79724428Y-123711500D01*
X79715582Y-123711184D01*
X79516581Y-123696951D01*
X79499069Y-123694433D01*
X79308466Y-123652970D01*
X79291490Y-123647986D01*
X79108711Y-123579812D01*
X79092619Y-123572462D01*
X78921423Y-123478983D01*
X78906538Y-123469418D01*
X78750371Y-123352512D01*
X78737001Y-123340926D01*
X78599073Y-123202998D01*
X78587487Y-123189628D01*
X78470581Y-123033461D01*
X78461016Y-123018576D01*
X78367537Y-122847380D01*
X78360187Y-122831288D01*
X78292010Y-122648501D01*
X78287031Y-122631542D01*
X78245565Y-122440924D01*
X78243048Y-122423418D01*
X78228816Y-122224418D01*
X78228500Y-122215572D01*
X78228500Y-113500000D01*
X91586496Y-113500000D01*
X91606458Y-113689928D01*
X91606459Y-113689931D01*
X91665470Y-113871549D01*
X91665473Y-113871556D01*
X91760960Y-114036944D01*
X91888747Y-114178866D01*
X92043248Y-114291118D01*
X92217712Y-114368794D01*
X92404513Y-114408500D01*
X92595487Y-114408500D01*
X92782288Y-114368794D01*
X92956752Y-114291118D01*
X93111253Y-114178866D01*
X93239040Y-114036944D01*
X93334527Y-113871556D01*
X93393542Y-113689928D01*
X93413504Y-113500000D01*
X95586496Y-113500000D01*
X95606458Y-113689928D01*
X95606459Y-113689931D01*
X95665470Y-113871549D01*
X95665473Y-113871556D01*
X95760960Y-114036944D01*
X95888747Y-114178866D01*
X96043248Y-114291118D01*
X96217712Y-114368794D01*
X96404513Y-114408500D01*
X96595487Y-114408500D01*
X96782288Y-114368794D01*
X96956752Y-114291118D01*
X97111253Y-114178866D01*
X97239040Y-114036944D01*
X97334527Y-113871556D01*
X97393542Y-113689928D01*
X97413504Y-113500000D01*
X97393542Y-113310072D01*
X97334527Y-113128444D01*
X97239040Y-112963056D01*
X97111253Y-112821134D01*
X96956752Y-112708882D01*
X96782288Y-112631206D01*
X96782286Y-112631205D01*
X96595487Y-112591500D01*
X96404513Y-112591500D01*
X96217714Y-112631205D01*
X96043246Y-112708883D01*
X95888745Y-112821135D01*
X95760959Y-112963057D01*
X95665473Y-113128443D01*
X95665470Y-113128450D01*
X95606459Y-113310068D01*
X95606458Y-113310072D01*
X95586496Y-113500000D01*
X93413504Y-113500000D01*
X93393542Y-113310072D01*
X93334527Y-113128444D01*
X93239040Y-112963056D01*
X93111253Y-112821134D01*
X92956752Y-112708882D01*
X92782288Y-112631206D01*
X92782286Y-112631205D01*
X92595487Y-112591500D01*
X92404513Y-112591500D01*
X92217714Y-112631205D01*
X92043246Y-112708883D01*
X91888745Y-112821135D01*
X91760959Y-112963057D01*
X91665473Y-113128443D01*
X91665470Y-113128450D01*
X91606459Y-113310068D01*
X91606458Y-113310072D01*
X91586496Y-113500000D01*
X78228500Y-113500000D01*
X78228500Y-109968261D01*
X78220353Y-109901171D01*
X78191920Y-109667004D01*
X78119295Y-109372350D01*
X78113058Y-109355904D01*
X78105000Y-109311933D01*
X78105000Y-104140000D01*
X90170000Y-104140000D01*
X90170000Y-103505000D01*
X90941601Y-103505000D01*
X90961154Y-103716013D01*
X91019151Y-103919853D01*
X91113611Y-104109554D01*
X91241324Y-104278673D01*
X91327759Y-104357468D01*
X91397935Y-104421442D01*
X91578115Y-104533005D01*
X91775726Y-104609560D01*
X91984039Y-104648500D01*
X91984042Y-104648500D01*
X92195958Y-104648500D01*
X92195961Y-104648500D01*
X92404274Y-104609560D01*
X92601885Y-104533005D01*
X92782065Y-104421442D01*
X92938677Y-104278671D01*
X93066389Y-104109554D01*
X93160850Y-103919850D01*
X93218845Y-103716018D01*
X93238399Y-103505000D01*
X93218845Y-103293982D01*
X93160850Y-103090150D01*
X93066389Y-102900446D01*
X93005118Y-102819311D01*
X92938675Y-102731326D01*
X92782066Y-102588559D01*
X92782065Y-102588558D01*
X92713449Y-102546072D01*
X92601886Y-102476995D01*
X92601884Y-102476994D01*
X92457392Y-102421018D01*
X92404274Y-102400440D01*
X92195961Y-102361500D01*
X91984039Y-102361500D01*
X91775726Y-102400440D01*
X91775723Y-102400440D01*
X91775723Y-102400441D01*
X91578115Y-102476994D01*
X91578113Y-102476995D01*
X91397933Y-102588559D01*
X91241324Y-102731326D01*
X91113611Y-102900445D01*
X91019151Y-103090146D01*
X90961154Y-103293986D01*
X90941601Y-103504999D01*
X90941601Y-103505000D01*
X90170000Y-103505000D01*
X90170000Y-99695000D01*
X90941601Y-99695000D01*
X90961154Y-99906013D01*
X90961154Y-99906015D01*
X90961155Y-99906018D01*
X91008650Y-100072946D01*
X91019151Y-100109853D01*
X91113611Y-100299554D01*
X91241324Y-100468673D01*
X91376052Y-100591493D01*
X91397935Y-100611442D01*
X91535167Y-100696412D01*
X91577213Y-100722447D01*
X91578115Y-100723005D01*
X91775726Y-100799560D01*
X91984039Y-100838500D01*
X91984042Y-100838500D01*
X92195958Y-100838500D01*
X92195961Y-100838500D01*
X92404274Y-100799560D01*
X92601885Y-100723005D01*
X92782065Y-100611442D01*
X92938677Y-100468671D01*
X93066389Y-100299554D01*
X93160850Y-100109850D01*
X93218845Y-99906018D01*
X93238399Y-99695000D01*
X93218845Y-99483982D01*
X93160850Y-99280150D01*
X93066389Y-99090446D01*
X92938677Y-98921329D01*
X92938675Y-98921326D01*
X92782066Y-98778559D01*
X92782065Y-98778558D01*
X92713449Y-98736072D01*
X92601886Y-98666995D01*
X92601884Y-98666994D01*
X92457392Y-98611018D01*
X92404274Y-98590440D01*
X92195961Y-98551500D01*
X91984039Y-98551500D01*
X91775726Y-98590440D01*
X91775723Y-98590440D01*
X91775723Y-98590441D01*
X91578115Y-98666994D01*
X91578113Y-98666995D01*
X91397933Y-98778559D01*
X91241324Y-98921326D01*
X91113611Y-99090445D01*
X91019151Y-99280146D01*
X90961154Y-99483986D01*
X90941601Y-99694999D01*
X90941601Y-99695000D01*
X90170000Y-99695000D01*
X90170000Y-96314741D01*
X110334500Y-96314741D01*
X110359446Y-96504215D01*
X110364452Y-96542238D01*
X110364453Y-96542240D01*
X110423842Y-96763887D01*
X110511650Y-96975876D01*
X110511657Y-96975890D01*
X110626392Y-97174617D01*
X110766081Y-97356661D01*
X110766089Y-97356670D01*
X110928330Y-97518911D01*
X110928338Y-97518918D01*
X111110382Y-97658607D01*
X111110385Y-97658608D01*
X111110388Y-97658611D01*
X111309112Y-97773344D01*
X111309117Y-97773346D01*
X111309123Y-97773349D01*
X111400480Y-97811190D01*
X111521113Y-97861158D01*
X111742762Y-97920548D01*
X111970266Y-97950500D01*
X111970273Y-97950500D01*
X112199727Y-97950500D01*
X112199734Y-97950500D01*
X112427238Y-97920548D01*
X112648887Y-97861158D01*
X112860888Y-97773344D01*
X113059612Y-97658611D01*
X113241661Y-97518919D01*
X113241665Y-97518914D01*
X113241670Y-97518911D01*
X113403911Y-97356670D01*
X113403914Y-97356665D01*
X113403919Y-97356661D01*
X113543611Y-97174612D01*
X113658344Y-96975888D01*
X113746158Y-96763887D01*
X113805548Y-96542238D01*
X113835500Y-96314734D01*
X113835500Y-96085266D01*
X113805548Y-95857762D01*
X113746158Y-95636113D01*
X113658344Y-95424112D01*
X113543611Y-95225388D01*
X113543608Y-95225385D01*
X113543607Y-95225382D01*
X113403918Y-95043338D01*
X113403911Y-95043330D01*
X113241670Y-94881089D01*
X113241661Y-94881081D01*
X113059617Y-94741392D01*
X112860890Y-94626657D01*
X112860876Y-94626650D01*
X112648887Y-94538842D01*
X112427238Y-94479452D01*
X112389215Y-94474446D01*
X112199741Y-94449500D01*
X112199734Y-94449500D01*
X111970266Y-94449500D01*
X111970258Y-94449500D01*
X111753715Y-94478009D01*
X111742762Y-94479452D01*
X111649076Y-94504554D01*
X111521112Y-94538842D01*
X111309123Y-94626650D01*
X111309109Y-94626657D01*
X111110382Y-94741392D01*
X110928338Y-94881081D01*
X110766081Y-95043338D01*
X110626392Y-95225382D01*
X110511657Y-95424109D01*
X110511650Y-95424123D01*
X110423842Y-95636112D01*
X110364453Y-95857759D01*
X110364451Y-95857770D01*
X110334500Y-96085258D01*
X110334500Y-96314741D01*
X90170000Y-96314741D01*
X90170000Y-93980000D01*
X117475000Y-93980000D01*
X117475000Y-104140000D01*
G37*
%TD.AperFunction*%
%TD*%
%TA.AperFunction,Conductor*%
%TO.N,+12V*%
G36*
X172724487Y-56528821D02*
G01*
X172768071Y-56531938D01*
X172923281Y-56543038D01*
X172941054Y-56545593D01*
X173131411Y-56587003D01*
X173148633Y-56592060D01*
X173331152Y-56660136D01*
X173347501Y-56667603D01*
X173518458Y-56760952D01*
X173533582Y-56770672D01*
X173689513Y-56887401D01*
X173703099Y-56899174D01*
X173840825Y-57036900D01*
X173852598Y-57050486D01*
X173969327Y-57206417D01*
X173979047Y-57221541D01*
X174072396Y-57392498D01*
X174079864Y-57408850D01*
X174147937Y-57591359D01*
X174152998Y-57608597D01*
X174194403Y-57798933D01*
X174196961Y-57816721D01*
X174211179Y-58015511D01*
X174211500Y-58024500D01*
X174211500Y-70271739D01*
X174248079Y-70572992D01*
X174248081Y-70573002D01*
X174290450Y-70744900D01*
X174320705Y-70867650D01*
X174332917Y-70899850D01*
X174428316Y-71151398D01*
X174428323Y-71151414D01*
X174569347Y-71420111D01*
X174569353Y-71420121D01*
X174602695Y-71468424D01*
X174624932Y-71535848D01*
X174625000Y-71540001D01*
X174625000Y-104140000D01*
X163605841Y-104140000D01*
X163522097Y-104117561D01*
X163138167Y-104056752D01*
X162750006Y-104036411D01*
X162749994Y-104036411D01*
X162361832Y-104056752D01*
X161977902Y-104117561D01*
X161894158Y-104140000D01*
X117475000Y-104140000D01*
X117475000Y-99060000D01*
X123096844Y-99060000D01*
X123115086Y-99280150D01*
X123115437Y-99284375D01*
X123170702Y-99502612D01*
X123170703Y-99502613D01*
X123261141Y-99708793D01*
X123384275Y-99897265D01*
X123384279Y-99897270D01*
X123536762Y-100062908D01*
X123549655Y-100072943D01*
X123714424Y-100201189D01*
X123912426Y-100308342D01*
X123912427Y-100308342D01*
X123912428Y-100308343D01*
X124024227Y-100346723D01*
X124125365Y-100381444D01*
X124347431Y-100418500D01*
X124347435Y-100418500D01*
X124572565Y-100418500D01*
X124572569Y-100418500D01*
X124794635Y-100381444D01*
X125007574Y-100308342D01*
X125205576Y-100201189D01*
X125383240Y-100062906D01*
X125535722Y-99897268D01*
X125658860Y-99708791D01*
X125749296Y-99502616D01*
X125804564Y-99284368D01*
X125823156Y-99060000D01*
X128163198Y-99060000D01*
X128181790Y-99284375D01*
X128181977Y-99286621D01*
X128237795Y-99507043D01*
X128237798Y-99507050D01*
X128329138Y-99715284D01*
X128448035Y-99897270D01*
X128453510Y-99905649D01*
X128453850Y-99906018D01*
X128598274Y-100062906D01*
X128607517Y-100072946D01*
X128786961Y-100212612D01*
X128786963Y-100212613D01*
X128786966Y-100212615D01*
X128986941Y-100320837D01*
X128986945Y-100320839D01*
X129022097Y-100332906D01*
X129080031Y-100373941D01*
X129106584Y-100439785D01*
X129093324Y-100509533D01*
X129044460Y-100561039D01*
X129038389Y-100564345D01*
X128937005Y-100616004D01*
X128790496Y-100722449D01*
X128790493Y-100722451D01*
X128662451Y-100850493D01*
X128662449Y-100850496D01*
X128556006Y-100997002D01*
X128473790Y-101158359D01*
X128473787Y-101158365D01*
X128417830Y-101330587D01*
X128417829Y-101330591D01*
X128389500Y-101509454D01*
X128389500Y-101690546D01*
X128417829Y-101869409D01*
X128473789Y-102041639D01*
X128556004Y-102202994D01*
X128662447Y-102349501D01*
X128662449Y-102349503D01*
X128662451Y-102349506D01*
X128790493Y-102477548D01*
X128790496Y-102477550D01*
X128790499Y-102477553D01*
X128937006Y-102583996D01*
X129098361Y-102666211D01*
X129270591Y-102722171D01*
X129449454Y-102750500D01*
X129449457Y-102750500D01*
X129630543Y-102750500D01*
X129630546Y-102750500D01*
X129809409Y-102722171D01*
X129981639Y-102666211D01*
X130142994Y-102583996D01*
X130289501Y-102477553D01*
X130417553Y-102349501D01*
X130523996Y-102202994D01*
X130606211Y-102041639D01*
X130662171Y-101869409D01*
X130690500Y-101690546D01*
X130690500Y-101509454D01*
X130662171Y-101330591D01*
X130606211Y-101158361D01*
X130523996Y-100997006D01*
X130417553Y-100850499D01*
X130417550Y-100850496D01*
X130417548Y-100850493D01*
X130289506Y-100722451D01*
X130289503Y-100722449D01*
X130289501Y-100722447D01*
X130142994Y-100616004D01*
X130134041Y-100611442D01*
X130041610Y-100564345D01*
X129989995Y-100515597D01*
X129972930Y-100446682D01*
X129995831Y-100379480D01*
X130051429Y-100335328D01*
X130057875Y-100332916D01*
X130093055Y-100320839D01*
X130293039Y-100212612D01*
X130472483Y-100072946D01*
X130626490Y-99905649D01*
X130750861Y-99715285D01*
X130842203Y-99507047D01*
X130898024Y-99286614D01*
X130916802Y-99060000D01*
X143403198Y-99060000D01*
X143421790Y-99284375D01*
X143421977Y-99286621D01*
X143477795Y-99507043D01*
X143477798Y-99507050D01*
X143569138Y-99715284D01*
X143688035Y-99897270D01*
X143693510Y-99905649D01*
X143693850Y-99906018D01*
X143838274Y-100062906D01*
X143847517Y-100072946D01*
X144026961Y-100212612D01*
X144026963Y-100212613D01*
X144026966Y-100212615D01*
X144226941Y-100320837D01*
X144226945Y-100320839D01*
X144262097Y-100332906D01*
X144320031Y-100373941D01*
X144346584Y-100439785D01*
X144333324Y-100509533D01*
X144284460Y-100561039D01*
X144278389Y-100564345D01*
X144177005Y-100616004D01*
X144030496Y-100722449D01*
X144030493Y-100722451D01*
X143902451Y-100850493D01*
X143902449Y-100850496D01*
X143796006Y-100997002D01*
X143713790Y-101158359D01*
X143713787Y-101158365D01*
X143657830Y-101330587D01*
X143657829Y-101330591D01*
X143629500Y-101509454D01*
X143629500Y-101690546D01*
X143657829Y-101869409D01*
X143713789Y-102041639D01*
X143796004Y-102202994D01*
X143902447Y-102349501D01*
X143902449Y-102349503D01*
X143902451Y-102349506D01*
X144030493Y-102477548D01*
X144030496Y-102477550D01*
X144030499Y-102477553D01*
X144177006Y-102583996D01*
X144338361Y-102666211D01*
X144510591Y-102722171D01*
X144689454Y-102750500D01*
X144689457Y-102750500D01*
X144870543Y-102750500D01*
X144870546Y-102750500D01*
X145049409Y-102722171D01*
X145221639Y-102666211D01*
X145382994Y-102583996D01*
X145529501Y-102477553D01*
X145657553Y-102349501D01*
X145763996Y-102202994D01*
X145846211Y-102041639D01*
X145902171Y-101869409D01*
X145930500Y-101690546D01*
X145930500Y-101509454D01*
X145902171Y-101330591D01*
X145846211Y-101158361D01*
X145763996Y-100997006D01*
X145657553Y-100850499D01*
X145657550Y-100850496D01*
X145657548Y-100850493D01*
X145529506Y-100722451D01*
X145529503Y-100722449D01*
X145529501Y-100722447D01*
X145382994Y-100616004D01*
X145374041Y-100611442D01*
X145281610Y-100564345D01*
X145229995Y-100515597D01*
X145212930Y-100446682D01*
X145235831Y-100379480D01*
X145291429Y-100335328D01*
X145297875Y-100332916D01*
X145333055Y-100320839D01*
X145533039Y-100212612D01*
X145712483Y-100072946D01*
X145866490Y-99905649D01*
X145990861Y-99715285D01*
X146082203Y-99507047D01*
X146138024Y-99286614D01*
X146156802Y-99060000D01*
X148496844Y-99060000D01*
X148515086Y-99280150D01*
X148515437Y-99284375D01*
X148570702Y-99502612D01*
X148570703Y-99502613D01*
X148661141Y-99708793D01*
X148784275Y-99897265D01*
X148784279Y-99897270D01*
X148936762Y-100062908D01*
X148949655Y-100072943D01*
X149114424Y-100201189D01*
X149312426Y-100308342D01*
X149312427Y-100308342D01*
X149312428Y-100308343D01*
X149424227Y-100346723D01*
X149525365Y-100381444D01*
X149747431Y-100418500D01*
X149747435Y-100418500D01*
X149972565Y-100418500D01*
X149972569Y-100418500D01*
X150194635Y-100381444D01*
X150407574Y-100308342D01*
X150605576Y-100201189D01*
X150783240Y-100062906D01*
X150935722Y-99897268D01*
X151058860Y-99708791D01*
X151149296Y-99502616D01*
X151204564Y-99284368D01*
X151223156Y-99060000D01*
X151204564Y-98835632D01*
X151149296Y-98617384D01*
X151058860Y-98411209D01*
X151052140Y-98400924D01*
X150935724Y-98222734D01*
X150935720Y-98222729D01*
X150783237Y-98057091D01*
X150701382Y-97993381D01*
X150605576Y-97918811D01*
X150572319Y-97900813D01*
X150521929Y-97850802D01*
X150506576Y-97781485D01*
X150531136Y-97714872D01*
X150572320Y-97679186D01*
X150572322Y-97679185D01*
X150605576Y-97661189D01*
X150783240Y-97522906D01*
X150935722Y-97357268D01*
X151058860Y-97168791D01*
X151149296Y-96962616D01*
X151204564Y-96744368D01*
X151223156Y-96520000D01*
X151204564Y-96295632D01*
X151149296Y-96077384D01*
X151058860Y-95871209D01*
X151050075Y-95857762D01*
X150935724Y-95682734D01*
X150935720Y-95682729D01*
X150783237Y-95517091D01*
X150663778Y-95424112D01*
X150605576Y-95378811D01*
X150572319Y-95360813D01*
X150521929Y-95310802D01*
X150506576Y-95241485D01*
X150531136Y-95174872D01*
X150572320Y-95139186D01*
X150572322Y-95139185D01*
X150605576Y-95121189D01*
X150783240Y-94982906D01*
X150935722Y-94817268D01*
X151058860Y-94628791D01*
X151149296Y-94422616D01*
X151204564Y-94204368D01*
X151223156Y-93980000D01*
X151204564Y-93755632D01*
X151149296Y-93537384D01*
X151058860Y-93331209D01*
X151052140Y-93320924D01*
X150935724Y-93142734D01*
X150935720Y-93142729D01*
X150783237Y-92977091D01*
X150701382Y-92913381D01*
X150605576Y-92838811D01*
X150572319Y-92820813D01*
X150521929Y-92770802D01*
X150506576Y-92701485D01*
X150531136Y-92634872D01*
X150572320Y-92599186D01*
X150572322Y-92599185D01*
X150605576Y-92581189D01*
X150783240Y-92442906D01*
X150935722Y-92277268D01*
X151058860Y-92088791D01*
X151149296Y-91882616D01*
X151204564Y-91664368D01*
X151223156Y-91440000D01*
X151204564Y-91215632D01*
X151149296Y-90997384D01*
X151058860Y-90791209D01*
X150969495Y-90654425D01*
X150935724Y-90602734D01*
X150935720Y-90602729D01*
X150783237Y-90437091D01*
X150657011Y-90338845D01*
X150605576Y-90298811D01*
X150572319Y-90280813D01*
X150521929Y-90230802D01*
X150506576Y-90161485D01*
X150531136Y-90094872D01*
X150572320Y-90059186D01*
X150572322Y-90059185D01*
X150605576Y-90041189D01*
X150783240Y-89902906D01*
X150935722Y-89737268D01*
X151058860Y-89548791D01*
X151149296Y-89342616D01*
X151204564Y-89124368D01*
X151223156Y-88900000D01*
X151204564Y-88675632D01*
X151149296Y-88457384D01*
X151058860Y-88251209D01*
X151052140Y-88240924D01*
X150935724Y-88062734D01*
X150935720Y-88062729D01*
X150783237Y-87897091D01*
X150701382Y-87833381D01*
X150605576Y-87758811D01*
X150572319Y-87740813D01*
X150521929Y-87690802D01*
X150506576Y-87621485D01*
X150531136Y-87554872D01*
X150572320Y-87519186D01*
X150572322Y-87519185D01*
X150605576Y-87501189D01*
X150783240Y-87362906D01*
X150935722Y-87197268D01*
X151058860Y-87008791D01*
X151149296Y-86802616D01*
X151204564Y-86584368D01*
X151223156Y-86360000D01*
X151204564Y-86135632D01*
X151149296Y-85917384D01*
X151058860Y-85711209D01*
X151052140Y-85700924D01*
X150935724Y-85522734D01*
X150935720Y-85522729D01*
X150783237Y-85357091D01*
X150677945Y-85275139D01*
X150605576Y-85218811D01*
X150572319Y-85200813D01*
X150521929Y-85150802D01*
X150506576Y-85081485D01*
X150531136Y-85014872D01*
X150572320Y-84979186D01*
X150572322Y-84979185D01*
X150605576Y-84961189D01*
X150783240Y-84822906D01*
X150935722Y-84657268D01*
X151058860Y-84468791D01*
X151149296Y-84262616D01*
X151204564Y-84044368D01*
X151223156Y-83820000D01*
X151204564Y-83595632D01*
X151203993Y-83593378D01*
X151149297Y-83377387D01*
X151149296Y-83377386D01*
X151149296Y-83377384D01*
X151058860Y-83171209D01*
X150990591Y-83066715D01*
X150935724Y-82982734D01*
X150935720Y-82982729D01*
X150783237Y-82817091D01*
X150681539Y-82737936D01*
X150605576Y-82678811D01*
X150572319Y-82660813D01*
X150521929Y-82610802D01*
X150506576Y-82541485D01*
X150531136Y-82474872D01*
X150572320Y-82439186D01*
X150572322Y-82439185D01*
X150605576Y-82421189D01*
X150783240Y-82282906D01*
X150935722Y-82117268D01*
X151058860Y-81928791D01*
X151149296Y-81722616D01*
X151204564Y-81504368D01*
X151223156Y-81280000D01*
X151204564Y-81055632D01*
X151199704Y-81036439D01*
X151149297Y-80837387D01*
X151149296Y-80837386D01*
X151149296Y-80837384D01*
X151058860Y-80631209D01*
X151020673Y-80572759D01*
X150935724Y-80442734D01*
X150935720Y-80442729D01*
X150783237Y-80277091D01*
X150701382Y-80213381D01*
X150605576Y-80138811D01*
X150572319Y-80120813D01*
X150521929Y-80070802D01*
X150506576Y-80001485D01*
X150531136Y-79934872D01*
X150572320Y-79899186D01*
X150572322Y-79899185D01*
X150605576Y-79881189D01*
X150783240Y-79742906D01*
X150935722Y-79577268D01*
X151058860Y-79388791D01*
X151149296Y-79182616D01*
X151204564Y-78964368D01*
X151223156Y-78740000D01*
X151204564Y-78515632D01*
X151159326Y-78336990D01*
X151149297Y-78297387D01*
X151149296Y-78297386D01*
X151149296Y-78297384D01*
X151058860Y-78091209D01*
X151004335Y-78007752D01*
X150935724Y-77902734D01*
X150935720Y-77902729D01*
X150799748Y-77755026D01*
X150783240Y-77737094D01*
X150783239Y-77737093D01*
X150783237Y-77737091D01*
X150674059Y-77652114D01*
X150605576Y-77598811D01*
X150572319Y-77580813D01*
X150521929Y-77530802D01*
X150506576Y-77461485D01*
X150531136Y-77394872D01*
X150572320Y-77359186D01*
X150572322Y-77359185D01*
X150605576Y-77341189D01*
X150783240Y-77202906D01*
X150935722Y-77037268D01*
X150953176Y-77010552D01*
X155651499Y-77010552D01*
X155662112Y-77114421D01*
X155662112Y-77114423D01*
X155662113Y-77114425D01*
X155717885Y-77282738D01*
X155802507Y-77419930D01*
X155810970Y-77433651D01*
X155810975Y-77433657D01*
X155936342Y-77559024D01*
X155936348Y-77559029D01*
X155936349Y-77559030D01*
X156087262Y-77652115D01*
X156255575Y-77707887D01*
X156283906Y-77710781D01*
X156359448Y-77718500D01*
X156359456Y-77718500D01*
X157460552Y-77718500D01*
X157529798Y-77711424D01*
X157564425Y-77707887D01*
X157732738Y-77652115D01*
X157883651Y-77559030D01*
X158009030Y-77433651D01*
X158102115Y-77282738D01*
X158102651Y-77281117D01*
X158103319Y-77280154D01*
X158105215Y-77276088D01*
X158105909Y-77276411D01*
X158143059Y-77222747D01*
X158208613Y-77195486D01*
X158278499Y-77207994D01*
X158330529Y-77256299D01*
X158331376Y-77257745D01*
X158438476Y-77443247D01*
X158579394Y-77626893D01*
X158579411Y-77626913D01*
X158743086Y-77790588D01*
X158743106Y-77790605D01*
X158926752Y-77931523D01*
X159127230Y-78047269D01*
X159127240Y-78047274D01*
X159341120Y-78135866D01*
X159341119Y-78135866D01*
X159402000Y-78152178D01*
X159402000Y-76274607D01*
X159434755Y-76396853D01*
X159501898Y-76513147D01*
X159596853Y-76608102D01*
X159713147Y-76675245D01*
X159842857Y-76710000D01*
X159977143Y-76710000D01*
X160106853Y-76675245D01*
X160223147Y-76608102D01*
X160318102Y-76513147D01*
X160385245Y-76396853D01*
X160418000Y-76274607D01*
X160418000Y-78152178D01*
X160478879Y-78135866D01*
X160692759Y-78047274D01*
X160692769Y-78047269D01*
X160893247Y-77931523D01*
X161076893Y-77790605D01*
X161076913Y-77790588D01*
X161240588Y-77626913D01*
X161240605Y-77626893D01*
X161381523Y-77443247D01*
X161497269Y-77242769D01*
X161497274Y-77242759D01*
X161571647Y-77063207D01*
X161616195Y-77007926D01*
X161683558Y-76985505D01*
X161752350Y-77003063D01*
X161800322Y-77054221D01*
X161833634Y-77119598D01*
X161950071Y-77279860D01*
X162090139Y-77419928D01*
X162170780Y-77478517D01*
X162250402Y-77536366D01*
X162426903Y-77626298D01*
X162615300Y-77687512D01*
X162810954Y-77718500D01*
X162810957Y-77718500D01*
X163009043Y-77718500D01*
X163009046Y-77718500D01*
X163204700Y-77687512D01*
X163393097Y-77626298D01*
X163569598Y-77536366D01*
X163729858Y-77419930D01*
X163869930Y-77279858D01*
X163986366Y-77119598D01*
X164019676Y-77054222D01*
X164068424Y-77002607D01*
X164137339Y-76985541D01*
X164204540Y-77008441D01*
X164248352Y-77063207D01*
X164322725Y-77242759D01*
X164322730Y-77242769D01*
X164438476Y-77443247D01*
X164579394Y-77626893D01*
X164579411Y-77626913D01*
X164743086Y-77790588D01*
X164743106Y-77790605D01*
X164926752Y-77931523D01*
X165127230Y-78047269D01*
X165127240Y-78047274D01*
X165341120Y-78135866D01*
X165341119Y-78135866D01*
X165402000Y-78152178D01*
X165402000Y-76274607D01*
X165434755Y-76396853D01*
X165501898Y-76513147D01*
X165596853Y-76608102D01*
X165713147Y-76675245D01*
X165842857Y-76710000D01*
X165977143Y-76710000D01*
X166106853Y-76675245D01*
X166223147Y-76608102D01*
X166318102Y-76513147D01*
X166385245Y-76396853D01*
X166418000Y-76274607D01*
X166418000Y-78152178D01*
X166478879Y-78135866D01*
X166692759Y-78047274D01*
X166692769Y-78047269D01*
X166893247Y-77931523D01*
X167076893Y-77790605D01*
X167076913Y-77790588D01*
X167240588Y-77626913D01*
X167240605Y-77626893D01*
X167381523Y-77443247D01*
X167497269Y-77242769D01*
X167497274Y-77242759D01*
X167571647Y-77063207D01*
X167616195Y-77007926D01*
X167683558Y-76985505D01*
X167752350Y-77003063D01*
X167800322Y-77054221D01*
X167833634Y-77119598D01*
X167950071Y-77279860D01*
X168090139Y-77419928D01*
X168170780Y-77478517D01*
X168250402Y-77536366D01*
X168426903Y-77626298D01*
X168615300Y-77687512D01*
X168810954Y-77718500D01*
X168810957Y-77718500D01*
X169009043Y-77718500D01*
X169009046Y-77718500D01*
X169204700Y-77687512D01*
X169393097Y-77626298D01*
X169569598Y-77536366D01*
X169729858Y-77419930D01*
X169869930Y-77279858D01*
X169986366Y-77119598D01*
X170076298Y-76943097D01*
X170137512Y-76754700D01*
X170168500Y-76559046D01*
X170168500Y-75840954D01*
X170137512Y-75645300D01*
X170076298Y-75456903D01*
X169986366Y-75280402D01*
X169918545Y-75187054D01*
X169869928Y-75120139D01*
X169729860Y-74980071D01*
X169569601Y-74863636D01*
X169569600Y-74863635D01*
X169569598Y-74863634D01*
X169393097Y-74773702D01*
X169204700Y-74712488D01*
X169009046Y-74681500D01*
X168810954Y-74681500D01*
X168615300Y-74712488D01*
X168615297Y-74712488D01*
X168615296Y-74712489D01*
X168426903Y-74773702D01*
X168426901Y-74773703D01*
X168250398Y-74863636D01*
X168090139Y-74980071D01*
X167950071Y-75120139D01*
X167833634Y-75280401D01*
X167800322Y-75345778D01*
X167751573Y-75397393D01*
X167682658Y-75414458D01*
X167615457Y-75391556D01*
X167571647Y-75336792D01*
X167497274Y-75157240D01*
X167497269Y-75157230D01*
X167381523Y-74956752D01*
X167240605Y-74773106D01*
X167240588Y-74773086D01*
X167076913Y-74609411D01*
X167076893Y-74609394D01*
X166893247Y-74468476D01*
X166692769Y-74352730D01*
X166692759Y-74352725D01*
X166631170Y-74327214D01*
X171024500Y-74327214D01*
X171058529Y-74498291D01*
X171125280Y-74659442D01*
X171222187Y-74804474D01*
X171345526Y-74927813D01*
X171490558Y-75024720D01*
X171651709Y-75091471D01*
X171822786Y-75125500D01*
X171822787Y-75125500D01*
X171997213Y-75125500D01*
X171997214Y-75125500D01*
X172168291Y-75091471D01*
X172329442Y-75024720D01*
X172474474Y-74927813D01*
X172597813Y-74804474D01*
X172694720Y-74659442D01*
X172761471Y-74498291D01*
X172795500Y-74327214D01*
X172795500Y-74152786D01*
X172761471Y-73981709D01*
X172694720Y-73820558D01*
X172597813Y-73675526D01*
X172474474Y-73552187D01*
X172329442Y-73455280D01*
X172168291Y-73388529D01*
X171997216Y-73354500D01*
X171997214Y-73354500D01*
X171822786Y-73354500D01*
X171822783Y-73354500D01*
X171651708Y-73388529D01*
X171651703Y-73388531D01*
X171490557Y-73455280D01*
X171345530Y-73552184D01*
X171345523Y-73552189D01*
X171222189Y-73675523D01*
X171222184Y-73675530D01*
X171125280Y-73820557D01*
X171058531Y-73981703D01*
X171058529Y-73981708D01*
X171024500Y-74152783D01*
X171024500Y-74152786D01*
X171024500Y-74327214D01*
X166631170Y-74327214D01*
X166478879Y-74264133D01*
X166478864Y-74264128D01*
X166418001Y-74247819D01*
X166418000Y-74247820D01*
X166418000Y-76125392D01*
X166385245Y-76003147D01*
X166318102Y-75886853D01*
X166223147Y-75791898D01*
X166106853Y-75724755D01*
X165977143Y-75690000D01*
X165842857Y-75690000D01*
X165713147Y-75724755D01*
X165596853Y-75791898D01*
X165501898Y-75886853D01*
X165434755Y-76003147D01*
X165402000Y-76125392D01*
X165402000Y-74247820D01*
X165401998Y-74247819D01*
X165341135Y-74264128D01*
X165341120Y-74264133D01*
X165127240Y-74352725D01*
X165127230Y-74352730D01*
X164926752Y-74468476D01*
X164743106Y-74609394D01*
X164743086Y-74609411D01*
X164579411Y-74773086D01*
X164579394Y-74773106D01*
X164438476Y-74956752D01*
X164322730Y-75157230D01*
X164322724Y-75157240D01*
X164248352Y-75336792D01*
X164203803Y-75392073D01*
X164136440Y-75414494D01*
X164067649Y-75396936D01*
X164019676Y-75345777D01*
X164015098Y-75336792D01*
X163986366Y-75280402D01*
X163912182Y-75178296D01*
X163869928Y-75120139D01*
X163729860Y-74980071D01*
X163569601Y-74863636D01*
X163569600Y-74863635D01*
X163569598Y-74863634D01*
X163393097Y-74773702D01*
X163204700Y-74712488D01*
X163009046Y-74681500D01*
X162810954Y-74681500D01*
X162615300Y-74712488D01*
X162615297Y-74712488D01*
X162615296Y-74712489D01*
X162426903Y-74773702D01*
X162426901Y-74773703D01*
X162250398Y-74863636D01*
X162090139Y-74980071D01*
X161950071Y-75120139D01*
X161833634Y-75280401D01*
X161800322Y-75345778D01*
X161751573Y-75397393D01*
X161682658Y-75414458D01*
X161615457Y-75391556D01*
X161571647Y-75336792D01*
X161497274Y-75157240D01*
X161497269Y-75157230D01*
X161381523Y-74956752D01*
X161240605Y-74773106D01*
X161240588Y-74773086D01*
X161076913Y-74609411D01*
X161076893Y-74609394D01*
X160893247Y-74468476D01*
X160692769Y-74352730D01*
X160692759Y-74352725D01*
X160478879Y-74264133D01*
X160478864Y-74264128D01*
X160418001Y-74247819D01*
X160418000Y-74247820D01*
X160418000Y-76125392D01*
X160385245Y-76003147D01*
X160318102Y-75886853D01*
X160223147Y-75791898D01*
X160106853Y-75724755D01*
X159977143Y-75690000D01*
X159842857Y-75690000D01*
X159713147Y-75724755D01*
X159596853Y-75791898D01*
X159501898Y-75886853D01*
X159434755Y-76003147D01*
X159402000Y-76125392D01*
X159402000Y-74247820D01*
X159401998Y-74247819D01*
X159341135Y-74264128D01*
X159341120Y-74264133D01*
X159127240Y-74352725D01*
X159127230Y-74352730D01*
X158926752Y-74468476D01*
X158743106Y-74609394D01*
X158743086Y-74609411D01*
X158579411Y-74773086D01*
X158579394Y-74773106D01*
X158438478Y-74956749D01*
X158331376Y-75142255D01*
X158279993Y-75191248D01*
X158210279Y-75204683D01*
X158144368Y-75178296D01*
X158105535Y-75123762D01*
X158105215Y-75123912D01*
X158104404Y-75122173D01*
X158103187Y-75120464D01*
X158102651Y-75118881D01*
X158102115Y-75117262D01*
X158009030Y-74966349D01*
X158009029Y-74966348D01*
X158009024Y-74966342D01*
X157883657Y-74840975D01*
X157883651Y-74840970D01*
X157732738Y-74747885D01*
X157564425Y-74692113D01*
X157564423Y-74692112D01*
X157564421Y-74692112D01*
X157460552Y-74681500D01*
X157460544Y-74681500D01*
X156359456Y-74681500D01*
X156359448Y-74681500D01*
X156255578Y-74692112D01*
X156087262Y-74747885D01*
X156087260Y-74747886D01*
X155936348Y-74840970D01*
X155936342Y-74840975D01*
X155810975Y-74966342D01*
X155810970Y-74966348D01*
X155717886Y-75117260D01*
X155717885Y-75117262D01*
X155662112Y-75285578D01*
X155651500Y-75389447D01*
X155651500Y-77010552D01*
X155651499Y-77010552D01*
X150953176Y-77010552D01*
X151058860Y-76848791D01*
X151149296Y-76642616D01*
X151204564Y-76424368D01*
X151223156Y-76200000D01*
X151204564Y-75975632D01*
X151149296Y-75757384D01*
X151058860Y-75551209D01*
X151016780Y-75486801D01*
X150935724Y-75362734D01*
X150935720Y-75362729D01*
X150783237Y-75197091D01*
X150689024Y-75123762D01*
X150605576Y-75058811D01*
X150572319Y-75040813D01*
X150521929Y-74990802D01*
X150506576Y-74921485D01*
X150531136Y-74854872D01*
X150572320Y-74819186D01*
X150572322Y-74819185D01*
X150605576Y-74801189D01*
X150783240Y-74662906D01*
X150935722Y-74497268D01*
X151046824Y-74327214D01*
X153024500Y-74327214D01*
X153058529Y-74498291D01*
X153125280Y-74659442D01*
X153222187Y-74804474D01*
X153345526Y-74927813D01*
X153490558Y-75024720D01*
X153651709Y-75091471D01*
X153822786Y-75125500D01*
X153822787Y-75125500D01*
X153997213Y-75125500D01*
X153997214Y-75125500D01*
X154168291Y-75091471D01*
X154329442Y-75024720D01*
X154474474Y-74927813D01*
X154597813Y-74804474D01*
X154694720Y-74659442D01*
X154761471Y-74498291D01*
X154795500Y-74327214D01*
X154795500Y-74152786D01*
X154761471Y-73981709D01*
X154694720Y-73820558D01*
X154597813Y-73675526D01*
X154474474Y-73552187D01*
X154329442Y-73455280D01*
X154168291Y-73388529D01*
X153997216Y-73354500D01*
X153997214Y-73354500D01*
X153822786Y-73354500D01*
X153822783Y-73354500D01*
X153651708Y-73388529D01*
X153651703Y-73388531D01*
X153490557Y-73455280D01*
X153345530Y-73552184D01*
X153345523Y-73552189D01*
X153222189Y-73675523D01*
X153222184Y-73675530D01*
X153125280Y-73820557D01*
X153058531Y-73981703D01*
X153058529Y-73981708D01*
X153024500Y-74152783D01*
X153024500Y-74152786D01*
X153024500Y-74327214D01*
X151046824Y-74327214D01*
X151058860Y-74308791D01*
X151149296Y-74102616D01*
X151204564Y-73884368D01*
X151223156Y-73660000D01*
X151204564Y-73435632D01*
X151149296Y-73217384D01*
X151058860Y-73011209D01*
X151052140Y-73000924D01*
X150935724Y-72822734D01*
X150935720Y-72822729D01*
X150783237Y-72657091D01*
X150635028Y-72541735D01*
X150605576Y-72518811D01*
X150598720Y-72515101D01*
X150572320Y-72500814D01*
X150521929Y-72450802D01*
X150506576Y-72381485D01*
X150531136Y-72314872D01*
X150572320Y-72279186D01*
X150572322Y-72279185D01*
X150605576Y-72261189D01*
X150783240Y-72122906D01*
X150935722Y-71957268D01*
X151058860Y-71768791D01*
X151149296Y-71562616D01*
X151204564Y-71344368D01*
X151223156Y-71120000D01*
X151204564Y-70895632D01*
X151197477Y-70867647D01*
X151149297Y-70677387D01*
X151149296Y-70677386D01*
X151149296Y-70677384D01*
X151064911Y-70485004D01*
X162681601Y-70485004D01*
X162701154Y-70696016D01*
X162757949Y-70895632D01*
X162759150Y-70899850D01*
X162853611Y-71089554D01*
X162876599Y-71119995D01*
X162981324Y-71258673D01*
X163137933Y-71401441D01*
X163318108Y-71513001D01*
X163318110Y-71513001D01*
X163318115Y-71513005D01*
X163515726Y-71589560D01*
X163724039Y-71628500D01*
X163724041Y-71628500D01*
X163935959Y-71628500D01*
X163935961Y-71628500D01*
X164144274Y-71589560D01*
X164341885Y-71513005D01*
X164522065Y-71401442D01*
X164599316Y-71331018D01*
X164678675Y-71258673D01*
X164678677Y-71258671D01*
X164806389Y-71089554D01*
X164900850Y-70899850D01*
X164958845Y-70696018D01*
X164971894Y-70555196D01*
X164978399Y-70485004D01*
X170301601Y-70485004D01*
X170321154Y-70696016D01*
X170377949Y-70895632D01*
X170379150Y-70899850D01*
X170473611Y-71089554D01*
X170496599Y-71119995D01*
X170601324Y-71258673D01*
X170757933Y-71401441D01*
X170938108Y-71513001D01*
X170938110Y-71513001D01*
X170938115Y-71513005D01*
X171135726Y-71589560D01*
X171344039Y-71628500D01*
X171344041Y-71628500D01*
X171555959Y-71628500D01*
X171555961Y-71628500D01*
X171764274Y-71589560D01*
X171961885Y-71513005D01*
X172142065Y-71401442D01*
X172219316Y-71331018D01*
X172298675Y-71258673D01*
X172298677Y-71258671D01*
X172426389Y-71089554D01*
X172520850Y-70899850D01*
X172578845Y-70696018D01*
X172591894Y-70555196D01*
X172598399Y-70485004D01*
X172598399Y-70484995D01*
X172579656Y-70282732D01*
X172578845Y-70273982D01*
X172520850Y-70070150D01*
X172426389Y-69880446D01*
X172298677Y-69711329D01*
X172298675Y-69711326D01*
X172142066Y-69568558D01*
X171961891Y-69456998D01*
X171961886Y-69456996D01*
X171961885Y-69456995D01*
X171880972Y-69425649D01*
X171764277Y-69380441D01*
X171764278Y-69380441D01*
X171764275Y-69380440D01*
X171764274Y-69380440D01*
X171555961Y-69341500D01*
X171344039Y-69341500D01*
X171135726Y-69380440D01*
X171135721Y-69380441D01*
X170938119Y-69456993D01*
X170938108Y-69456998D01*
X170757933Y-69568558D01*
X170601324Y-69711326D01*
X170473612Y-69880444D01*
X170379150Y-70070150D01*
X170379147Y-70070158D01*
X170321154Y-70273983D01*
X170301601Y-70484995D01*
X170301601Y-70485004D01*
X164978399Y-70485004D01*
X164978399Y-70484995D01*
X164959656Y-70282732D01*
X164958845Y-70273982D01*
X164900850Y-70070150D01*
X164806389Y-69880446D01*
X164678677Y-69711329D01*
X164678675Y-69711326D01*
X164522066Y-69568558D01*
X164341891Y-69456998D01*
X164341886Y-69456996D01*
X164341885Y-69456995D01*
X164260972Y-69425649D01*
X164144277Y-69380441D01*
X164144278Y-69380441D01*
X164144275Y-69380440D01*
X164144274Y-69380440D01*
X163935961Y-69341500D01*
X163724039Y-69341500D01*
X163515726Y-69380440D01*
X163515721Y-69380441D01*
X163318119Y-69456993D01*
X163318108Y-69456998D01*
X163137933Y-69568558D01*
X162981324Y-69711326D01*
X162853612Y-69880444D01*
X162759150Y-70070150D01*
X162759147Y-70070158D01*
X162701154Y-70273983D01*
X162681601Y-70484995D01*
X162681601Y-70485004D01*
X151064911Y-70485004D01*
X151058860Y-70471209D01*
X150977270Y-70346326D01*
X150935724Y-70282734D01*
X150935720Y-70282729D01*
X150819570Y-70156559D01*
X150783240Y-70117094D01*
X150783239Y-70117093D01*
X150783237Y-70117091D01*
X150653677Y-70016250D01*
X150605576Y-69978811D01*
X150572319Y-69960813D01*
X150521929Y-69910802D01*
X150506576Y-69841485D01*
X150531136Y-69774872D01*
X150572320Y-69739186D01*
X150572322Y-69739185D01*
X150605576Y-69721189D01*
X150783240Y-69582906D01*
X150935722Y-69417268D01*
X151058860Y-69228791D01*
X151149296Y-69022616D01*
X151204564Y-68804368D01*
X151223156Y-68580000D01*
X151204564Y-68355632D01*
X151149296Y-68137384D01*
X151058860Y-67931209D01*
X151052140Y-67920924D01*
X150935724Y-67742734D01*
X150935720Y-67742729D01*
X150783237Y-67577091D01*
X150635028Y-67461735D01*
X150605576Y-67438811D01*
X150598720Y-67435101D01*
X150572320Y-67420814D01*
X150521929Y-67370802D01*
X150506576Y-67301485D01*
X150531136Y-67234872D01*
X150572320Y-67199186D01*
X150572322Y-67199185D01*
X150605576Y-67181189D01*
X150783240Y-67042906D01*
X150935722Y-66877268D01*
X151058860Y-66688791D01*
X151149296Y-66482616D01*
X151204564Y-66264368D01*
X151223156Y-66040000D01*
X151204564Y-65815632D01*
X151203993Y-65813378D01*
X151149297Y-65597387D01*
X151149296Y-65597386D01*
X151149296Y-65597384D01*
X151058860Y-65391209D01*
X151047979Y-65374554D01*
X150935724Y-65202734D01*
X150935719Y-65202729D01*
X150928006Y-65194351D01*
X150792524Y-65047179D01*
X150761103Y-64983514D01*
X150769090Y-64912968D01*
X150813948Y-64857939D01*
X150841183Y-64843789D01*
X150956204Y-64800889D01*
X150986090Y-64778517D01*
X151073261Y-64713261D01*
X151160887Y-64596207D01*
X151160887Y-64596206D01*
X151160889Y-64596204D01*
X151211989Y-64459201D01*
X151218500Y-64398638D01*
X151218500Y-62601362D01*
X151215451Y-62573002D01*
X151211990Y-62540803D01*
X151211988Y-62540795D01*
X151160889Y-62403797D01*
X151160887Y-62403792D01*
X151073261Y-62286738D01*
X150956207Y-62199112D01*
X150956202Y-62199110D01*
X150819204Y-62148011D01*
X150819196Y-62148009D01*
X150758649Y-62141500D01*
X150758638Y-62141500D01*
X148961362Y-62141500D01*
X148961350Y-62141500D01*
X148900803Y-62148009D01*
X148900795Y-62148011D01*
X148763797Y-62199110D01*
X148763792Y-62199112D01*
X148646738Y-62286738D01*
X148559112Y-62403792D01*
X148559110Y-62403797D01*
X148508011Y-62540795D01*
X148508009Y-62540803D01*
X148501500Y-62601350D01*
X148501500Y-64398649D01*
X148508009Y-64459196D01*
X148508011Y-64459204D01*
X148559110Y-64596202D01*
X148559112Y-64596207D01*
X148646738Y-64713261D01*
X148763791Y-64800886D01*
X148763792Y-64800886D01*
X148763796Y-64800889D01*
X148878810Y-64843787D01*
X148935642Y-64886332D01*
X148960453Y-64952852D01*
X148945362Y-65022226D01*
X148927475Y-65047179D01*
X148784280Y-65202729D01*
X148784275Y-65202734D01*
X148661141Y-65391206D01*
X148570703Y-65597386D01*
X148570702Y-65597387D01*
X148515437Y-65815624D01*
X148496844Y-66040000D01*
X148515437Y-66264375D01*
X148570702Y-66482612D01*
X148570703Y-66482613D01*
X148661141Y-66688793D01*
X148784275Y-66877265D01*
X148784279Y-66877270D01*
X148936762Y-67042908D01*
X148949655Y-67052943D01*
X149114424Y-67181189D01*
X149147678Y-67199185D01*
X149147680Y-67199186D01*
X149198071Y-67249200D01*
X149213423Y-67318516D01*
X149188862Y-67385129D01*
X149147680Y-67420813D01*
X149114426Y-67438810D01*
X149114424Y-67438811D01*
X148936762Y-67577091D01*
X148784279Y-67742729D01*
X148784275Y-67742734D01*
X148661141Y-67931206D01*
X148570703Y-68137386D01*
X148570702Y-68137387D01*
X148515437Y-68355624D01*
X148496844Y-68580000D01*
X148515437Y-68804375D01*
X148570702Y-69022612D01*
X148570703Y-69022613D01*
X148661141Y-69228793D01*
X148784275Y-69417265D01*
X148784279Y-69417270D01*
X148936762Y-69582908D01*
X148944593Y-69589003D01*
X149114424Y-69721189D01*
X149147678Y-69739185D01*
X149147680Y-69739186D01*
X149198071Y-69789200D01*
X149213423Y-69858516D01*
X149188862Y-69925129D01*
X149147680Y-69960813D01*
X149114426Y-69978810D01*
X149114424Y-69978811D01*
X148936762Y-70117091D01*
X148784279Y-70282729D01*
X148784275Y-70282734D01*
X148661141Y-70471206D01*
X148570703Y-70677386D01*
X148570702Y-70677387D01*
X148515437Y-70895624D01*
X148515436Y-70895630D01*
X148515436Y-70895632D01*
X148496844Y-71120000D01*
X148507384Y-71247200D01*
X148515437Y-71344375D01*
X148570702Y-71562612D01*
X148570703Y-71562613D01*
X148570704Y-71562616D01*
X148659172Y-71764304D01*
X148661141Y-71768793D01*
X148784275Y-71957265D01*
X148784279Y-71957270D01*
X148936762Y-72122908D01*
X148969007Y-72148005D01*
X149114424Y-72261189D01*
X149147678Y-72279185D01*
X149147680Y-72279186D01*
X149198071Y-72329200D01*
X149213423Y-72398516D01*
X149188862Y-72465129D01*
X149147680Y-72500813D01*
X149114426Y-72518810D01*
X149114424Y-72518811D01*
X148936762Y-72657091D01*
X148784279Y-72822729D01*
X148784275Y-72822734D01*
X148661141Y-73011206D01*
X148570703Y-73217386D01*
X148570702Y-73217387D01*
X148515437Y-73435624D01*
X148515436Y-73435630D01*
X148515436Y-73435632D01*
X148496844Y-73660000D01*
X148510148Y-73820558D01*
X148515437Y-73884375D01*
X148570702Y-74102612D01*
X148570703Y-74102613D01*
X148570704Y-74102616D01*
X148661140Y-74308791D01*
X148661141Y-74308793D01*
X148784275Y-74497265D01*
X148784279Y-74497270D01*
X148936762Y-74662908D01*
X148949655Y-74672943D01*
X149114424Y-74801189D01*
X149147678Y-74819185D01*
X149147680Y-74819186D01*
X149198071Y-74869200D01*
X149213423Y-74938516D01*
X149188862Y-75005129D01*
X149147680Y-75040813D01*
X149114426Y-75058810D01*
X149114424Y-75058811D01*
X148936762Y-75197091D01*
X148784279Y-75362729D01*
X148784275Y-75362734D01*
X148661141Y-75551206D01*
X148570703Y-75757386D01*
X148570702Y-75757387D01*
X148515437Y-75975624D01*
X148515436Y-75975630D01*
X148515436Y-75975632D01*
X148496844Y-76200000D01*
X148512993Y-76394890D01*
X148515437Y-76424375D01*
X148570702Y-76642612D01*
X148570703Y-76642613D01*
X148570704Y-76642616D01*
X148661140Y-76848791D01*
X148661141Y-76848793D01*
X148784275Y-77037265D01*
X148784279Y-77037270D01*
X148936762Y-77202908D01*
X148949655Y-77212943D01*
X149114424Y-77341189D01*
X149147678Y-77359185D01*
X149147680Y-77359186D01*
X149198071Y-77409200D01*
X149213423Y-77478516D01*
X149188862Y-77545129D01*
X149147680Y-77580813D01*
X149114426Y-77598810D01*
X149114424Y-77598811D01*
X148936762Y-77737091D01*
X148784279Y-77902729D01*
X148784275Y-77902734D01*
X148661141Y-78091206D01*
X148570703Y-78297386D01*
X148570702Y-78297387D01*
X148515437Y-78515624D01*
X148515436Y-78515630D01*
X148515436Y-78515632D01*
X148504155Y-78651775D01*
X148496844Y-78740000D01*
X148515437Y-78964375D01*
X148570702Y-79182612D01*
X148570703Y-79182613D01*
X148661141Y-79388793D01*
X148784275Y-79577265D01*
X148784279Y-79577270D01*
X148936762Y-79742908D01*
X148949655Y-79752943D01*
X149114424Y-79881189D01*
X149147678Y-79899185D01*
X149147680Y-79899186D01*
X149198071Y-79949200D01*
X149213423Y-80018516D01*
X149188862Y-80085129D01*
X149147680Y-80120813D01*
X149114426Y-80138810D01*
X149114424Y-80138811D01*
X148936762Y-80277091D01*
X148784279Y-80442729D01*
X148784275Y-80442734D01*
X148661141Y-80631206D01*
X148570703Y-80837386D01*
X148570702Y-80837387D01*
X148515437Y-81055624D01*
X148496844Y-81280000D01*
X148515437Y-81504375D01*
X148570702Y-81722612D01*
X148570703Y-81722613D01*
X148570704Y-81722616D01*
X148661140Y-81928791D01*
X148661141Y-81928793D01*
X148784275Y-82117265D01*
X148784279Y-82117270D01*
X148936762Y-82282908D01*
X148949655Y-82292943D01*
X149114424Y-82421189D01*
X149147678Y-82439185D01*
X149147680Y-82439186D01*
X149198071Y-82489200D01*
X149213423Y-82558516D01*
X149188862Y-82625129D01*
X149147680Y-82660813D01*
X149114426Y-82678810D01*
X149114424Y-82678811D01*
X148936762Y-82817091D01*
X148784279Y-82982729D01*
X148784275Y-82982734D01*
X148661141Y-83171206D01*
X148570703Y-83377386D01*
X148570702Y-83377387D01*
X148515437Y-83595624D01*
X148515436Y-83595630D01*
X148515436Y-83595632D01*
X148496844Y-83820000D01*
X148512731Y-84011730D01*
X148515437Y-84044375D01*
X148570702Y-84262612D01*
X148570703Y-84262613D01*
X148570704Y-84262616D01*
X148572646Y-84267043D01*
X148661141Y-84468793D01*
X148784275Y-84657265D01*
X148784279Y-84657270D01*
X148936762Y-84822908D01*
X148949655Y-84832943D01*
X149114424Y-84961189D01*
X149147678Y-84979185D01*
X149147680Y-84979186D01*
X149198071Y-85029200D01*
X149213423Y-85098516D01*
X149188862Y-85165129D01*
X149147680Y-85200813D01*
X149114426Y-85218810D01*
X149114424Y-85218811D01*
X148936762Y-85357091D01*
X148784279Y-85522729D01*
X148784275Y-85522734D01*
X148661141Y-85711206D01*
X148570703Y-85917386D01*
X148570702Y-85917387D01*
X148515437Y-86135624D01*
X148515436Y-86135630D01*
X148515436Y-86135632D01*
X148496844Y-86360000D01*
X148512763Y-86552113D01*
X148515437Y-86584375D01*
X148570702Y-86802612D01*
X148570703Y-86802613D01*
X148570704Y-86802616D01*
X148647310Y-86977262D01*
X148661141Y-87008793D01*
X148784275Y-87197265D01*
X148784279Y-87197270D01*
X148936762Y-87362908D01*
X148949655Y-87372943D01*
X149114424Y-87501189D01*
X149147678Y-87519185D01*
X149147680Y-87519186D01*
X149198071Y-87569200D01*
X149213423Y-87638516D01*
X149188862Y-87705129D01*
X149147680Y-87740813D01*
X149114426Y-87758810D01*
X149114424Y-87758811D01*
X148936762Y-87897091D01*
X148784279Y-88062729D01*
X148784275Y-88062734D01*
X148661141Y-88251206D01*
X148570703Y-88457386D01*
X148570702Y-88457387D01*
X148515437Y-88675624D01*
X148496844Y-88900000D01*
X148515437Y-89124375D01*
X148570702Y-89342612D01*
X148570703Y-89342613D01*
X148661141Y-89548793D01*
X148784275Y-89737265D01*
X148784279Y-89737270D01*
X148936762Y-89902908D01*
X148949655Y-89912943D01*
X149114424Y-90041189D01*
X149147678Y-90059185D01*
X149147680Y-90059186D01*
X149198071Y-90109200D01*
X149213423Y-90178516D01*
X149188862Y-90245129D01*
X149147680Y-90280813D01*
X149114426Y-90298810D01*
X149114424Y-90298811D01*
X148936762Y-90437091D01*
X148784279Y-90602729D01*
X148784275Y-90602734D01*
X148661141Y-90791206D01*
X148570703Y-90997386D01*
X148570702Y-90997387D01*
X148515437Y-91215624D01*
X148515436Y-91215630D01*
X148515436Y-91215632D01*
X148496844Y-91440000D01*
X148515437Y-91664375D01*
X148570702Y-91882612D01*
X148570703Y-91882613D01*
X148661141Y-92088793D01*
X148784275Y-92277265D01*
X148784279Y-92277270D01*
X148936762Y-92442908D01*
X148949655Y-92452943D01*
X149114424Y-92581189D01*
X149147678Y-92599185D01*
X149147680Y-92599186D01*
X149198071Y-92649200D01*
X149213423Y-92718516D01*
X149188862Y-92785129D01*
X149147680Y-92820813D01*
X149114426Y-92838810D01*
X149114424Y-92838811D01*
X148936762Y-92977091D01*
X148784279Y-93142729D01*
X148784275Y-93142734D01*
X148661141Y-93331206D01*
X148570703Y-93537386D01*
X148570702Y-93537387D01*
X148515437Y-93755624D01*
X148496844Y-93980000D01*
X148515437Y-94204375D01*
X148570702Y-94422612D01*
X148570703Y-94422613D01*
X148570704Y-94422616D01*
X148621685Y-94538842D01*
X148661141Y-94628793D01*
X148784275Y-94817265D01*
X148784279Y-94817270D01*
X148936762Y-94982908D01*
X148949655Y-94992943D01*
X149114424Y-95121189D01*
X149147678Y-95139185D01*
X149147680Y-95139186D01*
X149198071Y-95189200D01*
X149213423Y-95258516D01*
X149188862Y-95325129D01*
X149147680Y-95360813D01*
X149114426Y-95378810D01*
X149114424Y-95378811D01*
X148936762Y-95517091D01*
X148784279Y-95682729D01*
X148784275Y-95682734D01*
X148661141Y-95871206D01*
X148570703Y-96077386D01*
X148570702Y-96077387D01*
X148515437Y-96295624D01*
X148496844Y-96520000D01*
X148515437Y-96744375D01*
X148570702Y-96962612D01*
X148570703Y-96962613D01*
X148661141Y-97168793D01*
X148784275Y-97357265D01*
X148784279Y-97357270D01*
X148936762Y-97522908D01*
X148949655Y-97532943D01*
X149114424Y-97661189D01*
X149147678Y-97679185D01*
X149147680Y-97679186D01*
X149198071Y-97729200D01*
X149213423Y-97798516D01*
X149188862Y-97865129D01*
X149147680Y-97900813D01*
X149114426Y-97918810D01*
X149114424Y-97918811D01*
X148936762Y-98057091D01*
X148784279Y-98222729D01*
X148784275Y-98222734D01*
X148661141Y-98411206D01*
X148570703Y-98617386D01*
X148570702Y-98617387D01*
X148515437Y-98835624D01*
X148515436Y-98835630D01*
X148515436Y-98835632D01*
X148496844Y-99060000D01*
X146156802Y-99060000D01*
X146138024Y-98833386D01*
X146082203Y-98612953D01*
X145990861Y-98404715D01*
X145866490Y-98214351D01*
X145739065Y-98075929D01*
X145712485Y-98047056D01*
X145712484Y-98047055D01*
X145712483Y-98047054D01*
X145533039Y-97907388D01*
X145533038Y-97907387D01*
X145528198Y-97904768D01*
X145520890Y-97900813D01*
X145470500Y-97850803D01*
X145455147Y-97781486D01*
X145479706Y-97714873D01*
X145520889Y-97679186D01*
X145533039Y-97672612D01*
X145712483Y-97532946D01*
X145866490Y-97365649D01*
X145990861Y-97175285D01*
X146082203Y-96967047D01*
X146138024Y-96746614D01*
X146156802Y-96520000D01*
X146138024Y-96293386D01*
X146085321Y-96085266D01*
X146082204Y-96072956D01*
X146082201Y-96072949D01*
X145990861Y-95864715D01*
X145866492Y-95674354D01*
X145866491Y-95674353D01*
X145866490Y-95674351D01*
X145739065Y-95535929D01*
X145712485Y-95507056D01*
X145712484Y-95507055D01*
X145712483Y-95507054D01*
X145533039Y-95367388D01*
X145533038Y-95367387D01*
X145528198Y-95364768D01*
X145520890Y-95360813D01*
X145470500Y-95310803D01*
X145455147Y-95241486D01*
X145479706Y-95174873D01*
X145520889Y-95139186D01*
X145533039Y-95132612D01*
X145712483Y-94992946D01*
X145866490Y-94825649D01*
X145990861Y-94635285D01*
X146082203Y-94427047D01*
X146138024Y-94206614D01*
X146156802Y-93980000D01*
X146138024Y-93753386D01*
X146082203Y-93532953D01*
X145990861Y-93324715D01*
X145866490Y-93134351D01*
X145739065Y-92995929D01*
X145712485Y-92967056D01*
X145712484Y-92967055D01*
X145712483Y-92967054D01*
X145533039Y-92827388D01*
X145533038Y-92827387D01*
X145528198Y-92824768D01*
X145520890Y-92820813D01*
X145470500Y-92770803D01*
X145455147Y-92701486D01*
X145479706Y-92634873D01*
X145520889Y-92599186D01*
X145533039Y-92592612D01*
X145712483Y-92452946D01*
X145866490Y-92285649D01*
X145990861Y-92095285D01*
X146082203Y-91887047D01*
X146138024Y-91666614D01*
X146156802Y-91440000D01*
X146138024Y-91213386D01*
X146109064Y-91099024D01*
X146082204Y-90992956D01*
X146082201Y-90992949D01*
X145990861Y-90784715D01*
X145866492Y-90594354D01*
X145866491Y-90594353D01*
X145866490Y-90594351D01*
X145739065Y-90455929D01*
X145712485Y-90427056D01*
X145712484Y-90427055D01*
X145712483Y-90427054D01*
X145533039Y-90287388D01*
X145533038Y-90287387D01*
X145528198Y-90284768D01*
X145520890Y-90280813D01*
X145470500Y-90230803D01*
X145455147Y-90161486D01*
X145479706Y-90094873D01*
X145520889Y-90059186D01*
X145533039Y-90052612D01*
X145712483Y-89912946D01*
X145866490Y-89745649D01*
X145990861Y-89555285D01*
X146082203Y-89347047D01*
X146138024Y-89126614D01*
X146156802Y-88900000D01*
X146138024Y-88673386D01*
X146082203Y-88452953D01*
X145990861Y-88244715D01*
X145866490Y-88054351D01*
X145725065Y-87900722D01*
X145712485Y-87887056D01*
X145712484Y-87887055D01*
X145712483Y-87887054D01*
X145533039Y-87747388D01*
X145533038Y-87747387D01*
X145528198Y-87744768D01*
X145520890Y-87740813D01*
X145470500Y-87690803D01*
X145455147Y-87621486D01*
X145479706Y-87554873D01*
X145520889Y-87519186D01*
X145533039Y-87512612D01*
X145712483Y-87372946D01*
X145866490Y-87205649D01*
X145990861Y-87015285D01*
X146082203Y-86807047D01*
X146138024Y-86586614D01*
X146156802Y-86360000D01*
X146138024Y-86133386D01*
X146082203Y-85912953D01*
X145990861Y-85704715D01*
X145866490Y-85514351D01*
X145739065Y-85375929D01*
X145712485Y-85347056D01*
X145712484Y-85347055D01*
X145712483Y-85347054D01*
X145533039Y-85207388D01*
X145533038Y-85207387D01*
X145528198Y-85204768D01*
X145520890Y-85200813D01*
X145470500Y-85150803D01*
X145455147Y-85081486D01*
X145479706Y-85014873D01*
X145520889Y-84979186D01*
X145533039Y-84972612D01*
X145712483Y-84832946D01*
X145866490Y-84665649D01*
X145990861Y-84475285D01*
X146082203Y-84267047D01*
X146138024Y-84046614D01*
X146156802Y-83820000D01*
X146138024Y-83593386D01*
X146082203Y-83372953D01*
X145990861Y-83164715D01*
X145866490Y-82974351D01*
X145739065Y-82835929D01*
X145712485Y-82807056D01*
X145712484Y-82807055D01*
X145712483Y-82807054D01*
X145533039Y-82667388D01*
X145533038Y-82667387D01*
X145528198Y-82664768D01*
X145520890Y-82660813D01*
X145470500Y-82610803D01*
X145455147Y-82541486D01*
X145479706Y-82474873D01*
X145520889Y-82439186D01*
X145533039Y-82432612D01*
X145712483Y-82292946D01*
X145866490Y-82125649D01*
X145990861Y-81935285D01*
X146082203Y-81727047D01*
X146138024Y-81506614D01*
X146156802Y-81280000D01*
X146138024Y-81053386D01*
X146082203Y-80832953D01*
X145990861Y-80624715D01*
X145866490Y-80434351D01*
X145739065Y-80295929D01*
X145712485Y-80267056D01*
X145712484Y-80267055D01*
X145712483Y-80267054D01*
X145533039Y-80127388D01*
X145533038Y-80127387D01*
X145528198Y-80124768D01*
X145520890Y-80120813D01*
X145470500Y-80070803D01*
X145455147Y-80001486D01*
X145479706Y-79934873D01*
X145520889Y-79899186D01*
X145533039Y-79892612D01*
X145712483Y-79752946D01*
X145866490Y-79585649D01*
X145990861Y-79395285D01*
X146082203Y-79187047D01*
X146138024Y-78966614D01*
X146156802Y-78740000D01*
X146138024Y-78513386D01*
X146093355Y-78336990D01*
X146082204Y-78292956D01*
X146082201Y-78292949D01*
X146079103Y-78285887D01*
X145990861Y-78084715D01*
X145866490Y-77894351D01*
X145738223Y-77755015D01*
X145712485Y-77727056D01*
X145712484Y-77727055D01*
X145712483Y-77727054D01*
X145533039Y-77587388D01*
X145533038Y-77587387D01*
X145528198Y-77584768D01*
X145520890Y-77580813D01*
X145470500Y-77530803D01*
X145455147Y-77461486D01*
X145479706Y-77394873D01*
X145520889Y-77359186D01*
X145533039Y-77352612D01*
X145712483Y-77212946D01*
X145866490Y-77045649D01*
X145990861Y-76855285D01*
X146082203Y-76647047D01*
X146138024Y-76426614D01*
X146156802Y-76200000D01*
X146138024Y-75973386D01*
X146082203Y-75752953D01*
X145990861Y-75544715D01*
X145866490Y-75354351D01*
X145728712Y-75204683D01*
X145712485Y-75187056D01*
X145712484Y-75187055D01*
X145712483Y-75187054D01*
X145533039Y-75047388D01*
X145533038Y-75047387D01*
X145528198Y-75044768D01*
X145520890Y-75040813D01*
X145470500Y-74990803D01*
X145455147Y-74921486D01*
X145479706Y-74854873D01*
X145520889Y-74819186D01*
X145533039Y-74812612D01*
X145712483Y-74672946D01*
X145866490Y-74505649D01*
X145990861Y-74315285D01*
X146082203Y-74107047D01*
X146138024Y-73886614D01*
X146156802Y-73660000D01*
X146138024Y-73433386D01*
X146126665Y-73388529D01*
X146082204Y-73212956D01*
X146082201Y-73212949D01*
X145990861Y-73004715D01*
X145866492Y-72814354D01*
X145866491Y-72814353D01*
X145866490Y-72814351D01*
X145739065Y-72675929D01*
X145712485Y-72647056D01*
X145712484Y-72647055D01*
X145712483Y-72647054D01*
X145533039Y-72507388D01*
X145533038Y-72507387D01*
X145528198Y-72504768D01*
X145520890Y-72500813D01*
X145470500Y-72450803D01*
X145455147Y-72381486D01*
X145479706Y-72314873D01*
X145520889Y-72279186D01*
X145533039Y-72272612D01*
X145712483Y-72132946D01*
X145866490Y-71965649D01*
X145990861Y-71775285D01*
X146082203Y-71567047D01*
X146138024Y-71346614D01*
X146156802Y-71120000D01*
X146138024Y-70893386D01*
X146131506Y-70867647D01*
X146082204Y-70672956D01*
X146082201Y-70672949D01*
X145990861Y-70464715D01*
X145866492Y-70274354D01*
X145866491Y-70274353D01*
X145866490Y-70274351D01*
X145724401Y-70120000D01*
X145712485Y-70107056D01*
X145712484Y-70107055D01*
X145712483Y-70107054D01*
X145533039Y-69967388D01*
X145533038Y-69967387D01*
X145528198Y-69964768D01*
X145520890Y-69960813D01*
X145470500Y-69910803D01*
X145455147Y-69841486D01*
X145479706Y-69774873D01*
X145520889Y-69739186D01*
X145533039Y-69732612D01*
X145712483Y-69592946D01*
X145866490Y-69425649D01*
X145990861Y-69235285D01*
X146082203Y-69027047D01*
X146138024Y-68806614D01*
X146156802Y-68580000D01*
X146138024Y-68353386D01*
X146082203Y-68132953D01*
X145990861Y-67924715D01*
X145866490Y-67734351D01*
X145739080Y-67595946D01*
X145707660Y-67532281D01*
X145715647Y-67461735D01*
X145760506Y-67406706D01*
X145787742Y-67392556D01*
X145889804Y-67354489D01*
X146006861Y-67266861D01*
X146070992Y-67181192D01*
X146094487Y-67149807D01*
X146094487Y-67149806D01*
X146094489Y-67149804D01*
X146145589Y-67012801D01*
X146152100Y-66952238D01*
X146152100Y-65127762D01*
X146152099Y-65127750D01*
X146145590Y-65067203D01*
X146145588Y-65067195D01*
X146094489Y-64930197D01*
X146094487Y-64930192D01*
X146006861Y-64813138D01*
X145889807Y-64725512D01*
X145889804Y-64725511D01*
X145787748Y-64687445D01*
X145730913Y-64644898D01*
X145706103Y-64578377D01*
X145721195Y-64509003D01*
X145739081Y-64484053D01*
X145866490Y-64345649D01*
X145885682Y-64316274D01*
X145990861Y-64155285D01*
X146082203Y-63947047D01*
X146138024Y-63726614D01*
X146156802Y-63500000D01*
X146138024Y-63273386D01*
X146082203Y-63052953D01*
X145990861Y-62844715D01*
X145866490Y-62654351D01*
X145712483Y-62487054D01*
X145533039Y-62347388D01*
X145533033Y-62347384D01*
X145333058Y-62239162D01*
X145333052Y-62239159D01*
X145297902Y-62227093D01*
X145239967Y-62186056D01*
X145213415Y-62120212D01*
X145226676Y-62050465D01*
X145275540Y-61998959D01*
X145281595Y-61995661D01*
X145382994Y-61943996D01*
X145529501Y-61837553D01*
X145657553Y-61709501D01*
X145763996Y-61562994D01*
X145846211Y-61401639D01*
X145902171Y-61229409D01*
X145930500Y-61050546D01*
X145930500Y-60869454D01*
X145902171Y-60690591D01*
X145846211Y-60518361D01*
X145763996Y-60357006D01*
X145657553Y-60210499D01*
X145657550Y-60210496D01*
X145657548Y-60210493D01*
X145529506Y-60082451D01*
X145529503Y-60082449D01*
X145529501Y-60082447D01*
X145382994Y-59976004D01*
X145221639Y-59893789D01*
X145221636Y-59893788D01*
X145221634Y-59893787D01*
X145049412Y-59837830D01*
X145049409Y-59837829D01*
X144870546Y-59809500D01*
X144689454Y-59809500D01*
X144510591Y-59837829D01*
X144510588Y-59837829D01*
X144510587Y-59837830D01*
X144338365Y-59893787D01*
X144338359Y-59893790D01*
X144177002Y-59976006D01*
X144030496Y-60082449D01*
X144030493Y-60082451D01*
X143902451Y-60210493D01*
X143902449Y-60210496D01*
X143796006Y-60357002D01*
X143713790Y-60518359D01*
X143713787Y-60518365D01*
X143657830Y-60690587D01*
X143657829Y-60690591D01*
X143629500Y-60869454D01*
X143629500Y-61050546D01*
X143657829Y-61229409D01*
X143713789Y-61401639D01*
X143796004Y-61562994D01*
X143902447Y-61709501D01*
X143902449Y-61709503D01*
X143902451Y-61709506D01*
X144030493Y-61837548D01*
X144030496Y-61837550D01*
X144030499Y-61837553D01*
X144140379Y-61917385D01*
X144177007Y-61943997D01*
X144278388Y-61995654D01*
X144330003Y-62044402D01*
X144347069Y-62113317D01*
X144324168Y-62180518D01*
X144268570Y-62224670D01*
X144262098Y-62227093D01*
X144226944Y-62239161D01*
X144226941Y-62239162D01*
X144026966Y-62347384D01*
X144026960Y-62347388D01*
X143847514Y-62487056D01*
X143693507Y-62654354D01*
X143569138Y-62844715D01*
X143477798Y-63052949D01*
X143477795Y-63052956D01*
X143421977Y-63273378D01*
X143403198Y-63500000D01*
X143421977Y-63726621D01*
X143477795Y-63947043D01*
X143477798Y-63947050D01*
X143569138Y-64155284D01*
X143589823Y-64186945D01*
X143693510Y-64345649D01*
X143773209Y-64432226D01*
X143820919Y-64484053D01*
X143852339Y-64547718D01*
X143844352Y-64618264D01*
X143799493Y-64673293D01*
X143772251Y-64687445D01*
X143670195Y-64725511D01*
X143670192Y-64725512D01*
X143553138Y-64813138D01*
X143465512Y-64930192D01*
X143465510Y-64930197D01*
X143414411Y-65067195D01*
X143414409Y-65067203D01*
X143407900Y-65127750D01*
X143407900Y-66952249D01*
X143414409Y-67012796D01*
X143414411Y-67012804D01*
X143465510Y-67149802D01*
X143465512Y-67149807D01*
X143553138Y-67266861D01*
X143670192Y-67354487D01*
X143670194Y-67354488D01*
X143670196Y-67354489D01*
X143713932Y-67370802D01*
X143772250Y-67392554D01*
X143829086Y-67435101D01*
X143853896Y-67501621D01*
X143838804Y-67570995D01*
X143820919Y-67595946D01*
X143693507Y-67734354D01*
X143569138Y-67924715D01*
X143477798Y-68132949D01*
X143477795Y-68132956D01*
X143421977Y-68353378D01*
X143421976Y-68353384D01*
X143421976Y-68353386D01*
X143403198Y-68580000D01*
X143421790Y-68804375D01*
X143421977Y-68806621D01*
X143477795Y-69027043D01*
X143477798Y-69027050D01*
X143569138Y-69235284D01*
X143688035Y-69417270D01*
X143693510Y-69425649D01*
X143722366Y-69456995D01*
X143838274Y-69582906D01*
X143847517Y-69592946D01*
X144026961Y-69732612D01*
X144026963Y-69732613D01*
X144026966Y-69732615D01*
X144039110Y-69739187D01*
X144089500Y-69789200D01*
X144104852Y-69858517D01*
X144080291Y-69925130D01*
X144039110Y-69960813D01*
X144026966Y-69967384D01*
X144026960Y-69967388D01*
X143847514Y-70107056D01*
X143693507Y-70274354D01*
X143569138Y-70464715D01*
X143477798Y-70672949D01*
X143477795Y-70672956D01*
X143421977Y-70893378D01*
X143421976Y-70893384D01*
X143421976Y-70893386D01*
X143403198Y-71120000D01*
X143421790Y-71344375D01*
X143421977Y-71346621D01*
X143477795Y-71567043D01*
X143477798Y-71567050D01*
X143569138Y-71775284D01*
X143688035Y-71957270D01*
X143693510Y-71965649D01*
X143773973Y-72053055D01*
X143838274Y-72122906D01*
X143847517Y-72132946D01*
X144026961Y-72272612D01*
X144026963Y-72272613D01*
X144026966Y-72272615D01*
X144039110Y-72279187D01*
X144089500Y-72329200D01*
X144104852Y-72398517D01*
X144080291Y-72465130D01*
X144039110Y-72500813D01*
X144026966Y-72507384D01*
X144026960Y-72507388D01*
X143847514Y-72647056D01*
X143693507Y-72814354D01*
X143569138Y-73004715D01*
X143477798Y-73212949D01*
X143477795Y-73212956D01*
X143421977Y-73433378D01*
X143421976Y-73433384D01*
X143421976Y-73433386D01*
X143403198Y-73660000D01*
X143421790Y-73884375D01*
X143421977Y-73886621D01*
X143477795Y-74107043D01*
X143477798Y-74107050D01*
X143569138Y-74315284D01*
X143688702Y-74498291D01*
X143693510Y-74505649D01*
X143789014Y-74609394D01*
X143838274Y-74662906D01*
X143847517Y-74672946D01*
X144026961Y-74812612D01*
X144026963Y-74812613D01*
X144026966Y-74812615D01*
X144039110Y-74819187D01*
X144089500Y-74869200D01*
X144104852Y-74938517D01*
X144080291Y-75005130D01*
X144039110Y-75040813D01*
X144026966Y-75047384D01*
X144026960Y-75047388D01*
X143847514Y-75187056D01*
X143693507Y-75354354D01*
X143569138Y-75544715D01*
X143477798Y-75752949D01*
X143477795Y-75752956D01*
X143421977Y-75973378D01*
X143421976Y-75973384D01*
X143421976Y-75973386D01*
X143403198Y-76200000D01*
X143421790Y-76424375D01*
X143421977Y-76426621D01*
X143477795Y-76647043D01*
X143477798Y-76647050D01*
X143569138Y-76855284D01*
X143688035Y-77037270D01*
X143693510Y-77045649D01*
X143807644Y-77169632D01*
X143838274Y-77202906D01*
X143847517Y-77212946D01*
X144026961Y-77352612D01*
X144026963Y-77352613D01*
X144026966Y-77352615D01*
X144039110Y-77359187D01*
X144089500Y-77409200D01*
X144104852Y-77478517D01*
X144080291Y-77545130D01*
X144039110Y-77580813D01*
X144026966Y-77587384D01*
X144026960Y-77587388D01*
X143847514Y-77727056D01*
X143693507Y-77894354D01*
X143569138Y-78084715D01*
X143477798Y-78292949D01*
X143477795Y-78292956D01*
X143421977Y-78513378D01*
X143421976Y-78513384D01*
X143421976Y-78513386D01*
X143403198Y-78740000D01*
X143421790Y-78964375D01*
X143421977Y-78966621D01*
X143477795Y-79187043D01*
X143477798Y-79187050D01*
X143569138Y-79395284D01*
X143688035Y-79577270D01*
X143693510Y-79585649D01*
X143807644Y-79709632D01*
X143838274Y-79742906D01*
X143847517Y-79752946D01*
X144026961Y-79892612D01*
X144026963Y-79892613D01*
X144026966Y-79892615D01*
X144039110Y-79899187D01*
X144089500Y-79949200D01*
X144104852Y-80018517D01*
X144080291Y-80085130D01*
X144039110Y-80120813D01*
X144026966Y-80127384D01*
X144026960Y-80127388D01*
X143847514Y-80267056D01*
X143693507Y-80434354D01*
X143569138Y-80624715D01*
X143477798Y-80832949D01*
X143477795Y-80832956D01*
X143421977Y-81053378D01*
X143421976Y-81053384D01*
X143421976Y-81053386D01*
X143403198Y-81280000D01*
X143421790Y-81504375D01*
X143421977Y-81506621D01*
X143477795Y-81727043D01*
X143477798Y-81727050D01*
X143569138Y-81935284D01*
X143688035Y-82117270D01*
X143693510Y-82125649D01*
X143778727Y-82218220D01*
X143838274Y-82282906D01*
X143847517Y-82292946D01*
X144026961Y-82432612D01*
X144026963Y-82432613D01*
X144026966Y-82432615D01*
X144039110Y-82439187D01*
X144089500Y-82489200D01*
X144104852Y-82558517D01*
X144080291Y-82625130D01*
X144039110Y-82660813D01*
X144026966Y-82667384D01*
X144026960Y-82667388D01*
X143847514Y-82807056D01*
X143693507Y-82974354D01*
X143569138Y-83164715D01*
X143477798Y-83372949D01*
X143477795Y-83372956D01*
X143421977Y-83593378D01*
X143421976Y-83593384D01*
X143421976Y-83593386D01*
X143403198Y-83820000D01*
X143421790Y-84044375D01*
X143421977Y-84046621D01*
X143477795Y-84267043D01*
X143477798Y-84267050D01*
X143569138Y-84475284D01*
X143688035Y-84657270D01*
X143693510Y-84665649D01*
X143807644Y-84789632D01*
X143838274Y-84822906D01*
X143847517Y-84832946D01*
X144026961Y-84972612D01*
X144026963Y-84972613D01*
X144026966Y-84972615D01*
X144039110Y-84979187D01*
X144089500Y-85029200D01*
X144104852Y-85098517D01*
X144080291Y-85165130D01*
X144039110Y-85200813D01*
X144026966Y-85207384D01*
X144026960Y-85207388D01*
X143847514Y-85347056D01*
X143693507Y-85514354D01*
X143569138Y-85704715D01*
X143477798Y-85912949D01*
X143477795Y-85912956D01*
X143421977Y-86133378D01*
X143421976Y-86133384D01*
X143421976Y-86133386D01*
X143403198Y-86360000D01*
X143421790Y-86584375D01*
X143421977Y-86586621D01*
X143477795Y-86807043D01*
X143477798Y-86807050D01*
X143569138Y-87015284D01*
X143688035Y-87197270D01*
X143693510Y-87205649D01*
X143733829Y-87249447D01*
X143838274Y-87362906D01*
X143847517Y-87372946D01*
X144026961Y-87512612D01*
X144026963Y-87512613D01*
X144026966Y-87512615D01*
X144039110Y-87519187D01*
X144089500Y-87569200D01*
X144104852Y-87638517D01*
X144080291Y-87705130D01*
X144039110Y-87740813D01*
X144026966Y-87747384D01*
X144026960Y-87747388D01*
X143847514Y-87887056D01*
X143693507Y-88054354D01*
X143569138Y-88244715D01*
X143477798Y-88452949D01*
X143477795Y-88452956D01*
X143421977Y-88673378D01*
X143421976Y-88673384D01*
X143421976Y-88673386D01*
X143403198Y-88900000D01*
X143421790Y-89124375D01*
X143421977Y-89126621D01*
X143477795Y-89347043D01*
X143477798Y-89347050D01*
X143569138Y-89555284D01*
X143688035Y-89737270D01*
X143693510Y-89745649D01*
X143807644Y-89869632D01*
X143838274Y-89902906D01*
X143847517Y-89912946D01*
X144026961Y-90052612D01*
X144026963Y-90052613D01*
X144026966Y-90052615D01*
X144039110Y-90059187D01*
X144089500Y-90109200D01*
X144104852Y-90178517D01*
X144080291Y-90245130D01*
X144039110Y-90280813D01*
X144026966Y-90287384D01*
X144026960Y-90287388D01*
X143847514Y-90427056D01*
X143693507Y-90594354D01*
X143569138Y-90784715D01*
X143477798Y-90992949D01*
X143477795Y-90992956D01*
X143421977Y-91213378D01*
X143421976Y-91213384D01*
X143421976Y-91213386D01*
X143403198Y-91440000D01*
X143421790Y-91664375D01*
X143421977Y-91666621D01*
X143477795Y-91887043D01*
X143477798Y-91887050D01*
X143569138Y-92095284D01*
X143688035Y-92277270D01*
X143693510Y-92285649D01*
X143807644Y-92409632D01*
X143838274Y-92442906D01*
X143847517Y-92452946D01*
X144026961Y-92592612D01*
X144026963Y-92592613D01*
X144026966Y-92592615D01*
X144039110Y-92599187D01*
X144089500Y-92649200D01*
X144104852Y-92718517D01*
X144080291Y-92785130D01*
X144039110Y-92820813D01*
X144026966Y-92827384D01*
X144026960Y-92827388D01*
X143847514Y-92967056D01*
X143693507Y-93134354D01*
X143569138Y-93324715D01*
X143477798Y-93532949D01*
X143477795Y-93532956D01*
X143421977Y-93753378D01*
X143421976Y-93753384D01*
X143421976Y-93753386D01*
X143403198Y-93980000D01*
X143421790Y-94204375D01*
X143421977Y-94206621D01*
X143477795Y-94427043D01*
X143477798Y-94427050D01*
X143569138Y-94635284D01*
X143688035Y-94817270D01*
X143693510Y-94825649D01*
X143744539Y-94881081D01*
X143838274Y-94982906D01*
X143847517Y-94992946D01*
X144026961Y-95132612D01*
X144026963Y-95132613D01*
X144026966Y-95132615D01*
X144039110Y-95139187D01*
X144089500Y-95189200D01*
X144104852Y-95258517D01*
X144080291Y-95325130D01*
X144039110Y-95360813D01*
X144026966Y-95367384D01*
X144026960Y-95367388D01*
X143847514Y-95507056D01*
X143693507Y-95674354D01*
X143569138Y-95864715D01*
X143477798Y-96072949D01*
X143477795Y-96072956D01*
X143421977Y-96293378D01*
X143421976Y-96293384D01*
X143421976Y-96293386D01*
X143403198Y-96520000D01*
X143421790Y-96744375D01*
X143421977Y-96746621D01*
X143477795Y-96967043D01*
X143477798Y-96967050D01*
X143569138Y-97175284D01*
X143688035Y-97357270D01*
X143693510Y-97365649D01*
X143807644Y-97489632D01*
X143838274Y-97522906D01*
X143847517Y-97532946D01*
X144026961Y-97672612D01*
X144026963Y-97672613D01*
X144026966Y-97672615D01*
X144039110Y-97679187D01*
X144089500Y-97729200D01*
X144104852Y-97798517D01*
X144080291Y-97865130D01*
X144039110Y-97900813D01*
X144026966Y-97907384D01*
X144026960Y-97907388D01*
X143847514Y-98047056D01*
X143693507Y-98214354D01*
X143569138Y-98404715D01*
X143477798Y-98612949D01*
X143477795Y-98612956D01*
X143421977Y-98833378D01*
X143421976Y-98833384D01*
X143421976Y-98833386D01*
X143403198Y-99060000D01*
X130916802Y-99060000D01*
X130898024Y-98833386D01*
X130842203Y-98612953D01*
X130750861Y-98404715D01*
X130626490Y-98214351D01*
X130499065Y-98075929D01*
X130472485Y-98047056D01*
X130472484Y-98047055D01*
X130472483Y-98047054D01*
X130293039Y-97907388D01*
X130293038Y-97907387D01*
X130288198Y-97904768D01*
X130280890Y-97900813D01*
X130230500Y-97850803D01*
X130215147Y-97781486D01*
X130239706Y-97714873D01*
X130280889Y-97679186D01*
X130293039Y-97672612D01*
X130472483Y-97532946D01*
X130626490Y-97365649D01*
X130750861Y-97175285D01*
X130842203Y-96967047D01*
X130898024Y-96746614D01*
X130916802Y-96520000D01*
X130898024Y-96293386D01*
X130845321Y-96085266D01*
X130842204Y-96072956D01*
X130842201Y-96072949D01*
X130750861Y-95864715D01*
X130626492Y-95674354D01*
X130626491Y-95674353D01*
X130626490Y-95674351D01*
X130499065Y-95535929D01*
X130472485Y-95507056D01*
X130472484Y-95507055D01*
X130472483Y-95507054D01*
X130293039Y-95367388D01*
X130293038Y-95367387D01*
X130288198Y-95364768D01*
X130280890Y-95360813D01*
X130230500Y-95310803D01*
X130215147Y-95241486D01*
X130239706Y-95174873D01*
X130280889Y-95139186D01*
X130293039Y-95132612D01*
X130472483Y-94992946D01*
X130626490Y-94825649D01*
X130750861Y-94635285D01*
X130842203Y-94427047D01*
X130898024Y-94206614D01*
X130916802Y-93980000D01*
X130898024Y-93753386D01*
X130842203Y-93532953D01*
X130750861Y-93324715D01*
X130626490Y-93134351D01*
X130499065Y-92995929D01*
X130472485Y-92967056D01*
X130472484Y-92967055D01*
X130472483Y-92967054D01*
X130293039Y-92827388D01*
X130293038Y-92827387D01*
X130288198Y-92824768D01*
X130280890Y-92820813D01*
X130230500Y-92770803D01*
X130215147Y-92701486D01*
X130239706Y-92634873D01*
X130280889Y-92599186D01*
X130293039Y-92592612D01*
X130472483Y-92452946D01*
X130626490Y-92285649D01*
X130750861Y-92095285D01*
X130842203Y-91887047D01*
X130898024Y-91666614D01*
X130916802Y-91440000D01*
X130898024Y-91213386D01*
X130869064Y-91099024D01*
X130842204Y-90992956D01*
X130842201Y-90992949D01*
X130750861Y-90784715D01*
X130626492Y-90594354D01*
X130626491Y-90594353D01*
X130626490Y-90594351D01*
X130499065Y-90455929D01*
X130472485Y-90427056D01*
X130472484Y-90427055D01*
X130472483Y-90427054D01*
X130293039Y-90287388D01*
X130293038Y-90287387D01*
X130288198Y-90284768D01*
X130280890Y-90280813D01*
X130230500Y-90230803D01*
X130215147Y-90161486D01*
X130239706Y-90094873D01*
X130280889Y-90059186D01*
X130293039Y-90052612D01*
X130472483Y-89912946D01*
X130626490Y-89745649D01*
X130750861Y-89555285D01*
X130842203Y-89347047D01*
X130898024Y-89126614D01*
X130916802Y-88900000D01*
X130898024Y-88673386D01*
X130842203Y-88452953D01*
X130750861Y-88244715D01*
X130626490Y-88054351D01*
X130485065Y-87900722D01*
X130472485Y-87887056D01*
X130472484Y-87887055D01*
X130472483Y-87887054D01*
X130293039Y-87747388D01*
X130293038Y-87747387D01*
X130288198Y-87744768D01*
X130280890Y-87740813D01*
X130230500Y-87690803D01*
X130215147Y-87621486D01*
X130239706Y-87554873D01*
X130280889Y-87519186D01*
X130293039Y-87512612D01*
X130472483Y-87372946D01*
X130626490Y-87205649D01*
X130750861Y-87015285D01*
X130842203Y-86807047D01*
X130898024Y-86586614D01*
X130916802Y-86360000D01*
X130898024Y-86133386D01*
X130842203Y-85912953D01*
X130750861Y-85704715D01*
X130626490Y-85514351D01*
X130499065Y-85375929D01*
X130472485Y-85347056D01*
X130472484Y-85347055D01*
X130472483Y-85347054D01*
X130293039Y-85207388D01*
X130293038Y-85207387D01*
X130288198Y-85204768D01*
X130280890Y-85200813D01*
X130230500Y-85150803D01*
X130215147Y-85081486D01*
X130239706Y-85014873D01*
X130280889Y-84979186D01*
X130293039Y-84972612D01*
X130472483Y-84832946D01*
X130626490Y-84665649D01*
X130750861Y-84475285D01*
X130842203Y-84267047D01*
X130898024Y-84046614D01*
X130916802Y-83820000D01*
X130898024Y-83593386D01*
X130842203Y-83372953D01*
X130750861Y-83164715D01*
X130626490Y-82974351D01*
X130499065Y-82835929D01*
X130472485Y-82807056D01*
X130472484Y-82807055D01*
X130472483Y-82807054D01*
X130293039Y-82667388D01*
X130293038Y-82667387D01*
X130288198Y-82664768D01*
X130280890Y-82660813D01*
X130230500Y-82610803D01*
X130215147Y-82541486D01*
X130239706Y-82474873D01*
X130280889Y-82439186D01*
X130293039Y-82432612D01*
X130472483Y-82292946D01*
X130626490Y-82125649D01*
X130750861Y-81935285D01*
X130842203Y-81727047D01*
X130898024Y-81506614D01*
X130916802Y-81280000D01*
X130898024Y-81053386D01*
X130842203Y-80832953D01*
X130750861Y-80624715D01*
X130626490Y-80434351D01*
X130499065Y-80295929D01*
X130472485Y-80267056D01*
X130472484Y-80267055D01*
X130472483Y-80267054D01*
X130293039Y-80127388D01*
X130293038Y-80127387D01*
X130288198Y-80124768D01*
X130280890Y-80120813D01*
X130230500Y-80070803D01*
X130215147Y-80001486D01*
X130239706Y-79934873D01*
X130280889Y-79899186D01*
X130293039Y-79892612D01*
X130472483Y-79752946D01*
X130626490Y-79585649D01*
X130750861Y-79395285D01*
X130842203Y-79187047D01*
X130898024Y-78966614D01*
X130916802Y-78740000D01*
X130898024Y-78513386D01*
X130853355Y-78336990D01*
X130842204Y-78292956D01*
X130842201Y-78292949D01*
X130839103Y-78285887D01*
X130750861Y-78084715D01*
X130626490Y-77894351D01*
X130498223Y-77755015D01*
X130472485Y-77727056D01*
X130472484Y-77727055D01*
X130472483Y-77727054D01*
X130293039Y-77587388D01*
X130293038Y-77587387D01*
X130288198Y-77584768D01*
X130280890Y-77580813D01*
X130230500Y-77530803D01*
X130215147Y-77461486D01*
X130239706Y-77394873D01*
X130280889Y-77359186D01*
X130293039Y-77352612D01*
X130472483Y-77212946D01*
X130626490Y-77045649D01*
X130750861Y-76855285D01*
X130842203Y-76647047D01*
X130898024Y-76426614D01*
X130916802Y-76200000D01*
X130898024Y-75973386D01*
X130842203Y-75752953D01*
X130750861Y-75544715D01*
X130626490Y-75354351D01*
X130488712Y-75204683D01*
X130472485Y-75187056D01*
X130472484Y-75187055D01*
X130472483Y-75187054D01*
X130293039Y-75047388D01*
X130293038Y-75047387D01*
X130288198Y-75044768D01*
X130280890Y-75040813D01*
X130230500Y-74990803D01*
X130215147Y-74921486D01*
X130239706Y-74854873D01*
X130280889Y-74819186D01*
X130293039Y-74812612D01*
X130472483Y-74672946D01*
X130626490Y-74505649D01*
X130750861Y-74315285D01*
X130842203Y-74107047D01*
X130898024Y-73886614D01*
X130916802Y-73660000D01*
X130898024Y-73433386D01*
X130886665Y-73388529D01*
X130842204Y-73212956D01*
X130842201Y-73212949D01*
X130750861Y-73004715D01*
X130626492Y-72814354D01*
X130626491Y-72814353D01*
X130626490Y-72814351D01*
X130499080Y-72675946D01*
X130467660Y-72612281D01*
X130475647Y-72541735D01*
X130520506Y-72486706D01*
X130547742Y-72472556D01*
X130649804Y-72434489D01*
X130766861Y-72346861D01*
X130828660Y-72264308D01*
X130854487Y-72229807D01*
X130854487Y-72229806D01*
X130854489Y-72229804D01*
X130905589Y-72092801D01*
X130912100Y-72032238D01*
X130912100Y-70207762D01*
X130911648Y-70203558D01*
X130905590Y-70147203D01*
X130905588Y-70147195D01*
X130854489Y-70010197D01*
X130854487Y-70010192D01*
X130766861Y-69893138D01*
X130649807Y-69805512D01*
X130649804Y-69805511D01*
X130547748Y-69767445D01*
X130490913Y-69724898D01*
X130466103Y-69658377D01*
X130481195Y-69589003D01*
X130499081Y-69564053D01*
X130626490Y-69425649D01*
X130656026Y-69380441D01*
X130750861Y-69235285D01*
X130842203Y-69027047D01*
X130898024Y-68806614D01*
X130916802Y-68580000D01*
X130898024Y-68353386D01*
X130842203Y-68132953D01*
X130750861Y-67924715D01*
X130626490Y-67734351D01*
X130499065Y-67595929D01*
X130472485Y-67567056D01*
X130472484Y-67567055D01*
X130472483Y-67567054D01*
X130293039Y-67427388D01*
X130293038Y-67427387D01*
X130288198Y-67424768D01*
X130280890Y-67420813D01*
X130230500Y-67370803D01*
X130215147Y-67301486D01*
X130239706Y-67234873D01*
X130280889Y-67199186D01*
X130293039Y-67192612D01*
X130472483Y-67052946D01*
X130626490Y-66885649D01*
X130750861Y-66695285D01*
X130842203Y-66487047D01*
X130898024Y-66266614D01*
X130916802Y-66040000D01*
X130898024Y-65813386D01*
X130842203Y-65592953D01*
X130750861Y-65384715D01*
X130626490Y-65194351D01*
X130491009Y-65047179D01*
X130472485Y-65027056D01*
X130472484Y-65027055D01*
X130472483Y-65027054D01*
X130293039Y-64887388D01*
X130293038Y-64887387D01*
X130288198Y-64884768D01*
X130280890Y-64880813D01*
X130230500Y-64830803D01*
X130215147Y-64761486D01*
X130239706Y-64694873D01*
X130280889Y-64659186D01*
X130293039Y-64652612D01*
X130472483Y-64512946D01*
X130626490Y-64345649D01*
X130750861Y-64155285D01*
X130842203Y-63947047D01*
X130898024Y-63726614D01*
X130916802Y-63500000D01*
X130898024Y-63273386D01*
X130842203Y-63052953D01*
X130750861Y-62844715D01*
X130626490Y-62654351D01*
X130472483Y-62487054D01*
X130293039Y-62347388D01*
X130293033Y-62347384D01*
X130093058Y-62239162D01*
X130093052Y-62239159D01*
X130057902Y-62227093D01*
X129999967Y-62186056D01*
X129973415Y-62120212D01*
X129986676Y-62050465D01*
X130035540Y-61998959D01*
X130041595Y-61995661D01*
X130142994Y-61943996D01*
X130289501Y-61837553D01*
X130417553Y-61709501D01*
X130523996Y-61562994D01*
X130606211Y-61401639D01*
X130662171Y-61229409D01*
X130690500Y-61050546D01*
X130690500Y-60869454D01*
X130662171Y-60690591D01*
X130606211Y-60518361D01*
X130523996Y-60357006D01*
X130417553Y-60210499D01*
X130417550Y-60210496D01*
X130417548Y-60210493D01*
X130289506Y-60082451D01*
X130289503Y-60082449D01*
X130289501Y-60082447D01*
X130142994Y-59976004D01*
X129981639Y-59893789D01*
X129981636Y-59893788D01*
X129981634Y-59893787D01*
X129809412Y-59837830D01*
X129809409Y-59837829D01*
X129630546Y-59809500D01*
X129449454Y-59809500D01*
X129270591Y-59837829D01*
X129270588Y-59837829D01*
X129270587Y-59837830D01*
X129098365Y-59893787D01*
X129098359Y-59893790D01*
X128937002Y-59976006D01*
X128790496Y-60082449D01*
X128790493Y-60082451D01*
X128662451Y-60210493D01*
X128662449Y-60210496D01*
X128556006Y-60357002D01*
X128473790Y-60518359D01*
X128473787Y-60518365D01*
X128417830Y-60690587D01*
X128417829Y-60690591D01*
X128389500Y-60869454D01*
X128389500Y-61050546D01*
X128417829Y-61229409D01*
X128473789Y-61401639D01*
X128556004Y-61562994D01*
X128662447Y-61709501D01*
X128662449Y-61709503D01*
X128662451Y-61709506D01*
X128790493Y-61837548D01*
X128790496Y-61837550D01*
X128790499Y-61837553D01*
X128900379Y-61917385D01*
X128937007Y-61943997D01*
X129038388Y-61995654D01*
X129090003Y-62044402D01*
X129107069Y-62113317D01*
X129084168Y-62180518D01*
X129028570Y-62224670D01*
X129022098Y-62227093D01*
X128986944Y-62239161D01*
X128986941Y-62239162D01*
X128786966Y-62347384D01*
X128786960Y-62347388D01*
X128607514Y-62487056D01*
X128453507Y-62654354D01*
X128329138Y-62844715D01*
X128237798Y-63052949D01*
X128237795Y-63052956D01*
X128181977Y-63273378D01*
X128163198Y-63500000D01*
X128181977Y-63726621D01*
X128237795Y-63947043D01*
X128237798Y-63947050D01*
X128329138Y-64155284D01*
X128349823Y-64186945D01*
X128453510Y-64345649D01*
X128607517Y-64512946D01*
X128786961Y-64652612D01*
X128786963Y-64652613D01*
X128786966Y-64652615D01*
X128799110Y-64659187D01*
X128849500Y-64709200D01*
X128864852Y-64778517D01*
X128840291Y-64845130D01*
X128799110Y-64880813D01*
X128786966Y-64887384D01*
X128786960Y-64887388D01*
X128607514Y-65027056D01*
X128453507Y-65194354D01*
X128329138Y-65384715D01*
X128237798Y-65592949D01*
X128237795Y-65592956D01*
X128181977Y-65813378D01*
X128181976Y-65813384D01*
X128181976Y-65813386D01*
X128163198Y-66040000D01*
X128181790Y-66264375D01*
X128181977Y-66266621D01*
X128237795Y-66487043D01*
X128237798Y-66487050D01*
X128329138Y-66695284D01*
X128448035Y-66877270D01*
X128453510Y-66885649D01*
X128567644Y-67009632D01*
X128598274Y-67042906D01*
X128607517Y-67052946D01*
X128786961Y-67192612D01*
X128786963Y-67192613D01*
X128786966Y-67192615D01*
X128799110Y-67199187D01*
X128849500Y-67249200D01*
X128864852Y-67318517D01*
X128840291Y-67385130D01*
X128799110Y-67420813D01*
X128786966Y-67427384D01*
X128786960Y-67427388D01*
X128607514Y-67567056D01*
X128453507Y-67734354D01*
X128329138Y-67924715D01*
X128237798Y-68132949D01*
X128237795Y-68132956D01*
X128181977Y-68353378D01*
X128181976Y-68353384D01*
X128181976Y-68353386D01*
X128163198Y-68580000D01*
X128181790Y-68804375D01*
X128181977Y-68806621D01*
X128237795Y-69027043D01*
X128237798Y-69027050D01*
X128329138Y-69235284D01*
X128448035Y-69417270D01*
X128453510Y-69425649D01*
X128482366Y-69456995D01*
X128580919Y-69564053D01*
X128612339Y-69627718D01*
X128604352Y-69698264D01*
X128559493Y-69753293D01*
X128532251Y-69767445D01*
X128430195Y-69805511D01*
X128430192Y-69805512D01*
X128313138Y-69893138D01*
X128225512Y-70010192D01*
X128225510Y-70010197D01*
X128174411Y-70147195D01*
X128174409Y-70147203D01*
X128167900Y-70207750D01*
X128167900Y-72032249D01*
X128174409Y-72092796D01*
X128174411Y-72092804D01*
X128225510Y-72229802D01*
X128225512Y-72229807D01*
X128313138Y-72346861D01*
X128430192Y-72434487D01*
X128430194Y-72434488D01*
X128430196Y-72434489D01*
X128473932Y-72450802D01*
X128532250Y-72472554D01*
X128589086Y-72515101D01*
X128613896Y-72581621D01*
X128598804Y-72650995D01*
X128580919Y-72675946D01*
X128453507Y-72814354D01*
X128329138Y-73004715D01*
X128237798Y-73212949D01*
X128237795Y-73212956D01*
X128181977Y-73433378D01*
X128181976Y-73433384D01*
X128181976Y-73433386D01*
X128163198Y-73660000D01*
X128181790Y-73884375D01*
X128181977Y-73886621D01*
X128237795Y-74107043D01*
X128237798Y-74107050D01*
X128329138Y-74315284D01*
X128448702Y-74498291D01*
X128453510Y-74505649D01*
X128549014Y-74609394D01*
X128598274Y-74662906D01*
X128607517Y-74672946D01*
X128786961Y-74812612D01*
X128786963Y-74812613D01*
X128786966Y-74812615D01*
X128799110Y-74819187D01*
X128849500Y-74869200D01*
X128864852Y-74938517D01*
X128840291Y-75005130D01*
X128799110Y-75040813D01*
X128786966Y-75047384D01*
X128786960Y-75047388D01*
X128607514Y-75187056D01*
X128453507Y-75354354D01*
X128329138Y-75544715D01*
X128237798Y-75752949D01*
X128237795Y-75752956D01*
X128181977Y-75973378D01*
X128181976Y-75973384D01*
X128181976Y-75973386D01*
X128163198Y-76200000D01*
X128181790Y-76424375D01*
X128181977Y-76426621D01*
X128237795Y-76647043D01*
X128237798Y-76647050D01*
X128329138Y-76855284D01*
X128448035Y-77037270D01*
X128453510Y-77045649D01*
X128567644Y-77169632D01*
X128598274Y-77202906D01*
X128607517Y-77212946D01*
X128786961Y-77352612D01*
X128786963Y-77352613D01*
X128786966Y-77352615D01*
X128799110Y-77359187D01*
X128849500Y-77409200D01*
X128864852Y-77478517D01*
X128840291Y-77545130D01*
X128799110Y-77580813D01*
X128786966Y-77587384D01*
X128786960Y-77587388D01*
X128607514Y-77727056D01*
X128453507Y-77894354D01*
X128329138Y-78084715D01*
X128237798Y-78292949D01*
X128237795Y-78292956D01*
X128181977Y-78513378D01*
X128181976Y-78513384D01*
X128181976Y-78513386D01*
X128163198Y-78740000D01*
X128181790Y-78964375D01*
X128181977Y-78966621D01*
X128237795Y-79187043D01*
X128237798Y-79187050D01*
X128329138Y-79395284D01*
X128448035Y-79577270D01*
X128453510Y-79585649D01*
X128567644Y-79709632D01*
X128598274Y-79742906D01*
X128607517Y-79752946D01*
X128786961Y-79892612D01*
X128786963Y-79892613D01*
X128786966Y-79892615D01*
X128799110Y-79899187D01*
X128849500Y-79949200D01*
X128864852Y-80018517D01*
X128840291Y-80085130D01*
X128799110Y-80120813D01*
X128786966Y-80127384D01*
X128786960Y-80127388D01*
X128607514Y-80267056D01*
X128453507Y-80434354D01*
X128329138Y-80624715D01*
X128237798Y-80832949D01*
X128237795Y-80832956D01*
X128181977Y-81053378D01*
X128181976Y-81053384D01*
X128181976Y-81053386D01*
X128163198Y-81280000D01*
X128181790Y-81504375D01*
X128181977Y-81506621D01*
X128237795Y-81727043D01*
X128237798Y-81727050D01*
X128329138Y-81935284D01*
X128448035Y-82117270D01*
X128453510Y-82125649D01*
X128538727Y-82218220D01*
X128598274Y-82282906D01*
X128607517Y-82292946D01*
X128786961Y-82432612D01*
X128786963Y-82432613D01*
X128786966Y-82432615D01*
X128799110Y-82439187D01*
X128849500Y-82489200D01*
X128864852Y-82558517D01*
X128840291Y-82625130D01*
X128799110Y-82660813D01*
X128786966Y-82667384D01*
X128786960Y-82667388D01*
X128607514Y-82807056D01*
X128453507Y-82974354D01*
X128329138Y-83164715D01*
X128237798Y-83372949D01*
X128237795Y-83372956D01*
X128181977Y-83593378D01*
X128181976Y-83593384D01*
X128181976Y-83593386D01*
X128163198Y-83820000D01*
X128181790Y-84044375D01*
X128181977Y-84046621D01*
X128237795Y-84267043D01*
X128237798Y-84267050D01*
X128329138Y-84475284D01*
X128448035Y-84657270D01*
X128453510Y-84665649D01*
X128567644Y-84789632D01*
X128598274Y-84822906D01*
X128607517Y-84832946D01*
X128786961Y-84972612D01*
X128786963Y-84972613D01*
X128786966Y-84972615D01*
X128799110Y-84979187D01*
X128849500Y-85029200D01*
X128864852Y-85098517D01*
X128840291Y-85165130D01*
X128799110Y-85200813D01*
X128786966Y-85207384D01*
X128786960Y-85207388D01*
X128607514Y-85347056D01*
X128453507Y-85514354D01*
X128329138Y-85704715D01*
X128237798Y-85912949D01*
X128237795Y-85912956D01*
X128181977Y-86133378D01*
X128181976Y-86133384D01*
X128181976Y-86133386D01*
X128163198Y-86360000D01*
X128181790Y-86584375D01*
X128181977Y-86586621D01*
X128237795Y-86807043D01*
X128237798Y-86807050D01*
X128329138Y-87015284D01*
X128448035Y-87197270D01*
X128453510Y-87205649D01*
X128493829Y-87249447D01*
X128598274Y-87362906D01*
X128607517Y-87372946D01*
X128786961Y-87512612D01*
X128786963Y-87512613D01*
X128786966Y-87512615D01*
X128799110Y-87519187D01*
X128849500Y-87569200D01*
X128864852Y-87638517D01*
X128840291Y-87705130D01*
X128799110Y-87740813D01*
X128786966Y-87747384D01*
X128786960Y-87747388D01*
X128607514Y-87887056D01*
X128453507Y-88054354D01*
X128329138Y-88244715D01*
X128237798Y-88452949D01*
X128237795Y-88452956D01*
X128181977Y-88673378D01*
X128181976Y-88673384D01*
X128181976Y-88673386D01*
X128163198Y-88900000D01*
X128181790Y-89124375D01*
X128181977Y-89126621D01*
X128237795Y-89347043D01*
X128237798Y-89347050D01*
X128329138Y-89555284D01*
X128448035Y-89737270D01*
X128453510Y-89745649D01*
X128567644Y-89869632D01*
X128598274Y-89902906D01*
X128607517Y-89912946D01*
X128786961Y-90052612D01*
X128786963Y-90052613D01*
X128786966Y-90052615D01*
X128799110Y-90059187D01*
X128849500Y-90109200D01*
X128864852Y-90178517D01*
X128840291Y-90245130D01*
X128799110Y-90280813D01*
X128786966Y-90287384D01*
X128786960Y-90287388D01*
X128607514Y-90427056D01*
X128453507Y-90594354D01*
X128329138Y-90784715D01*
X128237798Y-90992949D01*
X128237795Y-90992956D01*
X128181977Y-91213378D01*
X128181976Y-91213384D01*
X128181976Y-91213386D01*
X128163198Y-91440000D01*
X128181790Y-91664375D01*
X128181977Y-91666621D01*
X128237795Y-91887043D01*
X128237798Y-91887050D01*
X128329138Y-92095284D01*
X128448035Y-92277270D01*
X128453510Y-92285649D01*
X128567644Y-92409632D01*
X128598274Y-92442906D01*
X128607517Y-92452946D01*
X128786961Y-92592612D01*
X128786963Y-92592613D01*
X128786966Y-92592615D01*
X128799110Y-92599187D01*
X128849500Y-92649200D01*
X128864852Y-92718517D01*
X128840291Y-92785130D01*
X128799110Y-92820813D01*
X128786966Y-92827384D01*
X128786960Y-92827388D01*
X128607514Y-92967056D01*
X128453507Y-93134354D01*
X128329138Y-93324715D01*
X128237798Y-93532949D01*
X128237795Y-93532956D01*
X128181977Y-93753378D01*
X128181976Y-93753384D01*
X128181976Y-93753386D01*
X128163198Y-93980000D01*
X128181790Y-94204375D01*
X128181977Y-94206621D01*
X128237795Y-94427043D01*
X128237798Y-94427050D01*
X128329138Y-94635284D01*
X128448035Y-94817270D01*
X128453510Y-94825649D01*
X128504539Y-94881081D01*
X128598274Y-94982906D01*
X128607517Y-94992946D01*
X128786961Y-95132612D01*
X128786963Y-95132613D01*
X128786966Y-95132615D01*
X128799110Y-95139187D01*
X128849500Y-95189200D01*
X128864852Y-95258517D01*
X128840291Y-95325130D01*
X128799110Y-95360813D01*
X128786966Y-95367384D01*
X128786960Y-95367388D01*
X128607514Y-95507056D01*
X128453507Y-95674354D01*
X128329138Y-95864715D01*
X128237798Y-96072949D01*
X128237795Y-96072956D01*
X128181977Y-96293378D01*
X128181976Y-96293384D01*
X128181976Y-96293386D01*
X128163198Y-96520000D01*
X128181790Y-96744375D01*
X128181977Y-96746621D01*
X128237795Y-96967043D01*
X128237798Y-96967050D01*
X128329138Y-97175284D01*
X128448035Y-97357270D01*
X128453510Y-97365649D01*
X128567644Y-97489632D01*
X128598274Y-97522906D01*
X128607517Y-97532946D01*
X128786961Y-97672612D01*
X128786963Y-97672613D01*
X128786966Y-97672615D01*
X128799110Y-97679187D01*
X128849500Y-97729200D01*
X128864852Y-97798517D01*
X128840291Y-97865130D01*
X128799110Y-97900813D01*
X128786966Y-97907384D01*
X128786960Y-97907388D01*
X128607514Y-98047056D01*
X128453507Y-98214354D01*
X128329138Y-98404715D01*
X128237798Y-98612949D01*
X128237795Y-98612956D01*
X128181977Y-98833378D01*
X128181976Y-98833384D01*
X128181976Y-98833386D01*
X128163198Y-99060000D01*
X125823156Y-99060000D01*
X125804564Y-98835632D01*
X125749296Y-98617384D01*
X125658860Y-98411209D01*
X125652140Y-98400924D01*
X125535724Y-98222734D01*
X125535720Y-98222729D01*
X125383237Y-98057091D01*
X125301382Y-97993381D01*
X125205576Y-97918811D01*
X125172319Y-97900813D01*
X125121929Y-97850802D01*
X125106576Y-97781485D01*
X125131136Y-97714872D01*
X125172320Y-97679186D01*
X125172322Y-97679185D01*
X125205576Y-97661189D01*
X125383240Y-97522906D01*
X125535722Y-97357268D01*
X125658860Y-97168791D01*
X125749296Y-96962616D01*
X125804564Y-96744368D01*
X125823156Y-96520000D01*
X125804564Y-96295632D01*
X125749296Y-96077384D01*
X125658860Y-95871209D01*
X125650075Y-95857762D01*
X125535724Y-95682734D01*
X125535720Y-95682729D01*
X125383237Y-95517091D01*
X125263778Y-95424112D01*
X125205576Y-95378811D01*
X125172319Y-95360813D01*
X125121929Y-95310802D01*
X125106576Y-95241485D01*
X125131136Y-95174872D01*
X125172320Y-95139186D01*
X125172322Y-95139185D01*
X125205576Y-95121189D01*
X125383240Y-94982906D01*
X125535722Y-94817268D01*
X125658860Y-94628791D01*
X125749296Y-94422616D01*
X125804564Y-94204368D01*
X125823156Y-93980000D01*
X125804564Y-93755632D01*
X125749296Y-93537384D01*
X125658860Y-93331209D01*
X125652140Y-93320924D01*
X125535724Y-93142734D01*
X125535720Y-93142729D01*
X125383237Y-92977091D01*
X125301382Y-92913381D01*
X125205576Y-92838811D01*
X125172319Y-92820813D01*
X125121929Y-92770802D01*
X125106576Y-92701485D01*
X125131136Y-92634872D01*
X125172320Y-92599186D01*
X125172322Y-92599185D01*
X125205576Y-92581189D01*
X125383240Y-92442906D01*
X125535722Y-92277268D01*
X125658860Y-92088791D01*
X125749296Y-91882616D01*
X125804564Y-91664368D01*
X125823156Y-91440000D01*
X125804564Y-91215632D01*
X125749296Y-90997384D01*
X125658860Y-90791209D01*
X125569495Y-90654425D01*
X125535724Y-90602734D01*
X125535720Y-90602729D01*
X125383237Y-90437091D01*
X125257011Y-90338845D01*
X125205576Y-90298811D01*
X125172319Y-90280813D01*
X125121929Y-90230802D01*
X125106576Y-90161485D01*
X125131136Y-90094872D01*
X125172320Y-90059186D01*
X125172322Y-90059185D01*
X125205576Y-90041189D01*
X125383240Y-89902906D01*
X125535722Y-89737268D01*
X125658860Y-89548791D01*
X125749296Y-89342616D01*
X125804564Y-89124368D01*
X125823156Y-88900000D01*
X125804564Y-88675632D01*
X125749296Y-88457384D01*
X125658860Y-88251209D01*
X125652140Y-88240924D01*
X125535724Y-88062734D01*
X125535720Y-88062729D01*
X125383237Y-87897091D01*
X125301382Y-87833381D01*
X125205576Y-87758811D01*
X125172319Y-87740813D01*
X125121929Y-87690802D01*
X125106576Y-87621485D01*
X125131136Y-87554872D01*
X125172320Y-87519186D01*
X125172322Y-87519185D01*
X125205576Y-87501189D01*
X125383240Y-87362906D01*
X125535722Y-87197268D01*
X125658860Y-87008791D01*
X125749296Y-86802616D01*
X125804564Y-86584368D01*
X125823156Y-86360000D01*
X125804564Y-86135632D01*
X125749296Y-85917384D01*
X125658860Y-85711209D01*
X125652140Y-85700924D01*
X125535724Y-85522734D01*
X125535720Y-85522729D01*
X125383237Y-85357091D01*
X125277945Y-85275139D01*
X125205576Y-85218811D01*
X125172319Y-85200813D01*
X125121929Y-85150802D01*
X125106576Y-85081485D01*
X125131136Y-85014872D01*
X125172320Y-84979186D01*
X125172322Y-84979185D01*
X125205576Y-84961189D01*
X125383240Y-84822906D01*
X125535722Y-84657268D01*
X125658860Y-84468791D01*
X125749296Y-84262616D01*
X125804564Y-84044368D01*
X125823156Y-83820000D01*
X125804564Y-83595632D01*
X125803993Y-83593378D01*
X125749297Y-83377387D01*
X125749296Y-83377386D01*
X125749296Y-83377384D01*
X125658860Y-83171209D01*
X125590591Y-83066715D01*
X125535724Y-82982734D01*
X125535720Y-82982729D01*
X125383237Y-82817091D01*
X125281539Y-82737936D01*
X125205576Y-82678811D01*
X125172319Y-82660813D01*
X125121929Y-82610802D01*
X125106576Y-82541485D01*
X125131136Y-82474872D01*
X125172320Y-82439186D01*
X125172322Y-82439185D01*
X125205576Y-82421189D01*
X125383240Y-82282906D01*
X125535722Y-82117268D01*
X125658860Y-81928791D01*
X125749296Y-81722616D01*
X125804564Y-81504368D01*
X125823156Y-81280000D01*
X125804564Y-81055632D01*
X125799704Y-81036439D01*
X125749297Y-80837387D01*
X125749296Y-80837386D01*
X125749296Y-80837384D01*
X125658860Y-80631209D01*
X125620673Y-80572759D01*
X125535724Y-80442734D01*
X125535720Y-80442729D01*
X125383237Y-80277091D01*
X125301382Y-80213381D01*
X125205576Y-80138811D01*
X125172319Y-80120813D01*
X125121929Y-80070802D01*
X125106576Y-80001485D01*
X125131136Y-79934872D01*
X125172320Y-79899186D01*
X125172322Y-79899185D01*
X125205576Y-79881189D01*
X125383240Y-79742906D01*
X125535722Y-79577268D01*
X125658860Y-79388791D01*
X125749296Y-79182616D01*
X125804564Y-78964368D01*
X125823156Y-78740000D01*
X125804564Y-78515632D01*
X125759326Y-78336990D01*
X125749297Y-78297387D01*
X125749296Y-78297386D01*
X125749296Y-78297384D01*
X125658860Y-78091209D01*
X125604335Y-78007752D01*
X125535724Y-77902734D01*
X125535720Y-77902729D01*
X125399748Y-77755026D01*
X125383240Y-77737094D01*
X125383239Y-77737093D01*
X125383237Y-77737091D01*
X125274059Y-77652114D01*
X125205576Y-77598811D01*
X125172319Y-77580813D01*
X125121929Y-77530802D01*
X125106576Y-77461485D01*
X125131136Y-77394872D01*
X125172320Y-77359186D01*
X125172322Y-77359185D01*
X125205576Y-77341189D01*
X125383240Y-77202906D01*
X125535722Y-77037268D01*
X125658860Y-76848791D01*
X125749296Y-76642616D01*
X125804564Y-76424368D01*
X125823156Y-76200000D01*
X125804564Y-75975632D01*
X125749296Y-75757384D01*
X125658860Y-75551209D01*
X125616780Y-75486801D01*
X125535724Y-75362734D01*
X125535720Y-75362729D01*
X125383237Y-75197091D01*
X125289024Y-75123762D01*
X125205576Y-75058811D01*
X125172319Y-75040813D01*
X125121929Y-74990802D01*
X125106576Y-74921485D01*
X125131136Y-74854872D01*
X125172320Y-74819186D01*
X125172322Y-74819185D01*
X125205576Y-74801189D01*
X125383240Y-74662906D01*
X125535722Y-74497268D01*
X125658860Y-74308791D01*
X125749296Y-74102616D01*
X125804564Y-73884368D01*
X125823156Y-73660000D01*
X125804564Y-73435632D01*
X125749296Y-73217384D01*
X125658860Y-73011209D01*
X125652140Y-73000924D01*
X125535724Y-72822734D01*
X125535720Y-72822729D01*
X125383237Y-72657091D01*
X125235028Y-72541735D01*
X125205576Y-72518811D01*
X125198720Y-72515101D01*
X125172320Y-72500814D01*
X125121929Y-72450802D01*
X125106576Y-72381485D01*
X125131136Y-72314872D01*
X125172320Y-72279186D01*
X125172322Y-72279185D01*
X125205576Y-72261189D01*
X125383240Y-72122906D01*
X125535722Y-71957268D01*
X125658860Y-71768791D01*
X125749296Y-71562616D01*
X125804564Y-71344368D01*
X125823156Y-71120000D01*
X125804564Y-70895632D01*
X125797477Y-70867647D01*
X125749297Y-70677387D01*
X125749296Y-70677386D01*
X125749296Y-70677384D01*
X125658860Y-70471209D01*
X125577270Y-70346326D01*
X125535724Y-70282734D01*
X125535720Y-70282729D01*
X125419570Y-70156559D01*
X125383240Y-70117094D01*
X125383239Y-70117093D01*
X125383237Y-70117091D01*
X125253677Y-70016250D01*
X125205576Y-69978811D01*
X125172319Y-69960813D01*
X125121929Y-69910802D01*
X125106576Y-69841485D01*
X125131136Y-69774872D01*
X125172320Y-69739186D01*
X125172322Y-69739185D01*
X125205576Y-69721189D01*
X125383240Y-69582906D01*
X125535722Y-69417268D01*
X125658860Y-69228791D01*
X125749296Y-69022616D01*
X125804564Y-68804368D01*
X125823156Y-68580000D01*
X125804564Y-68355632D01*
X125749296Y-68137384D01*
X125658860Y-67931209D01*
X125652140Y-67920924D01*
X125535724Y-67742734D01*
X125535720Y-67742729D01*
X125383237Y-67577091D01*
X125235028Y-67461735D01*
X125205576Y-67438811D01*
X125198720Y-67435101D01*
X125172320Y-67420814D01*
X125121929Y-67370802D01*
X125106576Y-67301485D01*
X125131136Y-67234872D01*
X125172320Y-67199186D01*
X125172322Y-67199185D01*
X125205576Y-67181189D01*
X125383240Y-67042906D01*
X125535722Y-66877268D01*
X125658860Y-66688791D01*
X125749296Y-66482616D01*
X125804564Y-66264368D01*
X125823156Y-66040000D01*
X125804564Y-65815632D01*
X125803993Y-65813378D01*
X125749297Y-65597387D01*
X125749296Y-65597386D01*
X125749296Y-65597384D01*
X125658860Y-65391209D01*
X125647979Y-65374554D01*
X125535724Y-65202734D01*
X125535719Y-65202729D01*
X125528006Y-65194351D01*
X125392524Y-65047179D01*
X125361103Y-64983514D01*
X125369090Y-64912968D01*
X125413948Y-64857939D01*
X125441183Y-64843789D01*
X125556204Y-64800889D01*
X125586090Y-64778517D01*
X125673261Y-64713261D01*
X125760887Y-64596207D01*
X125760887Y-64596206D01*
X125760889Y-64596204D01*
X125811989Y-64459201D01*
X125818500Y-64398638D01*
X125818500Y-62601362D01*
X125815451Y-62573002D01*
X125811990Y-62540803D01*
X125811988Y-62540795D01*
X125760889Y-62403797D01*
X125760887Y-62403792D01*
X125673261Y-62286738D01*
X125556207Y-62199112D01*
X125556202Y-62199110D01*
X125419204Y-62148011D01*
X125419196Y-62148009D01*
X125358649Y-62141500D01*
X125358638Y-62141500D01*
X123561362Y-62141500D01*
X123561350Y-62141500D01*
X123500803Y-62148009D01*
X123500795Y-62148011D01*
X123363797Y-62199110D01*
X123363792Y-62199112D01*
X123246738Y-62286738D01*
X123159112Y-62403792D01*
X123159110Y-62403797D01*
X123108011Y-62540795D01*
X123108009Y-62540803D01*
X123101500Y-62601350D01*
X123101500Y-64398649D01*
X123108009Y-64459196D01*
X123108011Y-64459204D01*
X123159110Y-64596202D01*
X123159112Y-64596207D01*
X123246738Y-64713261D01*
X123363791Y-64800886D01*
X123363792Y-64800886D01*
X123363796Y-64800889D01*
X123478810Y-64843787D01*
X123535642Y-64886332D01*
X123560453Y-64952852D01*
X123545362Y-65022226D01*
X123527475Y-65047179D01*
X123384280Y-65202729D01*
X123384275Y-65202734D01*
X123261141Y-65391206D01*
X123170703Y-65597386D01*
X123170702Y-65597387D01*
X123115437Y-65815624D01*
X123096844Y-66040000D01*
X123115437Y-66264375D01*
X123170702Y-66482612D01*
X123170703Y-66482613D01*
X123261141Y-66688793D01*
X123384275Y-66877265D01*
X123384279Y-66877270D01*
X123536762Y-67042908D01*
X123549655Y-67052943D01*
X123714424Y-67181189D01*
X123747678Y-67199185D01*
X123747680Y-67199186D01*
X123798071Y-67249200D01*
X123813423Y-67318516D01*
X123788862Y-67385129D01*
X123747680Y-67420813D01*
X123714426Y-67438810D01*
X123714424Y-67438811D01*
X123536762Y-67577091D01*
X123384279Y-67742729D01*
X123384275Y-67742734D01*
X123261141Y-67931206D01*
X123170703Y-68137386D01*
X123170702Y-68137387D01*
X123115437Y-68355624D01*
X123096844Y-68580000D01*
X123115437Y-68804375D01*
X123170702Y-69022612D01*
X123170703Y-69022613D01*
X123261141Y-69228793D01*
X123384275Y-69417265D01*
X123384279Y-69417270D01*
X123536762Y-69582908D01*
X123544593Y-69589003D01*
X123714424Y-69721189D01*
X123747678Y-69739185D01*
X123747680Y-69739186D01*
X123798071Y-69789200D01*
X123813423Y-69858516D01*
X123788862Y-69925129D01*
X123747680Y-69960813D01*
X123714426Y-69978810D01*
X123714424Y-69978811D01*
X123536762Y-70117091D01*
X123384279Y-70282729D01*
X123384275Y-70282734D01*
X123261141Y-70471206D01*
X123170703Y-70677386D01*
X123170702Y-70677387D01*
X123115437Y-70895624D01*
X123115436Y-70895630D01*
X123115436Y-70895632D01*
X123096844Y-71120000D01*
X123107384Y-71247200D01*
X123115437Y-71344375D01*
X123170702Y-71562612D01*
X123170703Y-71562613D01*
X123170704Y-71562616D01*
X123259172Y-71764304D01*
X123261141Y-71768793D01*
X123384275Y-71957265D01*
X123384279Y-71957270D01*
X123536762Y-72122908D01*
X123569007Y-72148005D01*
X123714424Y-72261189D01*
X123747678Y-72279185D01*
X123747680Y-72279186D01*
X123798071Y-72329200D01*
X123813423Y-72398516D01*
X123788862Y-72465129D01*
X123747680Y-72500813D01*
X123714426Y-72518810D01*
X123714424Y-72518811D01*
X123536762Y-72657091D01*
X123384279Y-72822729D01*
X123384275Y-72822734D01*
X123261141Y-73011206D01*
X123170703Y-73217386D01*
X123170702Y-73217387D01*
X123115437Y-73435624D01*
X123115436Y-73435630D01*
X123115436Y-73435632D01*
X123096844Y-73660000D01*
X123110148Y-73820558D01*
X123115437Y-73884375D01*
X123170702Y-74102612D01*
X123170703Y-74102613D01*
X123170704Y-74102616D01*
X123261140Y-74308791D01*
X123261141Y-74308793D01*
X123384275Y-74497265D01*
X123384279Y-74497270D01*
X123536762Y-74662908D01*
X123549655Y-74672943D01*
X123714424Y-74801189D01*
X123747678Y-74819185D01*
X123747680Y-74819186D01*
X123798071Y-74869200D01*
X123813423Y-74938516D01*
X123788862Y-75005129D01*
X123747680Y-75040813D01*
X123714426Y-75058810D01*
X123714424Y-75058811D01*
X123536762Y-75197091D01*
X123384279Y-75362729D01*
X123384275Y-75362734D01*
X123261141Y-75551206D01*
X123170703Y-75757386D01*
X123170702Y-75757387D01*
X123115437Y-75975624D01*
X123115436Y-75975630D01*
X123115436Y-75975632D01*
X123096844Y-76200000D01*
X123112993Y-76394890D01*
X123115437Y-76424375D01*
X123170702Y-76642612D01*
X123170703Y-76642613D01*
X123170704Y-76642616D01*
X123261140Y-76848791D01*
X123261141Y-76848793D01*
X123384275Y-77037265D01*
X123384279Y-77037270D01*
X123536762Y-77202908D01*
X123549655Y-77212943D01*
X123714424Y-77341189D01*
X123747678Y-77359185D01*
X123747680Y-77359186D01*
X123798071Y-77409200D01*
X123813423Y-77478516D01*
X123788862Y-77545129D01*
X123747680Y-77580813D01*
X123714426Y-77598810D01*
X123714424Y-77598811D01*
X123536762Y-77737091D01*
X123384279Y-77902729D01*
X123384275Y-77902734D01*
X123261141Y-78091206D01*
X123170703Y-78297386D01*
X123170702Y-78297387D01*
X123115437Y-78515624D01*
X123115436Y-78515630D01*
X123115436Y-78515632D01*
X123104155Y-78651775D01*
X123096844Y-78740000D01*
X123115437Y-78964375D01*
X123170702Y-79182612D01*
X123170703Y-79182613D01*
X123261141Y-79388793D01*
X123384275Y-79577265D01*
X123384279Y-79577270D01*
X123536762Y-79742908D01*
X123549655Y-79752943D01*
X123714424Y-79881189D01*
X123747678Y-79899185D01*
X123747680Y-79899186D01*
X123798071Y-79949200D01*
X123813423Y-80018516D01*
X123788862Y-80085129D01*
X123747680Y-80120813D01*
X123714426Y-80138810D01*
X123714424Y-80138811D01*
X123536762Y-80277091D01*
X123384279Y-80442729D01*
X123384275Y-80442734D01*
X123261141Y-80631206D01*
X123170703Y-80837386D01*
X123170702Y-80837387D01*
X123115437Y-81055624D01*
X123096844Y-81280000D01*
X123115437Y-81504375D01*
X123170702Y-81722612D01*
X123170703Y-81722613D01*
X123170704Y-81722616D01*
X123261140Y-81928791D01*
X123261141Y-81928793D01*
X123384275Y-82117265D01*
X123384279Y-82117270D01*
X123536762Y-82282908D01*
X123549655Y-82292943D01*
X123714424Y-82421189D01*
X123747678Y-82439185D01*
X123747680Y-82439186D01*
X123798071Y-82489200D01*
X123813423Y-82558516D01*
X123788862Y-82625129D01*
X123747680Y-82660813D01*
X123714426Y-82678810D01*
X123714424Y-82678811D01*
X123536762Y-82817091D01*
X123384279Y-82982729D01*
X123384275Y-82982734D01*
X123261141Y-83171206D01*
X123170703Y-83377386D01*
X123170702Y-83377387D01*
X123115437Y-83595624D01*
X123115436Y-83595630D01*
X123115436Y-83595632D01*
X123096844Y-83820000D01*
X123112731Y-84011730D01*
X123115437Y-84044375D01*
X123170702Y-84262612D01*
X123170703Y-84262613D01*
X123170704Y-84262616D01*
X123172646Y-84267043D01*
X123261141Y-84468793D01*
X123384275Y-84657265D01*
X123384279Y-84657270D01*
X123536762Y-84822908D01*
X123549655Y-84832943D01*
X123714424Y-84961189D01*
X123747678Y-84979185D01*
X123747680Y-84979186D01*
X123798071Y-85029200D01*
X123813423Y-85098516D01*
X123788862Y-85165129D01*
X123747680Y-85200813D01*
X123714426Y-85218810D01*
X123714424Y-85218811D01*
X123536762Y-85357091D01*
X123384279Y-85522729D01*
X123384275Y-85522734D01*
X123261141Y-85711206D01*
X123170703Y-85917386D01*
X123170702Y-85917387D01*
X123115437Y-86135624D01*
X123115436Y-86135630D01*
X123115436Y-86135632D01*
X123096844Y-86360000D01*
X123112763Y-86552113D01*
X123115437Y-86584375D01*
X123170702Y-86802612D01*
X123170703Y-86802613D01*
X123170704Y-86802616D01*
X123247310Y-86977262D01*
X123261141Y-87008793D01*
X123384275Y-87197265D01*
X123384279Y-87197270D01*
X123536762Y-87362908D01*
X123549655Y-87372943D01*
X123714424Y-87501189D01*
X123747678Y-87519185D01*
X123747680Y-87519186D01*
X123798071Y-87569200D01*
X123813423Y-87638516D01*
X123788862Y-87705129D01*
X123747680Y-87740813D01*
X123714426Y-87758810D01*
X123714424Y-87758811D01*
X123536762Y-87897091D01*
X123384279Y-88062729D01*
X123384275Y-88062734D01*
X123261141Y-88251206D01*
X123170703Y-88457386D01*
X123170702Y-88457387D01*
X123115437Y-88675624D01*
X123096844Y-88900000D01*
X123115437Y-89124375D01*
X123170702Y-89342612D01*
X123170703Y-89342613D01*
X123261141Y-89548793D01*
X123384275Y-89737265D01*
X123384279Y-89737270D01*
X123536762Y-89902908D01*
X123549655Y-89912943D01*
X123714424Y-90041189D01*
X123747678Y-90059185D01*
X123747680Y-90059186D01*
X123798071Y-90109200D01*
X123813423Y-90178516D01*
X123788862Y-90245129D01*
X123747680Y-90280813D01*
X123714426Y-90298810D01*
X123714424Y-90298811D01*
X123536762Y-90437091D01*
X123384279Y-90602729D01*
X123384275Y-90602734D01*
X123261141Y-90791206D01*
X123170703Y-90997386D01*
X123170702Y-90997387D01*
X123115437Y-91215624D01*
X123115436Y-91215630D01*
X123115436Y-91215632D01*
X123096844Y-91440000D01*
X123115437Y-91664375D01*
X123170702Y-91882612D01*
X123170703Y-91882613D01*
X123261141Y-92088793D01*
X123384275Y-92277265D01*
X123384279Y-92277270D01*
X123536762Y-92442908D01*
X123549655Y-92452943D01*
X123714424Y-92581189D01*
X123747678Y-92599185D01*
X123747680Y-92599186D01*
X123798071Y-92649200D01*
X123813423Y-92718516D01*
X123788862Y-92785129D01*
X123747680Y-92820813D01*
X123714426Y-92838810D01*
X123714424Y-92838811D01*
X123536762Y-92977091D01*
X123384279Y-93142729D01*
X123384275Y-93142734D01*
X123261141Y-93331206D01*
X123170703Y-93537386D01*
X123170702Y-93537387D01*
X123115437Y-93755624D01*
X123096844Y-93980000D01*
X123115437Y-94204375D01*
X123170702Y-94422612D01*
X123170703Y-94422613D01*
X123170704Y-94422616D01*
X123221685Y-94538842D01*
X123261141Y-94628793D01*
X123384275Y-94817265D01*
X123384279Y-94817270D01*
X123536762Y-94982908D01*
X123549655Y-94992943D01*
X123714424Y-95121189D01*
X123747678Y-95139185D01*
X123747680Y-95139186D01*
X123798071Y-95189200D01*
X123813423Y-95258516D01*
X123788862Y-95325129D01*
X123747680Y-95360813D01*
X123714426Y-95378810D01*
X123714424Y-95378811D01*
X123536762Y-95517091D01*
X123384279Y-95682729D01*
X123384275Y-95682734D01*
X123261141Y-95871206D01*
X123170703Y-96077386D01*
X123170702Y-96077387D01*
X123115437Y-96295624D01*
X123096844Y-96520000D01*
X123115437Y-96744375D01*
X123170702Y-96962612D01*
X123170703Y-96962613D01*
X123261141Y-97168793D01*
X123384275Y-97357265D01*
X123384279Y-97357270D01*
X123536762Y-97522908D01*
X123549655Y-97532943D01*
X123714424Y-97661189D01*
X123747678Y-97679185D01*
X123747680Y-97679186D01*
X123798071Y-97729200D01*
X123813423Y-97798516D01*
X123788862Y-97865129D01*
X123747680Y-97900813D01*
X123714426Y-97918810D01*
X123714424Y-97918811D01*
X123536762Y-98057091D01*
X123384279Y-98222729D01*
X123384275Y-98222734D01*
X123261141Y-98411206D01*
X123170703Y-98617386D01*
X123170702Y-98617387D01*
X123115437Y-98835624D01*
X123115436Y-98835630D01*
X123115436Y-98835632D01*
X123096844Y-99060000D01*
X117475000Y-99060000D01*
X117475000Y-85090000D01*
X116867969Y-85090000D01*
X116799848Y-85069998D01*
X116753355Y-85016342D01*
X116743251Y-84946068D01*
X116772745Y-84881488D01*
X116773076Y-84881106D01*
X116810139Y-84838845D01*
X116981904Y-84581781D01*
X116981904Y-84581780D01*
X116981906Y-84581778D01*
X117034422Y-84475285D01*
X117118646Y-84304496D01*
X117218025Y-84011735D01*
X117278340Y-83708507D01*
X117298561Y-83400000D01*
X117296788Y-83372956D01*
X117278340Y-83091497D01*
X117278340Y-83091493D01*
X117218025Y-82788265D01*
X117118646Y-82495504D01*
X117070663Y-82398205D01*
X116981906Y-82218222D01*
X116810141Y-81961158D01*
X116810139Y-81961155D01*
X116688483Y-81822433D01*
X116606290Y-81728709D01*
X116490067Y-81626785D01*
X116373845Y-81524861D01*
X116308264Y-81481041D01*
X116116778Y-81353093D01*
X115839502Y-81216357D01*
X115839496Y-81216354D01*
X115839491Y-81216352D01*
X115839488Y-81216351D01*
X115546743Y-81116977D01*
X115546736Y-81116975D01*
X115546735Y-81116975D01*
X115546730Y-81116974D01*
X115243520Y-81056662D01*
X115243502Y-81056659D01*
X114935003Y-81036439D01*
X114934997Y-81036439D01*
X114626497Y-81056659D01*
X114626479Y-81056662D01*
X114323269Y-81116974D01*
X114323256Y-81116977D01*
X114030511Y-81216351D01*
X114030497Y-81216357D01*
X113753222Y-81353093D01*
X113496158Y-81524858D01*
X113263709Y-81728709D01*
X113059858Y-81961158D01*
X112888093Y-82218222D01*
X112751357Y-82495497D01*
X112751351Y-82495511D01*
X112651977Y-82788256D01*
X112651974Y-82788269D01*
X112591662Y-83091479D01*
X112591659Y-83091497D01*
X112571439Y-83399996D01*
X112571439Y-83400003D01*
X112591659Y-83708502D01*
X112591662Y-83708520D01*
X112651974Y-84011730D01*
X112651977Y-84011743D01*
X112751351Y-84304488D01*
X112751357Y-84304502D01*
X112888093Y-84581778D01*
X112959363Y-84688440D01*
X113059861Y-84838845D01*
X113096764Y-84880925D01*
X113126640Y-84945326D01*
X113116954Y-85015659D01*
X113070781Y-85069591D01*
X113002781Y-85089998D01*
X113002031Y-85090000D01*
X111167969Y-85090000D01*
X111099848Y-85069998D01*
X111053355Y-85016342D01*
X111043251Y-84946068D01*
X111072745Y-84881488D01*
X111073076Y-84881106D01*
X111110139Y-84838845D01*
X111281904Y-84581781D01*
X111281904Y-84581780D01*
X111281906Y-84581778D01*
X111334422Y-84475285D01*
X111418646Y-84304496D01*
X111518025Y-84011735D01*
X111578340Y-83708507D01*
X111598561Y-83400000D01*
X111596788Y-83372956D01*
X111578340Y-83091497D01*
X111578340Y-83091493D01*
X111518025Y-82788265D01*
X111418646Y-82495504D01*
X111370663Y-82398205D01*
X111281906Y-82218222D01*
X111110141Y-81961158D01*
X111110139Y-81961155D01*
X110988483Y-81822433D01*
X110906290Y-81728709D01*
X110790067Y-81626785D01*
X110673845Y-81524861D01*
X110608264Y-81481041D01*
X110416778Y-81353093D01*
X110139502Y-81216357D01*
X110139496Y-81216354D01*
X110139491Y-81216352D01*
X110139488Y-81216351D01*
X109846743Y-81116977D01*
X109846736Y-81116975D01*
X109846735Y-81116975D01*
X109846730Y-81116974D01*
X109543520Y-81056662D01*
X109543502Y-81056659D01*
X109235003Y-81036439D01*
X109234997Y-81036439D01*
X108926497Y-81056659D01*
X108926479Y-81056662D01*
X108623269Y-81116974D01*
X108623256Y-81116977D01*
X108330511Y-81216351D01*
X108330497Y-81216357D01*
X108053222Y-81353093D01*
X107796158Y-81524858D01*
X107563709Y-81728709D01*
X107359858Y-81961158D01*
X107188093Y-82218222D01*
X107051357Y-82495497D01*
X107051351Y-82495511D01*
X106951977Y-82788256D01*
X106951974Y-82788269D01*
X106891662Y-83091479D01*
X106891659Y-83091497D01*
X106871439Y-83399996D01*
X106871439Y-83400003D01*
X106891659Y-83708502D01*
X106891662Y-83708520D01*
X106951974Y-84011730D01*
X106951977Y-84011743D01*
X107051351Y-84304488D01*
X107051357Y-84304502D01*
X107188093Y-84581778D01*
X107259363Y-84688440D01*
X107359861Y-84838845D01*
X107396764Y-84880925D01*
X107426640Y-84945326D01*
X107416954Y-85015659D01*
X107370781Y-85069591D01*
X107302781Y-85089998D01*
X107302031Y-85090000D01*
X90170000Y-85090000D01*
X90170000Y-104140000D01*
X78105000Y-104140000D01*
X78105000Y-96314736D01*
X83354500Y-96314736D01*
X83384450Y-96542231D01*
X83384452Y-96542238D01*
X83443842Y-96763887D01*
X83531656Y-96975888D01*
X83531657Y-96975889D01*
X83531662Y-96975900D01*
X83646386Y-97174608D01*
X83646391Y-97174615D01*
X83786073Y-97356652D01*
X83786092Y-97356673D01*
X83948326Y-97518907D01*
X83948347Y-97518926D01*
X84130384Y-97658608D01*
X84130391Y-97658613D01*
X84329099Y-97773337D01*
X84329103Y-97773338D01*
X84329112Y-97773344D01*
X84541113Y-97861158D01*
X84762762Y-97920548D01*
X84762766Y-97920548D01*
X84762768Y-97920549D01*
X84821398Y-97928267D01*
X84990266Y-97950500D01*
X84990273Y-97950500D01*
X85219727Y-97950500D01*
X85219734Y-97950500D01*
X85425345Y-97923430D01*
X85447231Y-97920549D01*
X85447231Y-97920548D01*
X85447238Y-97920548D01*
X85668887Y-97861158D01*
X85880888Y-97773344D01*
X86079612Y-97658611D01*
X86243385Y-97532943D01*
X86261652Y-97518926D01*
X86261652Y-97518925D01*
X86261661Y-97518919D01*
X86423919Y-97356661D01*
X86563611Y-97174612D01*
X86678344Y-96975888D01*
X86766158Y-96763887D01*
X86825548Y-96542238D01*
X86855500Y-96314734D01*
X86855500Y-96085266D01*
X86833267Y-95916398D01*
X86825549Y-95857768D01*
X86825548Y-95857766D01*
X86825548Y-95857762D01*
X86766158Y-95636113D01*
X86678344Y-95424112D01*
X86678338Y-95424103D01*
X86678337Y-95424099D01*
X86563613Y-95225391D01*
X86563608Y-95225384D01*
X86423926Y-95043347D01*
X86423907Y-95043326D01*
X86261673Y-94881092D01*
X86261652Y-94881073D01*
X86079615Y-94741391D01*
X86079608Y-94741386D01*
X85880900Y-94626662D01*
X85880892Y-94626658D01*
X85880888Y-94626656D01*
X85668887Y-94538842D01*
X85447238Y-94479452D01*
X85447231Y-94479450D01*
X85219736Y-94449500D01*
X85219734Y-94449500D01*
X84990266Y-94449500D01*
X84990263Y-94449500D01*
X84762768Y-94479450D01*
X84541113Y-94538842D01*
X84329110Y-94626657D01*
X84329099Y-94626662D01*
X84130391Y-94741386D01*
X84130384Y-94741391D01*
X83948347Y-94881073D01*
X83948326Y-94881092D01*
X83786092Y-95043326D01*
X83786073Y-95043347D01*
X83646391Y-95225384D01*
X83646386Y-95225391D01*
X83531662Y-95424099D01*
X83531657Y-95424110D01*
X83531656Y-95424112D01*
X83443842Y-95636113D01*
X83384450Y-95857768D01*
X83354500Y-96085263D01*
X83354500Y-96314736D01*
X78105000Y-96314736D01*
X78105000Y-90550552D01*
X82746499Y-90550552D01*
X82757112Y-90654424D01*
X82757113Y-90654425D01*
X82812885Y-90822737D01*
X82905970Y-90973651D01*
X82905975Y-90973657D01*
X83031342Y-91099024D01*
X83031348Y-91099029D01*
X83031349Y-91099030D01*
X83089178Y-91134699D01*
X83182262Y-91192114D01*
X83238035Y-91210594D01*
X83350575Y-91247887D01*
X83454448Y-91258500D01*
X83454456Y-91258500D01*
X86755552Y-91258500D01*
X86847882Y-91249066D01*
X86859425Y-91247887D01*
X87027737Y-91192114D01*
X87178651Y-91099030D01*
X87304030Y-90973651D01*
X87397114Y-90822737D01*
X87452887Y-90654425D01*
X87458168Y-90602734D01*
X87463500Y-90550552D01*
X87463500Y-87249447D01*
X87452887Y-87145575D01*
X87397114Y-86977263D01*
X87397114Y-86977262D01*
X87339699Y-86884178D01*
X87304030Y-86826349D01*
X87304029Y-86826348D01*
X87304024Y-86826342D01*
X87178657Y-86700975D01*
X87178651Y-86700970D01*
X87027737Y-86607885D01*
X86859425Y-86552113D01*
X86859424Y-86552112D01*
X86755552Y-86541500D01*
X86755544Y-86541500D01*
X83454456Y-86541500D01*
X83454448Y-86541500D01*
X83350575Y-86552112D01*
X83350574Y-86552113D01*
X83182262Y-86607885D01*
X83031348Y-86700970D01*
X83031342Y-86700975D01*
X82905975Y-86826342D01*
X82905970Y-86826348D01*
X82812885Y-86977262D01*
X82757113Y-87145574D01*
X82757112Y-87145575D01*
X82746500Y-87249447D01*
X82746500Y-90550552D01*
X82746499Y-90550552D01*
X78105000Y-90550552D01*
X78105000Y-83400000D01*
X82234143Y-83400000D01*
X82253554Y-83733275D01*
X82253555Y-83733284D01*
X82311527Y-84062063D01*
X82311527Y-84062064D01*
X82407278Y-84381892D01*
X82407280Y-84381898D01*
X82539506Y-84688435D01*
X82539509Y-84688440D01*
X82706427Y-84977550D01*
X82706444Y-84977577D01*
X82750212Y-85036366D01*
X84220419Y-83566159D01*
X84239586Y-83662520D01*
X84307430Y-83826310D01*
X84405924Y-83973717D01*
X84531283Y-84099076D01*
X84678690Y-84197570D01*
X84842480Y-84265414D01*
X84938838Y-84284580D01*
X83469061Y-85754357D01*
X83469061Y-85754358D01*
X83669563Y-85886230D01*
X83967916Y-86036068D01*
X84281626Y-86150249D01*
X84281629Y-86150250D01*
X84606475Y-86227240D01*
X84606485Y-86227242D01*
X84938072Y-86266000D01*
X85271928Y-86266000D01*
X85603514Y-86227242D01*
X85603524Y-86227240D01*
X85928370Y-86150250D01*
X85928373Y-86150249D01*
X86242083Y-86036068D01*
X86540436Y-85886230D01*
X86740937Y-85754358D01*
X86740937Y-85754357D01*
X85271161Y-84284580D01*
X85367520Y-84265414D01*
X85531310Y-84197570D01*
X85678717Y-84099076D01*
X85804076Y-83973717D01*
X85902570Y-83826310D01*
X85970414Y-83662520D01*
X85989580Y-83566160D01*
X87459785Y-85036366D01*
X87459786Y-85036365D01*
X87503564Y-84977563D01*
X87503571Y-84977552D01*
X87670490Y-84688440D01*
X87670493Y-84688435D01*
X87802719Y-84381898D01*
X87802721Y-84381892D01*
X87898472Y-84062064D01*
X87898472Y-84062063D01*
X87956444Y-83733284D01*
X87956445Y-83733275D01*
X87975856Y-83400000D01*
X87956445Y-83066724D01*
X87956444Y-83066715D01*
X87898472Y-82737936D01*
X87898472Y-82737935D01*
X87802721Y-82418107D01*
X87802719Y-82418101D01*
X87670493Y-82111564D01*
X87670490Y-82111559D01*
X87503572Y-81822449D01*
X87503555Y-81822422D01*
X87459786Y-81763632D01*
X85989580Y-83233838D01*
X85970414Y-83137480D01*
X85902570Y-82973690D01*
X85804076Y-82826283D01*
X85678717Y-82700924D01*
X85531310Y-82602430D01*
X85367520Y-82534586D01*
X85271160Y-82515419D01*
X86740937Y-81045641D01*
X86540436Y-80913769D01*
X86242083Y-80763931D01*
X85928373Y-80649750D01*
X85928370Y-80649749D01*
X85603524Y-80572759D01*
X85603514Y-80572757D01*
X85271928Y-80534000D01*
X84938072Y-80534000D01*
X84606485Y-80572757D01*
X84606475Y-80572759D01*
X84281629Y-80649749D01*
X84281626Y-80649750D01*
X83967916Y-80763931D01*
X83669569Y-80913766D01*
X83469061Y-81045641D01*
X84938839Y-82515419D01*
X84842480Y-82534586D01*
X84678690Y-82602430D01*
X84531283Y-82700924D01*
X84405924Y-82826283D01*
X84307430Y-82973690D01*
X84239586Y-83137480D01*
X84220419Y-83233839D01*
X82750213Y-81763633D01*
X82750212Y-81763633D01*
X82706437Y-81822433D01*
X82706427Y-81822449D01*
X82539509Y-82111559D01*
X82539506Y-82111564D01*
X82407280Y-82418101D01*
X82407278Y-82418107D01*
X82311527Y-82737935D01*
X82311527Y-82737936D01*
X82253555Y-83066715D01*
X82253554Y-83066724D01*
X82234143Y-83400000D01*
X78105000Y-83400000D01*
X78105000Y-77883649D01*
X93154000Y-77883649D01*
X93160509Y-77944196D01*
X93160511Y-77944204D01*
X93211610Y-78081202D01*
X93211612Y-78081207D01*
X93299238Y-78198261D01*
X93416292Y-78285887D01*
X93416294Y-78285888D01*
X93416296Y-78285889D01*
X93447123Y-78297387D01*
X93553295Y-78336988D01*
X93553303Y-78336990D01*
X93613850Y-78343499D01*
X93613855Y-78343499D01*
X93613862Y-78343500D01*
X93613868Y-78343500D01*
X95616132Y-78343500D01*
X95616138Y-78343500D01*
X95616145Y-78343499D01*
X95616149Y-78343499D01*
X95676696Y-78336990D01*
X95676699Y-78336989D01*
X95676701Y-78336989D01*
X95813704Y-78285889D01*
X95930761Y-78198261D01*
X95965258Y-78152178D01*
X96018387Y-78081207D01*
X96018388Y-78081205D01*
X96018387Y-78081205D01*
X96018389Y-78081204D01*
X96024587Y-78064586D01*
X96067132Y-78007752D01*
X96133652Y-77982940D01*
X96203026Y-77998031D01*
X96216697Y-78006679D01*
X96389269Y-78132060D01*
X96594171Y-78236462D01*
X96812882Y-78307526D01*
X97040017Y-78343500D01*
X97040019Y-78343500D01*
X97269981Y-78343500D01*
X97269983Y-78343500D01*
X97497118Y-78307526D01*
X97715829Y-78236462D01*
X97920731Y-78132060D01*
X97983131Y-78086723D01*
X98049998Y-78062865D01*
X98119149Y-78078944D01*
X98157155Y-78111955D01*
X98211828Y-78183207D01*
X98211839Y-78183219D01*
X98394280Y-78365660D01*
X98394301Y-78365679D01*
X98599009Y-78522757D01*
X98599016Y-78522762D01*
X98822473Y-78651775D01*
X98822484Y-78651780D01*
X99060889Y-78750531D01*
X99187000Y-78784322D01*
X99187000Y-77055117D01*
X99254890Y-77172708D01*
X99357292Y-77275110D01*
X99482708Y-77347518D01*
X99622591Y-77385000D01*
X99767409Y-77385000D01*
X99907292Y-77347518D01*
X99915118Y-77343000D01*
X100203000Y-77343000D01*
X100203000Y-78784322D01*
X100329110Y-78750531D01*
X100567515Y-78651780D01*
X100567526Y-78651775D01*
X100790983Y-78522762D01*
X100790990Y-78522757D01*
X100995698Y-78365679D01*
X100995719Y-78365660D01*
X101178160Y-78183219D01*
X101178179Y-78183198D01*
X101335257Y-77978490D01*
X101335262Y-77978483D01*
X101464275Y-77755026D01*
X101464280Y-77755015D01*
X101563031Y-77516610D01*
X101563033Y-77516606D01*
X101609551Y-77343000D01*
X100203000Y-77343000D01*
X99915118Y-77343000D01*
X100032708Y-77275110D01*
X100135110Y-77172708D01*
X100207518Y-77047292D01*
X100245000Y-76907409D01*
X100245000Y-76762591D01*
X100207518Y-76622708D01*
X100135110Y-76497292D01*
X100032708Y-76394890D01*
X99907292Y-76322482D01*
X99767409Y-76285000D01*
X99622591Y-76285000D01*
X99482708Y-76322482D01*
X99357292Y-76394890D01*
X99254890Y-76497292D01*
X99187000Y-76614882D01*
X99187000Y-74885675D01*
X100203000Y-74885675D01*
X100203000Y-76327000D01*
X101609551Y-76327000D01*
X101563033Y-76153393D01*
X101563031Y-76153389D01*
X101464280Y-75914984D01*
X101464275Y-75914973D01*
X101335262Y-75691516D01*
X101335257Y-75691509D01*
X101178179Y-75486801D01*
X101178160Y-75486780D01*
X100995719Y-75304339D01*
X100995698Y-75304320D01*
X100790990Y-75147242D01*
X100790983Y-75147237D01*
X100567526Y-75018224D01*
X100567515Y-75018218D01*
X100329106Y-74919466D01*
X100203000Y-74885675D01*
X99187000Y-74885675D01*
X99186999Y-74885675D01*
X99060893Y-74919466D01*
X98822484Y-75018218D01*
X98822473Y-75018224D01*
X98599016Y-75147237D01*
X98599009Y-75147242D01*
X98394301Y-75304320D01*
X98394280Y-75304339D01*
X98211839Y-75486780D01*
X98211818Y-75486804D01*
X98157152Y-75558045D01*
X98099814Y-75599912D01*
X98028943Y-75604133D01*
X97983133Y-75583278D01*
X97920731Y-75537940D01*
X97920730Y-75537939D01*
X97920728Y-75537938D01*
X97715836Y-75433541D01*
X97715832Y-75433539D01*
X97715829Y-75433538D01*
X97586623Y-75391556D01*
X97497120Y-75362474D01*
X97383550Y-75344487D01*
X97269983Y-75326500D01*
X97040017Y-75326500D01*
X96975035Y-75336792D01*
X96812879Y-75362474D01*
X96652893Y-75414458D01*
X96594171Y-75433538D01*
X96594169Y-75433538D01*
X96594163Y-75433541D01*
X96389268Y-75537940D01*
X96216703Y-75663316D01*
X96149835Y-75687175D01*
X96080684Y-75671094D01*
X96031203Y-75620180D01*
X96024591Y-75605424D01*
X96018389Y-75588796D01*
X96018386Y-75588792D01*
X96018386Y-75588791D01*
X95930761Y-75471738D01*
X95813707Y-75384112D01*
X95813702Y-75384110D01*
X95676704Y-75333011D01*
X95676696Y-75333009D01*
X95616149Y-75326500D01*
X95616138Y-75326500D01*
X93613862Y-75326500D01*
X93613850Y-75326500D01*
X93553303Y-75333009D01*
X93553295Y-75333011D01*
X93416297Y-75384110D01*
X93416292Y-75384112D01*
X93299238Y-75471738D01*
X93211612Y-75588792D01*
X93211610Y-75588797D01*
X93160511Y-75725795D01*
X93160509Y-75725803D01*
X93154000Y-75786350D01*
X93154000Y-77883649D01*
X78105000Y-77883649D01*
X78105000Y-71120004D01*
X82671601Y-71120004D01*
X82691154Y-71331016D01*
X82742934Y-71513006D01*
X82749150Y-71534850D01*
X82843611Y-71724554D01*
X82843612Y-71724555D01*
X82971324Y-71893673D01*
X83127933Y-72036441D01*
X83308108Y-72148001D01*
X83308110Y-72148001D01*
X83308115Y-72148005D01*
X83505726Y-72224560D01*
X83714039Y-72263500D01*
X83714041Y-72263500D01*
X83925959Y-72263500D01*
X83925961Y-72263500D01*
X84134274Y-72224560D01*
X84331885Y-72148005D01*
X84512065Y-72036442D01*
X84625071Y-71933423D01*
X84668675Y-71893673D01*
X84668677Y-71893671D01*
X84796389Y-71724554D01*
X84890850Y-71534850D01*
X84948845Y-71331018D01*
X84964715Y-71159754D01*
X90251851Y-71159754D01*
X90271404Y-71370766D01*
X90327251Y-71567050D01*
X90329400Y-71574600D01*
X90423861Y-71764304D01*
X90427251Y-71768793D01*
X90551574Y-71933423D01*
X90708183Y-72076191D01*
X90888358Y-72187751D01*
X90888360Y-72187751D01*
X90888365Y-72187755D01*
X91085976Y-72264310D01*
X91294289Y-72303250D01*
X91294291Y-72303250D01*
X91506209Y-72303250D01*
X91506211Y-72303250D01*
X91714524Y-72264310D01*
X91912135Y-72187755D01*
X92092315Y-72076192D01*
X92222768Y-71957268D01*
X92248925Y-71933423D01*
X92256248Y-71923726D01*
X92376639Y-71764304D01*
X92471100Y-71574600D01*
X92529095Y-71370768D01*
X92539482Y-71258673D01*
X92548649Y-71159754D01*
X92548649Y-71159745D01*
X92544966Y-71120004D01*
X101721601Y-71120004D01*
X101741154Y-71331016D01*
X101792934Y-71513006D01*
X101799150Y-71534850D01*
X101893611Y-71724554D01*
X101893612Y-71724555D01*
X102021324Y-71893673D01*
X102177933Y-72036441D01*
X102358108Y-72148001D01*
X102358110Y-72148001D01*
X102358115Y-72148005D01*
X102555726Y-72224560D01*
X102764039Y-72263500D01*
X102764041Y-72263500D01*
X102975959Y-72263500D01*
X102975961Y-72263500D01*
X103184274Y-72224560D01*
X103381885Y-72148005D01*
X103562065Y-72036442D01*
X103675071Y-71933423D01*
X103718675Y-71893673D01*
X103718677Y-71893671D01*
X103846389Y-71724554D01*
X103940850Y-71534850D01*
X103998845Y-71331018D01*
X104018399Y-71120004D01*
X105531601Y-71120004D01*
X105551154Y-71331016D01*
X105602934Y-71513006D01*
X105609150Y-71534850D01*
X105703611Y-71724554D01*
X105703612Y-71724555D01*
X105831324Y-71893673D01*
X105987933Y-72036441D01*
X106168108Y-72148001D01*
X106168110Y-72148001D01*
X106168115Y-72148005D01*
X106365726Y-72224560D01*
X106574039Y-72263500D01*
X106574041Y-72263500D01*
X106785959Y-72263500D01*
X106785961Y-72263500D01*
X106994274Y-72224560D01*
X107191885Y-72148005D01*
X107372065Y-72036442D01*
X107485071Y-71933423D01*
X107528675Y-71893673D01*
X107528677Y-71893671D01*
X107656389Y-71724554D01*
X107750850Y-71534850D01*
X107808845Y-71331018D01*
X107828399Y-71120004D01*
X113151601Y-71120004D01*
X113171154Y-71331016D01*
X113222934Y-71513006D01*
X113229150Y-71534850D01*
X113323611Y-71724554D01*
X113323612Y-71724555D01*
X113451324Y-71893673D01*
X113607933Y-72036441D01*
X113788108Y-72148001D01*
X113788110Y-72148001D01*
X113788115Y-72148005D01*
X113985726Y-72224560D01*
X114194039Y-72263500D01*
X114194041Y-72263500D01*
X114405959Y-72263500D01*
X114405961Y-72263500D01*
X114614274Y-72224560D01*
X114811885Y-72148005D01*
X114992065Y-72036442D01*
X115105071Y-71933423D01*
X115148675Y-71893673D01*
X115148677Y-71893671D01*
X115276389Y-71724554D01*
X115370850Y-71534850D01*
X115428845Y-71331018D01*
X115448399Y-71120004D01*
X116961601Y-71120004D01*
X116981154Y-71331016D01*
X117032934Y-71513006D01*
X117039150Y-71534850D01*
X117133611Y-71724554D01*
X117133612Y-71724555D01*
X117261324Y-71893673D01*
X117417933Y-72036441D01*
X117598108Y-72148001D01*
X117598110Y-72148001D01*
X117598115Y-72148005D01*
X117795726Y-72224560D01*
X118004039Y-72263500D01*
X118004041Y-72263500D01*
X118215959Y-72263500D01*
X118215961Y-72263500D01*
X118424274Y-72224560D01*
X118621885Y-72148005D01*
X118802065Y-72036442D01*
X118915071Y-71933423D01*
X118958675Y-71893673D01*
X118958677Y-71893671D01*
X119086389Y-71724554D01*
X119180850Y-71534850D01*
X119238845Y-71331018D01*
X119258399Y-71120000D01*
X119256242Y-71096725D01*
X119238845Y-70908983D01*
X119236246Y-70899850D01*
X119180850Y-70705150D01*
X119086389Y-70515446D01*
X118958677Y-70346329D01*
X118958675Y-70346326D01*
X118802066Y-70203558D01*
X118621891Y-70091998D01*
X118621886Y-70091996D01*
X118621885Y-70091995D01*
X118621880Y-70091993D01*
X118424277Y-70015441D01*
X118424278Y-70015441D01*
X118424275Y-70015440D01*
X118424274Y-70015440D01*
X118215961Y-69976500D01*
X118004039Y-69976500D01*
X117823774Y-70010197D01*
X117795721Y-70015441D01*
X117598119Y-70091993D01*
X117598108Y-70091998D01*
X117417933Y-70203558D01*
X117261324Y-70346326D01*
X117133612Y-70515444D01*
X117039150Y-70705150D01*
X117039147Y-70705158D01*
X116981154Y-70908983D01*
X116961601Y-71119995D01*
X116961601Y-71120004D01*
X115448399Y-71120004D01*
X115448399Y-71120000D01*
X115446242Y-71096725D01*
X115428845Y-70908983D01*
X115426246Y-70899850D01*
X115370850Y-70705150D01*
X115276389Y-70515446D01*
X115148677Y-70346329D01*
X115148675Y-70346326D01*
X114992066Y-70203558D01*
X114811891Y-70091998D01*
X114811886Y-70091996D01*
X114811885Y-70091995D01*
X114811880Y-70091993D01*
X114614277Y-70015441D01*
X114614278Y-70015441D01*
X114614275Y-70015440D01*
X114614274Y-70015440D01*
X114405961Y-69976500D01*
X114194039Y-69976500D01*
X114013774Y-70010197D01*
X113985721Y-70015441D01*
X113788119Y-70091993D01*
X113788108Y-70091998D01*
X113607933Y-70203558D01*
X113451324Y-70346326D01*
X113323612Y-70515444D01*
X113229150Y-70705150D01*
X113229147Y-70705158D01*
X113171154Y-70908983D01*
X113151601Y-71119995D01*
X113151601Y-71120004D01*
X107828399Y-71120004D01*
X107828399Y-71120000D01*
X107826242Y-71096725D01*
X107808845Y-70908983D01*
X107806246Y-70899850D01*
X107750850Y-70705150D01*
X107656389Y-70515446D01*
X107528677Y-70346329D01*
X107528675Y-70346326D01*
X107372066Y-70203558D01*
X107191891Y-70091998D01*
X107191886Y-70091996D01*
X107191885Y-70091995D01*
X107191880Y-70091993D01*
X106994277Y-70015441D01*
X106994278Y-70015441D01*
X106994275Y-70015440D01*
X106994274Y-70015440D01*
X106785961Y-69976500D01*
X106574039Y-69976500D01*
X106393774Y-70010197D01*
X106365721Y-70015441D01*
X106168119Y-70091993D01*
X106168108Y-70091998D01*
X105987933Y-70203558D01*
X105831324Y-70346326D01*
X105703612Y-70515444D01*
X105609150Y-70705150D01*
X105609147Y-70705158D01*
X105551154Y-70908983D01*
X105531601Y-71119995D01*
X105531601Y-71120004D01*
X104018399Y-71120004D01*
X104018399Y-71120000D01*
X104016242Y-71096725D01*
X103998845Y-70908983D01*
X103996246Y-70899850D01*
X103940850Y-70705150D01*
X103846389Y-70515446D01*
X103718677Y-70346329D01*
X103718675Y-70346326D01*
X103562066Y-70203558D01*
X103381891Y-70091998D01*
X103381886Y-70091996D01*
X103381885Y-70091995D01*
X103381880Y-70091993D01*
X103184277Y-70015441D01*
X103184278Y-70015441D01*
X103184275Y-70015440D01*
X103184274Y-70015440D01*
X102975961Y-69976500D01*
X102764039Y-69976500D01*
X102583774Y-70010197D01*
X102555721Y-70015441D01*
X102358119Y-70091993D01*
X102358108Y-70091998D01*
X102177933Y-70203558D01*
X102021324Y-70346326D01*
X101893612Y-70515444D01*
X101799150Y-70705150D01*
X101799147Y-70705158D01*
X101741154Y-70908983D01*
X101721601Y-71119995D01*
X101721601Y-71120004D01*
X92544966Y-71120004D01*
X92529095Y-70948733D01*
X92515186Y-70899849D01*
X92471100Y-70744900D01*
X92376639Y-70555196D01*
X92248927Y-70386079D01*
X92248925Y-70386076D01*
X92092316Y-70243308D01*
X91912141Y-70131748D01*
X91912136Y-70131746D01*
X91912135Y-70131745D01*
X91881818Y-70120000D01*
X91714527Y-70055191D01*
X91714528Y-70055191D01*
X91714525Y-70055190D01*
X91714524Y-70055190D01*
X91506211Y-70016250D01*
X91294289Y-70016250D01*
X91085976Y-70055190D01*
X91085971Y-70055191D01*
X90888369Y-70131743D01*
X90888358Y-70131748D01*
X90708183Y-70243308D01*
X90551574Y-70386076D01*
X90423862Y-70555194D01*
X90329400Y-70744900D01*
X90329397Y-70744908D01*
X90271404Y-70948733D01*
X90251851Y-71159745D01*
X90251851Y-71159754D01*
X84964715Y-71159754D01*
X84968399Y-71120000D01*
X84966242Y-71096725D01*
X84948845Y-70908983D01*
X84946246Y-70899850D01*
X84890850Y-70705150D01*
X84796389Y-70515446D01*
X84668677Y-70346329D01*
X84668675Y-70346326D01*
X84512066Y-70203558D01*
X84331891Y-70091998D01*
X84331886Y-70091996D01*
X84331885Y-70091995D01*
X84331880Y-70091993D01*
X84134277Y-70015441D01*
X84134278Y-70015441D01*
X84134275Y-70015440D01*
X84134274Y-70015440D01*
X83925961Y-69976500D01*
X83714039Y-69976500D01*
X83533774Y-70010197D01*
X83505721Y-70015441D01*
X83308119Y-70091993D01*
X83308108Y-70091998D01*
X83127933Y-70203558D01*
X82971324Y-70346326D01*
X82843612Y-70515444D01*
X82749150Y-70705150D01*
X82749147Y-70705158D01*
X82691154Y-70908983D01*
X82671601Y-71119995D01*
X82671601Y-71120004D01*
X78105000Y-71120004D01*
X78105000Y-64770004D01*
X86481601Y-64770004D01*
X86501154Y-64981016D01*
X86542908Y-65127767D01*
X86559150Y-65184850D01*
X86653611Y-65374554D01*
X86695017Y-65429384D01*
X86781324Y-65543673D01*
X86937933Y-65686441D01*
X87118108Y-65798001D01*
X87118110Y-65798001D01*
X87118115Y-65798005D01*
X87315726Y-65874560D01*
X87524039Y-65913500D01*
X87524041Y-65913500D01*
X87735959Y-65913500D01*
X87735961Y-65913500D01*
X87944274Y-65874560D01*
X88141885Y-65798005D01*
X88322065Y-65686442D01*
X88374269Y-65638851D01*
X88478675Y-65543673D01*
X88478677Y-65543671D01*
X88606389Y-65374554D01*
X88700850Y-65184850D01*
X88758845Y-64981018D01*
X88770250Y-64857939D01*
X88778399Y-64770004D01*
X90291601Y-64770004D01*
X90311154Y-64981016D01*
X90352908Y-65127767D01*
X90369150Y-65184850D01*
X90463611Y-65374554D01*
X90505017Y-65429384D01*
X90591324Y-65543673D01*
X90747933Y-65686441D01*
X90928108Y-65798001D01*
X90928110Y-65798001D01*
X90928115Y-65798005D01*
X91125726Y-65874560D01*
X91334039Y-65913500D01*
X91334041Y-65913500D01*
X91545959Y-65913500D01*
X91545961Y-65913500D01*
X91754274Y-65874560D01*
X91951885Y-65798005D01*
X92132065Y-65686442D01*
X92184269Y-65638851D01*
X92288675Y-65543673D01*
X92288677Y-65543671D01*
X92416389Y-65374554D01*
X92510850Y-65184850D01*
X92568845Y-64981018D01*
X92580250Y-64857939D01*
X92588399Y-64770004D01*
X94101601Y-64770004D01*
X94121154Y-64981016D01*
X94162908Y-65127767D01*
X94179150Y-65184850D01*
X94273611Y-65374554D01*
X94315017Y-65429384D01*
X94401324Y-65543673D01*
X94557933Y-65686441D01*
X94738108Y-65798001D01*
X94738110Y-65798001D01*
X94738115Y-65798005D01*
X94935726Y-65874560D01*
X95144039Y-65913500D01*
X95144041Y-65913500D01*
X95355959Y-65913500D01*
X95355961Y-65913500D01*
X95564274Y-65874560D01*
X95761885Y-65798005D01*
X95942065Y-65686442D01*
X95994269Y-65638851D01*
X96098675Y-65543673D01*
X96098677Y-65543671D01*
X96226389Y-65374554D01*
X96320850Y-65184850D01*
X96378845Y-64981018D01*
X96390250Y-64857939D01*
X96398399Y-64770004D01*
X96398399Y-64769995D01*
X96378845Y-64558983D01*
X96365746Y-64512946D01*
X96320850Y-64355150D01*
X96226389Y-64165446D01*
X96098677Y-63996329D01*
X96098675Y-63996326D01*
X95942066Y-63853558D01*
X95761891Y-63741998D01*
X95761886Y-63741996D01*
X95761885Y-63741995D01*
X95687296Y-63713099D01*
X95564277Y-63665441D01*
X95564278Y-63665441D01*
X95564275Y-63665440D01*
X95564274Y-63665440D01*
X95355961Y-63626500D01*
X95144039Y-63626500D01*
X94935726Y-63665440D01*
X94935721Y-63665441D01*
X94738119Y-63741993D01*
X94738108Y-63741998D01*
X94557933Y-63853558D01*
X94401324Y-63996326D01*
X94273612Y-64165444D01*
X94179150Y-64355150D01*
X94179147Y-64355158D01*
X94121154Y-64558983D01*
X94101601Y-64769995D01*
X94101601Y-64770004D01*
X92588399Y-64770004D01*
X92588399Y-64769995D01*
X92568845Y-64558983D01*
X92555746Y-64512946D01*
X92510850Y-64355150D01*
X92416389Y-64165446D01*
X92288677Y-63996329D01*
X92288675Y-63996326D01*
X92132066Y-63853558D01*
X91951891Y-63741998D01*
X91951886Y-63741996D01*
X91951885Y-63741995D01*
X91877296Y-63713099D01*
X91754277Y-63665441D01*
X91754278Y-63665441D01*
X91754275Y-63665440D01*
X91754274Y-63665440D01*
X91545961Y-63626500D01*
X91334039Y-63626500D01*
X91125726Y-63665440D01*
X91125721Y-63665441D01*
X90928119Y-63741993D01*
X90928108Y-63741998D01*
X90747933Y-63853558D01*
X90591324Y-63996326D01*
X90463612Y-64165444D01*
X90369150Y-64355150D01*
X90369147Y-64355158D01*
X90311154Y-64558983D01*
X90291601Y-64769995D01*
X90291601Y-64770004D01*
X88778399Y-64770004D01*
X88778399Y-64769995D01*
X88758845Y-64558983D01*
X88745746Y-64512946D01*
X88700850Y-64355150D01*
X88606389Y-64165446D01*
X88478677Y-63996329D01*
X88478675Y-63996326D01*
X88322066Y-63853558D01*
X88141891Y-63741998D01*
X88141886Y-63741996D01*
X88141885Y-63741995D01*
X88067296Y-63713099D01*
X87944277Y-63665441D01*
X87944278Y-63665441D01*
X87944275Y-63665440D01*
X87944274Y-63665440D01*
X87735961Y-63626500D01*
X87524039Y-63626500D01*
X87315726Y-63665440D01*
X87315721Y-63665441D01*
X87118119Y-63741993D01*
X87118108Y-63741998D01*
X86937933Y-63853558D01*
X86781324Y-63996326D01*
X86653612Y-64165444D01*
X86559150Y-64355150D01*
X86559147Y-64355158D01*
X86501154Y-64558983D01*
X86481601Y-64769995D01*
X86481601Y-64770004D01*
X78105000Y-64770004D01*
X78105000Y-62928433D01*
X78113188Y-62883752D01*
X78119295Y-62867650D01*
X78191920Y-62572996D01*
X78228500Y-62271736D01*
X78228500Y-62120000D01*
X78228500Y-62053055D01*
X78228500Y-58024500D01*
X78228821Y-58015512D01*
X78243038Y-57816722D01*
X78245593Y-57798947D01*
X78287004Y-57608584D01*
X78292058Y-57591369D01*
X78360138Y-57408842D01*
X78367599Y-57392505D01*
X78460955Y-57221535D01*
X78470668Y-57206422D01*
X78587407Y-57050478D01*
X78599167Y-57036907D01*
X78736907Y-56899167D01*
X78750478Y-56887407D01*
X78906422Y-56770668D01*
X78921535Y-56760955D01*
X79092505Y-56667599D01*
X79108842Y-56660138D01*
X79291369Y-56592058D01*
X79308584Y-56587004D01*
X79498947Y-56545593D01*
X79516716Y-56543038D01*
X79678346Y-56531479D01*
X79715513Y-56528821D01*
X79724501Y-56528500D01*
X79786945Y-56528500D01*
X172653055Y-56528500D01*
X172715499Y-56528500D01*
X172724487Y-56528821D01*
G37*
%TD.AperFunction*%
%TD*%
%TA.AperFunction,Conductor*%
%TO.N,Net-(J2-Pin_2)*%
G36*
X108846461Y-85727421D02*
G01*
X108878482Y-85733790D01*
X108926493Y-85743340D01*
X109102782Y-85754894D01*
X109234997Y-85763561D01*
X109235000Y-85763561D01*
X109235003Y-85763561D01*
X109350690Y-85755978D01*
X109543507Y-85743340D01*
X109602936Y-85731518D01*
X109623539Y-85727421D01*
X109648120Y-85725000D01*
X114521880Y-85725000D01*
X114546461Y-85727421D01*
X114578482Y-85733790D01*
X114626493Y-85743340D01*
X114802782Y-85754894D01*
X114934997Y-85763561D01*
X114935000Y-85763561D01*
X114935003Y-85763561D01*
X115050690Y-85755978D01*
X115243507Y-85743340D01*
X115302936Y-85731518D01*
X115323539Y-85727421D01*
X115348120Y-85725000D01*
X116714000Y-85725000D01*
X116782121Y-85745002D01*
X116828614Y-85798658D01*
X116840000Y-85851000D01*
X116840000Y-86428519D01*
X116819998Y-86496640D01*
X116766342Y-86543133D01*
X116696068Y-86553237D01*
X116690251Y-86552197D01*
X116585552Y-86541500D01*
X116585544Y-86541500D01*
X113284456Y-86541500D01*
X113284448Y-86541500D01*
X113180575Y-86552112D01*
X113180574Y-86552113D01*
X113012262Y-86607885D01*
X112861348Y-86700970D01*
X112861342Y-86700975D01*
X112735975Y-86826342D01*
X112735970Y-86826348D01*
X112642885Y-86977262D01*
X112587113Y-87145574D01*
X112587112Y-87145575D01*
X112576500Y-87249447D01*
X112576500Y-90550552D01*
X112576499Y-90550552D01*
X112587112Y-90654424D01*
X112587113Y-90654425D01*
X112642885Y-90822737D01*
X112735970Y-90973651D01*
X112735975Y-90973657D01*
X112861342Y-91099024D01*
X112861348Y-91099029D01*
X112861349Y-91099030D01*
X112919178Y-91134699D01*
X113012262Y-91192114D01*
X113068035Y-91210594D01*
X113180575Y-91247887D01*
X113284448Y-91258500D01*
X113284456Y-91258500D01*
X116585552Y-91258500D01*
X116696268Y-91247188D01*
X116696446Y-91248935D01*
X116758407Y-91253565D01*
X116815107Y-91296292D01*
X116839707Y-91362890D01*
X116840000Y-91371480D01*
X116840000Y-93129000D01*
X116819998Y-93197121D01*
X116766342Y-93243614D01*
X116714000Y-93255000D01*
X105409999Y-93255000D01*
X105395036Y-93269962D01*
X105389998Y-93287121D01*
X105336342Y-93333614D01*
X105284000Y-93345000D01*
X90931000Y-93345000D01*
X90862879Y-93324998D01*
X90816386Y-93271342D01*
X90805000Y-93219000D01*
X90805000Y-89948649D01*
X93169000Y-89948649D01*
X93175509Y-90009196D01*
X93175511Y-90009204D01*
X93226610Y-90146202D01*
X93226612Y-90146207D01*
X93314238Y-90263261D01*
X93431292Y-90350887D01*
X93431294Y-90350888D01*
X93431296Y-90350889D01*
X93489304Y-90372525D01*
X93568295Y-90401988D01*
X93568303Y-90401990D01*
X93628850Y-90408499D01*
X93628855Y-90408499D01*
X93628862Y-90408500D01*
X93628868Y-90408500D01*
X95631132Y-90408500D01*
X95631138Y-90408500D01*
X95631145Y-90408499D01*
X95631149Y-90408499D01*
X95691696Y-90401990D01*
X95691697Y-90401989D01*
X95691701Y-90401989D01*
X95724287Y-90389834D01*
X95795099Y-90384768D01*
X95857412Y-90418790D01*
X95857418Y-90418797D01*
X95869282Y-90430662D01*
X95869301Y-90430679D01*
X96074009Y-90587757D01*
X96074016Y-90587762D01*
X96297473Y-90716775D01*
X96297484Y-90716780D01*
X96535889Y-90815531D01*
X96662000Y-90849322D01*
X96662000Y-89120117D01*
X96729890Y-89237708D01*
X96832292Y-89340110D01*
X96957708Y-89412518D01*
X97097591Y-89450000D01*
X97242409Y-89450000D01*
X97382292Y-89412518D01*
X97507708Y-89340110D01*
X97610110Y-89237708D01*
X97678000Y-89120117D01*
X97678000Y-90849322D01*
X97804110Y-90815531D01*
X98042515Y-90716780D01*
X98042526Y-90716775D01*
X98265983Y-90587762D01*
X98265990Y-90587757D01*
X98470698Y-90430679D01*
X98470719Y-90430660D01*
X98653162Y-90248217D01*
X98653177Y-90248200D01*
X98707844Y-90176956D01*
X98765181Y-90135088D01*
X98836052Y-90130866D01*
X98881867Y-90151722D01*
X98944269Y-90197060D01*
X99149171Y-90301462D01*
X99367882Y-90372526D01*
X99595017Y-90408500D01*
X99595019Y-90408500D01*
X99824981Y-90408500D01*
X99824983Y-90408500D01*
X100052118Y-90372526D01*
X100270829Y-90301462D01*
X100475731Y-90197060D01*
X100661778Y-90061889D01*
X100824389Y-89899278D01*
X100959560Y-89713231D01*
X101063962Y-89508329D01*
X101135026Y-89289618D01*
X101171000Y-89062483D01*
X101171000Y-88900000D01*
X106364143Y-88900000D01*
X106383554Y-89233275D01*
X106383555Y-89233284D01*
X106441527Y-89562063D01*
X106441527Y-89562064D01*
X106537278Y-89881892D01*
X106537280Y-89881898D01*
X106669506Y-90188435D01*
X106669509Y-90188440D01*
X106836427Y-90477550D01*
X106836444Y-90477577D01*
X106880212Y-90536366D01*
X108350419Y-89066159D01*
X108369586Y-89162520D01*
X108437430Y-89326310D01*
X108535924Y-89473717D01*
X108661283Y-89599076D01*
X108808690Y-89697570D01*
X108972480Y-89765414D01*
X109068838Y-89784580D01*
X107599061Y-91254357D01*
X107599061Y-91254358D01*
X107799563Y-91386230D01*
X108097916Y-91536068D01*
X108411626Y-91650249D01*
X108411629Y-91650250D01*
X108736475Y-91727240D01*
X108736485Y-91727242D01*
X109068072Y-91766000D01*
X109401928Y-91766000D01*
X109733514Y-91727242D01*
X109733524Y-91727240D01*
X110058370Y-91650250D01*
X110058373Y-91650249D01*
X110372083Y-91536068D01*
X110670436Y-91386230D01*
X110870937Y-91254358D01*
X110870937Y-91254357D01*
X109401161Y-89784580D01*
X109497520Y-89765414D01*
X109661310Y-89697570D01*
X109808717Y-89599076D01*
X109934076Y-89473717D01*
X110032570Y-89326310D01*
X110100414Y-89162520D01*
X110119580Y-89066160D01*
X111589785Y-90536366D01*
X111589786Y-90536365D01*
X111633564Y-90477563D01*
X111633571Y-90477552D01*
X111800490Y-90188440D01*
X111800493Y-90188435D01*
X111932719Y-89881898D01*
X111932721Y-89881892D01*
X112028472Y-89562064D01*
X112028472Y-89562063D01*
X112086444Y-89233284D01*
X112086445Y-89233275D01*
X112105856Y-88900000D01*
X112086445Y-88566724D01*
X112086444Y-88566715D01*
X112028472Y-88237936D01*
X112028472Y-88237935D01*
X111932721Y-87918107D01*
X111932719Y-87918101D01*
X111800493Y-87611564D01*
X111800490Y-87611559D01*
X111633572Y-87322449D01*
X111633555Y-87322422D01*
X111589786Y-87263632D01*
X110119580Y-88733838D01*
X110100414Y-88637480D01*
X110032570Y-88473690D01*
X109934076Y-88326283D01*
X109808717Y-88200924D01*
X109661310Y-88102430D01*
X109497520Y-88034586D01*
X109401160Y-88015419D01*
X110870937Y-86545641D01*
X110670436Y-86413769D01*
X110372083Y-86263931D01*
X110058373Y-86149750D01*
X110058370Y-86149749D01*
X109733524Y-86072759D01*
X109733514Y-86072757D01*
X109401928Y-86034000D01*
X109068072Y-86034000D01*
X108736485Y-86072757D01*
X108736475Y-86072759D01*
X108411629Y-86149749D01*
X108411626Y-86149750D01*
X108097916Y-86263931D01*
X107799569Y-86413766D01*
X107599061Y-86545641D01*
X109068839Y-88015419D01*
X108972480Y-88034586D01*
X108808690Y-88102430D01*
X108661283Y-88200924D01*
X108535924Y-88326283D01*
X108437430Y-88473690D01*
X108369586Y-88637480D01*
X108350419Y-88733839D01*
X106880213Y-87263633D01*
X106880212Y-87263633D01*
X106836437Y-87322433D01*
X106836427Y-87322449D01*
X106669509Y-87611559D01*
X106669506Y-87611564D01*
X106537280Y-87918101D01*
X106537278Y-87918107D01*
X106441527Y-88237935D01*
X106441527Y-88237936D01*
X106383555Y-88566715D01*
X106383554Y-88566724D01*
X106364143Y-88900000D01*
X101171000Y-88900000D01*
X101171000Y-88737517D01*
X101135026Y-88510382D01*
X101063962Y-88291671D01*
X100959560Y-88086769D01*
X100824389Y-87900722D01*
X100824386Y-87900719D01*
X100824384Y-87900716D01*
X100661783Y-87738115D01*
X100661780Y-87738113D01*
X100661778Y-87738111D01*
X100475731Y-87602940D01*
X100375347Y-87551792D01*
X100270836Y-87498541D01*
X100270832Y-87498539D01*
X100270829Y-87498538D01*
X100161473Y-87463006D01*
X100052120Y-87427474D01*
X99938550Y-87409487D01*
X99824983Y-87391500D01*
X99595017Y-87391500D01*
X99504163Y-87405889D01*
X99367879Y-87427474D01*
X99203848Y-87480772D01*
X99149171Y-87498538D01*
X98944269Y-87602940D01*
X98944268Y-87602941D01*
X98944261Y-87602945D01*
X98881867Y-87648277D01*
X98814999Y-87672135D01*
X98745848Y-87656054D01*
X98707844Y-87623044D01*
X98653171Y-87551792D01*
X98653160Y-87551780D01*
X98470719Y-87369339D01*
X98470698Y-87369320D01*
X98265990Y-87212242D01*
X98265983Y-87212237D01*
X98042526Y-87083224D01*
X98042515Y-87083218D01*
X97804106Y-86984466D01*
X97678000Y-86950675D01*
X97678000Y-88679882D01*
X97610110Y-88562292D01*
X97507708Y-88459890D01*
X97382292Y-88387482D01*
X97242409Y-88350000D01*
X97097591Y-88350000D01*
X96957708Y-88387482D01*
X96832292Y-88459890D01*
X96729890Y-88562292D01*
X96662000Y-88679882D01*
X96662000Y-86950675D01*
X96661999Y-86950675D01*
X96535893Y-86984466D01*
X96297484Y-87083218D01*
X96297473Y-87083224D01*
X96074016Y-87212237D01*
X96074010Y-87212241D01*
X95869290Y-87369330D01*
X95869283Y-87369336D01*
X95857412Y-87381207D01*
X95795099Y-87415230D01*
X95724290Y-87410165D01*
X95691705Y-87398012D01*
X95691695Y-87398009D01*
X95631149Y-87391500D01*
X95631138Y-87391500D01*
X93628862Y-87391500D01*
X93628850Y-87391500D01*
X93568303Y-87398009D01*
X93568295Y-87398011D01*
X93431297Y-87449110D01*
X93431292Y-87449112D01*
X93314238Y-87536738D01*
X93226612Y-87653792D01*
X93226610Y-87653797D01*
X93175511Y-87790795D01*
X93175509Y-87790803D01*
X93169000Y-87851350D01*
X93169000Y-89948649D01*
X90805000Y-89948649D01*
X90805000Y-85851000D01*
X90825002Y-85782879D01*
X90878658Y-85736386D01*
X90931000Y-85725000D01*
X108821880Y-85725000D01*
X108846461Y-85727421D01*
G37*
%TD.AperFunction*%
%TD*%
M02*
