%TF.GenerationSoftware,KiCad,Pcbnew,8.0.1*%
%TF.CreationDate,2024-05-02T11:38:49-04:00*%
%TF.ProjectId,heaterboard-3,68656174-6572-4626-9f61-72642d332e6b,3*%
%TF.SameCoordinates,Original*%
%TF.FileFunction,Copper,L1,Top*%
%TF.FilePolarity,Positive*%
%FSLAX46Y46*%
G04 Gerber Fmt 4.6, Leading zero omitted, Abs format (unit mm)*
G04 Created by KiCad (PCBNEW 8.0.1) date 2024-05-02 11:38:49*
%MOMM*%
%LPD*%
G01*
G04 APERTURE LIST*
G04 Aperture macros list*
%AMRoundRect*
0 Rectangle with rounded corners*
0 $1 Rounding radius*
0 $2 $3 $4 $5 $6 $7 $8 $9 X,Y pos of 4 corners*
0 Add a 4 corners polygon primitive as box body*
4,1,4,$2,$3,$4,$5,$6,$7,$8,$9,$2,$3,0*
0 Add four circle primitives for the rounded corners*
1,1,$1+$1,$2,$3*
1,1,$1+$1,$4,$5*
1,1,$1+$1,$6,$7*
1,1,$1+$1,$8,$9*
0 Add four rect primitives between the rounded corners*
20,1,$1+$1,$2,$3,$4,$5,0*
20,1,$1+$1,$4,$5,$6,$7,0*
20,1,$1+$1,$6,$7,$8,$9,0*
20,1,$1+$1,$8,$9,$2,$3,0*%
G04 Aperture macros list end*
%ADD10C,0.100000*%
%ADD11C,0.150000*%
%ADD12C,0.300000*%
%ADD13C,0.400000*%
%TA.AperFunction,SMDPad,CuDef*%
%ADD14RoundRect,0.250000X0.625000X-0.400000X0.625000X0.400000X-0.625000X0.400000X-0.625000X-0.400000X0*%
%TD*%
%TA.AperFunction,SMDPad,CuDef*%
%ADD15RoundRect,0.250000X-0.650000X0.412500X-0.650000X-0.412500X0.650000X-0.412500X0.650000X0.412500X0*%
%TD*%
%TA.AperFunction,ComponentPad*%
%ADD16R,1.905000X2.000000*%
%TD*%
%TA.AperFunction,ComponentPad*%
%ADD17O,1.905000X2.000000*%
%TD*%
%TA.AperFunction,ComponentPad*%
%ADD18R,1.700000X1.700000*%
%TD*%
%TA.AperFunction,ComponentPad*%
%ADD19O,1.700000X1.700000*%
%TD*%
%TA.AperFunction,ComponentPad*%
%ADD20RoundRect,0.250002X1.599998X1.599998X-1.599998X1.599998X-1.599998X-1.599998X1.599998X-1.599998X0*%
%TD*%
%TA.AperFunction,ComponentPad*%
%ADD21C,3.700000*%
%TD*%
%TA.AperFunction,SMDPad,CuDef*%
%ADD22RoundRect,0.250000X-0.625000X0.400000X-0.625000X-0.400000X0.625000X-0.400000X0.625000X0.400000X0*%
%TD*%
%TA.AperFunction,SMDPad,CuDef*%
%ADD23RoundRect,0.250000X0.650000X-0.412500X0.650000X0.412500X-0.650000X0.412500X-0.650000X-0.412500X0*%
%TD*%
%TA.AperFunction,ComponentPad*%
%ADD24C,1.727200*%
%TD*%
%TA.AperFunction,ComponentPad*%
%ADD25R,1.727200X1.727200*%
%TD*%
%TA.AperFunction,ComponentPad*%
%ADD26RoundRect,0.250001X-0.499999X-0.759999X0.499999X-0.759999X0.499999X0.759999X-0.499999X0.759999X0*%
%TD*%
%TA.AperFunction,ComponentPad*%
%ADD27O,1.500000X2.020000*%
%TD*%
%TA.AperFunction,ComponentPad*%
%ADD28C,6.400000*%
%TD*%
%TA.AperFunction,SMDPad,CuDef*%
%ADD29RoundRect,0.150000X0.825000X0.150000X-0.825000X0.150000X-0.825000X-0.150000X0.825000X-0.150000X0*%
%TD*%
%TA.AperFunction,ViaPad*%
%ADD30C,1.270000*%
%TD*%
%TA.AperFunction,ViaPad*%
%ADD31C,0.800000*%
%TD*%
%TA.AperFunction,ViaPad*%
%ADD32C,2.540000*%
%TD*%
%TA.AperFunction,Conductor*%
%ADD33C,0.250000*%
%TD*%
%TA.AperFunction,Conductor*%
%ADD34C,0.635000*%
%TD*%
%TA.AperFunction,Conductor*%
%ADD35C,1.016000*%
%TD*%
%TA.AperFunction,Conductor*%
%ADD36C,2.540000*%
%TD*%
G04 APERTURE END LIST*
D10*
D11*
X159400000Y-171900000D02*
X267400000Y-171900000D01*
X267400000Y-203900000D01*
X159400000Y-203900000D01*
X159400000Y-171900000D01*
D10*
D11*
X10000000Y-10000000D02*
X269400000Y-10000000D01*
X269400000Y-205900000D01*
X10000000Y-205900000D01*
X10000000Y-10000000D01*
D10*
D11*
X12000000Y-12000000D02*
X267400000Y-12000000D01*
X267400000Y-203900000D01*
X12000000Y-203900000D01*
X12000000Y-12000000D01*
D10*
D11*
X60000000Y-12000000D02*
X60000000Y-10000000D01*
D10*
D11*
X110000000Y-12000000D02*
X110000000Y-10000000D01*
D10*
D11*
X160000000Y-12000000D02*
X160000000Y-10000000D01*
D10*
D11*
X210000000Y-12000000D02*
X210000000Y-10000000D01*
D10*
D11*
X260000000Y-12000000D02*
X260000000Y-10000000D01*
D10*
D11*
X36089160Y-11593604D02*
X35346303Y-11593604D01*
X35717731Y-11593604D02*
X35717731Y-10293604D01*
X35717731Y-10293604D02*
X35593922Y-10479319D01*
X35593922Y-10479319D02*
X35470112Y-10603128D01*
X35470112Y-10603128D02*
X35346303Y-10665033D01*
D10*
D11*
X85346303Y-10417414D02*
X85408207Y-10355509D01*
X85408207Y-10355509D02*
X85532017Y-10293604D01*
X85532017Y-10293604D02*
X85841541Y-10293604D01*
X85841541Y-10293604D02*
X85965350Y-10355509D01*
X85965350Y-10355509D02*
X86027255Y-10417414D01*
X86027255Y-10417414D02*
X86089160Y-10541223D01*
X86089160Y-10541223D02*
X86089160Y-10665033D01*
X86089160Y-10665033D02*
X86027255Y-10850747D01*
X86027255Y-10850747D02*
X85284398Y-11593604D01*
X85284398Y-11593604D02*
X86089160Y-11593604D01*
D10*
D11*
X135284398Y-10293604D02*
X136089160Y-10293604D01*
X136089160Y-10293604D02*
X135655826Y-10788842D01*
X135655826Y-10788842D02*
X135841541Y-10788842D01*
X135841541Y-10788842D02*
X135965350Y-10850747D01*
X135965350Y-10850747D02*
X136027255Y-10912652D01*
X136027255Y-10912652D02*
X136089160Y-11036461D01*
X136089160Y-11036461D02*
X136089160Y-11345985D01*
X136089160Y-11345985D02*
X136027255Y-11469795D01*
X136027255Y-11469795D02*
X135965350Y-11531700D01*
X135965350Y-11531700D02*
X135841541Y-11593604D01*
X135841541Y-11593604D02*
X135470112Y-11593604D01*
X135470112Y-11593604D02*
X135346303Y-11531700D01*
X135346303Y-11531700D02*
X135284398Y-11469795D01*
D10*
D11*
X185965350Y-10726938D02*
X185965350Y-11593604D01*
X185655826Y-10231700D02*
X185346303Y-11160271D01*
X185346303Y-11160271D02*
X186151064Y-11160271D01*
D10*
D11*
X236027255Y-10293604D02*
X235408207Y-10293604D01*
X235408207Y-10293604D02*
X235346303Y-10912652D01*
X235346303Y-10912652D02*
X235408207Y-10850747D01*
X235408207Y-10850747D02*
X235532017Y-10788842D01*
X235532017Y-10788842D02*
X235841541Y-10788842D01*
X235841541Y-10788842D02*
X235965350Y-10850747D01*
X235965350Y-10850747D02*
X236027255Y-10912652D01*
X236027255Y-10912652D02*
X236089160Y-11036461D01*
X236089160Y-11036461D02*
X236089160Y-11345985D01*
X236089160Y-11345985D02*
X236027255Y-11469795D01*
X236027255Y-11469795D02*
X235965350Y-11531700D01*
X235965350Y-11531700D02*
X235841541Y-11593604D01*
X235841541Y-11593604D02*
X235532017Y-11593604D01*
X235532017Y-11593604D02*
X235408207Y-11531700D01*
X235408207Y-11531700D02*
X235346303Y-11469795D01*
D10*
D11*
X60000000Y-203900000D02*
X60000000Y-205900000D01*
D10*
D11*
X110000000Y-203900000D02*
X110000000Y-205900000D01*
D10*
D11*
X160000000Y-203900000D02*
X160000000Y-205900000D01*
D10*
D11*
X210000000Y-203900000D02*
X210000000Y-205900000D01*
D10*
D11*
X260000000Y-203900000D02*
X260000000Y-205900000D01*
D10*
D11*
X36089160Y-205493604D02*
X35346303Y-205493604D01*
X35717731Y-205493604D02*
X35717731Y-204193604D01*
X35717731Y-204193604D02*
X35593922Y-204379319D01*
X35593922Y-204379319D02*
X35470112Y-204503128D01*
X35470112Y-204503128D02*
X35346303Y-204565033D01*
D10*
D11*
X85346303Y-204317414D02*
X85408207Y-204255509D01*
X85408207Y-204255509D02*
X85532017Y-204193604D01*
X85532017Y-204193604D02*
X85841541Y-204193604D01*
X85841541Y-204193604D02*
X85965350Y-204255509D01*
X85965350Y-204255509D02*
X86027255Y-204317414D01*
X86027255Y-204317414D02*
X86089160Y-204441223D01*
X86089160Y-204441223D02*
X86089160Y-204565033D01*
X86089160Y-204565033D02*
X86027255Y-204750747D01*
X86027255Y-204750747D02*
X85284398Y-205493604D01*
X85284398Y-205493604D02*
X86089160Y-205493604D01*
D10*
D11*
X135284398Y-204193604D02*
X136089160Y-204193604D01*
X136089160Y-204193604D02*
X135655826Y-204688842D01*
X135655826Y-204688842D02*
X135841541Y-204688842D01*
X135841541Y-204688842D02*
X135965350Y-204750747D01*
X135965350Y-204750747D02*
X136027255Y-204812652D01*
X136027255Y-204812652D02*
X136089160Y-204936461D01*
X136089160Y-204936461D02*
X136089160Y-205245985D01*
X136089160Y-205245985D02*
X136027255Y-205369795D01*
X136027255Y-205369795D02*
X135965350Y-205431700D01*
X135965350Y-205431700D02*
X135841541Y-205493604D01*
X135841541Y-205493604D02*
X135470112Y-205493604D01*
X135470112Y-205493604D02*
X135346303Y-205431700D01*
X135346303Y-205431700D02*
X135284398Y-205369795D01*
D10*
D11*
X185965350Y-204626938D02*
X185965350Y-205493604D01*
X185655826Y-204131700D02*
X185346303Y-205060271D01*
X185346303Y-205060271D02*
X186151064Y-205060271D01*
D10*
D11*
X236027255Y-204193604D02*
X235408207Y-204193604D01*
X235408207Y-204193604D02*
X235346303Y-204812652D01*
X235346303Y-204812652D02*
X235408207Y-204750747D01*
X235408207Y-204750747D02*
X235532017Y-204688842D01*
X235532017Y-204688842D02*
X235841541Y-204688842D01*
X235841541Y-204688842D02*
X235965350Y-204750747D01*
X235965350Y-204750747D02*
X236027255Y-204812652D01*
X236027255Y-204812652D02*
X236089160Y-204936461D01*
X236089160Y-204936461D02*
X236089160Y-205245985D01*
X236089160Y-205245985D02*
X236027255Y-205369795D01*
X236027255Y-205369795D02*
X235965350Y-205431700D01*
X235965350Y-205431700D02*
X235841541Y-205493604D01*
X235841541Y-205493604D02*
X235532017Y-205493604D01*
X235532017Y-205493604D02*
X235408207Y-205431700D01*
X235408207Y-205431700D02*
X235346303Y-205369795D01*
D10*
D11*
X10000000Y-60000000D02*
X12000000Y-60000000D01*
D10*
D11*
X10000000Y-110000000D02*
X12000000Y-110000000D01*
D10*
D11*
X10000000Y-160000000D02*
X12000000Y-160000000D01*
D10*
D11*
X10690476Y-35222176D02*
X11309523Y-35222176D01*
X10566666Y-35593604D02*
X10999999Y-34293604D01*
X10999999Y-34293604D02*
X11433333Y-35593604D01*
D10*
D11*
X11092857Y-84912652D02*
X11278571Y-84974557D01*
X11278571Y-84974557D02*
X11340476Y-85036461D01*
X11340476Y-85036461D02*
X11402380Y-85160271D01*
X11402380Y-85160271D02*
X11402380Y-85345985D01*
X11402380Y-85345985D02*
X11340476Y-85469795D01*
X11340476Y-85469795D02*
X11278571Y-85531700D01*
X11278571Y-85531700D02*
X11154761Y-85593604D01*
X11154761Y-85593604D02*
X10659523Y-85593604D01*
X10659523Y-85593604D02*
X10659523Y-84293604D01*
X10659523Y-84293604D02*
X11092857Y-84293604D01*
X11092857Y-84293604D02*
X11216666Y-84355509D01*
X11216666Y-84355509D02*
X11278571Y-84417414D01*
X11278571Y-84417414D02*
X11340476Y-84541223D01*
X11340476Y-84541223D02*
X11340476Y-84665033D01*
X11340476Y-84665033D02*
X11278571Y-84788842D01*
X11278571Y-84788842D02*
X11216666Y-84850747D01*
X11216666Y-84850747D02*
X11092857Y-84912652D01*
X11092857Y-84912652D02*
X10659523Y-84912652D01*
D10*
D11*
X11402380Y-135469795D02*
X11340476Y-135531700D01*
X11340476Y-135531700D02*
X11154761Y-135593604D01*
X11154761Y-135593604D02*
X11030952Y-135593604D01*
X11030952Y-135593604D02*
X10845238Y-135531700D01*
X10845238Y-135531700D02*
X10721428Y-135407890D01*
X10721428Y-135407890D02*
X10659523Y-135284080D01*
X10659523Y-135284080D02*
X10597619Y-135036461D01*
X10597619Y-135036461D02*
X10597619Y-134850747D01*
X10597619Y-134850747D02*
X10659523Y-134603128D01*
X10659523Y-134603128D02*
X10721428Y-134479319D01*
X10721428Y-134479319D02*
X10845238Y-134355509D01*
X10845238Y-134355509D02*
X11030952Y-134293604D01*
X11030952Y-134293604D02*
X11154761Y-134293604D01*
X11154761Y-134293604D02*
X11340476Y-134355509D01*
X11340476Y-134355509D02*
X11402380Y-134417414D01*
D10*
D11*
X10659523Y-185593604D02*
X10659523Y-184293604D01*
X10659523Y-184293604D02*
X10969047Y-184293604D01*
X10969047Y-184293604D02*
X11154761Y-184355509D01*
X11154761Y-184355509D02*
X11278571Y-184479319D01*
X11278571Y-184479319D02*
X11340476Y-184603128D01*
X11340476Y-184603128D02*
X11402380Y-184850747D01*
X11402380Y-184850747D02*
X11402380Y-185036461D01*
X11402380Y-185036461D02*
X11340476Y-185284080D01*
X11340476Y-185284080D02*
X11278571Y-185407890D01*
X11278571Y-185407890D02*
X11154761Y-185531700D01*
X11154761Y-185531700D02*
X10969047Y-185593604D01*
X10969047Y-185593604D02*
X10659523Y-185593604D01*
D10*
D11*
X269400000Y-60000000D02*
X267400000Y-60000000D01*
D10*
D11*
X269400000Y-110000000D02*
X267400000Y-110000000D01*
D10*
D11*
X269400000Y-160000000D02*
X267400000Y-160000000D01*
D10*
D11*
X268090476Y-35222176D02*
X268709523Y-35222176D01*
X267966666Y-35593604D02*
X268399999Y-34293604D01*
X268399999Y-34293604D02*
X268833333Y-35593604D01*
D10*
D11*
X268492857Y-84912652D02*
X268678571Y-84974557D01*
X268678571Y-84974557D02*
X268740476Y-85036461D01*
X268740476Y-85036461D02*
X268802380Y-85160271D01*
X268802380Y-85160271D02*
X268802380Y-85345985D01*
X268802380Y-85345985D02*
X268740476Y-85469795D01*
X268740476Y-85469795D02*
X268678571Y-85531700D01*
X268678571Y-85531700D02*
X268554761Y-85593604D01*
X268554761Y-85593604D02*
X268059523Y-85593604D01*
X268059523Y-85593604D02*
X268059523Y-84293604D01*
X268059523Y-84293604D02*
X268492857Y-84293604D01*
X268492857Y-84293604D02*
X268616666Y-84355509D01*
X268616666Y-84355509D02*
X268678571Y-84417414D01*
X268678571Y-84417414D02*
X268740476Y-84541223D01*
X268740476Y-84541223D02*
X268740476Y-84665033D01*
X268740476Y-84665033D02*
X268678571Y-84788842D01*
X268678571Y-84788842D02*
X268616666Y-84850747D01*
X268616666Y-84850747D02*
X268492857Y-84912652D01*
X268492857Y-84912652D02*
X268059523Y-84912652D01*
D10*
D11*
X268802380Y-135469795D02*
X268740476Y-135531700D01*
X268740476Y-135531700D02*
X268554761Y-135593604D01*
X268554761Y-135593604D02*
X268430952Y-135593604D01*
X268430952Y-135593604D02*
X268245238Y-135531700D01*
X268245238Y-135531700D02*
X268121428Y-135407890D01*
X268121428Y-135407890D02*
X268059523Y-135284080D01*
X268059523Y-135284080D02*
X267997619Y-135036461D01*
X267997619Y-135036461D02*
X267997619Y-134850747D01*
X267997619Y-134850747D02*
X268059523Y-134603128D01*
X268059523Y-134603128D02*
X268121428Y-134479319D01*
X268121428Y-134479319D02*
X268245238Y-134355509D01*
X268245238Y-134355509D02*
X268430952Y-134293604D01*
X268430952Y-134293604D02*
X268554761Y-134293604D01*
X268554761Y-134293604D02*
X268740476Y-134355509D01*
X268740476Y-134355509D02*
X268802380Y-134417414D01*
D10*
D11*
X268059523Y-185593604D02*
X268059523Y-184293604D01*
X268059523Y-184293604D02*
X268369047Y-184293604D01*
X268369047Y-184293604D02*
X268554761Y-184355509D01*
X268554761Y-184355509D02*
X268678571Y-184479319D01*
X268678571Y-184479319D02*
X268740476Y-184603128D01*
X268740476Y-184603128D02*
X268802380Y-184850747D01*
X268802380Y-184850747D02*
X268802380Y-185036461D01*
X268802380Y-185036461D02*
X268740476Y-185284080D01*
X268740476Y-185284080D02*
X268678571Y-185407890D01*
X268678571Y-185407890D02*
X268554761Y-185531700D01*
X268554761Y-185531700D02*
X268369047Y-185593604D01*
X268369047Y-185593604D02*
X268059523Y-185593604D01*
D10*
D11*
X182855826Y-199686128D02*
X182855826Y-198186128D01*
X182855826Y-198186128D02*
X183212969Y-198186128D01*
X183212969Y-198186128D02*
X183427255Y-198257557D01*
X183427255Y-198257557D02*
X183570112Y-198400414D01*
X183570112Y-198400414D02*
X183641541Y-198543271D01*
X183641541Y-198543271D02*
X183712969Y-198828985D01*
X183712969Y-198828985D02*
X183712969Y-199043271D01*
X183712969Y-199043271D02*
X183641541Y-199328985D01*
X183641541Y-199328985D02*
X183570112Y-199471842D01*
X183570112Y-199471842D02*
X183427255Y-199614700D01*
X183427255Y-199614700D02*
X183212969Y-199686128D01*
X183212969Y-199686128D02*
X182855826Y-199686128D01*
X184998684Y-199686128D02*
X184998684Y-198900414D01*
X184998684Y-198900414D02*
X184927255Y-198757557D01*
X184927255Y-198757557D02*
X184784398Y-198686128D01*
X184784398Y-198686128D02*
X184498684Y-198686128D01*
X184498684Y-198686128D02*
X184355826Y-198757557D01*
X184998684Y-199614700D02*
X184855826Y-199686128D01*
X184855826Y-199686128D02*
X184498684Y-199686128D01*
X184498684Y-199686128D02*
X184355826Y-199614700D01*
X184355826Y-199614700D02*
X184284398Y-199471842D01*
X184284398Y-199471842D02*
X184284398Y-199328985D01*
X184284398Y-199328985D02*
X184355826Y-199186128D01*
X184355826Y-199186128D02*
X184498684Y-199114700D01*
X184498684Y-199114700D02*
X184855826Y-199114700D01*
X184855826Y-199114700D02*
X184998684Y-199043271D01*
X185498684Y-198686128D02*
X186070112Y-198686128D01*
X185712969Y-198186128D02*
X185712969Y-199471842D01*
X185712969Y-199471842D02*
X185784398Y-199614700D01*
X185784398Y-199614700D02*
X185927255Y-199686128D01*
X185927255Y-199686128D02*
X186070112Y-199686128D01*
X187141541Y-199614700D02*
X186998684Y-199686128D01*
X186998684Y-199686128D02*
X186712970Y-199686128D01*
X186712970Y-199686128D02*
X186570112Y-199614700D01*
X186570112Y-199614700D02*
X186498684Y-199471842D01*
X186498684Y-199471842D02*
X186498684Y-198900414D01*
X186498684Y-198900414D02*
X186570112Y-198757557D01*
X186570112Y-198757557D02*
X186712970Y-198686128D01*
X186712970Y-198686128D02*
X186998684Y-198686128D01*
X186998684Y-198686128D02*
X187141541Y-198757557D01*
X187141541Y-198757557D02*
X187212970Y-198900414D01*
X187212970Y-198900414D02*
X187212970Y-199043271D01*
X187212970Y-199043271D02*
X186498684Y-199186128D01*
X187855826Y-199543271D02*
X187927255Y-199614700D01*
X187927255Y-199614700D02*
X187855826Y-199686128D01*
X187855826Y-199686128D02*
X187784398Y-199614700D01*
X187784398Y-199614700D02*
X187855826Y-199543271D01*
X187855826Y-199543271D02*
X187855826Y-199686128D01*
X187855826Y-198757557D02*
X187927255Y-198828985D01*
X187927255Y-198828985D02*
X187855826Y-198900414D01*
X187855826Y-198900414D02*
X187784398Y-198828985D01*
X187784398Y-198828985D02*
X187855826Y-198757557D01*
X187855826Y-198757557D02*
X187855826Y-198900414D01*
D10*
D11*
X159400000Y-200400000D02*
X267400000Y-200400000D01*
D10*
D11*
X160855826Y-202486128D02*
X160855826Y-200986128D01*
X161712969Y-202486128D02*
X161070112Y-201628985D01*
X161712969Y-200986128D02*
X160855826Y-201843271D01*
X162355826Y-202486128D02*
X162355826Y-201486128D01*
X162355826Y-200986128D02*
X162284398Y-201057557D01*
X162284398Y-201057557D02*
X162355826Y-201128985D01*
X162355826Y-201128985D02*
X162427255Y-201057557D01*
X162427255Y-201057557D02*
X162355826Y-200986128D01*
X162355826Y-200986128D02*
X162355826Y-201128985D01*
X163927255Y-202343271D02*
X163855827Y-202414700D01*
X163855827Y-202414700D02*
X163641541Y-202486128D01*
X163641541Y-202486128D02*
X163498684Y-202486128D01*
X163498684Y-202486128D02*
X163284398Y-202414700D01*
X163284398Y-202414700D02*
X163141541Y-202271842D01*
X163141541Y-202271842D02*
X163070112Y-202128985D01*
X163070112Y-202128985D02*
X162998684Y-201843271D01*
X162998684Y-201843271D02*
X162998684Y-201628985D01*
X162998684Y-201628985D02*
X163070112Y-201343271D01*
X163070112Y-201343271D02*
X163141541Y-201200414D01*
X163141541Y-201200414D02*
X163284398Y-201057557D01*
X163284398Y-201057557D02*
X163498684Y-200986128D01*
X163498684Y-200986128D02*
X163641541Y-200986128D01*
X163641541Y-200986128D02*
X163855827Y-201057557D01*
X163855827Y-201057557D02*
X163927255Y-201128985D01*
X165212970Y-202486128D02*
X165212970Y-201700414D01*
X165212970Y-201700414D02*
X165141541Y-201557557D01*
X165141541Y-201557557D02*
X164998684Y-201486128D01*
X164998684Y-201486128D02*
X164712970Y-201486128D01*
X164712970Y-201486128D02*
X164570112Y-201557557D01*
X165212970Y-202414700D02*
X165070112Y-202486128D01*
X165070112Y-202486128D02*
X164712970Y-202486128D01*
X164712970Y-202486128D02*
X164570112Y-202414700D01*
X164570112Y-202414700D02*
X164498684Y-202271842D01*
X164498684Y-202271842D02*
X164498684Y-202128985D01*
X164498684Y-202128985D02*
X164570112Y-201986128D01*
X164570112Y-201986128D02*
X164712970Y-201914700D01*
X164712970Y-201914700D02*
X165070112Y-201914700D01*
X165070112Y-201914700D02*
X165212970Y-201843271D01*
X166570113Y-202486128D02*
X166570113Y-200986128D01*
X166570113Y-202414700D02*
X166427255Y-202486128D01*
X166427255Y-202486128D02*
X166141541Y-202486128D01*
X166141541Y-202486128D02*
X165998684Y-202414700D01*
X165998684Y-202414700D02*
X165927255Y-202343271D01*
X165927255Y-202343271D02*
X165855827Y-202200414D01*
X165855827Y-202200414D02*
X165855827Y-201771842D01*
X165855827Y-201771842D02*
X165927255Y-201628985D01*
X165927255Y-201628985D02*
X165998684Y-201557557D01*
X165998684Y-201557557D02*
X166141541Y-201486128D01*
X166141541Y-201486128D02*
X166427255Y-201486128D01*
X166427255Y-201486128D02*
X166570113Y-201557557D01*
X168427255Y-201700414D02*
X168927255Y-201700414D01*
X169141541Y-202486128D02*
X168427255Y-202486128D01*
X168427255Y-202486128D02*
X168427255Y-200986128D01*
X168427255Y-200986128D02*
X169141541Y-200986128D01*
X169784398Y-202343271D02*
X169855827Y-202414700D01*
X169855827Y-202414700D02*
X169784398Y-202486128D01*
X169784398Y-202486128D02*
X169712970Y-202414700D01*
X169712970Y-202414700D02*
X169784398Y-202343271D01*
X169784398Y-202343271D02*
X169784398Y-202486128D01*
X170498684Y-202486128D02*
X170498684Y-200986128D01*
X170498684Y-200986128D02*
X170855827Y-200986128D01*
X170855827Y-200986128D02*
X171070113Y-201057557D01*
X171070113Y-201057557D02*
X171212970Y-201200414D01*
X171212970Y-201200414D02*
X171284399Y-201343271D01*
X171284399Y-201343271D02*
X171355827Y-201628985D01*
X171355827Y-201628985D02*
X171355827Y-201843271D01*
X171355827Y-201843271D02*
X171284399Y-202128985D01*
X171284399Y-202128985D02*
X171212970Y-202271842D01*
X171212970Y-202271842D02*
X171070113Y-202414700D01*
X171070113Y-202414700D02*
X170855827Y-202486128D01*
X170855827Y-202486128D02*
X170498684Y-202486128D01*
X171998684Y-202343271D02*
X172070113Y-202414700D01*
X172070113Y-202414700D02*
X171998684Y-202486128D01*
X171998684Y-202486128D02*
X171927256Y-202414700D01*
X171927256Y-202414700D02*
X171998684Y-202343271D01*
X171998684Y-202343271D02*
X171998684Y-202486128D01*
X172641542Y-202057557D02*
X173355828Y-202057557D01*
X172498685Y-202486128D02*
X172998685Y-200986128D01*
X172998685Y-200986128D02*
X173498685Y-202486128D01*
X173998684Y-202343271D02*
X174070113Y-202414700D01*
X174070113Y-202414700D02*
X173998684Y-202486128D01*
X173998684Y-202486128D02*
X173927256Y-202414700D01*
X173927256Y-202414700D02*
X173998684Y-202343271D01*
X173998684Y-202343271D02*
X173998684Y-202486128D01*
X176070113Y-201628985D02*
X175927256Y-201557557D01*
X175927256Y-201557557D02*
X175855827Y-201486128D01*
X175855827Y-201486128D02*
X175784399Y-201343271D01*
X175784399Y-201343271D02*
X175784399Y-201271842D01*
X175784399Y-201271842D02*
X175855827Y-201128985D01*
X175855827Y-201128985D02*
X175927256Y-201057557D01*
X175927256Y-201057557D02*
X176070113Y-200986128D01*
X176070113Y-200986128D02*
X176355827Y-200986128D01*
X176355827Y-200986128D02*
X176498685Y-201057557D01*
X176498685Y-201057557D02*
X176570113Y-201128985D01*
X176570113Y-201128985D02*
X176641542Y-201271842D01*
X176641542Y-201271842D02*
X176641542Y-201343271D01*
X176641542Y-201343271D02*
X176570113Y-201486128D01*
X176570113Y-201486128D02*
X176498685Y-201557557D01*
X176498685Y-201557557D02*
X176355827Y-201628985D01*
X176355827Y-201628985D02*
X176070113Y-201628985D01*
X176070113Y-201628985D02*
X175927256Y-201700414D01*
X175927256Y-201700414D02*
X175855827Y-201771842D01*
X175855827Y-201771842D02*
X175784399Y-201914700D01*
X175784399Y-201914700D02*
X175784399Y-202200414D01*
X175784399Y-202200414D02*
X175855827Y-202343271D01*
X175855827Y-202343271D02*
X175927256Y-202414700D01*
X175927256Y-202414700D02*
X176070113Y-202486128D01*
X176070113Y-202486128D02*
X176355827Y-202486128D01*
X176355827Y-202486128D02*
X176498685Y-202414700D01*
X176498685Y-202414700D02*
X176570113Y-202343271D01*
X176570113Y-202343271D02*
X176641542Y-202200414D01*
X176641542Y-202200414D02*
X176641542Y-201914700D01*
X176641542Y-201914700D02*
X176570113Y-201771842D01*
X176570113Y-201771842D02*
X176498685Y-201700414D01*
X176498685Y-201700414D02*
X176355827Y-201628985D01*
X177284398Y-202343271D02*
X177355827Y-202414700D01*
X177355827Y-202414700D02*
X177284398Y-202486128D01*
X177284398Y-202486128D02*
X177212970Y-202414700D01*
X177212970Y-202414700D02*
X177284398Y-202343271D01*
X177284398Y-202343271D02*
X177284398Y-202486128D01*
X178284399Y-200986128D02*
X178427256Y-200986128D01*
X178427256Y-200986128D02*
X178570113Y-201057557D01*
X178570113Y-201057557D02*
X178641542Y-201128985D01*
X178641542Y-201128985D02*
X178712970Y-201271842D01*
X178712970Y-201271842D02*
X178784399Y-201557557D01*
X178784399Y-201557557D02*
X178784399Y-201914700D01*
X178784399Y-201914700D02*
X178712970Y-202200414D01*
X178712970Y-202200414D02*
X178641542Y-202343271D01*
X178641542Y-202343271D02*
X178570113Y-202414700D01*
X178570113Y-202414700D02*
X178427256Y-202486128D01*
X178427256Y-202486128D02*
X178284399Y-202486128D01*
X178284399Y-202486128D02*
X178141542Y-202414700D01*
X178141542Y-202414700D02*
X178070113Y-202343271D01*
X178070113Y-202343271D02*
X177998684Y-202200414D01*
X177998684Y-202200414D02*
X177927256Y-201914700D01*
X177927256Y-201914700D02*
X177927256Y-201557557D01*
X177927256Y-201557557D02*
X177998684Y-201271842D01*
X177998684Y-201271842D02*
X178070113Y-201128985D01*
X178070113Y-201128985D02*
X178141542Y-201057557D01*
X178141542Y-201057557D02*
X178284399Y-200986128D01*
X179427255Y-202343271D02*
X179498684Y-202414700D01*
X179498684Y-202414700D02*
X179427255Y-202486128D01*
X179427255Y-202486128D02*
X179355827Y-202414700D01*
X179355827Y-202414700D02*
X179427255Y-202343271D01*
X179427255Y-202343271D02*
X179427255Y-202486128D01*
X180927256Y-202486128D02*
X180070113Y-202486128D01*
X180498684Y-202486128D02*
X180498684Y-200986128D01*
X180498684Y-200986128D02*
X180355827Y-201200414D01*
X180355827Y-201200414D02*
X180212970Y-201343271D01*
X180212970Y-201343271D02*
X180070113Y-201414700D01*
D10*
D11*
X159400000Y-197400000D02*
X267400000Y-197400000D01*
D10*
D12*
X246811653Y-199678328D02*
X246311653Y-198964042D01*
X245954510Y-199678328D02*
X245954510Y-198178328D01*
X245954510Y-198178328D02*
X246525939Y-198178328D01*
X246525939Y-198178328D02*
X246668796Y-198249757D01*
X246668796Y-198249757D02*
X246740225Y-198321185D01*
X246740225Y-198321185D02*
X246811653Y-198464042D01*
X246811653Y-198464042D02*
X246811653Y-198678328D01*
X246811653Y-198678328D02*
X246740225Y-198821185D01*
X246740225Y-198821185D02*
X246668796Y-198892614D01*
X246668796Y-198892614D02*
X246525939Y-198964042D01*
X246525939Y-198964042D02*
X245954510Y-198964042D01*
X248025939Y-199606900D02*
X247883082Y-199678328D01*
X247883082Y-199678328D02*
X247597368Y-199678328D01*
X247597368Y-199678328D02*
X247454510Y-199606900D01*
X247454510Y-199606900D02*
X247383082Y-199464042D01*
X247383082Y-199464042D02*
X247383082Y-198892614D01*
X247383082Y-198892614D02*
X247454510Y-198749757D01*
X247454510Y-198749757D02*
X247597368Y-198678328D01*
X247597368Y-198678328D02*
X247883082Y-198678328D01*
X247883082Y-198678328D02*
X248025939Y-198749757D01*
X248025939Y-198749757D02*
X248097368Y-198892614D01*
X248097368Y-198892614D02*
X248097368Y-199035471D01*
X248097368Y-199035471D02*
X247383082Y-199178328D01*
X248597367Y-198678328D02*
X248954510Y-199678328D01*
X248954510Y-199678328D02*
X249311653Y-198678328D01*
X249883081Y-199535471D02*
X249954510Y-199606900D01*
X249954510Y-199606900D02*
X249883081Y-199678328D01*
X249883081Y-199678328D02*
X249811653Y-199606900D01*
X249811653Y-199606900D02*
X249883081Y-199535471D01*
X249883081Y-199535471D02*
X249883081Y-199678328D01*
X249883081Y-198749757D02*
X249954510Y-198821185D01*
X249954510Y-198821185D02*
X249883081Y-198892614D01*
X249883081Y-198892614D02*
X249811653Y-198821185D01*
X249811653Y-198821185D02*
X249883081Y-198749757D01*
X249883081Y-198749757D02*
X249883081Y-198892614D01*
X251597367Y-198178328D02*
X252525939Y-198178328D01*
X252525939Y-198178328D02*
X252025939Y-198749757D01*
X252025939Y-198749757D02*
X252240224Y-198749757D01*
X252240224Y-198749757D02*
X252383082Y-198821185D01*
X252383082Y-198821185D02*
X252454510Y-198892614D01*
X252454510Y-198892614D02*
X252525939Y-199035471D01*
X252525939Y-199035471D02*
X252525939Y-199392614D01*
X252525939Y-199392614D02*
X252454510Y-199535471D01*
X252454510Y-199535471D02*
X252383082Y-199606900D01*
X252383082Y-199606900D02*
X252240224Y-199678328D01*
X252240224Y-199678328D02*
X251811653Y-199678328D01*
X251811653Y-199678328D02*
X251668796Y-199606900D01*
X251668796Y-199606900D02*
X251597367Y-199535471D01*
D10*
D11*
X160784398Y-199614700D02*
X160998684Y-199686128D01*
X160998684Y-199686128D02*
X161355826Y-199686128D01*
X161355826Y-199686128D02*
X161498684Y-199614700D01*
X161498684Y-199614700D02*
X161570112Y-199543271D01*
X161570112Y-199543271D02*
X161641541Y-199400414D01*
X161641541Y-199400414D02*
X161641541Y-199257557D01*
X161641541Y-199257557D02*
X161570112Y-199114700D01*
X161570112Y-199114700D02*
X161498684Y-199043271D01*
X161498684Y-199043271D02*
X161355826Y-198971842D01*
X161355826Y-198971842D02*
X161070112Y-198900414D01*
X161070112Y-198900414D02*
X160927255Y-198828985D01*
X160927255Y-198828985D02*
X160855826Y-198757557D01*
X160855826Y-198757557D02*
X160784398Y-198614700D01*
X160784398Y-198614700D02*
X160784398Y-198471842D01*
X160784398Y-198471842D02*
X160855826Y-198328985D01*
X160855826Y-198328985D02*
X160927255Y-198257557D01*
X160927255Y-198257557D02*
X161070112Y-198186128D01*
X161070112Y-198186128D02*
X161427255Y-198186128D01*
X161427255Y-198186128D02*
X161641541Y-198257557D01*
X162284397Y-199686128D02*
X162284397Y-198686128D01*
X162284397Y-198186128D02*
X162212969Y-198257557D01*
X162212969Y-198257557D02*
X162284397Y-198328985D01*
X162284397Y-198328985D02*
X162355826Y-198257557D01*
X162355826Y-198257557D02*
X162284397Y-198186128D01*
X162284397Y-198186128D02*
X162284397Y-198328985D01*
X162855826Y-198686128D02*
X163641541Y-198686128D01*
X163641541Y-198686128D02*
X162855826Y-199686128D01*
X162855826Y-199686128D02*
X163641541Y-199686128D01*
X164784398Y-199614700D02*
X164641541Y-199686128D01*
X164641541Y-199686128D02*
X164355827Y-199686128D01*
X164355827Y-199686128D02*
X164212969Y-199614700D01*
X164212969Y-199614700D02*
X164141541Y-199471842D01*
X164141541Y-199471842D02*
X164141541Y-198900414D01*
X164141541Y-198900414D02*
X164212969Y-198757557D01*
X164212969Y-198757557D02*
X164355827Y-198686128D01*
X164355827Y-198686128D02*
X164641541Y-198686128D01*
X164641541Y-198686128D02*
X164784398Y-198757557D01*
X164784398Y-198757557D02*
X164855827Y-198900414D01*
X164855827Y-198900414D02*
X164855827Y-199043271D01*
X164855827Y-199043271D02*
X164141541Y-199186128D01*
X165498683Y-199543271D02*
X165570112Y-199614700D01*
X165570112Y-199614700D02*
X165498683Y-199686128D01*
X165498683Y-199686128D02*
X165427255Y-199614700D01*
X165427255Y-199614700D02*
X165498683Y-199543271D01*
X165498683Y-199543271D02*
X165498683Y-199686128D01*
X165498683Y-198757557D02*
X165570112Y-198828985D01*
X165570112Y-198828985D02*
X165498683Y-198900414D01*
X165498683Y-198900414D02*
X165427255Y-198828985D01*
X165427255Y-198828985D02*
X165498683Y-198757557D01*
X165498683Y-198757557D02*
X165498683Y-198900414D01*
X167355826Y-198186128D02*
X167355826Y-199400414D01*
X167355826Y-199400414D02*
X167427255Y-199543271D01*
X167427255Y-199543271D02*
X167498684Y-199614700D01*
X167498684Y-199614700D02*
X167641541Y-199686128D01*
X167641541Y-199686128D02*
X167927255Y-199686128D01*
X167927255Y-199686128D02*
X168070112Y-199614700D01*
X168070112Y-199614700D02*
X168141541Y-199543271D01*
X168141541Y-199543271D02*
X168212969Y-199400414D01*
X168212969Y-199400414D02*
X168212969Y-198186128D01*
X168855827Y-199614700D02*
X169070113Y-199686128D01*
X169070113Y-199686128D02*
X169427255Y-199686128D01*
X169427255Y-199686128D02*
X169570113Y-199614700D01*
X169570113Y-199614700D02*
X169641541Y-199543271D01*
X169641541Y-199543271D02*
X169712970Y-199400414D01*
X169712970Y-199400414D02*
X169712970Y-199257557D01*
X169712970Y-199257557D02*
X169641541Y-199114700D01*
X169641541Y-199114700D02*
X169570113Y-199043271D01*
X169570113Y-199043271D02*
X169427255Y-198971842D01*
X169427255Y-198971842D02*
X169141541Y-198900414D01*
X169141541Y-198900414D02*
X168998684Y-198828985D01*
X168998684Y-198828985D02*
X168927255Y-198757557D01*
X168927255Y-198757557D02*
X168855827Y-198614700D01*
X168855827Y-198614700D02*
X168855827Y-198471842D01*
X168855827Y-198471842D02*
X168927255Y-198328985D01*
X168927255Y-198328985D02*
X168998684Y-198257557D01*
X168998684Y-198257557D02*
X169141541Y-198186128D01*
X169141541Y-198186128D02*
X169498684Y-198186128D01*
X169498684Y-198186128D02*
X169712970Y-198257557D01*
X171070112Y-199686128D02*
X170355826Y-199686128D01*
X170355826Y-199686128D02*
X170355826Y-198186128D01*
X172141541Y-199614700D02*
X171998684Y-199686128D01*
X171998684Y-199686128D02*
X171712970Y-199686128D01*
X171712970Y-199686128D02*
X171570112Y-199614700D01*
X171570112Y-199614700D02*
X171498684Y-199471842D01*
X171498684Y-199471842D02*
X171498684Y-198900414D01*
X171498684Y-198900414D02*
X171570112Y-198757557D01*
X171570112Y-198757557D02*
X171712970Y-198686128D01*
X171712970Y-198686128D02*
X171998684Y-198686128D01*
X171998684Y-198686128D02*
X172141541Y-198757557D01*
X172141541Y-198757557D02*
X172212970Y-198900414D01*
X172212970Y-198900414D02*
X172212970Y-199043271D01*
X172212970Y-199043271D02*
X171498684Y-199186128D01*
X172641541Y-198686128D02*
X173212969Y-198686128D01*
X172855826Y-198186128D02*
X172855826Y-199471842D01*
X172855826Y-199471842D02*
X172927255Y-199614700D01*
X172927255Y-199614700D02*
X173070112Y-199686128D01*
X173070112Y-199686128D02*
X173212969Y-199686128D01*
X173498684Y-198686128D02*
X174070112Y-198686128D01*
X173712969Y-198186128D02*
X173712969Y-199471842D01*
X173712969Y-199471842D02*
X173784398Y-199614700D01*
X173784398Y-199614700D02*
X173927255Y-199686128D01*
X173927255Y-199686128D02*
X174070112Y-199686128D01*
X175141541Y-199614700D02*
X174998684Y-199686128D01*
X174998684Y-199686128D02*
X174712970Y-199686128D01*
X174712970Y-199686128D02*
X174570112Y-199614700D01*
X174570112Y-199614700D02*
X174498684Y-199471842D01*
X174498684Y-199471842D02*
X174498684Y-198900414D01*
X174498684Y-198900414D02*
X174570112Y-198757557D01*
X174570112Y-198757557D02*
X174712970Y-198686128D01*
X174712970Y-198686128D02*
X174998684Y-198686128D01*
X174998684Y-198686128D02*
X175141541Y-198757557D01*
X175141541Y-198757557D02*
X175212970Y-198900414D01*
X175212970Y-198900414D02*
X175212970Y-199043271D01*
X175212970Y-199043271D02*
X174498684Y-199186128D01*
X175855826Y-199686128D02*
X175855826Y-198686128D01*
X175855826Y-198971842D02*
X175927255Y-198828985D01*
X175927255Y-198828985D02*
X175998684Y-198757557D01*
X175998684Y-198757557D02*
X176141541Y-198686128D01*
X176141541Y-198686128D02*
X176284398Y-198686128D01*
D10*
D11*
X245855826Y-202486128D02*
X245855826Y-200986128D01*
X247212970Y-202486128D02*
X247212970Y-200986128D01*
X247212970Y-202414700D02*
X247070112Y-202486128D01*
X247070112Y-202486128D02*
X246784398Y-202486128D01*
X246784398Y-202486128D02*
X246641541Y-202414700D01*
X246641541Y-202414700D02*
X246570112Y-202343271D01*
X246570112Y-202343271D02*
X246498684Y-202200414D01*
X246498684Y-202200414D02*
X246498684Y-201771842D01*
X246498684Y-201771842D02*
X246570112Y-201628985D01*
X246570112Y-201628985D02*
X246641541Y-201557557D01*
X246641541Y-201557557D02*
X246784398Y-201486128D01*
X246784398Y-201486128D02*
X247070112Y-201486128D01*
X247070112Y-201486128D02*
X247212970Y-201557557D01*
X247927255Y-202343271D02*
X247998684Y-202414700D01*
X247998684Y-202414700D02*
X247927255Y-202486128D01*
X247927255Y-202486128D02*
X247855827Y-202414700D01*
X247855827Y-202414700D02*
X247927255Y-202343271D01*
X247927255Y-202343271D02*
X247927255Y-202486128D01*
X247927255Y-201557557D02*
X247998684Y-201628985D01*
X247998684Y-201628985D02*
X247927255Y-201700414D01*
X247927255Y-201700414D02*
X247855827Y-201628985D01*
X247855827Y-201628985D02*
X247927255Y-201557557D01*
X247927255Y-201557557D02*
X247927255Y-201700414D01*
X250570113Y-202486128D02*
X249712970Y-202486128D01*
X250141541Y-202486128D02*
X250141541Y-200986128D01*
X250141541Y-200986128D02*
X249998684Y-201200414D01*
X249998684Y-201200414D02*
X249855827Y-201343271D01*
X249855827Y-201343271D02*
X249712970Y-201414700D01*
X252284398Y-200914700D02*
X250998684Y-202843271D01*
X253570113Y-202486128D02*
X252712970Y-202486128D01*
X253141541Y-202486128D02*
X253141541Y-200986128D01*
X253141541Y-200986128D02*
X252998684Y-201200414D01*
X252998684Y-201200414D02*
X252855827Y-201343271D01*
X252855827Y-201343271D02*
X252712970Y-201414700D01*
D10*
D11*
X159400000Y-193400000D02*
X267400000Y-193400000D01*
D10*
D13*
X161091728Y-194104438D02*
X162234585Y-194104438D01*
X161413157Y-196104438D02*
X161663157Y-194104438D01*
X162651252Y-196104438D02*
X162817919Y-194771104D01*
X162901252Y-194104438D02*
X162794109Y-194199676D01*
X162794109Y-194199676D02*
X162877443Y-194294914D01*
X162877443Y-194294914D02*
X162984586Y-194199676D01*
X162984586Y-194199676D02*
X162901252Y-194104438D01*
X162901252Y-194104438D02*
X162877443Y-194294914D01*
X163484586Y-194771104D02*
X164246490Y-194771104D01*
X163853633Y-194104438D02*
X163639348Y-195818723D01*
X163639348Y-195818723D02*
X163710776Y-196009200D01*
X163710776Y-196009200D02*
X163889348Y-196104438D01*
X163889348Y-196104438D02*
X164079824Y-196104438D01*
X165032205Y-196104438D02*
X164853633Y-196009200D01*
X164853633Y-196009200D02*
X164782205Y-195818723D01*
X164782205Y-195818723D02*
X164996490Y-194104438D01*
X166567919Y-196009200D02*
X166365538Y-196104438D01*
X166365538Y-196104438D02*
X165984585Y-196104438D01*
X165984585Y-196104438D02*
X165806014Y-196009200D01*
X165806014Y-196009200D02*
X165734585Y-195818723D01*
X165734585Y-195818723D02*
X165829824Y-195056819D01*
X165829824Y-195056819D02*
X165948871Y-194866342D01*
X165948871Y-194866342D02*
X166151252Y-194771104D01*
X166151252Y-194771104D02*
X166532204Y-194771104D01*
X166532204Y-194771104D02*
X166710776Y-194866342D01*
X166710776Y-194866342D02*
X166782204Y-195056819D01*
X166782204Y-195056819D02*
X166758395Y-195247295D01*
X166758395Y-195247295D02*
X165782204Y-195437771D01*
X167532205Y-195913961D02*
X167615538Y-196009200D01*
X167615538Y-196009200D02*
X167508395Y-196104438D01*
X167508395Y-196104438D02*
X167425062Y-196009200D01*
X167425062Y-196009200D02*
X167532205Y-195913961D01*
X167532205Y-195913961D02*
X167508395Y-196104438D01*
X167663157Y-194866342D02*
X167746490Y-194961580D01*
X167746490Y-194961580D02*
X167639348Y-195056819D01*
X167639348Y-195056819D02*
X167556014Y-194961580D01*
X167556014Y-194961580D02*
X167663157Y-194866342D01*
X167663157Y-194866342D02*
X167639348Y-195056819D01*
X170044110Y-194104438D02*
X170270301Y-196104438D01*
X170270301Y-196104438D02*
X170829824Y-194675866D01*
X170829824Y-194675866D02*
X171032205Y-196104438D01*
X171032205Y-196104438D02*
X171758396Y-194104438D01*
X172270300Y-196104438D02*
X172436967Y-194771104D01*
X172520300Y-194104438D02*
X172413157Y-194199676D01*
X172413157Y-194199676D02*
X172496491Y-194294914D01*
X172496491Y-194294914D02*
X172603634Y-194199676D01*
X172603634Y-194199676D02*
X172520300Y-194104438D01*
X172520300Y-194104438D02*
X172496491Y-194294914D01*
X173389348Y-194771104D02*
X173222681Y-196104438D01*
X173365538Y-194961580D02*
X173472681Y-194866342D01*
X173472681Y-194866342D02*
X173675062Y-194771104D01*
X173675062Y-194771104D02*
X173960776Y-194771104D01*
X173960776Y-194771104D02*
X174139348Y-194866342D01*
X174139348Y-194866342D02*
X174210776Y-195056819D01*
X174210776Y-195056819D02*
X174079824Y-196104438D01*
X175889348Y-196104438D02*
X176139348Y-194104438D01*
X175901253Y-196009200D02*
X175698872Y-196104438D01*
X175698872Y-196104438D02*
X175317920Y-196104438D01*
X175317920Y-196104438D02*
X175139348Y-196009200D01*
X175139348Y-196009200D02*
X175056015Y-195913961D01*
X175056015Y-195913961D02*
X174984586Y-195723485D01*
X174984586Y-195723485D02*
X175056015Y-195152057D01*
X175056015Y-195152057D02*
X175175062Y-194961580D01*
X175175062Y-194961580D02*
X175282205Y-194866342D01*
X175282205Y-194866342D02*
X175484586Y-194771104D01*
X175484586Y-194771104D02*
X175865539Y-194771104D01*
X175865539Y-194771104D02*
X176044110Y-194866342D01*
X176758396Y-196009200D02*
X176936967Y-196104438D01*
X176936967Y-196104438D02*
X177317920Y-196104438D01*
X177317920Y-196104438D02*
X177520301Y-196009200D01*
X177520301Y-196009200D02*
X177639348Y-195818723D01*
X177639348Y-195818723D02*
X177651253Y-195723485D01*
X177651253Y-195723485D02*
X177579824Y-195533009D01*
X177579824Y-195533009D02*
X177401253Y-195437771D01*
X177401253Y-195437771D02*
X177115539Y-195437771D01*
X177115539Y-195437771D02*
X176936967Y-195342533D01*
X176936967Y-195342533D02*
X176865539Y-195152057D01*
X176865539Y-195152057D02*
X176877444Y-195056819D01*
X176877444Y-195056819D02*
X176996491Y-194866342D01*
X176996491Y-194866342D02*
X177198872Y-194771104D01*
X177198872Y-194771104D02*
X177484586Y-194771104D01*
X177484586Y-194771104D02*
X177663158Y-194866342D01*
X178460777Y-196104438D02*
X178710777Y-194104438D01*
X179317920Y-196104438D02*
X179448872Y-195056819D01*
X179448872Y-195056819D02*
X179377444Y-194866342D01*
X179377444Y-194866342D02*
X179198872Y-194771104D01*
X179198872Y-194771104D02*
X178913158Y-194771104D01*
X178913158Y-194771104D02*
X178710777Y-194866342D01*
X178710777Y-194866342D02*
X178603634Y-194961580D01*
X180270301Y-196104438D02*
X180436968Y-194771104D01*
X180520301Y-194104438D02*
X180413158Y-194199676D01*
X180413158Y-194199676D02*
X180496492Y-194294914D01*
X180496492Y-194294914D02*
X180603635Y-194199676D01*
X180603635Y-194199676D02*
X180520301Y-194104438D01*
X180520301Y-194104438D02*
X180496492Y-194294914D01*
X181996492Y-196009200D02*
X181794111Y-196104438D01*
X181794111Y-196104438D02*
X181413158Y-196104438D01*
X181413158Y-196104438D02*
X181234587Y-196009200D01*
X181234587Y-196009200D02*
X181163158Y-195818723D01*
X181163158Y-195818723D02*
X181258397Y-195056819D01*
X181258397Y-195056819D02*
X181377444Y-194866342D01*
X181377444Y-194866342D02*
X181579825Y-194771104D01*
X181579825Y-194771104D02*
X181960777Y-194771104D01*
X181960777Y-194771104D02*
X182139349Y-194866342D01*
X182139349Y-194866342D02*
X182210777Y-195056819D01*
X182210777Y-195056819D02*
X182186968Y-195247295D01*
X182186968Y-195247295D02*
X181210777Y-195437771D01*
X183222683Y-196104438D02*
X183044111Y-196009200D01*
X183044111Y-196009200D02*
X182972683Y-195818723D01*
X182972683Y-195818723D02*
X183186968Y-194104438D01*
X184841730Y-196104438D02*
X185091730Y-194104438D01*
X184853635Y-196009200D02*
X184651254Y-196104438D01*
X184651254Y-196104438D02*
X184270302Y-196104438D01*
X184270302Y-196104438D02*
X184091730Y-196009200D01*
X184091730Y-196009200D02*
X184008397Y-195913961D01*
X184008397Y-195913961D02*
X183936968Y-195723485D01*
X183936968Y-195723485D02*
X184008397Y-195152057D01*
X184008397Y-195152057D02*
X184127444Y-194961580D01*
X184127444Y-194961580D02*
X184234587Y-194866342D01*
X184234587Y-194866342D02*
X184436968Y-194771104D01*
X184436968Y-194771104D02*
X184817921Y-194771104D01*
X184817921Y-194771104D02*
X184996492Y-194866342D01*
X187317921Y-196104438D02*
X187567921Y-194104438D01*
X187448874Y-195056819D02*
X188591731Y-195056819D01*
X188460778Y-196104438D02*
X188710778Y-194104438D01*
X190186969Y-196009200D02*
X189984588Y-196104438D01*
X189984588Y-196104438D02*
X189603635Y-196104438D01*
X189603635Y-196104438D02*
X189425064Y-196009200D01*
X189425064Y-196009200D02*
X189353635Y-195818723D01*
X189353635Y-195818723D02*
X189448874Y-195056819D01*
X189448874Y-195056819D02*
X189567921Y-194866342D01*
X189567921Y-194866342D02*
X189770302Y-194771104D01*
X189770302Y-194771104D02*
X190151254Y-194771104D01*
X190151254Y-194771104D02*
X190329826Y-194866342D01*
X190329826Y-194866342D02*
X190401254Y-195056819D01*
X190401254Y-195056819D02*
X190377445Y-195247295D01*
X190377445Y-195247295D02*
X189401254Y-195437771D01*
X191984588Y-196104438D02*
X192115540Y-195056819D01*
X192115540Y-195056819D02*
X192044112Y-194866342D01*
X192044112Y-194866342D02*
X191865540Y-194771104D01*
X191865540Y-194771104D02*
X191484588Y-194771104D01*
X191484588Y-194771104D02*
X191282207Y-194866342D01*
X191996493Y-196009200D02*
X191794112Y-196104438D01*
X191794112Y-196104438D02*
X191317921Y-196104438D01*
X191317921Y-196104438D02*
X191139350Y-196009200D01*
X191139350Y-196009200D02*
X191067921Y-195818723D01*
X191067921Y-195818723D02*
X191091731Y-195628247D01*
X191091731Y-195628247D02*
X191210779Y-195437771D01*
X191210779Y-195437771D02*
X191413160Y-195342533D01*
X191413160Y-195342533D02*
X191889350Y-195342533D01*
X191889350Y-195342533D02*
X192091731Y-195247295D01*
X192817922Y-194771104D02*
X193579826Y-194771104D01*
X193186969Y-194104438D02*
X192972684Y-195818723D01*
X192972684Y-195818723D02*
X193044112Y-196009200D01*
X193044112Y-196009200D02*
X193222684Y-196104438D01*
X193222684Y-196104438D02*
X193413160Y-196104438D01*
X194853636Y-196009200D02*
X194651255Y-196104438D01*
X194651255Y-196104438D02*
X194270302Y-196104438D01*
X194270302Y-196104438D02*
X194091731Y-196009200D01*
X194091731Y-196009200D02*
X194020302Y-195818723D01*
X194020302Y-195818723D02*
X194115541Y-195056819D01*
X194115541Y-195056819D02*
X194234588Y-194866342D01*
X194234588Y-194866342D02*
X194436969Y-194771104D01*
X194436969Y-194771104D02*
X194817921Y-194771104D01*
X194817921Y-194771104D02*
X194996493Y-194866342D01*
X194996493Y-194866342D02*
X195067921Y-195056819D01*
X195067921Y-195056819D02*
X195044112Y-195247295D01*
X195044112Y-195247295D02*
X194067921Y-195437771D01*
X195794112Y-196104438D02*
X195960779Y-194771104D01*
X195913160Y-195152057D02*
X196032207Y-194961580D01*
X196032207Y-194961580D02*
X196139350Y-194866342D01*
X196139350Y-194866342D02*
X196341731Y-194771104D01*
X196341731Y-194771104D02*
X196532207Y-194771104D01*
X199722684Y-195913961D02*
X199615541Y-196009200D01*
X199615541Y-196009200D02*
X199317922Y-196104438D01*
X199317922Y-196104438D02*
X199127446Y-196104438D01*
X199127446Y-196104438D02*
X198853636Y-196009200D01*
X198853636Y-196009200D02*
X198686970Y-195818723D01*
X198686970Y-195818723D02*
X198615541Y-195628247D01*
X198615541Y-195628247D02*
X198567922Y-195247295D01*
X198567922Y-195247295D02*
X198603636Y-194961580D01*
X198603636Y-194961580D02*
X198746493Y-194580628D01*
X198746493Y-194580628D02*
X198865541Y-194390152D01*
X198865541Y-194390152D02*
X199079827Y-194199676D01*
X199079827Y-194199676D02*
X199377446Y-194104438D01*
X199377446Y-194104438D02*
X199567922Y-194104438D01*
X199567922Y-194104438D02*
X199841732Y-194199676D01*
X199841732Y-194199676D02*
X199925065Y-194294914D01*
X200841732Y-196104438D02*
X200663160Y-196009200D01*
X200663160Y-196009200D02*
X200579827Y-195913961D01*
X200579827Y-195913961D02*
X200508398Y-195723485D01*
X200508398Y-195723485D02*
X200579827Y-195152057D01*
X200579827Y-195152057D02*
X200698874Y-194961580D01*
X200698874Y-194961580D02*
X200806017Y-194866342D01*
X200806017Y-194866342D02*
X201008398Y-194771104D01*
X201008398Y-194771104D02*
X201294112Y-194771104D01*
X201294112Y-194771104D02*
X201472684Y-194866342D01*
X201472684Y-194866342D02*
X201556017Y-194961580D01*
X201556017Y-194961580D02*
X201627446Y-195152057D01*
X201627446Y-195152057D02*
X201556017Y-195723485D01*
X201556017Y-195723485D02*
X201436970Y-195913961D01*
X201436970Y-195913961D02*
X201329827Y-196009200D01*
X201329827Y-196009200D02*
X201127446Y-196104438D01*
X201127446Y-196104438D02*
X200841732Y-196104438D01*
X202532208Y-194771104D02*
X202365541Y-196104438D01*
X202508398Y-194961580D02*
X202615541Y-194866342D01*
X202615541Y-194866342D02*
X202817922Y-194771104D01*
X202817922Y-194771104D02*
X203103636Y-194771104D01*
X203103636Y-194771104D02*
X203282208Y-194866342D01*
X203282208Y-194866342D02*
X203353636Y-195056819D01*
X203353636Y-195056819D02*
X203222684Y-196104438D01*
X204056018Y-194771104D02*
X204817922Y-194771104D01*
X204425065Y-194104438D02*
X204210780Y-195818723D01*
X204210780Y-195818723D02*
X204282208Y-196009200D01*
X204282208Y-196009200D02*
X204460780Y-196104438D01*
X204460780Y-196104438D02*
X204651256Y-196104438D01*
X205317922Y-196104438D02*
X205484589Y-194771104D01*
X205436970Y-195152057D02*
X205556017Y-194961580D01*
X205556017Y-194961580D02*
X205663160Y-194866342D01*
X205663160Y-194866342D02*
X205865541Y-194771104D01*
X205865541Y-194771104D02*
X206056017Y-194771104D01*
X206841732Y-196104438D02*
X206663160Y-196009200D01*
X206663160Y-196009200D02*
X206579827Y-195913961D01*
X206579827Y-195913961D02*
X206508398Y-195723485D01*
X206508398Y-195723485D02*
X206579827Y-195152057D01*
X206579827Y-195152057D02*
X206698874Y-194961580D01*
X206698874Y-194961580D02*
X206806017Y-194866342D01*
X206806017Y-194866342D02*
X207008398Y-194771104D01*
X207008398Y-194771104D02*
X207294112Y-194771104D01*
X207294112Y-194771104D02*
X207472684Y-194866342D01*
X207472684Y-194866342D02*
X207556017Y-194961580D01*
X207556017Y-194961580D02*
X207627446Y-195152057D01*
X207627446Y-195152057D02*
X207556017Y-195723485D01*
X207556017Y-195723485D02*
X207436970Y-195913961D01*
X207436970Y-195913961D02*
X207329827Y-196009200D01*
X207329827Y-196009200D02*
X207127446Y-196104438D01*
X207127446Y-196104438D02*
X206841732Y-196104438D01*
X208651256Y-196104438D02*
X208472684Y-196009200D01*
X208472684Y-196009200D02*
X208401256Y-195818723D01*
X208401256Y-195818723D02*
X208615541Y-194104438D01*
X209698875Y-196104438D02*
X209520303Y-196009200D01*
X209520303Y-196009200D02*
X209448875Y-195818723D01*
X209448875Y-195818723D02*
X209663160Y-194104438D01*
X211234589Y-196009200D02*
X211032208Y-196104438D01*
X211032208Y-196104438D02*
X210651255Y-196104438D01*
X210651255Y-196104438D02*
X210472684Y-196009200D01*
X210472684Y-196009200D02*
X210401255Y-195818723D01*
X210401255Y-195818723D02*
X210496494Y-195056819D01*
X210496494Y-195056819D02*
X210615541Y-194866342D01*
X210615541Y-194866342D02*
X210817922Y-194771104D01*
X210817922Y-194771104D02*
X211198874Y-194771104D01*
X211198874Y-194771104D02*
X211377446Y-194866342D01*
X211377446Y-194866342D02*
X211448874Y-195056819D01*
X211448874Y-195056819D02*
X211425065Y-195247295D01*
X211425065Y-195247295D02*
X210448874Y-195437771D01*
X212175065Y-196104438D02*
X212341732Y-194771104D01*
X212294113Y-195152057D02*
X212413160Y-194961580D01*
X212413160Y-194961580D02*
X212520303Y-194866342D01*
X212520303Y-194866342D02*
X212722684Y-194771104D01*
X212722684Y-194771104D02*
X212913160Y-194771104D01*
X214936970Y-196104438D02*
X215186970Y-194104438D01*
X215186970Y-194104438D02*
X215948875Y-194104438D01*
X215948875Y-194104438D02*
X216127446Y-194199676D01*
X216127446Y-194199676D02*
X216210780Y-194294914D01*
X216210780Y-194294914D02*
X216282208Y-194485390D01*
X216282208Y-194485390D02*
X216246494Y-194771104D01*
X216246494Y-194771104D02*
X216127446Y-194961580D01*
X216127446Y-194961580D02*
X216020304Y-195056819D01*
X216020304Y-195056819D02*
X215817923Y-195152057D01*
X215817923Y-195152057D02*
X215056018Y-195152057D01*
X218103637Y-195913961D02*
X217996494Y-196009200D01*
X217996494Y-196009200D02*
X217698875Y-196104438D01*
X217698875Y-196104438D02*
X217508399Y-196104438D01*
X217508399Y-196104438D02*
X217234589Y-196009200D01*
X217234589Y-196009200D02*
X217067923Y-195818723D01*
X217067923Y-195818723D02*
X216996494Y-195628247D01*
X216996494Y-195628247D02*
X216948875Y-195247295D01*
X216948875Y-195247295D02*
X216984589Y-194961580D01*
X216984589Y-194961580D02*
X217127446Y-194580628D01*
X217127446Y-194580628D02*
X217246494Y-194390152D01*
X217246494Y-194390152D02*
X217460780Y-194199676D01*
X217460780Y-194199676D02*
X217758399Y-194104438D01*
X217758399Y-194104438D02*
X217948875Y-194104438D01*
X217948875Y-194104438D02*
X218222685Y-194199676D01*
X218222685Y-194199676D02*
X218306018Y-194294914D01*
X219734589Y-195056819D02*
X220008399Y-195152057D01*
X220008399Y-195152057D02*
X220091732Y-195247295D01*
X220091732Y-195247295D02*
X220163161Y-195437771D01*
X220163161Y-195437771D02*
X220127446Y-195723485D01*
X220127446Y-195723485D02*
X220008399Y-195913961D01*
X220008399Y-195913961D02*
X219901256Y-196009200D01*
X219901256Y-196009200D02*
X219698875Y-196104438D01*
X219698875Y-196104438D02*
X218936970Y-196104438D01*
X218936970Y-196104438D02*
X219186970Y-194104438D01*
X219186970Y-194104438D02*
X219853637Y-194104438D01*
X219853637Y-194104438D02*
X220032208Y-194199676D01*
X220032208Y-194199676D02*
X220115542Y-194294914D01*
X220115542Y-194294914D02*
X220186970Y-194485390D01*
X220186970Y-194485390D02*
X220163161Y-194675866D01*
X220163161Y-194675866D02*
X220044113Y-194866342D01*
X220044113Y-194866342D02*
X219936970Y-194961580D01*
X219936970Y-194961580D02*
X219734589Y-195056819D01*
X219734589Y-195056819D02*
X219067923Y-195056819D01*
D10*
D11*
X161355826Y-191500414D02*
X160855826Y-191500414D01*
X160855826Y-192286128D02*
X160855826Y-190786128D01*
X160855826Y-190786128D02*
X161570112Y-190786128D01*
X162141540Y-192286128D02*
X162141540Y-191286128D01*
X162141540Y-190786128D02*
X162070112Y-190857557D01*
X162070112Y-190857557D02*
X162141540Y-190928985D01*
X162141540Y-190928985D02*
X162212969Y-190857557D01*
X162212969Y-190857557D02*
X162141540Y-190786128D01*
X162141540Y-190786128D02*
X162141540Y-190928985D01*
X163070112Y-192286128D02*
X162927255Y-192214700D01*
X162927255Y-192214700D02*
X162855826Y-192071842D01*
X162855826Y-192071842D02*
X162855826Y-190786128D01*
X164212969Y-192214700D02*
X164070112Y-192286128D01*
X164070112Y-192286128D02*
X163784398Y-192286128D01*
X163784398Y-192286128D02*
X163641540Y-192214700D01*
X163641540Y-192214700D02*
X163570112Y-192071842D01*
X163570112Y-192071842D02*
X163570112Y-191500414D01*
X163570112Y-191500414D02*
X163641540Y-191357557D01*
X163641540Y-191357557D02*
X163784398Y-191286128D01*
X163784398Y-191286128D02*
X164070112Y-191286128D01*
X164070112Y-191286128D02*
X164212969Y-191357557D01*
X164212969Y-191357557D02*
X164284398Y-191500414D01*
X164284398Y-191500414D02*
X164284398Y-191643271D01*
X164284398Y-191643271D02*
X163570112Y-191786128D01*
X164927254Y-192143271D02*
X164998683Y-192214700D01*
X164998683Y-192214700D02*
X164927254Y-192286128D01*
X164927254Y-192286128D02*
X164855826Y-192214700D01*
X164855826Y-192214700D02*
X164927254Y-192143271D01*
X164927254Y-192143271D02*
X164927254Y-192286128D01*
X164927254Y-191357557D02*
X164998683Y-191428985D01*
X164998683Y-191428985D02*
X164927254Y-191500414D01*
X164927254Y-191500414D02*
X164855826Y-191428985D01*
X164855826Y-191428985D02*
X164927254Y-191357557D01*
X164927254Y-191357557D02*
X164927254Y-191500414D01*
X166784397Y-192286128D02*
X166784397Y-190786128D01*
X167427255Y-192286128D02*
X167427255Y-191500414D01*
X167427255Y-191500414D02*
X167355826Y-191357557D01*
X167355826Y-191357557D02*
X167212969Y-191286128D01*
X167212969Y-191286128D02*
X166998683Y-191286128D01*
X166998683Y-191286128D02*
X166855826Y-191357557D01*
X166855826Y-191357557D02*
X166784397Y-191428985D01*
X168712969Y-192214700D02*
X168570112Y-192286128D01*
X168570112Y-192286128D02*
X168284398Y-192286128D01*
X168284398Y-192286128D02*
X168141540Y-192214700D01*
X168141540Y-192214700D02*
X168070112Y-192071842D01*
X168070112Y-192071842D02*
X168070112Y-191500414D01*
X168070112Y-191500414D02*
X168141540Y-191357557D01*
X168141540Y-191357557D02*
X168284398Y-191286128D01*
X168284398Y-191286128D02*
X168570112Y-191286128D01*
X168570112Y-191286128D02*
X168712969Y-191357557D01*
X168712969Y-191357557D02*
X168784398Y-191500414D01*
X168784398Y-191500414D02*
X168784398Y-191643271D01*
X168784398Y-191643271D02*
X168070112Y-191786128D01*
X170070112Y-192286128D02*
X170070112Y-191500414D01*
X170070112Y-191500414D02*
X169998683Y-191357557D01*
X169998683Y-191357557D02*
X169855826Y-191286128D01*
X169855826Y-191286128D02*
X169570112Y-191286128D01*
X169570112Y-191286128D02*
X169427254Y-191357557D01*
X170070112Y-192214700D02*
X169927254Y-192286128D01*
X169927254Y-192286128D02*
X169570112Y-192286128D01*
X169570112Y-192286128D02*
X169427254Y-192214700D01*
X169427254Y-192214700D02*
X169355826Y-192071842D01*
X169355826Y-192071842D02*
X169355826Y-191928985D01*
X169355826Y-191928985D02*
X169427254Y-191786128D01*
X169427254Y-191786128D02*
X169570112Y-191714700D01*
X169570112Y-191714700D02*
X169927254Y-191714700D01*
X169927254Y-191714700D02*
X170070112Y-191643271D01*
X170570112Y-191286128D02*
X171141540Y-191286128D01*
X170784397Y-190786128D02*
X170784397Y-192071842D01*
X170784397Y-192071842D02*
X170855826Y-192214700D01*
X170855826Y-192214700D02*
X170998683Y-192286128D01*
X170998683Y-192286128D02*
X171141540Y-192286128D01*
X172212969Y-192214700D02*
X172070112Y-192286128D01*
X172070112Y-192286128D02*
X171784398Y-192286128D01*
X171784398Y-192286128D02*
X171641540Y-192214700D01*
X171641540Y-192214700D02*
X171570112Y-192071842D01*
X171570112Y-192071842D02*
X171570112Y-191500414D01*
X171570112Y-191500414D02*
X171641540Y-191357557D01*
X171641540Y-191357557D02*
X171784398Y-191286128D01*
X171784398Y-191286128D02*
X172070112Y-191286128D01*
X172070112Y-191286128D02*
X172212969Y-191357557D01*
X172212969Y-191357557D02*
X172284398Y-191500414D01*
X172284398Y-191500414D02*
X172284398Y-191643271D01*
X172284398Y-191643271D02*
X171570112Y-191786128D01*
X172927254Y-192286128D02*
X172927254Y-191286128D01*
X172927254Y-191571842D02*
X172998683Y-191428985D01*
X172998683Y-191428985D02*
X173070112Y-191357557D01*
X173070112Y-191357557D02*
X173212969Y-191286128D01*
X173212969Y-191286128D02*
X173355826Y-191286128D01*
X173855825Y-192286128D02*
X173855825Y-190786128D01*
X173855825Y-191357557D02*
X173998683Y-191286128D01*
X173998683Y-191286128D02*
X174284397Y-191286128D01*
X174284397Y-191286128D02*
X174427254Y-191357557D01*
X174427254Y-191357557D02*
X174498683Y-191428985D01*
X174498683Y-191428985D02*
X174570111Y-191571842D01*
X174570111Y-191571842D02*
X174570111Y-192000414D01*
X174570111Y-192000414D02*
X174498683Y-192143271D01*
X174498683Y-192143271D02*
X174427254Y-192214700D01*
X174427254Y-192214700D02*
X174284397Y-192286128D01*
X174284397Y-192286128D02*
X173998683Y-192286128D01*
X173998683Y-192286128D02*
X173855825Y-192214700D01*
X175427254Y-192286128D02*
X175284397Y-192214700D01*
X175284397Y-192214700D02*
X175212968Y-192143271D01*
X175212968Y-192143271D02*
X175141540Y-192000414D01*
X175141540Y-192000414D02*
X175141540Y-191571842D01*
X175141540Y-191571842D02*
X175212968Y-191428985D01*
X175212968Y-191428985D02*
X175284397Y-191357557D01*
X175284397Y-191357557D02*
X175427254Y-191286128D01*
X175427254Y-191286128D02*
X175641540Y-191286128D01*
X175641540Y-191286128D02*
X175784397Y-191357557D01*
X175784397Y-191357557D02*
X175855826Y-191428985D01*
X175855826Y-191428985D02*
X175927254Y-191571842D01*
X175927254Y-191571842D02*
X175927254Y-192000414D01*
X175927254Y-192000414D02*
X175855826Y-192143271D01*
X175855826Y-192143271D02*
X175784397Y-192214700D01*
X175784397Y-192214700D02*
X175641540Y-192286128D01*
X175641540Y-192286128D02*
X175427254Y-192286128D01*
X177212969Y-192286128D02*
X177212969Y-191500414D01*
X177212969Y-191500414D02*
X177141540Y-191357557D01*
X177141540Y-191357557D02*
X176998683Y-191286128D01*
X176998683Y-191286128D02*
X176712969Y-191286128D01*
X176712969Y-191286128D02*
X176570111Y-191357557D01*
X177212969Y-192214700D02*
X177070111Y-192286128D01*
X177070111Y-192286128D02*
X176712969Y-192286128D01*
X176712969Y-192286128D02*
X176570111Y-192214700D01*
X176570111Y-192214700D02*
X176498683Y-192071842D01*
X176498683Y-192071842D02*
X176498683Y-191928985D01*
X176498683Y-191928985D02*
X176570111Y-191786128D01*
X176570111Y-191786128D02*
X176712969Y-191714700D01*
X176712969Y-191714700D02*
X177070111Y-191714700D01*
X177070111Y-191714700D02*
X177212969Y-191643271D01*
X177927254Y-192286128D02*
X177927254Y-191286128D01*
X177927254Y-191571842D02*
X177998683Y-191428985D01*
X177998683Y-191428985D02*
X178070112Y-191357557D01*
X178070112Y-191357557D02*
X178212969Y-191286128D01*
X178212969Y-191286128D02*
X178355826Y-191286128D01*
X179498683Y-192286128D02*
X179498683Y-190786128D01*
X179498683Y-192214700D02*
X179355825Y-192286128D01*
X179355825Y-192286128D02*
X179070111Y-192286128D01*
X179070111Y-192286128D02*
X178927254Y-192214700D01*
X178927254Y-192214700D02*
X178855825Y-192143271D01*
X178855825Y-192143271D02*
X178784397Y-192000414D01*
X178784397Y-192000414D02*
X178784397Y-191571842D01*
X178784397Y-191571842D02*
X178855825Y-191428985D01*
X178855825Y-191428985D02*
X178927254Y-191357557D01*
X178927254Y-191357557D02*
X179070111Y-191286128D01*
X179070111Y-191286128D02*
X179355825Y-191286128D01*
X179355825Y-191286128D02*
X179498683Y-191357557D01*
X180212968Y-191714700D02*
X181355826Y-191714700D01*
X181927254Y-190786128D02*
X182855826Y-190786128D01*
X182855826Y-190786128D02*
X182355826Y-191357557D01*
X182355826Y-191357557D02*
X182570111Y-191357557D01*
X182570111Y-191357557D02*
X182712969Y-191428985D01*
X182712969Y-191428985D02*
X182784397Y-191500414D01*
X182784397Y-191500414D02*
X182855826Y-191643271D01*
X182855826Y-191643271D02*
X182855826Y-192000414D01*
X182855826Y-192000414D02*
X182784397Y-192143271D01*
X182784397Y-192143271D02*
X182712969Y-192214700D01*
X182712969Y-192214700D02*
X182570111Y-192286128D01*
X182570111Y-192286128D02*
X182141540Y-192286128D01*
X182141540Y-192286128D02*
X181998683Y-192214700D01*
X181998683Y-192214700D02*
X181927254Y-192143271D01*
X183498682Y-192143271D02*
X183570111Y-192214700D01*
X183570111Y-192214700D02*
X183498682Y-192286128D01*
X183498682Y-192286128D02*
X183427254Y-192214700D01*
X183427254Y-192214700D02*
X183498682Y-192143271D01*
X183498682Y-192143271D02*
X183498682Y-192286128D01*
X184212968Y-192286128D02*
X184212968Y-190786128D01*
X184355826Y-191714700D02*
X184784397Y-192286128D01*
X184784397Y-191286128D02*
X184212968Y-191857557D01*
X185427254Y-192286128D02*
X185427254Y-191286128D01*
X185427254Y-190786128D02*
X185355826Y-190857557D01*
X185355826Y-190857557D02*
X185427254Y-190928985D01*
X185427254Y-190928985D02*
X185498683Y-190857557D01*
X185498683Y-190857557D02*
X185427254Y-190786128D01*
X185427254Y-190786128D02*
X185427254Y-190928985D01*
X186784398Y-192214700D02*
X186641540Y-192286128D01*
X186641540Y-192286128D02*
X186355826Y-192286128D01*
X186355826Y-192286128D02*
X186212969Y-192214700D01*
X186212969Y-192214700D02*
X186141540Y-192143271D01*
X186141540Y-192143271D02*
X186070112Y-192000414D01*
X186070112Y-192000414D02*
X186070112Y-191571842D01*
X186070112Y-191571842D02*
X186141540Y-191428985D01*
X186141540Y-191428985D02*
X186212969Y-191357557D01*
X186212969Y-191357557D02*
X186355826Y-191286128D01*
X186355826Y-191286128D02*
X186641540Y-191286128D01*
X186641540Y-191286128D02*
X186784398Y-191357557D01*
X188070112Y-192286128D02*
X188070112Y-191500414D01*
X188070112Y-191500414D02*
X187998683Y-191357557D01*
X187998683Y-191357557D02*
X187855826Y-191286128D01*
X187855826Y-191286128D02*
X187570112Y-191286128D01*
X187570112Y-191286128D02*
X187427254Y-191357557D01*
X188070112Y-192214700D02*
X187927254Y-192286128D01*
X187927254Y-192286128D02*
X187570112Y-192286128D01*
X187570112Y-192286128D02*
X187427254Y-192214700D01*
X187427254Y-192214700D02*
X187355826Y-192071842D01*
X187355826Y-192071842D02*
X187355826Y-191928985D01*
X187355826Y-191928985D02*
X187427254Y-191786128D01*
X187427254Y-191786128D02*
X187570112Y-191714700D01*
X187570112Y-191714700D02*
X187927254Y-191714700D01*
X187927254Y-191714700D02*
X188070112Y-191643271D01*
X189427255Y-192286128D02*
X189427255Y-190786128D01*
X189427255Y-192214700D02*
X189284397Y-192286128D01*
X189284397Y-192286128D02*
X188998683Y-192286128D01*
X188998683Y-192286128D02*
X188855826Y-192214700D01*
X188855826Y-192214700D02*
X188784397Y-192143271D01*
X188784397Y-192143271D02*
X188712969Y-192000414D01*
X188712969Y-192000414D02*
X188712969Y-191571842D01*
X188712969Y-191571842D02*
X188784397Y-191428985D01*
X188784397Y-191428985D02*
X188855826Y-191357557D01*
X188855826Y-191357557D02*
X188998683Y-191286128D01*
X188998683Y-191286128D02*
X189284397Y-191286128D01*
X189284397Y-191286128D02*
X189427255Y-191357557D01*
X189784398Y-192428985D02*
X190927255Y-192428985D01*
X191284397Y-191286128D02*
X191284397Y-192786128D01*
X191284397Y-191357557D02*
X191427255Y-191286128D01*
X191427255Y-191286128D02*
X191712969Y-191286128D01*
X191712969Y-191286128D02*
X191855826Y-191357557D01*
X191855826Y-191357557D02*
X191927255Y-191428985D01*
X191927255Y-191428985D02*
X191998683Y-191571842D01*
X191998683Y-191571842D02*
X191998683Y-192000414D01*
X191998683Y-192000414D02*
X191927255Y-192143271D01*
X191927255Y-192143271D02*
X191855826Y-192214700D01*
X191855826Y-192214700D02*
X191712969Y-192286128D01*
X191712969Y-192286128D02*
X191427255Y-192286128D01*
X191427255Y-192286128D02*
X191284397Y-192214700D01*
X193284398Y-192214700D02*
X193141540Y-192286128D01*
X193141540Y-192286128D02*
X192855826Y-192286128D01*
X192855826Y-192286128D02*
X192712969Y-192214700D01*
X192712969Y-192214700D02*
X192641540Y-192143271D01*
X192641540Y-192143271D02*
X192570112Y-192000414D01*
X192570112Y-192000414D02*
X192570112Y-191571842D01*
X192570112Y-191571842D02*
X192641540Y-191428985D01*
X192641540Y-191428985D02*
X192712969Y-191357557D01*
X192712969Y-191357557D02*
X192855826Y-191286128D01*
X192855826Y-191286128D02*
X193141540Y-191286128D01*
X193141540Y-191286128D02*
X193284398Y-191357557D01*
X193927254Y-192286128D02*
X193927254Y-190786128D01*
X193927254Y-191357557D02*
X194070112Y-191286128D01*
X194070112Y-191286128D02*
X194355826Y-191286128D01*
X194355826Y-191286128D02*
X194498683Y-191357557D01*
X194498683Y-191357557D02*
X194570112Y-191428985D01*
X194570112Y-191428985D02*
X194641540Y-191571842D01*
X194641540Y-191571842D02*
X194641540Y-192000414D01*
X194641540Y-192000414D02*
X194570112Y-192143271D01*
X194570112Y-192143271D02*
X194498683Y-192214700D01*
X194498683Y-192214700D02*
X194355826Y-192286128D01*
X194355826Y-192286128D02*
X194070112Y-192286128D01*
X194070112Y-192286128D02*
X193927254Y-192214700D01*
D10*
D11*
X159400000Y-187400000D02*
X267400000Y-187400000D01*
D10*
D11*
X160784398Y-189514700D02*
X160998684Y-189586128D01*
X160998684Y-189586128D02*
X161355826Y-189586128D01*
X161355826Y-189586128D02*
X161498684Y-189514700D01*
X161498684Y-189514700D02*
X161570112Y-189443271D01*
X161570112Y-189443271D02*
X161641541Y-189300414D01*
X161641541Y-189300414D02*
X161641541Y-189157557D01*
X161641541Y-189157557D02*
X161570112Y-189014700D01*
X161570112Y-189014700D02*
X161498684Y-188943271D01*
X161498684Y-188943271D02*
X161355826Y-188871842D01*
X161355826Y-188871842D02*
X161070112Y-188800414D01*
X161070112Y-188800414D02*
X160927255Y-188728985D01*
X160927255Y-188728985D02*
X160855826Y-188657557D01*
X160855826Y-188657557D02*
X160784398Y-188514700D01*
X160784398Y-188514700D02*
X160784398Y-188371842D01*
X160784398Y-188371842D02*
X160855826Y-188228985D01*
X160855826Y-188228985D02*
X160927255Y-188157557D01*
X160927255Y-188157557D02*
X161070112Y-188086128D01*
X161070112Y-188086128D02*
X161427255Y-188086128D01*
X161427255Y-188086128D02*
X161641541Y-188157557D01*
X162284397Y-189586128D02*
X162284397Y-188086128D01*
X162927255Y-189586128D02*
X162927255Y-188800414D01*
X162927255Y-188800414D02*
X162855826Y-188657557D01*
X162855826Y-188657557D02*
X162712969Y-188586128D01*
X162712969Y-188586128D02*
X162498683Y-188586128D01*
X162498683Y-188586128D02*
X162355826Y-188657557D01*
X162355826Y-188657557D02*
X162284397Y-188728985D01*
X164212969Y-189514700D02*
X164070112Y-189586128D01*
X164070112Y-189586128D02*
X163784398Y-189586128D01*
X163784398Y-189586128D02*
X163641540Y-189514700D01*
X163641540Y-189514700D02*
X163570112Y-189371842D01*
X163570112Y-189371842D02*
X163570112Y-188800414D01*
X163570112Y-188800414D02*
X163641540Y-188657557D01*
X163641540Y-188657557D02*
X163784398Y-188586128D01*
X163784398Y-188586128D02*
X164070112Y-188586128D01*
X164070112Y-188586128D02*
X164212969Y-188657557D01*
X164212969Y-188657557D02*
X164284398Y-188800414D01*
X164284398Y-188800414D02*
X164284398Y-188943271D01*
X164284398Y-188943271D02*
X163570112Y-189086128D01*
X165498683Y-189514700D02*
X165355826Y-189586128D01*
X165355826Y-189586128D02*
X165070112Y-189586128D01*
X165070112Y-189586128D02*
X164927254Y-189514700D01*
X164927254Y-189514700D02*
X164855826Y-189371842D01*
X164855826Y-189371842D02*
X164855826Y-188800414D01*
X164855826Y-188800414D02*
X164927254Y-188657557D01*
X164927254Y-188657557D02*
X165070112Y-188586128D01*
X165070112Y-188586128D02*
X165355826Y-188586128D01*
X165355826Y-188586128D02*
X165498683Y-188657557D01*
X165498683Y-188657557D02*
X165570112Y-188800414D01*
X165570112Y-188800414D02*
X165570112Y-188943271D01*
X165570112Y-188943271D02*
X164855826Y-189086128D01*
X165998683Y-188586128D02*
X166570111Y-188586128D01*
X166212968Y-188086128D02*
X166212968Y-189371842D01*
X166212968Y-189371842D02*
X166284397Y-189514700D01*
X166284397Y-189514700D02*
X166427254Y-189586128D01*
X166427254Y-189586128D02*
X166570111Y-189586128D01*
X167070111Y-189443271D02*
X167141540Y-189514700D01*
X167141540Y-189514700D02*
X167070111Y-189586128D01*
X167070111Y-189586128D02*
X166998683Y-189514700D01*
X166998683Y-189514700D02*
X167070111Y-189443271D01*
X167070111Y-189443271D02*
X167070111Y-189586128D01*
X167070111Y-188657557D02*
X167141540Y-188728985D01*
X167141540Y-188728985D02*
X167070111Y-188800414D01*
X167070111Y-188800414D02*
X166998683Y-188728985D01*
X166998683Y-188728985D02*
X167070111Y-188657557D01*
X167070111Y-188657557D02*
X167070111Y-188800414D01*
D10*
D12*
X160954510Y-186578328D02*
X160954510Y-185078328D01*
X160954510Y-185078328D02*
X161454510Y-186149757D01*
X161454510Y-186149757D02*
X161954510Y-185078328D01*
X161954510Y-185078328D02*
X161954510Y-186578328D01*
X162668796Y-185792614D02*
X163168796Y-185792614D01*
X163383082Y-186578328D02*
X162668796Y-186578328D01*
X162668796Y-186578328D02*
X162668796Y-185078328D01*
X162668796Y-185078328D02*
X163383082Y-185078328D01*
X164668797Y-185078328D02*
X164383082Y-185078328D01*
X164383082Y-185078328D02*
X164240225Y-185149757D01*
X164240225Y-185149757D02*
X164168797Y-185221185D01*
X164168797Y-185221185D02*
X164025939Y-185435471D01*
X164025939Y-185435471D02*
X163954511Y-185721185D01*
X163954511Y-185721185D02*
X163954511Y-186292614D01*
X163954511Y-186292614D02*
X164025939Y-186435471D01*
X164025939Y-186435471D02*
X164097368Y-186506900D01*
X164097368Y-186506900D02*
X164240225Y-186578328D01*
X164240225Y-186578328D02*
X164525939Y-186578328D01*
X164525939Y-186578328D02*
X164668797Y-186506900D01*
X164668797Y-186506900D02*
X164740225Y-186435471D01*
X164740225Y-186435471D02*
X164811654Y-186292614D01*
X164811654Y-186292614D02*
X164811654Y-185935471D01*
X164811654Y-185935471D02*
X164740225Y-185792614D01*
X164740225Y-185792614D02*
X164668797Y-185721185D01*
X164668797Y-185721185D02*
X164525939Y-185649757D01*
X164525939Y-185649757D02*
X164240225Y-185649757D01*
X164240225Y-185649757D02*
X164097368Y-185721185D01*
X164097368Y-185721185D02*
X164025939Y-185792614D01*
X164025939Y-185792614D02*
X163954511Y-185935471D01*
X165525939Y-186578328D02*
X165811653Y-186578328D01*
X165811653Y-186578328D02*
X165954510Y-186506900D01*
X165954510Y-186506900D02*
X166025939Y-186435471D01*
X166025939Y-186435471D02*
X166168796Y-186221185D01*
X166168796Y-186221185D02*
X166240225Y-185935471D01*
X166240225Y-185935471D02*
X166240225Y-185364042D01*
X166240225Y-185364042D02*
X166168796Y-185221185D01*
X166168796Y-185221185D02*
X166097368Y-185149757D01*
X166097368Y-185149757D02*
X165954510Y-185078328D01*
X165954510Y-185078328D02*
X165668796Y-185078328D01*
X165668796Y-185078328D02*
X165525939Y-185149757D01*
X165525939Y-185149757D02*
X165454510Y-185221185D01*
X165454510Y-185221185D02*
X165383082Y-185364042D01*
X165383082Y-185364042D02*
X165383082Y-185721185D01*
X165383082Y-185721185D02*
X165454510Y-185864042D01*
X165454510Y-185864042D02*
X165525939Y-185935471D01*
X165525939Y-185935471D02*
X165668796Y-186006900D01*
X165668796Y-186006900D02*
X165954510Y-186006900D01*
X165954510Y-186006900D02*
X166097368Y-185935471D01*
X166097368Y-185935471D02*
X166168796Y-185864042D01*
X166168796Y-185864042D02*
X166240225Y-185721185D01*
X166811653Y-185221185D02*
X166883081Y-185149757D01*
X166883081Y-185149757D02*
X167025939Y-185078328D01*
X167025939Y-185078328D02*
X167383081Y-185078328D01*
X167383081Y-185078328D02*
X167525939Y-185149757D01*
X167525939Y-185149757D02*
X167597367Y-185221185D01*
X167597367Y-185221185D02*
X167668796Y-185364042D01*
X167668796Y-185364042D02*
X167668796Y-185506900D01*
X167668796Y-185506900D02*
X167597367Y-185721185D01*
X167597367Y-185721185D02*
X166740224Y-186578328D01*
X166740224Y-186578328D02*
X167668796Y-186578328D01*
D10*
D11*
D10*
D11*
D10*
D11*
D10*
D11*
D10*
D11*
X179400000Y-197400000D02*
X179400000Y-200400000D01*
D10*
D11*
X243400000Y-197400000D02*
X243400000Y-203900000D01*
D14*
%TO.P,R7,1*%
%TO.N,Net-(J2-Pin_4)*%
X99060000Y-69140000D03*
%TO.P,R7,2*%
%TO.N,/A0*%
X99060000Y-66040000D03*
%TD*%
D15*
%TO.P,C3,1*%
%TO.N,/A0*%
X102870000Y-66040000D03*
%TO.P,C3,2*%
%TO.N,GND*%
X102870000Y-69165000D03*
%TD*%
D16*
%TO.P,Q1,1,G*%
%TO.N,/D9*%
X94630000Y-88900000D03*
D17*
%TO.P,Q1,2,D*%
%TO.N,Net-(J2-Pin_2)*%
X97170000Y-88900000D03*
%TO.P,Q1,3,S*%
%TO.N,GND*%
X99710000Y-88900000D03*
%TD*%
D18*
%TO.P,J6,1,Pin_1*%
%TO.N,+5V*%
X149860000Y-63500000D03*
D19*
%TO.P,J6,2,Pin_2*%
%TO.N,GND*%
X149860000Y-66040000D03*
%TO.P,J6,3,Pin_3*%
%TO.N,/RST2*%
X149860000Y-68580000D03*
%TO.P,J6,4,Pin_4*%
%TO.N,+5V*%
X149860000Y-71120000D03*
%TO.P,J6,5,Pin_5*%
%TO.N,/A7*%
X149860000Y-73660000D03*
%TO.P,J6,6,Pin_6*%
%TO.N,/A6*%
X149860000Y-76200000D03*
%TO.P,J6,7,Pin_7*%
%TO.N,/A5*%
X149860000Y-78740000D03*
%TO.P,J6,8,Pin_8*%
%TO.N,/A4*%
X149860000Y-81280000D03*
%TO.P,J6,9,Pin_9*%
%TO.N,/A3*%
X149860000Y-83820000D03*
%TO.P,J6,10,Pin_10*%
%TO.N,/A2*%
X149860000Y-86360000D03*
%TO.P,J6,11,Pin_11*%
%TO.N,/A1*%
X149860000Y-88900000D03*
%TO.P,J6,12,Pin_12*%
%TO.N,/A0*%
X149860000Y-91440000D03*
%TO.P,J6,13,Pin_13*%
%TO.N,/AREF*%
X149860000Y-93980000D03*
%TO.P,J6,14,Pin_14*%
%TO.N,+3V3*%
X149860000Y-96520000D03*
%TO.P,J6,15,Pin_15*%
%TO.N,/D13*%
X149860000Y-99060000D03*
%TD*%
D20*
%TO.P,J1,1,Pin_1*%
%TO.N,GND*%
X85105000Y-88900000D03*
D21*
%TO.P,J1,2,Pin_2*%
%TO.N,+12V*%
X85105000Y-83400000D03*
%TD*%
D14*
%TO.P,R2,1*%
%TO.N,Net-(U1-ADJ)*%
X87630000Y-69285000D03*
%TO.P,R2,2*%
%TO.N,GND*%
X87630000Y-66185000D03*
%TD*%
D20*
%TO.P,J2,1,Pin_1*%
%TO.N,Net-(J2-Pin_1)*%
X114935000Y-88900000D03*
D21*
%TO.P,J2,2,Pin_2*%
%TO.N,Net-(J2-Pin_2)*%
X109235000Y-88900000D03*
%TO.P,J2,3,Pin_3*%
%TO.N,Net-(J2-Pin_3)*%
X114935000Y-83400000D03*
%TO.P,J2,4,Pin_4*%
%TO.N,Net-(J2-Pin_4)*%
X109235000Y-83400000D03*
%TD*%
D16*
%TO.P,U1,1,ADJ*%
%TO.N,Net-(U1-ADJ)*%
X94615000Y-76835000D03*
D17*
%TO.P,U1,2,VO*%
%TO.N,+5V*%
X97155000Y-76835000D03*
%TO.P,U1,3,VI*%
%TO.N,+12V*%
X99695000Y-76835000D03*
%TD*%
D22*
%TO.P,R6,1*%
%TO.N,/A7*%
X171450000Y-66040000D03*
%TO.P,R6,2*%
%TO.N,GND*%
X171450000Y-69140000D03*
%TD*%
D15*
%TO.P,C4,1*%
%TO.N,/A1*%
X118110000Y-66040000D03*
%TO.P,C4,2*%
%TO.N,GND*%
X118110000Y-69165000D03*
%TD*%
D23*
%TO.P,C2,1*%
%TO.N,+5V*%
X91440000Y-69235000D03*
%TO.P,C2,2*%
%TO.N,GND*%
X91440000Y-66110000D03*
%TD*%
D15*
%TO.P,C6,1*%
%TO.N,+5V*%
X96000000Y-108750000D03*
%TO.P,C6,2*%
%TO.N,GND*%
X96000000Y-111875000D03*
%TD*%
D24*
%TO.P,A1,3V3,3.3V*%
%TO.N,+3V3*%
X144780000Y-96520000D03*
%TO.P,A1,5V,5V*%
%TO.N,+5V*%
X144780000Y-71120000D03*
%TO.P,A1,A0,A0*%
%TO.N,/A0*%
X144780000Y-91440000D03*
%TO.P,A1,A1,A1*%
%TO.N,/A1*%
X144780000Y-88900000D03*
%TO.P,A1,A2,A2*%
%TO.N,/A2*%
X144780000Y-86360000D03*
%TO.P,A1,A3,A3*%
%TO.N,/A3*%
X144780000Y-83820000D03*
%TO.P,A1,A4,A4/SDA*%
%TO.N,/A4*%
X144780000Y-81280000D03*
%TO.P,A1,A5,A5/SCL*%
%TO.N,/A5*%
X144780000Y-78740000D03*
%TO.P,A1,A6,A6*%
%TO.N,/A6*%
X144780000Y-76200000D03*
%TO.P,A1,A7,A7*%
%TO.N,/A7*%
X144780000Y-73660000D03*
%TO.P,A1,AREF,AREF*%
%TO.N,/AREF*%
X144780000Y-93980000D03*
%TO.P,A1,D0,D0/RX*%
%TO.N,/D0*%
X129540000Y-66040000D03*
%TO.P,A1,D1,D1/TX*%
%TO.N,/D1*%
X129540000Y-63500000D03*
%TO.P,A1,D2,D2_INT0*%
%TO.N,/D2*%
X129540000Y-73660000D03*
%TO.P,A1,D3,D3_INT1*%
%TO.N,/D3*%
X129540000Y-76200000D03*
%TO.P,A1,D4,D4*%
%TO.N,/D4*%
X129540000Y-78740000D03*
%TO.P,A1,D5,D5*%
%TO.N,/D5*%
X129540000Y-81280000D03*
%TO.P,A1,D6,D6*%
%TO.N,/D6*%
X129540000Y-83820000D03*
%TO.P,A1,D7,D7*%
%TO.N,/D7*%
X129540000Y-86360000D03*
%TO.P,A1,D8,D8*%
%TO.N,/D8*%
X129540000Y-88900000D03*
%TO.P,A1,D9,D9*%
%TO.N,/D9*%
X129540000Y-91440000D03*
%TO.P,A1,D10,D10*%
%TO.N,/D10*%
X129540000Y-93980000D03*
%TO.P,A1,D11,D11_MOSI*%
%TO.N,/D11*%
X129540000Y-96520000D03*
%TO.P,A1,D12,D12_MISO*%
%TO.N,/D12*%
X129540000Y-99060000D03*
%TO.P,A1,D13,D13_SCK*%
%TO.N,/D13*%
X144780000Y-99060000D03*
D25*
%TO.P,A1,GND1,GND*%
%TO.N,GND*%
X129540000Y-71120000D03*
%TO.P,A1,GND2,GND*%
X144780000Y-66040000D03*
D24*
%TO.P,A1,RST1,RESET*%
%TO.N,/RST1*%
X129540000Y-68580000D03*
%TO.P,A1,RST2,RESET*%
%TO.N,/RST2*%
X144780000Y-68580000D03*
%TO.P,A1,VIN,VIN*%
%TO.N,+5V*%
X144780000Y-63500000D03*
%TD*%
D18*
%TO.P,J5,1,Pin_1*%
%TO.N,/D1*%
X124460000Y-63500000D03*
D19*
%TO.P,J5,2,Pin_2*%
%TO.N,/D0*%
X124460000Y-66040000D03*
%TO.P,J5,3,Pin_3*%
%TO.N,/RST1*%
X124460000Y-68580000D03*
%TO.P,J5,4,Pin_4*%
%TO.N,GND*%
X124460000Y-71120000D03*
%TO.P,J5,5,Pin_5*%
%TO.N,/D2*%
X124460000Y-73660000D03*
%TO.P,J5,6,Pin_6*%
%TO.N,/D3*%
X124460000Y-76200000D03*
%TO.P,J5,7,Pin_7*%
%TO.N,/D4*%
X124460000Y-78740000D03*
%TO.P,J5,8,Pin_8*%
%TO.N,/D5*%
X124460000Y-81280000D03*
%TO.P,J5,9,Pin_9*%
%TO.N,/D6*%
X124460000Y-83820000D03*
%TO.P,J5,10,Pin_10*%
%TO.N,/D7*%
X124460000Y-86360000D03*
%TO.P,J5,11,Pin_11*%
%TO.N,/D8*%
X124460000Y-88900000D03*
%TO.P,J5,12,Pin_12*%
%TO.N,/D9*%
X124460000Y-91440000D03*
%TO.P,J5,13,Pin_13*%
%TO.N,/D10*%
X124460000Y-93980000D03*
%TO.P,J5,14,Pin_14*%
%TO.N,/D11*%
X124460000Y-96520000D03*
%TO.P,J5,15,Pin_15*%
%TO.N,/D12*%
X124460000Y-99060000D03*
%TD*%
D22*
%TO.P,R4,1*%
%TO.N,/A6*%
X163830000Y-66040000D03*
%TO.P,R4,2*%
%TO.N,GND*%
X163830000Y-69140000D03*
%TD*%
%TO.P,R8,1*%
%TO.N,/A0*%
X106680000Y-66065000D03*
%TO.P,R8,2*%
%TO.N,GND*%
X106680000Y-69165000D03*
%TD*%
D14*
%TO.P,R1,1*%
%TO.N,+5V*%
X83820000Y-69210000D03*
%TO.P,R1,2*%
%TO.N,Net-(U1-ADJ)*%
X83820000Y-66110000D03*
%TD*%
%TO.P,R5,1*%
%TO.N,Net-(J4-Pin_3)*%
X167640000Y-69140000D03*
%TO.P,R5,2*%
%TO.N,/A7*%
X167640000Y-66040000D03*
%TD*%
D26*
%TO.P,J4,1,Pin_1*%
%TO.N,unconnected-(J4-Pin_1-Pad1)*%
X156910000Y-76200000D03*
D27*
%TO.P,J4,2,Pin_2*%
%TO.N,+12V*%
X159910000Y-76200000D03*
%TO.P,J4,3,Pin_3*%
%TO.N,Net-(J4-Pin_3)*%
X162910000Y-76200000D03*
%TO.P,J4,4,Pin_4*%
%TO.N,+12V*%
X165910000Y-76200000D03*
%TO.P,J4,5,Pin_5*%
%TO.N,GND*%
X168910000Y-76200000D03*
%TD*%
D14*
%TO.P,R3,1*%
%TO.N,+12V*%
X160020000Y-69140000D03*
%TO.P,R3,2*%
%TO.N,/A6*%
X160020000Y-66040000D03*
%TD*%
D15*
%TO.P,C5,1*%
%TO.N,Net-(U2-FILTER)*%
X92000000Y-108750000D03*
%TO.P,C5,2*%
%TO.N,GND*%
X92000000Y-111875000D03*
%TD*%
D14*
%TO.P,R9,1*%
%TO.N,Net-(J2-Pin_3)*%
X110490000Y-69140000D03*
%TO.P,R9,2*%
%TO.N,/A1*%
X110490000Y-66040000D03*
%TD*%
D22*
%TO.P,R10,1*%
%TO.N,/A1*%
X114300000Y-66040000D03*
%TO.P,R10,2*%
%TO.N,GND*%
X114300000Y-69140000D03*
%TD*%
D23*
%TO.P,C1,1*%
%TO.N,+12V*%
X95250000Y-69235000D03*
%TO.P,C1,2*%
%TO.N,GND*%
X95250000Y-66110000D03*
%TD*%
D28*
%TO.P,H1,1,1*%
%TO.N,GND*%
X162750000Y-107750000D03*
%TD*%
D29*
%TO.P,U2,1,IP+*%
%TO.N,+12V*%
X99645000Y-103505000D03*
%TO.P,U2,2,IP+*%
X99645000Y-102235000D03*
%TO.P,U2,3,IP-*%
%TO.N,Net-(J2-Pin_1)*%
X99645000Y-100965000D03*
%TO.P,U2,4,IP-*%
X99645000Y-99695000D03*
%TO.P,U2,5,GND*%
%TO.N,GND*%
X94695000Y-99695000D03*
%TO.P,U2,6,FILTER*%
%TO.N,Net-(U2-FILTER)*%
X94695000Y-100965000D03*
%TO.P,U2,7,VIOUT*%
%TO.N,/A2*%
X94695000Y-102235000D03*
%TO.P,U2,8,VCC*%
%TO.N,+5V*%
X94695000Y-103505000D03*
%TD*%
D30*
%TO.N,GND*%
X171450000Y-70485000D03*
D31*
X92500000Y-113500000D03*
D30*
X102870000Y-71120000D03*
D31*
X96500000Y-113500000D03*
D30*
X92090000Y-99695000D03*
X106680000Y-71120000D03*
X87630000Y-64770000D03*
X163830000Y-70485000D03*
X91440000Y-64770000D03*
X114300000Y-71120000D03*
X95250000Y-64770000D03*
X118110000Y-71120000D03*
%TO.N,+12V*%
X95250000Y-71120000D03*
D32*
X102250000Y-103505000D03*
D30*
X160020000Y-70485000D03*
%TO.N,+5V*%
X83820000Y-71120000D03*
X92090000Y-103505000D03*
X91400250Y-71159750D03*
%TD*%
D33*
%TO.N,/A0*%
X107390000Y-66065000D02*
X106680000Y-66065000D01*
D34*
X147955000Y-88265000D02*
X144780000Y-91440000D01*
X102870000Y-66040000D02*
X106655000Y-66040000D01*
X106680000Y-64135000D02*
X112899000Y-57916000D01*
X112899000Y-57916000D02*
X146258764Y-57916000D01*
X106680000Y-66065000D02*
X106680000Y-64135000D01*
X147955000Y-59612236D02*
X147955000Y-88265000D01*
X99060000Y-66040000D02*
X102870000Y-66040000D01*
X146258764Y-57916000D02*
X147955000Y-59612236D01*
D33*
X106680000Y-66065000D02*
X106680000Y-66040000D01*
D34*
X106655000Y-66040000D02*
X106680000Y-66065000D01*
%TO.N,/A1*%
X114300000Y-66040000D02*
X118110000Y-66040000D01*
X118110000Y-66040000D02*
X118110000Y-64135000D01*
X118110000Y-64135000D02*
X123440000Y-58805000D01*
X147066000Y-86614000D02*
X144780000Y-88900000D01*
X147066000Y-59980472D02*
X147066000Y-86614000D01*
X110490000Y-66040000D02*
X114300000Y-66040000D01*
X123440000Y-58805000D02*
X145890528Y-58805000D01*
X145890528Y-58805000D02*
X147066000Y-59980472D01*
%TO.N,/A2*%
X146500000Y-108500000D02*
X152500000Y-102500000D01*
X94695000Y-102235000D02*
X95424512Y-102235000D01*
X101689512Y-108500000D02*
X146500000Y-108500000D01*
X152500000Y-89000000D02*
X149860000Y-86360000D01*
X95424512Y-102235000D02*
X101689512Y-108500000D01*
X152500000Y-102500000D02*
X152500000Y-89000000D01*
X94695000Y-102235000D02*
X95669999Y-102235000D01*
D33*
%TO.N,/A6*%
X149860000Y-76200000D02*
X156845000Y-69215000D01*
X156845000Y-66675000D02*
X157480000Y-66040000D01*
X156845000Y-69215000D02*
X156845000Y-66675000D01*
X157480000Y-66040000D02*
X160020000Y-66040000D01*
X160020000Y-66040000D02*
X163830000Y-66040000D01*
%TO.N,/A7*%
X154305000Y-69215000D02*
X154305000Y-66040000D01*
X149860000Y-73660000D02*
X154305000Y-69215000D01*
X167640000Y-66040000D02*
X171450000Y-66040000D01*
X154305000Y-66040000D02*
X157480000Y-62865000D01*
X157480000Y-62865000D02*
X164465000Y-62865000D01*
X164465000Y-62865000D02*
X167640000Y-66040000D01*
D34*
%TO.N,/D9*%
X97051500Y-86478500D02*
X120028195Y-86478500D01*
X120028195Y-86478500D02*
X124989695Y-91440000D01*
X94630000Y-88900000D02*
X97051500Y-86478500D01*
%TO.N,GND*%
X114300000Y-69140000D02*
X114300000Y-71120000D01*
X102870000Y-69165000D02*
X102870000Y-71120000D01*
X91440000Y-66110000D02*
X91440000Y-64770000D01*
D35*
X92000000Y-111875000D02*
X92000000Y-113000000D01*
X92000000Y-113000000D02*
X92500000Y-113500000D01*
D34*
X171450000Y-69140000D02*
X171450000Y-70485000D01*
X106680000Y-69165000D02*
X106680000Y-71120000D01*
X87630000Y-66185000D02*
X87630000Y-64770000D01*
D35*
X96000000Y-111875000D02*
X96000000Y-113000000D01*
D34*
X118110000Y-69165000D02*
X118110000Y-71120000D01*
D35*
X96000000Y-113000000D02*
X96500000Y-113500000D01*
D34*
X94695000Y-99695000D02*
X92090000Y-99695000D01*
D33*
X163830000Y-69140000D02*
X163830000Y-70485000D01*
X163120000Y-69140000D02*
X163830000Y-69140000D01*
D34*
X95250000Y-66110000D02*
X95250000Y-64770000D01*
D35*
%TO.N,+12V*%
X99645000Y-103505000D02*
X102250000Y-103505000D01*
X160020000Y-69140000D02*
X160020000Y-70485000D01*
X100980000Y-102235000D02*
X99645000Y-102235000D01*
X102250000Y-103505000D02*
X100980000Y-102235000D01*
X95250000Y-71120000D02*
X95250000Y-69235000D01*
D33*
%TO.N,Net-(J4-Pin_3)*%
X167640000Y-71470000D02*
X162910000Y-76200000D01*
X167640000Y-69140000D02*
X167640000Y-71470000D01*
D34*
%TO.N,+5V*%
X91400250Y-71159750D02*
X91440000Y-71120000D01*
X96000000Y-107415000D02*
X96000000Y-108750000D01*
X92090000Y-103505000D02*
X96000000Y-107415000D01*
X94695000Y-103505000D02*
X92090000Y-103505000D01*
X83820000Y-69210000D02*
X83820000Y-71120000D01*
X91440000Y-71120000D02*
X91440000Y-69235000D01*
%TO.N,Net-(U1-ADJ)*%
X84455000Y-66110000D02*
X87630000Y-69285000D01*
X94615000Y-76200000D02*
X94615000Y-76835000D01*
X83820000Y-66110000D02*
X84455000Y-66110000D01*
X87700000Y-69285000D02*
X94615000Y-76200000D01*
X87630000Y-69285000D02*
X87700000Y-69285000D01*
D35*
%TO.N,Net-(J2-Pin_1)*%
X106785000Y-100965000D02*
X107500000Y-100250000D01*
X99645000Y-100965000D02*
X106785000Y-100965000D01*
D36*
X116250000Y-90215000D02*
X116250000Y-97000000D01*
X114935000Y-88900000D02*
X116250000Y-90215000D01*
X116250000Y-97000000D02*
X113000000Y-100250000D01*
D35*
X106945000Y-99695000D02*
X107500000Y-100250000D01*
X99645000Y-99695000D02*
X106945000Y-99695000D01*
D36*
X113000000Y-100250000D02*
X107500000Y-100250000D01*
D34*
%TO.N,Net-(U2-FILTER)*%
X94695000Y-100965000D02*
X92923751Y-100965000D01*
X90750000Y-103138751D02*
X90750000Y-107500000D01*
X90750000Y-107500000D02*
X92000000Y-108750000D01*
X92923751Y-100965000D02*
X90750000Y-103138751D01*
%TO.N,Net-(J2-Pin_3)*%
X114935000Y-76835000D02*
X110490000Y-72390000D01*
X114935000Y-83400000D02*
X114935000Y-76835000D01*
X110490000Y-72390000D02*
X110490000Y-69140000D01*
%TO.N,Net-(J2-Pin_4)*%
X99060000Y-69140000D02*
X99060000Y-70485000D01*
X109235000Y-76850000D02*
X109235000Y-83400000D01*
X100965000Y-72390000D02*
X104775000Y-72390000D01*
X99060000Y-70485000D02*
X100965000Y-72390000D01*
X104775000Y-72390000D02*
X109235000Y-76850000D01*
%TD*%
M02*
