M48
; DRILL file {KiCad 8.0.1} date 2024-03-26T10:43:19-0400
; FORMAT={-:-/ absolute / inch / decimal}
; #@! TF.CreationDate,2024-03-26T10:43:19-04:00
; #@! TF.GenerationSoftware,Kicad,Pcbnew,8.0.1
; #@! TF.FileFunction,Plated,1,4,PTH
FMAT,2
INCH
; #@! TA.AperFunction,Plated,PTH,ViaDrill
T1C0.0157
; #@! TA.AperFunction,Plated,PTH,ViaDrill
T2C0.0250
; #@! TA.AperFunction,Plated,PTH,ComponentDrill
T3C0.0394
; #@! TA.AperFunction,Plated,PTH,ComponentDrill
T4C0.0400
; #@! TA.AperFunction,Plated,PTH,ComponentDrill
T5C0.0402
; #@! TA.AperFunction,Plated,PTH,ComponentDrill
T6C0.0433
; #@! TA.AperFunction,Plated,PTH,ViaDrill
T7C0.0600
; #@! TA.AperFunction,Plated,PTH,ComponentDrill
T8C0.0709
; #@! TA.AperFunction,Plated,PTH,ComponentDrill
T9C0.1260
%
G90
G05
T1
X3.6417Y-4.4685
X3.7992Y-4.4685
T2
X3.3Y-2.8
X3.45Y-2.55
X3.5984Y-2.8016
X3.6Y-2.55
X3.6256Y-3.925
X3.6256Y-4.075
X3.75Y-2.55
X3.75Y-2.8
X4.05Y-2.8
X4.2Y-2.8
X4.5Y-2.8
X4.65Y-2.8
X6.3Y-2.775
X6.45Y-2.775
X6.75Y-2.775
T3
X4.9Y-2.5
X4.9Y-2.6
X4.9Y-2.7
X4.9Y-2.8
X4.9Y-2.9
X4.9Y-3.0
X4.9Y-3.1
X4.9Y-3.2
X4.9Y-3.3
X4.9Y-3.4
X4.9Y-3.5
X4.9Y-3.6
X4.9Y-3.7
X4.9Y-3.8
X4.9Y-3.9
X5.9Y-2.5
X5.9Y-2.6
X5.9Y-2.7
X5.9Y-2.8
X5.9Y-2.9
X5.9Y-3.0
X5.9Y-3.1
X5.9Y-3.2
X5.9Y-3.3
X5.9Y-3.4
X5.9Y-3.5
X5.9Y-3.6
X5.9Y-3.7
X5.9Y-3.8
X5.9Y-3.9
T4
X5.1Y-2.5
X5.1Y-2.6
X5.1Y-2.7
X5.1Y-2.8
X5.1Y-2.9
X5.1Y-3.0
X5.1Y-3.1
X5.1Y-3.2
X5.1Y-3.3
X5.1Y-3.4
X5.1Y-3.5
X5.1Y-3.6
X5.1Y-3.7
X5.1Y-3.8
X5.1Y-3.9
X5.7Y-2.5
X5.7Y-2.6
X5.7Y-2.7
X5.7Y-2.8
X5.7Y-2.9
X5.7Y-3.0
X5.7Y-3.1
X5.7Y-3.2
X5.7Y-3.3
X5.7Y-3.4
X5.7Y-3.5
X5.7Y-3.6
X5.7Y-3.7
X5.7Y-3.8
X5.7Y-3.9
T5
X6.1776Y-3.0
X6.2957Y-3.0
X6.4138Y-3.0
X6.5319Y-3.0
X6.65Y-3.0
T6
X3.725Y-3.025
X3.7256Y-3.5
X3.825Y-3.025
X3.8256Y-3.5
X3.925Y-3.025
X3.9256Y-3.5
T7
X4.0256Y-4.075
T8
X3.3506Y-3.2835
X3.3506Y-3.5
X4.3006Y-3.2835
X4.3006Y-3.5
X4.525Y-3.2835
X4.525Y-3.5
T9
X6.4075Y-4.2421
M30
