%TF.GenerationSoftware,KiCad,Pcbnew,8.0.1*%
%TF.CreationDate,2024-03-26T10:43:21-04:00*%
%TF.ProjectId,heaterboard-3,68656174-6572-4626-9f61-72642d332e6b,3*%
%TF.SameCoordinates,Original*%
%TF.FileFunction,Legend,Top*%
%TF.FilePolarity,Positive*%
%FSLAX46Y46*%
G04 Gerber Fmt 4.6, Leading zero omitted, Abs format (unit mm)*
G04 Created by KiCad (PCBNEW 8.0.1) date 2024-03-26 10:43:21*
%MOMM*%
%LPD*%
G01*
G04 APERTURE LIST*
%ADD10C,0.150000*%
%ADD11C,0.200000*%
%ADD12C,0.120000*%
G04 APERTURE END LIST*
D10*
X133985000Y-102870000D02*
X140335000Y-102870000D01*
X140335000Y-104775000D01*
X133985000Y-104775000D01*
X133985000Y-102870000D01*
X135898095Y-101104819D02*
X135898095Y-101914342D01*
X135898095Y-101914342D02*
X135945714Y-102009580D01*
X135945714Y-102009580D02*
X135993333Y-102057200D01*
X135993333Y-102057200D02*
X136088571Y-102104819D01*
X136088571Y-102104819D02*
X136279047Y-102104819D01*
X136279047Y-102104819D02*
X136374285Y-102057200D01*
X136374285Y-102057200D02*
X136421904Y-102009580D01*
X136421904Y-102009580D02*
X136469523Y-101914342D01*
X136469523Y-101914342D02*
X136469523Y-101104819D01*
X136898095Y-102057200D02*
X137040952Y-102104819D01*
X137040952Y-102104819D02*
X137279047Y-102104819D01*
X137279047Y-102104819D02*
X137374285Y-102057200D01*
X137374285Y-102057200D02*
X137421904Y-102009580D01*
X137421904Y-102009580D02*
X137469523Y-101914342D01*
X137469523Y-101914342D02*
X137469523Y-101819104D01*
X137469523Y-101819104D02*
X137421904Y-101723866D01*
X137421904Y-101723866D02*
X137374285Y-101676247D01*
X137374285Y-101676247D02*
X137279047Y-101628628D01*
X137279047Y-101628628D02*
X137088571Y-101581009D01*
X137088571Y-101581009D02*
X136993333Y-101533390D01*
X136993333Y-101533390D02*
X136945714Y-101485771D01*
X136945714Y-101485771D02*
X136898095Y-101390533D01*
X136898095Y-101390533D02*
X136898095Y-101295295D01*
X136898095Y-101295295D02*
X136945714Y-101200057D01*
X136945714Y-101200057D02*
X136993333Y-101152438D01*
X136993333Y-101152438D02*
X137088571Y-101104819D01*
X137088571Y-101104819D02*
X137326666Y-101104819D01*
X137326666Y-101104819D02*
X137469523Y-101152438D01*
X138231428Y-101581009D02*
X138374285Y-101628628D01*
X138374285Y-101628628D02*
X138421904Y-101676247D01*
X138421904Y-101676247D02*
X138469523Y-101771485D01*
X138469523Y-101771485D02*
X138469523Y-101914342D01*
X138469523Y-101914342D02*
X138421904Y-102009580D01*
X138421904Y-102009580D02*
X138374285Y-102057200D01*
X138374285Y-102057200D02*
X138279047Y-102104819D01*
X138279047Y-102104819D02*
X137898095Y-102104819D01*
X137898095Y-102104819D02*
X137898095Y-101104819D01*
X137898095Y-101104819D02*
X138231428Y-101104819D01*
X138231428Y-101104819D02*
X138326666Y-101152438D01*
X138326666Y-101152438D02*
X138374285Y-101200057D01*
X138374285Y-101200057D02*
X138421904Y-101295295D01*
X138421904Y-101295295D02*
X138421904Y-101390533D01*
X138421904Y-101390533D02*
X138374285Y-101485771D01*
X138374285Y-101485771D02*
X138326666Y-101533390D01*
X138326666Y-101533390D02*
X138231428Y-101581009D01*
X138231428Y-101581009D02*
X137898095Y-101581009D01*
D11*
X147699612Y-118678521D02*
X147842469Y-118726140D01*
X147842469Y-118726140D02*
X147890088Y-118773759D01*
X147890088Y-118773759D02*
X147937707Y-118868997D01*
X147937707Y-118868997D02*
X147937707Y-119011854D01*
X147937707Y-119011854D02*
X147890088Y-119107092D01*
X147890088Y-119107092D02*
X147842469Y-119154712D01*
X147842469Y-119154712D02*
X147747231Y-119202331D01*
X147747231Y-119202331D02*
X147366279Y-119202331D01*
X147366279Y-119202331D02*
X147366279Y-118202331D01*
X147366279Y-118202331D02*
X147699612Y-118202331D01*
X147699612Y-118202331D02*
X147794850Y-118249950D01*
X147794850Y-118249950D02*
X147842469Y-118297569D01*
X147842469Y-118297569D02*
X147890088Y-118392807D01*
X147890088Y-118392807D02*
X147890088Y-118488045D01*
X147890088Y-118488045D02*
X147842469Y-118583283D01*
X147842469Y-118583283D02*
X147794850Y-118630902D01*
X147794850Y-118630902D02*
X147699612Y-118678521D01*
X147699612Y-118678521D02*
X147366279Y-118678521D01*
X148556755Y-118202331D02*
X148747231Y-118202331D01*
X148747231Y-118202331D02*
X148842469Y-118249950D01*
X148842469Y-118249950D02*
X148937707Y-118345188D01*
X148937707Y-118345188D02*
X148985326Y-118535664D01*
X148985326Y-118535664D02*
X148985326Y-118868997D01*
X148985326Y-118868997D02*
X148937707Y-119059473D01*
X148937707Y-119059473D02*
X148842469Y-119154712D01*
X148842469Y-119154712D02*
X148747231Y-119202331D01*
X148747231Y-119202331D02*
X148556755Y-119202331D01*
X148556755Y-119202331D02*
X148461517Y-119154712D01*
X148461517Y-119154712D02*
X148366279Y-119059473D01*
X148366279Y-119059473D02*
X148318660Y-118868997D01*
X148318660Y-118868997D02*
X148318660Y-118535664D01*
X148318660Y-118535664D02*
X148366279Y-118345188D01*
X148366279Y-118345188D02*
X148461517Y-118249950D01*
X148461517Y-118249950D02*
X148556755Y-118202331D01*
X149366279Y-119154712D02*
X149509136Y-119202331D01*
X149509136Y-119202331D02*
X149747231Y-119202331D01*
X149747231Y-119202331D02*
X149842469Y-119154712D01*
X149842469Y-119154712D02*
X149890088Y-119107092D01*
X149890088Y-119107092D02*
X149937707Y-119011854D01*
X149937707Y-119011854D02*
X149937707Y-118916616D01*
X149937707Y-118916616D02*
X149890088Y-118821378D01*
X149890088Y-118821378D02*
X149842469Y-118773759D01*
X149842469Y-118773759D02*
X149747231Y-118726140D01*
X149747231Y-118726140D02*
X149556755Y-118678521D01*
X149556755Y-118678521D02*
X149461517Y-118630902D01*
X149461517Y-118630902D02*
X149413898Y-118583283D01*
X149413898Y-118583283D02*
X149366279Y-118488045D01*
X149366279Y-118488045D02*
X149366279Y-118392807D01*
X149366279Y-118392807D02*
X149413898Y-118297569D01*
X149413898Y-118297569D02*
X149461517Y-118249950D01*
X149461517Y-118249950D02*
X149556755Y-118202331D01*
X149556755Y-118202331D02*
X149794850Y-118202331D01*
X149794850Y-118202331D02*
X149937707Y-118249950D01*
X150223422Y-118202331D02*
X150794850Y-118202331D01*
X150509136Y-119202331D02*
X150509136Y-118202331D01*
X151318660Y-118202331D02*
X151509136Y-118202331D01*
X151509136Y-118202331D02*
X151604374Y-118249950D01*
X151604374Y-118249950D02*
X151699612Y-118345188D01*
X151699612Y-118345188D02*
X151747231Y-118535664D01*
X151747231Y-118535664D02*
X151747231Y-118868997D01*
X151747231Y-118868997D02*
X151699612Y-119059473D01*
X151699612Y-119059473D02*
X151604374Y-119154712D01*
X151604374Y-119154712D02*
X151509136Y-119202331D01*
X151509136Y-119202331D02*
X151318660Y-119202331D01*
X151318660Y-119202331D02*
X151223422Y-119154712D01*
X151223422Y-119154712D02*
X151128184Y-119059473D01*
X151128184Y-119059473D02*
X151080565Y-118868997D01*
X151080565Y-118868997D02*
X151080565Y-118535664D01*
X151080565Y-118535664D02*
X151128184Y-118345188D01*
X151128184Y-118345188D02*
X151223422Y-118249950D01*
X151223422Y-118249950D02*
X151318660Y-118202331D01*
X152175803Y-119202331D02*
X152175803Y-118202331D01*
X152175803Y-118202331D02*
X152747231Y-119202331D01*
X152747231Y-119202331D02*
X152747231Y-118202331D01*
X153985327Y-118202331D02*
X153985327Y-119011854D01*
X153985327Y-119011854D02*
X154032946Y-119107092D01*
X154032946Y-119107092D02*
X154080565Y-119154712D01*
X154080565Y-119154712D02*
X154175803Y-119202331D01*
X154175803Y-119202331D02*
X154366279Y-119202331D01*
X154366279Y-119202331D02*
X154461517Y-119154712D01*
X154461517Y-119154712D02*
X154509136Y-119107092D01*
X154509136Y-119107092D02*
X154556755Y-119011854D01*
X154556755Y-119011854D02*
X154556755Y-118202331D01*
X155032946Y-119202331D02*
X155032946Y-118202331D01*
X155032946Y-118202331D02*
X155604374Y-119202331D01*
X155604374Y-119202331D02*
X155604374Y-118202331D01*
X156080565Y-119202331D02*
X156080565Y-118202331D01*
X156413898Y-118202331D02*
X156747231Y-119202331D01*
X156747231Y-119202331D02*
X157080564Y-118202331D01*
X157413898Y-118678521D02*
X157747231Y-118678521D01*
X157890088Y-119202331D02*
X157413898Y-119202331D01*
X157413898Y-119202331D02*
X157413898Y-118202331D01*
X157413898Y-118202331D02*
X157890088Y-118202331D01*
X158890088Y-119202331D02*
X158556755Y-118726140D01*
X158318660Y-119202331D02*
X158318660Y-118202331D01*
X158318660Y-118202331D02*
X158699612Y-118202331D01*
X158699612Y-118202331D02*
X158794850Y-118249950D01*
X158794850Y-118249950D02*
X158842469Y-118297569D01*
X158842469Y-118297569D02*
X158890088Y-118392807D01*
X158890088Y-118392807D02*
X158890088Y-118535664D01*
X158890088Y-118535664D02*
X158842469Y-118630902D01*
X158842469Y-118630902D02*
X158794850Y-118678521D01*
X158794850Y-118678521D02*
X158699612Y-118726140D01*
X158699612Y-118726140D02*
X158318660Y-118726140D01*
X159271041Y-119154712D02*
X159413898Y-119202331D01*
X159413898Y-119202331D02*
X159651993Y-119202331D01*
X159651993Y-119202331D02*
X159747231Y-119154712D01*
X159747231Y-119154712D02*
X159794850Y-119107092D01*
X159794850Y-119107092D02*
X159842469Y-119011854D01*
X159842469Y-119011854D02*
X159842469Y-118916616D01*
X159842469Y-118916616D02*
X159794850Y-118821378D01*
X159794850Y-118821378D02*
X159747231Y-118773759D01*
X159747231Y-118773759D02*
X159651993Y-118726140D01*
X159651993Y-118726140D02*
X159461517Y-118678521D01*
X159461517Y-118678521D02*
X159366279Y-118630902D01*
X159366279Y-118630902D02*
X159318660Y-118583283D01*
X159318660Y-118583283D02*
X159271041Y-118488045D01*
X159271041Y-118488045D02*
X159271041Y-118392807D01*
X159271041Y-118392807D02*
X159318660Y-118297569D01*
X159318660Y-118297569D02*
X159366279Y-118249950D01*
X159366279Y-118249950D02*
X159461517Y-118202331D01*
X159461517Y-118202331D02*
X159699612Y-118202331D01*
X159699612Y-118202331D02*
X159842469Y-118249950D01*
X160271041Y-119202331D02*
X160271041Y-118202331D01*
X160604374Y-118202331D02*
X161175802Y-118202331D01*
X160890088Y-119202331D02*
X160890088Y-118202331D01*
X161699612Y-118726140D02*
X161699612Y-119202331D01*
X161366279Y-118202331D02*
X161699612Y-118726140D01*
X161699612Y-118726140D02*
X162032945Y-118202331D01*
X163128184Y-118678521D02*
X163461517Y-118678521D01*
X163604374Y-119202331D02*
X163128184Y-119202331D01*
X163128184Y-119202331D02*
X163128184Y-118202331D01*
X163128184Y-118202331D02*
X163604374Y-118202331D01*
X164032946Y-119202331D02*
X164032946Y-118202331D01*
X164032946Y-118202331D02*
X164604374Y-119202331D01*
X164604374Y-119202331D02*
X164604374Y-118202331D01*
X165604374Y-118249950D02*
X165509136Y-118202331D01*
X165509136Y-118202331D02*
X165366279Y-118202331D01*
X165366279Y-118202331D02*
X165223422Y-118249950D01*
X165223422Y-118249950D02*
X165128184Y-118345188D01*
X165128184Y-118345188D02*
X165080565Y-118440426D01*
X165080565Y-118440426D02*
X165032946Y-118630902D01*
X165032946Y-118630902D02*
X165032946Y-118773759D01*
X165032946Y-118773759D02*
X165080565Y-118964235D01*
X165080565Y-118964235D02*
X165128184Y-119059473D01*
X165128184Y-119059473D02*
X165223422Y-119154712D01*
X165223422Y-119154712D02*
X165366279Y-119202331D01*
X165366279Y-119202331D02*
X165461517Y-119202331D01*
X165461517Y-119202331D02*
X165604374Y-119154712D01*
X165604374Y-119154712D02*
X165651993Y-119107092D01*
X165651993Y-119107092D02*
X165651993Y-118773759D01*
X165651993Y-118773759D02*
X165461517Y-118773759D01*
X166080565Y-118821378D02*
X166842470Y-118821378D01*
X167318660Y-119202331D02*
X167318660Y-118202331D01*
X167318660Y-118202331D02*
X167651993Y-118916616D01*
X167651993Y-118916616D02*
X167985326Y-118202331D01*
X167985326Y-118202331D02*
X167985326Y-119202331D01*
X168461517Y-118678521D02*
X168794850Y-118678521D01*
X168937707Y-119202331D02*
X168461517Y-119202331D01*
X168461517Y-119202331D02*
X168461517Y-118202331D01*
X168461517Y-118202331D02*
X168937707Y-118202331D01*
X169366279Y-118821378D02*
X170128184Y-118821378D01*
X171032945Y-118202331D02*
X170842469Y-118202331D01*
X170842469Y-118202331D02*
X170747231Y-118249950D01*
X170747231Y-118249950D02*
X170699612Y-118297569D01*
X170699612Y-118297569D02*
X170604374Y-118440426D01*
X170604374Y-118440426D02*
X170556755Y-118630902D01*
X170556755Y-118630902D02*
X170556755Y-119011854D01*
X170556755Y-119011854D02*
X170604374Y-119107092D01*
X170604374Y-119107092D02*
X170651993Y-119154712D01*
X170651993Y-119154712D02*
X170747231Y-119202331D01*
X170747231Y-119202331D02*
X170937707Y-119202331D01*
X170937707Y-119202331D02*
X171032945Y-119154712D01*
X171032945Y-119154712D02*
X171080564Y-119107092D01*
X171080564Y-119107092D02*
X171128183Y-119011854D01*
X171128183Y-119011854D02*
X171128183Y-118773759D01*
X171128183Y-118773759D02*
X171080564Y-118678521D01*
X171080564Y-118678521D02*
X171032945Y-118630902D01*
X171032945Y-118630902D02*
X170937707Y-118583283D01*
X170937707Y-118583283D02*
X170747231Y-118583283D01*
X170747231Y-118583283D02*
X170651993Y-118630902D01*
X170651993Y-118630902D02*
X170604374Y-118678521D01*
X170604374Y-118678521D02*
X170556755Y-118773759D01*
X171604374Y-119202331D02*
X171794850Y-119202331D01*
X171794850Y-119202331D02*
X171890088Y-119154712D01*
X171890088Y-119154712D02*
X171937707Y-119107092D01*
X171937707Y-119107092D02*
X172032945Y-118964235D01*
X172032945Y-118964235D02*
X172080564Y-118773759D01*
X172080564Y-118773759D02*
X172080564Y-118392807D01*
X172080564Y-118392807D02*
X172032945Y-118297569D01*
X172032945Y-118297569D02*
X171985326Y-118249950D01*
X171985326Y-118249950D02*
X171890088Y-118202331D01*
X171890088Y-118202331D02*
X171699612Y-118202331D01*
X171699612Y-118202331D02*
X171604374Y-118249950D01*
X171604374Y-118249950D02*
X171556755Y-118297569D01*
X171556755Y-118297569D02*
X171509136Y-118392807D01*
X171509136Y-118392807D02*
X171509136Y-118630902D01*
X171509136Y-118630902D02*
X171556755Y-118726140D01*
X171556755Y-118726140D02*
X171604374Y-118773759D01*
X171604374Y-118773759D02*
X171699612Y-118821378D01*
X171699612Y-118821378D02*
X171890088Y-118821378D01*
X171890088Y-118821378D02*
X171985326Y-118773759D01*
X171985326Y-118773759D02*
X172032945Y-118726140D01*
X172032945Y-118726140D02*
X172080564Y-118630902D01*
X172461517Y-118297569D02*
X172509136Y-118249950D01*
X172509136Y-118249950D02*
X172604374Y-118202331D01*
X172604374Y-118202331D02*
X172842469Y-118202331D01*
X172842469Y-118202331D02*
X172937707Y-118249950D01*
X172937707Y-118249950D02*
X172985326Y-118297569D01*
X172985326Y-118297569D02*
X173032945Y-118392807D01*
X173032945Y-118392807D02*
X173032945Y-118488045D01*
X173032945Y-118488045D02*
X172985326Y-118630902D01*
X172985326Y-118630902D02*
X172413898Y-119202331D01*
X172413898Y-119202331D02*
X173032945Y-119202331D01*
X145318659Y-119812275D02*
X145556754Y-120812275D01*
X145556754Y-120812275D02*
X145747230Y-120097989D01*
X145747230Y-120097989D02*
X145937706Y-120812275D01*
X145937706Y-120812275D02*
X146175802Y-119812275D01*
X146556754Y-120812275D02*
X146556754Y-119812275D01*
X147032944Y-120812275D02*
X147032944Y-119812275D01*
X147032944Y-119812275D02*
X147604372Y-120812275D01*
X147604372Y-120812275D02*
X147604372Y-119812275D01*
X148080563Y-120812275D02*
X148080563Y-119812275D01*
X148080563Y-119812275D02*
X148318658Y-119812275D01*
X148318658Y-119812275D02*
X148461515Y-119859894D01*
X148461515Y-119859894D02*
X148556753Y-119955132D01*
X148556753Y-119955132D02*
X148604372Y-120050370D01*
X148604372Y-120050370D02*
X148651991Y-120240846D01*
X148651991Y-120240846D02*
X148651991Y-120383703D01*
X148651991Y-120383703D02*
X148604372Y-120574179D01*
X148604372Y-120574179D02*
X148556753Y-120669417D01*
X148556753Y-120669417D02*
X148461515Y-120764656D01*
X148461515Y-120764656D02*
X148318658Y-120812275D01*
X148318658Y-120812275D02*
X148080563Y-120812275D01*
X149032944Y-120764656D02*
X149175801Y-120812275D01*
X149175801Y-120812275D02*
X149413896Y-120812275D01*
X149413896Y-120812275D02*
X149509134Y-120764656D01*
X149509134Y-120764656D02*
X149556753Y-120717036D01*
X149556753Y-120717036D02*
X149604372Y-120621798D01*
X149604372Y-120621798D02*
X149604372Y-120526560D01*
X149604372Y-120526560D02*
X149556753Y-120431322D01*
X149556753Y-120431322D02*
X149509134Y-120383703D01*
X149509134Y-120383703D02*
X149413896Y-120336084D01*
X149413896Y-120336084D02*
X149223420Y-120288465D01*
X149223420Y-120288465D02*
X149128182Y-120240846D01*
X149128182Y-120240846D02*
X149080563Y-120193227D01*
X149080563Y-120193227D02*
X149032944Y-120097989D01*
X149032944Y-120097989D02*
X149032944Y-120002751D01*
X149032944Y-120002751D02*
X149080563Y-119907513D01*
X149080563Y-119907513D02*
X149128182Y-119859894D01*
X149128182Y-119859894D02*
X149223420Y-119812275D01*
X149223420Y-119812275D02*
X149461515Y-119812275D01*
X149461515Y-119812275D02*
X149604372Y-119859894D01*
X150032944Y-120812275D02*
X150032944Y-119812275D01*
X150032944Y-120288465D02*
X150604372Y-120288465D01*
X150604372Y-120812275D02*
X150604372Y-119812275D01*
X151080563Y-120812275D02*
X151080563Y-119812275D01*
X151556753Y-120288465D02*
X151890086Y-120288465D01*
X152032943Y-120812275D02*
X151556753Y-120812275D01*
X151556753Y-120812275D02*
X151556753Y-119812275D01*
X151556753Y-119812275D02*
X152032943Y-119812275D01*
X152937705Y-120812275D02*
X152461515Y-120812275D01*
X152461515Y-120812275D02*
X152461515Y-119812275D01*
X153271039Y-120812275D02*
X153271039Y-119812275D01*
X153271039Y-119812275D02*
X153509134Y-119812275D01*
X153509134Y-119812275D02*
X153651991Y-119859894D01*
X153651991Y-119859894D02*
X153747229Y-119955132D01*
X153747229Y-119955132D02*
X153794848Y-120050370D01*
X153794848Y-120050370D02*
X153842467Y-120240846D01*
X153842467Y-120240846D02*
X153842467Y-120383703D01*
X153842467Y-120383703D02*
X153794848Y-120574179D01*
X153794848Y-120574179D02*
X153747229Y-120669417D01*
X153747229Y-120669417D02*
X153651991Y-120764656D01*
X153651991Y-120764656D02*
X153509134Y-120812275D01*
X153509134Y-120812275D02*
X153271039Y-120812275D01*
X155032944Y-120812275D02*
X155032944Y-119812275D01*
X155032944Y-120288465D02*
X155604372Y-120288465D01*
X155604372Y-120812275D02*
X155604372Y-119812275D01*
X156080563Y-120288465D02*
X156413896Y-120288465D01*
X156556753Y-120812275D02*
X156080563Y-120812275D01*
X156080563Y-120812275D02*
X156080563Y-119812275D01*
X156080563Y-119812275D02*
X156556753Y-119812275D01*
X156937706Y-120526560D02*
X157413896Y-120526560D01*
X156842468Y-120812275D02*
X157175801Y-119812275D01*
X157175801Y-119812275D02*
X157509134Y-120812275D01*
X157699611Y-119812275D02*
X158271039Y-119812275D01*
X157985325Y-120812275D02*
X157985325Y-119812275D01*
X158604373Y-120288465D02*
X158937706Y-120288465D01*
X159080563Y-120812275D02*
X158604373Y-120812275D01*
X158604373Y-120812275D02*
X158604373Y-119812275D01*
X158604373Y-119812275D02*
X159080563Y-119812275D01*
X160080563Y-120812275D02*
X159747230Y-120336084D01*
X159509135Y-120812275D02*
X159509135Y-119812275D01*
X159509135Y-119812275D02*
X159890087Y-119812275D01*
X159890087Y-119812275D02*
X159985325Y-119859894D01*
X159985325Y-119859894D02*
X160032944Y-119907513D01*
X160032944Y-119907513D02*
X160080563Y-120002751D01*
X160080563Y-120002751D02*
X160080563Y-120145608D01*
X160080563Y-120145608D02*
X160032944Y-120240846D01*
X160032944Y-120240846D02*
X159985325Y-120288465D01*
X159985325Y-120288465D02*
X159890087Y-120336084D01*
X159890087Y-120336084D02*
X159509135Y-120336084D01*
X161271040Y-120812275D02*
X161271040Y-119812275D01*
X161271040Y-119812275D02*
X161651992Y-119812275D01*
X161651992Y-119812275D02*
X161747230Y-119859894D01*
X161747230Y-119859894D02*
X161794849Y-119907513D01*
X161794849Y-119907513D02*
X161842468Y-120002751D01*
X161842468Y-120002751D02*
X161842468Y-120145608D01*
X161842468Y-120145608D02*
X161794849Y-120240846D01*
X161794849Y-120240846D02*
X161747230Y-120288465D01*
X161747230Y-120288465D02*
X161651992Y-120336084D01*
X161651992Y-120336084D02*
X161271040Y-120336084D01*
X162842468Y-120812275D02*
X162509135Y-120336084D01*
X162271040Y-120812275D02*
X162271040Y-119812275D01*
X162271040Y-119812275D02*
X162651992Y-119812275D01*
X162651992Y-119812275D02*
X162747230Y-119859894D01*
X162747230Y-119859894D02*
X162794849Y-119907513D01*
X162794849Y-119907513D02*
X162842468Y-120002751D01*
X162842468Y-120002751D02*
X162842468Y-120145608D01*
X162842468Y-120145608D02*
X162794849Y-120240846D01*
X162794849Y-120240846D02*
X162747230Y-120288465D01*
X162747230Y-120288465D02*
X162651992Y-120336084D01*
X162651992Y-120336084D02*
X162271040Y-120336084D01*
X163461516Y-119812275D02*
X163651992Y-119812275D01*
X163651992Y-119812275D02*
X163747230Y-119859894D01*
X163747230Y-119859894D02*
X163842468Y-119955132D01*
X163842468Y-119955132D02*
X163890087Y-120145608D01*
X163890087Y-120145608D02*
X163890087Y-120478941D01*
X163890087Y-120478941D02*
X163842468Y-120669417D01*
X163842468Y-120669417D02*
X163747230Y-120764656D01*
X163747230Y-120764656D02*
X163651992Y-120812275D01*
X163651992Y-120812275D02*
X163461516Y-120812275D01*
X163461516Y-120812275D02*
X163366278Y-120764656D01*
X163366278Y-120764656D02*
X163271040Y-120669417D01*
X163271040Y-120669417D02*
X163223421Y-120478941D01*
X163223421Y-120478941D02*
X163223421Y-120145608D01*
X163223421Y-120145608D02*
X163271040Y-119955132D01*
X163271040Y-119955132D02*
X163366278Y-119859894D01*
X163366278Y-119859894D02*
X163461516Y-119812275D01*
X164604373Y-119812275D02*
X164604373Y-120526560D01*
X164604373Y-120526560D02*
X164556754Y-120669417D01*
X164556754Y-120669417D02*
X164461516Y-120764656D01*
X164461516Y-120764656D02*
X164318659Y-120812275D01*
X164318659Y-120812275D02*
X164223421Y-120812275D01*
X165080564Y-120288465D02*
X165413897Y-120288465D01*
X165556754Y-120812275D02*
X165080564Y-120812275D01*
X165080564Y-120812275D02*
X165080564Y-119812275D01*
X165080564Y-119812275D02*
X165556754Y-119812275D01*
X166556754Y-120717036D02*
X166509135Y-120764656D01*
X166509135Y-120764656D02*
X166366278Y-120812275D01*
X166366278Y-120812275D02*
X166271040Y-120812275D01*
X166271040Y-120812275D02*
X166128183Y-120764656D01*
X166128183Y-120764656D02*
X166032945Y-120669417D01*
X166032945Y-120669417D02*
X165985326Y-120574179D01*
X165985326Y-120574179D02*
X165937707Y-120383703D01*
X165937707Y-120383703D02*
X165937707Y-120240846D01*
X165937707Y-120240846D02*
X165985326Y-120050370D01*
X165985326Y-120050370D02*
X166032945Y-119955132D01*
X166032945Y-119955132D02*
X166128183Y-119859894D01*
X166128183Y-119859894D02*
X166271040Y-119812275D01*
X166271040Y-119812275D02*
X166366278Y-119812275D01*
X166366278Y-119812275D02*
X166509135Y-119859894D01*
X166509135Y-119859894D02*
X166556754Y-119907513D01*
X166842469Y-119812275D02*
X167413897Y-119812275D01*
X167128183Y-120812275D02*
X167128183Y-119812275D01*
X169080564Y-120812275D02*
X168747231Y-120336084D01*
X168509136Y-120812275D02*
X168509136Y-119812275D01*
X168509136Y-119812275D02*
X168890088Y-119812275D01*
X168890088Y-119812275D02*
X168985326Y-119859894D01*
X168985326Y-119859894D02*
X169032945Y-119907513D01*
X169032945Y-119907513D02*
X169080564Y-120002751D01*
X169080564Y-120002751D02*
X169080564Y-120145608D01*
X169080564Y-120145608D02*
X169032945Y-120240846D01*
X169032945Y-120240846D02*
X168985326Y-120288465D01*
X168985326Y-120288465D02*
X168890088Y-120336084D01*
X168890088Y-120336084D02*
X168509136Y-120336084D01*
X169509136Y-120288465D02*
X169842469Y-120288465D01*
X169985326Y-120812275D02*
X169509136Y-120812275D01*
X169509136Y-120812275D02*
X169509136Y-119812275D01*
X169509136Y-119812275D02*
X169985326Y-119812275D01*
X170271041Y-119812275D02*
X170604374Y-120812275D01*
X170604374Y-120812275D02*
X170937707Y-119812275D01*
X171271041Y-120717036D02*
X171318660Y-120764656D01*
X171318660Y-120764656D02*
X171271041Y-120812275D01*
X171271041Y-120812275D02*
X171223422Y-120764656D01*
X171223422Y-120764656D02*
X171271041Y-120717036D01*
X171271041Y-120717036D02*
X171271041Y-120812275D01*
X172413898Y-119812275D02*
X173032945Y-119812275D01*
X173032945Y-119812275D02*
X172699612Y-120193227D01*
X172699612Y-120193227D02*
X172842469Y-120193227D01*
X172842469Y-120193227D02*
X172937707Y-120240846D01*
X172937707Y-120240846D02*
X172985326Y-120288465D01*
X172985326Y-120288465D02*
X173032945Y-120383703D01*
X173032945Y-120383703D02*
X173032945Y-120621798D01*
X173032945Y-120621798D02*
X172985326Y-120717036D01*
X172985326Y-120717036D02*
X172937707Y-120764656D01*
X172937707Y-120764656D02*
X172842469Y-120812275D01*
X172842469Y-120812275D02*
X172556755Y-120812275D01*
X172556755Y-120812275D02*
X172461517Y-120764656D01*
X172461517Y-120764656D02*
X172413898Y-120717036D01*
X155890088Y-122136504D02*
X156366278Y-122136504D01*
X155794850Y-122422219D02*
X156128183Y-121422219D01*
X156128183Y-121422219D02*
X156461516Y-122422219D01*
X157271040Y-122422219D02*
X156794850Y-122422219D01*
X156794850Y-122422219D02*
X156794850Y-121422219D01*
X158842469Y-122422219D02*
X158366279Y-122422219D01*
X158366279Y-122422219D02*
X158366279Y-121422219D01*
X159175803Y-121898409D02*
X159509136Y-121898409D01*
X159651993Y-122422219D02*
X159175803Y-122422219D01*
X159175803Y-122422219D02*
X159175803Y-121422219D01*
X159175803Y-121422219D02*
X159651993Y-121422219D01*
X159937708Y-121422219D02*
X160271041Y-122422219D01*
X160271041Y-122422219D02*
X160604374Y-121422219D01*
X160937708Y-122422219D02*
X160937708Y-121422219D01*
X161413898Y-122422219D02*
X161413898Y-121422219D01*
X161413898Y-121422219D02*
X161985326Y-122422219D01*
X161985326Y-122422219D02*
X161985326Y-121422219D01*
X162461517Y-121898409D02*
X162794850Y-121898409D01*
X162937707Y-122422219D02*
X162461517Y-122422219D01*
X162461517Y-122422219D02*
X162461517Y-121422219D01*
X162461517Y-121422219D02*
X162937707Y-121422219D01*
X164937708Y-122422219D02*
X164890089Y-122422219D01*
X164890089Y-122422219D02*
X164794850Y-122374600D01*
X164794850Y-122374600D02*
X164651993Y-122231742D01*
X164651993Y-122231742D02*
X164413898Y-121946028D01*
X164413898Y-121946028D02*
X164318660Y-121803171D01*
X164318660Y-121803171D02*
X164271041Y-121660314D01*
X164271041Y-121660314D02*
X164271041Y-121565076D01*
X164271041Y-121565076D02*
X164318660Y-121469838D01*
X164318660Y-121469838D02*
X164413898Y-121422219D01*
X164413898Y-121422219D02*
X164461517Y-121422219D01*
X164461517Y-121422219D02*
X164556755Y-121469838D01*
X164556755Y-121469838D02*
X164604374Y-121565076D01*
X164604374Y-121565076D02*
X164604374Y-121612695D01*
X164604374Y-121612695D02*
X164556755Y-121707933D01*
X164556755Y-121707933D02*
X164509136Y-121755552D01*
X164509136Y-121755552D02*
X164223422Y-121946028D01*
X164223422Y-121946028D02*
X164175803Y-121993647D01*
X164175803Y-121993647D02*
X164128184Y-122088885D01*
X164128184Y-122088885D02*
X164128184Y-122231742D01*
X164128184Y-122231742D02*
X164175803Y-122326980D01*
X164175803Y-122326980D02*
X164223422Y-122374600D01*
X164223422Y-122374600D02*
X164318660Y-122422219D01*
X164318660Y-122422219D02*
X164461517Y-122422219D01*
X164461517Y-122422219D02*
X164556755Y-122374600D01*
X164556755Y-122374600D02*
X164604374Y-122326980D01*
X164604374Y-122326980D02*
X164747231Y-122136504D01*
X164747231Y-122136504D02*
X164794850Y-121993647D01*
X164794850Y-121993647D02*
X164794850Y-121898409D01*
X166032946Y-121422219D02*
X166699612Y-121422219D01*
X166699612Y-121422219D02*
X166032946Y-122422219D01*
X166032946Y-122422219D02*
X166699612Y-122422219D01*
X167080565Y-121898409D02*
X167413898Y-121898409D01*
X167556755Y-122422219D02*
X167080565Y-122422219D01*
X167080565Y-122422219D02*
X167080565Y-121422219D01*
X167080565Y-121422219D02*
X167556755Y-121422219D01*
X167890089Y-121422219D02*
X168128184Y-122422219D01*
X168128184Y-122422219D02*
X168318660Y-121707933D01*
X168318660Y-121707933D02*
X168509136Y-122422219D01*
X168509136Y-122422219D02*
X168747232Y-121422219D01*
X169128184Y-121898409D02*
X169461517Y-121898409D01*
X169604374Y-122422219D02*
X169128184Y-122422219D01*
X169128184Y-122422219D02*
X169128184Y-121422219D01*
X169128184Y-121422219D02*
X169604374Y-121422219D01*
X170032946Y-122422219D02*
X170032946Y-121422219D01*
X171175803Y-121422219D02*
X171413898Y-122422219D01*
X171413898Y-122422219D02*
X171604374Y-121707933D01*
X171604374Y-121707933D02*
X171794850Y-122422219D01*
X171794850Y-122422219D02*
X172032946Y-121422219D01*
X172413898Y-121422219D02*
X172413898Y-122231742D01*
X172413898Y-122231742D02*
X172461517Y-122326980D01*
X172461517Y-122326980D02*
X172509136Y-122374600D01*
X172509136Y-122374600D02*
X172604374Y-122422219D01*
X172604374Y-122422219D02*
X172794850Y-122422219D01*
X172794850Y-122422219D02*
X172890088Y-122374600D01*
X172890088Y-122374600D02*
X172937707Y-122326980D01*
X172937707Y-122326980D02*
X172985326Y-122231742D01*
X172985326Y-122231742D02*
X172985326Y-121422219D01*
D10*
X79997493Y-121424819D02*
X79997493Y-122139104D01*
X79997493Y-122139104D02*
X79949874Y-122281961D01*
X79949874Y-122281961D02*
X79854636Y-122377200D01*
X79854636Y-122377200D02*
X79711779Y-122424819D01*
X79711779Y-122424819D02*
X79616541Y-122424819D01*
X80949874Y-122424819D02*
X80473684Y-122424819D01*
X80473684Y-122424819D02*
X80473684Y-121424819D01*
X81854636Y-122329580D02*
X81807017Y-122377200D01*
X81807017Y-122377200D02*
X81664160Y-122424819D01*
X81664160Y-122424819D02*
X81568922Y-122424819D01*
X81568922Y-122424819D02*
X81426065Y-122377200D01*
X81426065Y-122377200D02*
X81330827Y-122281961D01*
X81330827Y-122281961D02*
X81283208Y-122186723D01*
X81283208Y-122186723D02*
X81235589Y-121996247D01*
X81235589Y-121996247D02*
X81235589Y-121853390D01*
X81235589Y-121853390D02*
X81283208Y-121662914D01*
X81283208Y-121662914D02*
X81330827Y-121567676D01*
X81330827Y-121567676D02*
X81426065Y-121472438D01*
X81426065Y-121472438D02*
X81568922Y-121424819D01*
X81568922Y-121424819D02*
X81664160Y-121424819D01*
X81664160Y-121424819D02*
X81807017Y-121472438D01*
X81807017Y-121472438D02*
X81854636Y-121520057D01*
X82568922Y-121424819D02*
X82568922Y-122139104D01*
X82568922Y-122139104D02*
X82521303Y-122281961D01*
X82521303Y-122281961D02*
X82426065Y-122377200D01*
X82426065Y-122377200D02*
X82283208Y-122424819D01*
X82283208Y-122424819D02*
X82187970Y-122424819D01*
X83521303Y-122424819D02*
X83045113Y-122424819D01*
X83045113Y-122424819D02*
X83045113Y-121424819D01*
X84426065Y-122329580D02*
X84378446Y-122377200D01*
X84378446Y-122377200D02*
X84235589Y-122424819D01*
X84235589Y-122424819D02*
X84140351Y-122424819D01*
X84140351Y-122424819D02*
X83997494Y-122377200D01*
X83997494Y-122377200D02*
X83902256Y-122281961D01*
X83902256Y-122281961D02*
X83854637Y-122186723D01*
X83854637Y-122186723D02*
X83807018Y-121996247D01*
X83807018Y-121996247D02*
X83807018Y-121853390D01*
X83807018Y-121853390D02*
X83854637Y-121662914D01*
X83854637Y-121662914D02*
X83902256Y-121567676D01*
X83902256Y-121567676D02*
X83997494Y-121472438D01*
X83997494Y-121472438D02*
X84140351Y-121424819D01*
X84140351Y-121424819D02*
X84235589Y-121424819D01*
X84235589Y-121424819D02*
X84378446Y-121472438D01*
X84378446Y-121472438D02*
X84426065Y-121520057D01*
X85140351Y-121424819D02*
X85140351Y-122139104D01*
X85140351Y-122139104D02*
X85092732Y-122281961D01*
X85092732Y-122281961D02*
X84997494Y-122377200D01*
X84997494Y-122377200D02*
X84854637Y-122424819D01*
X84854637Y-122424819D02*
X84759399Y-122424819D01*
X86092732Y-122424819D02*
X85616542Y-122424819D01*
X85616542Y-122424819D02*
X85616542Y-121424819D01*
X86997494Y-122329580D02*
X86949875Y-122377200D01*
X86949875Y-122377200D02*
X86807018Y-122424819D01*
X86807018Y-122424819D02*
X86711780Y-122424819D01*
X86711780Y-122424819D02*
X86568923Y-122377200D01*
X86568923Y-122377200D02*
X86473685Y-122281961D01*
X86473685Y-122281961D02*
X86426066Y-122186723D01*
X86426066Y-122186723D02*
X86378447Y-121996247D01*
X86378447Y-121996247D02*
X86378447Y-121853390D01*
X86378447Y-121853390D02*
X86426066Y-121662914D01*
X86426066Y-121662914D02*
X86473685Y-121567676D01*
X86473685Y-121567676D02*
X86568923Y-121472438D01*
X86568923Y-121472438D02*
X86711780Y-121424819D01*
X86711780Y-121424819D02*
X86807018Y-121424819D01*
X86807018Y-121424819D02*
X86949875Y-121472438D01*
X86949875Y-121472438D02*
X86997494Y-121520057D01*
X87711780Y-121424819D02*
X87711780Y-122139104D01*
X87711780Y-122139104D02*
X87664161Y-122281961D01*
X87664161Y-122281961D02*
X87568923Y-122377200D01*
X87568923Y-122377200D02*
X87426066Y-122424819D01*
X87426066Y-122424819D02*
X87330828Y-122424819D01*
X88664161Y-122424819D02*
X88187971Y-122424819D01*
X88187971Y-122424819D02*
X88187971Y-121424819D01*
X89568923Y-122329580D02*
X89521304Y-122377200D01*
X89521304Y-122377200D02*
X89378447Y-122424819D01*
X89378447Y-122424819D02*
X89283209Y-122424819D01*
X89283209Y-122424819D02*
X89140352Y-122377200D01*
X89140352Y-122377200D02*
X89045114Y-122281961D01*
X89045114Y-122281961D02*
X88997495Y-122186723D01*
X88997495Y-122186723D02*
X88949876Y-121996247D01*
X88949876Y-121996247D02*
X88949876Y-121853390D01*
X88949876Y-121853390D02*
X88997495Y-121662914D01*
X88997495Y-121662914D02*
X89045114Y-121567676D01*
X89045114Y-121567676D02*
X89140352Y-121472438D01*
X89140352Y-121472438D02*
X89283209Y-121424819D01*
X89283209Y-121424819D02*
X89378447Y-121424819D01*
X89378447Y-121424819D02*
X89521304Y-121472438D01*
X89521304Y-121472438D02*
X89568923Y-121520057D01*
X161988095Y-104004819D02*
X161988095Y-103004819D01*
X161988095Y-103481009D02*
X162559523Y-103481009D01*
X162559523Y-104004819D02*
X162559523Y-103004819D01*
X163559523Y-104004819D02*
X162988095Y-104004819D01*
X163273809Y-104004819D02*
X163273809Y-103004819D01*
X163273809Y-103004819D02*
X163178571Y-103147676D01*
X163178571Y-103147676D02*
X163083333Y-103242914D01*
X163083333Y-103242914D02*
X162988095Y-103290533D01*
X95833333Y-107359580D02*
X95785714Y-107407200D01*
X95785714Y-107407200D02*
X95642857Y-107454819D01*
X95642857Y-107454819D02*
X95547619Y-107454819D01*
X95547619Y-107454819D02*
X95404762Y-107407200D01*
X95404762Y-107407200D02*
X95309524Y-107311961D01*
X95309524Y-107311961D02*
X95261905Y-107216723D01*
X95261905Y-107216723D02*
X95214286Y-107026247D01*
X95214286Y-107026247D02*
X95214286Y-106883390D01*
X95214286Y-106883390D02*
X95261905Y-106692914D01*
X95261905Y-106692914D02*
X95309524Y-106597676D01*
X95309524Y-106597676D02*
X95404762Y-106502438D01*
X95404762Y-106502438D02*
X95547619Y-106454819D01*
X95547619Y-106454819D02*
X95642857Y-106454819D01*
X95642857Y-106454819D02*
X95785714Y-106502438D01*
X95785714Y-106502438D02*
X95833333Y-106550057D01*
X96690476Y-106454819D02*
X96500000Y-106454819D01*
X96500000Y-106454819D02*
X96404762Y-106502438D01*
X96404762Y-106502438D02*
X96357143Y-106550057D01*
X96357143Y-106550057D02*
X96261905Y-106692914D01*
X96261905Y-106692914D02*
X96214286Y-106883390D01*
X96214286Y-106883390D02*
X96214286Y-107264342D01*
X96214286Y-107264342D02*
X96261905Y-107359580D01*
X96261905Y-107359580D02*
X96309524Y-107407200D01*
X96309524Y-107407200D02*
X96404762Y-107454819D01*
X96404762Y-107454819D02*
X96595238Y-107454819D01*
X96595238Y-107454819D02*
X96690476Y-107407200D01*
X96690476Y-107407200D02*
X96738095Y-107359580D01*
X96738095Y-107359580D02*
X96785714Y-107264342D01*
X96785714Y-107264342D02*
X96785714Y-107026247D01*
X96785714Y-107026247D02*
X96738095Y-106931009D01*
X96738095Y-106931009D02*
X96690476Y-106883390D01*
X96690476Y-106883390D02*
X96595238Y-106835771D01*
X96595238Y-106835771D02*
X96404762Y-106835771D01*
X96404762Y-106835771D02*
X96309524Y-106883390D01*
X96309524Y-106883390D02*
X96261905Y-106931009D01*
X96261905Y-106931009D02*
X96214286Y-107026247D01*
X97454819Y-112026785D02*
X97454819Y-111931547D01*
X97454819Y-111931547D02*
X97502438Y-111836309D01*
X97502438Y-111836309D02*
X97550057Y-111788690D01*
X97550057Y-111788690D02*
X97645295Y-111741071D01*
X97645295Y-111741071D02*
X97835771Y-111693452D01*
X97835771Y-111693452D02*
X98073866Y-111693452D01*
X98073866Y-111693452D02*
X98264342Y-111741071D01*
X98264342Y-111741071D02*
X98359580Y-111788690D01*
X98359580Y-111788690D02*
X98407200Y-111836309D01*
X98407200Y-111836309D02*
X98454819Y-111931547D01*
X98454819Y-111931547D02*
X98454819Y-112026785D01*
X98454819Y-112026785D02*
X98407200Y-112122023D01*
X98407200Y-112122023D02*
X98359580Y-112169642D01*
X98359580Y-112169642D02*
X98264342Y-112217261D01*
X98264342Y-112217261D02*
X98073866Y-112264880D01*
X98073866Y-112264880D02*
X97835771Y-112264880D01*
X97835771Y-112264880D02*
X97645295Y-112217261D01*
X97645295Y-112217261D02*
X97550057Y-112169642D01*
X97550057Y-112169642D02*
X97502438Y-112122023D01*
X97502438Y-112122023D02*
X97454819Y-112026785D01*
X98359580Y-111264880D02*
X98407200Y-111217261D01*
X98407200Y-111217261D02*
X98454819Y-111264880D01*
X98454819Y-111264880D02*
X98407200Y-111312499D01*
X98407200Y-111312499D02*
X98359580Y-111264880D01*
X98359580Y-111264880D02*
X98454819Y-111264880D01*
X98454819Y-110264881D02*
X98454819Y-110836309D01*
X98454819Y-110550595D02*
X97454819Y-110550595D01*
X97454819Y-110550595D02*
X97597676Y-110645833D01*
X97597676Y-110645833D02*
X97692914Y-110741071D01*
X97692914Y-110741071D02*
X97740533Y-110836309D01*
X97788152Y-109836309D02*
X98788152Y-109836309D01*
X98311961Y-109360119D02*
X98407200Y-109312500D01*
X98407200Y-109312500D02*
X98454819Y-109217262D01*
X98311961Y-109836309D02*
X98407200Y-109788690D01*
X98407200Y-109788690D02*
X98454819Y-109693452D01*
X98454819Y-109693452D02*
X98454819Y-109502976D01*
X98454819Y-109502976D02*
X98407200Y-109407738D01*
X98407200Y-109407738D02*
X98311961Y-109360119D01*
X98311961Y-109360119D02*
X97788152Y-109360119D01*
X97931009Y-108455357D02*
X97931009Y-108788690D01*
X98454819Y-108788690D02*
X97454819Y-108788690D01*
X97454819Y-108788690D02*
X97454819Y-108312500D01*
X91833333Y-107359580D02*
X91785714Y-107407200D01*
X91785714Y-107407200D02*
X91642857Y-107454819D01*
X91642857Y-107454819D02*
X91547619Y-107454819D01*
X91547619Y-107454819D02*
X91404762Y-107407200D01*
X91404762Y-107407200D02*
X91309524Y-107311961D01*
X91309524Y-107311961D02*
X91261905Y-107216723D01*
X91261905Y-107216723D02*
X91214286Y-107026247D01*
X91214286Y-107026247D02*
X91214286Y-106883390D01*
X91214286Y-106883390D02*
X91261905Y-106692914D01*
X91261905Y-106692914D02*
X91309524Y-106597676D01*
X91309524Y-106597676D02*
X91404762Y-106502438D01*
X91404762Y-106502438D02*
X91547619Y-106454819D01*
X91547619Y-106454819D02*
X91642857Y-106454819D01*
X91642857Y-106454819D02*
X91785714Y-106502438D01*
X91785714Y-106502438D02*
X91833333Y-106550057D01*
X92738095Y-106454819D02*
X92261905Y-106454819D01*
X92261905Y-106454819D02*
X92214286Y-106931009D01*
X92214286Y-106931009D02*
X92261905Y-106883390D01*
X92261905Y-106883390D02*
X92357143Y-106835771D01*
X92357143Y-106835771D02*
X92595238Y-106835771D01*
X92595238Y-106835771D02*
X92690476Y-106883390D01*
X92690476Y-106883390D02*
X92738095Y-106931009D01*
X92738095Y-106931009D02*
X92785714Y-107026247D01*
X92785714Y-107026247D02*
X92785714Y-107264342D01*
X92785714Y-107264342D02*
X92738095Y-107359580D01*
X92738095Y-107359580D02*
X92690476Y-107407200D01*
X92690476Y-107407200D02*
X92595238Y-107454819D01*
X92595238Y-107454819D02*
X92357143Y-107454819D01*
X92357143Y-107454819D02*
X92261905Y-107407200D01*
X92261905Y-107407200D02*
X92214286Y-107359580D01*
X94454819Y-110845238D02*
X94454819Y-111416666D01*
X94454819Y-111130952D02*
X93454819Y-111130952D01*
X93454819Y-111130952D02*
X93597676Y-111226190D01*
X93597676Y-111226190D02*
X93692914Y-111321428D01*
X93692914Y-111321428D02*
X93740533Y-111416666D01*
X93788152Y-110416666D02*
X94454819Y-110416666D01*
X93883390Y-110416666D02*
X93835771Y-110369047D01*
X93835771Y-110369047D02*
X93788152Y-110273809D01*
X93788152Y-110273809D02*
X93788152Y-110130952D01*
X93788152Y-110130952D02*
X93835771Y-110035714D01*
X93835771Y-110035714D02*
X93931009Y-109988095D01*
X93931009Y-109988095D02*
X94454819Y-109988095D01*
X93931009Y-109178571D02*
X93931009Y-109511904D01*
X94454819Y-109511904D02*
X93454819Y-109511904D01*
X93454819Y-109511904D02*
X93454819Y-109035714D01*
X99075833Y-64514819D02*
X98742500Y-64038628D01*
X98504405Y-64514819D02*
X98504405Y-63514819D01*
X98504405Y-63514819D02*
X98885357Y-63514819D01*
X98885357Y-63514819D02*
X98980595Y-63562438D01*
X98980595Y-63562438D02*
X99028214Y-63610057D01*
X99028214Y-63610057D02*
X99075833Y-63705295D01*
X99075833Y-63705295D02*
X99075833Y-63848152D01*
X99075833Y-63848152D02*
X99028214Y-63943390D01*
X99028214Y-63943390D02*
X98980595Y-63991009D01*
X98980595Y-63991009D02*
X98885357Y-64038628D01*
X98885357Y-64038628D02*
X98504405Y-64038628D01*
X99409167Y-63514819D02*
X100075833Y-63514819D01*
X100075833Y-63514819D02*
X99647262Y-64514819D01*
X100334819Y-69566190D02*
X100334819Y-69756666D01*
X100334819Y-69756666D02*
X100382438Y-69851904D01*
X100382438Y-69851904D02*
X100430057Y-69899523D01*
X100430057Y-69899523D02*
X100572914Y-69994761D01*
X100572914Y-69994761D02*
X100763390Y-70042380D01*
X100763390Y-70042380D02*
X101144342Y-70042380D01*
X101144342Y-70042380D02*
X101239580Y-69994761D01*
X101239580Y-69994761D02*
X101287200Y-69947142D01*
X101287200Y-69947142D02*
X101334819Y-69851904D01*
X101334819Y-69851904D02*
X101334819Y-69661428D01*
X101334819Y-69661428D02*
X101287200Y-69566190D01*
X101287200Y-69566190D02*
X101239580Y-69518571D01*
X101239580Y-69518571D02*
X101144342Y-69470952D01*
X101144342Y-69470952D02*
X100906247Y-69470952D01*
X100906247Y-69470952D02*
X100811009Y-69518571D01*
X100811009Y-69518571D02*
X100763390Y-69566190D01*
X100763390Y-69566190D02*
X100715771Y-69661428D01*
X100715771Y-69661428D02*
X100715771Y-69851904D01*
X100715771Y-69851904D02*
X100763390Y-69947142D01*
X100763390Y-69947142D02*
X100811009Y-69994761D01*
X100811009Y-69994761D02*
X100906247Y-70042380D01*
X101239580Y-69042380D02*
X101287200Y-68994761D01*
X101287200Y-68994761D02*
X101334819Y-69042380D01*
X101334819Y-69042380D02*
X101287200Y-69089999D01*
X101287200Y-69089999D02*
X101239580Y-69042380D01*
X101239580Y-69042380D02*
X101334819Y-69042380D01*
X100334819Y-68137619D02*
X100334819Y-68328095D01*
X100334819Y-68328095D02*
X100382438Y-68423333D01*
X100382438Y-68423333D02*
X100430057Y-68470952D01*
X100430057Y-68470952D02*
X100572914Y-68566190D01*
X100572914Y-68566190D02*
X100763390Y-68613809D01*
X100763390Y-68613809D02*
X101144342Y-68613809D01*
X101144342Y-68613809D02*
X101239580Y-68566190D01*
X101239580Y-68566190D02*
X101287200Y-68518571D01*
X101287200Y-68518571D02*
X101334819Y-68423333D01*
X101334819Y-68423333D02*
X101334819Y-68232857D01*
X101334819Y-68232857D02*
X101287200Y-68137619D01*
X101287200Y-68137619D02*
X101239580Y-68090000D01*
X101239580Y-68090000D02*
X101144342Y-68042381D01*
X101144342Y-68042381D02*
X100906247Y-68042381D01*
X100906247Y-68042381D02*
X100811009Y-68090000D01*
X100811009Y-68090000D02*
X100763390Y-68137619D01*
X100763390Y-68137619D02*
X100715771Y-68232857D01*
X100715771Y-68232857D02*
X100715771Y-68423333D01*
X100715771Y-68423333D02*
X100763390Y-68518571D01*
X100763390Y-68518571D02*
X100811009Y-68566190D01*
X100811009Y-68566190D02*
X100906247Y-68613809D01*
X100334819Y-67137619D02*
X100334819Y-67613809D01*
X100334819Y-67613809D02*
X100811009Y-67661428D01*
X100811009Y-67661428D02*
X100763390Y-67613809D01*
X100763390Y-67613809D02*
X100715771Y-67518571D01*
X100715771Y-67518571D02*
X100715771Y-67280476D01*
X100715771Y-67280476D02*
X100763390Y-67185238D01*
X100763390Y-67185238D02*
X100811009Y-67137619D01*
X100811009Y-67137619D02*
X100906247Y-67090000D01*
X100906247Y-67090000D02*
X101144342Y-67090000D01*
X101144342Y-67090000D02*
X101239580Y-67137619D01*
X101239580Y-67137619D02*
X101287200Y-67185238D01*
X101287200Y-67185238D02*
X101334819Y-67280476D01*
X101334819Y-67280476D02*
X101334819Y-67518571D01*
X101334819Y-67518571D02*
X101287200Y-67613809D01*
X101287200Y-67613809D02*
X101239580Y-67661428D01*
X101334819Y-66661428D02*
X100334819Y-66661428D01*
X100953866Y-66566190D02*
X101334819Y-66280476D01*
X100668152Y-66280476D02*
X101049104Y-66661428D01*
X101334819Y-65899523D02*
X101334819Y-65661428D01*
X101334819Y-65661428D02*
X101144342Y-65661428D01*
X101144342Y-65661428D02*
X101096723Y-65756666D01*
X101096723Y-65756666D02*
X101001485Y-65851904D01*
X101001485Y-65851904D02*
X100858628Y-65899523D01*
X100858628Y-65899523D02*
X100620533Y-65899523D01*
X100620533Y-65899523D02*
X100477676Y-65851904D01*
X100477676Y-65851904D02*
X100382438Y-65756666D01*
X100382438Y-65756666D02*
X100334819Y-65613809D01*
X100334819Y-65613809D02*
X100334819Y-65423333D01*
X100334819Y-65423333D02*
X100382438Y-65280476D01*
X100382438Y-65280476D02*
X100477676Y-65185238D01*
X100477676Y-65185238D02*
X100620533Y-65137619D01*
X100620533Y-65137619D02*
X100858628Y-65137619D01*
X100858628Y-65137619D02*
X101001485Y-65185238D01*
X101001485Y-65185238D02*
X101096723Y-65280476D01*
X101096723Y-65280476D02*
X101144342Y-65375714D01*
X101144342Y-65375714D02*
X101334819Y-65375714D01*
X101334819Y-65375714D02*
X101334819Y-65137619D01*
X102703333Y-64359580D02*
X102655714Y-64407200D01*
X102655714Y-64407200D02*
X102512857Y-64454819D01*
X102512857Y-64454819D02*
X102417619Y-64454819D01*
X102417619Y-64454819D02*
X102274762Y-64407200D01*
X102274762Y-64407200D02*
X102179524Y-64311961D01*
X102179524Y-64311961D02*
X102131905Y-64216723D01*
X102131905Y-64216723D02*
X102084286Y-64026247D01*
X102084286Y-64026247D02*
X102084286Y-63883390D01*
X102084286Y-63883390D02*
X102131905Y-63692914D01*
X102131905Y-63692914D02*
X102179524Y-63597676D01*
X102179524Y-63597676D02*
X102274762Y-63502438D01*
X102274762Y-63502438D02*
X102417619Y-63454819D01*
X102417619Y-63454819D02*
X102512857Y-63454819D01*
X102512857Y-63454819D02*
X102655714Y-63502438D01*
X102655714Y-63502438D02*
X102703333Y-63550057D01*
X103036667Y-63454819D02*
X103655714Y-63454819D01*
X103655714Y-63454819D02*
X103322381Y-63835771D01*
X103322381Y-63835771D02*
X103465238Y-63835771D01*
X103465238Y-63835771D02*
X103560476Y-63883390D01*
X103560476Y-63883390D02*
X103608095Y-63931009D01*
X103608095Y-63931009D02*
X103655714Y-64026247D01*
X103655714Y-64026247D02*
X103655714Y-64264342D01*
X103655714Y-64264342D02*
X103608095Y-64359580D01*
X103608095Y-64359580D02*
X103560476Y-64407200D01*
X103560476Y-64407200D02*
X103465238Y-64454819D01*
X103465238Y-64454819D02*
X103179524Y-64454819D01*
X103179524Y-64454819D02*
X103084286Y-64407200D01*
X103084286Y-64407200D02*
X103036667Y-64359580D01*
X104229819Y-69304285D02*
X104229819Y-69209047D01*
X104229819Y-69209047D02*
X104277438Y-69113809D01*
X104277438Y-69113809D02*
X104325057Y-69066190D01*
X104325057Y-69066190D02*
X104420295Y-69018571D01*
X104420295Y-69018571D02*
X104610771Y-68970952D01*
X104610771Y-68970952D02*
X104848866Y-68970952D01*
X104848866Y-68970952D02*
X105039342Y-69018571D01*
X105039342Y-69018571D02*
X105134580Y-69066190D01*
X105134580Y-69066190D02*
X105182200Y-69113809D01*
X105182200Y-69113809D02*
X105229819Y-69209047D01*
X105229819Y-69209047D02*
X105229819Y-69304285D01*
X105229819Y-69304285D02*
X105182200Y-69399523D01*
X105182200Y-69399523D02*
X105134580Y-69447142D01*
X105134580Y-69447142D02*
X105039342Y-69494761D01*
X105039342Y-69494761D02*
X104848866Y-69542380D01*
X104848866Y-69542380D02*
X104610771Y-69542380D01*
X104610771Y-69542380D02*
X104420295Y-69494761D01*
X104420295Y-69494761D02*
X104325057Y-69447142D01*
X104325057Y-69447142D02*
X104277438Y-69399523D01*
X104277438Y-69399523D02*
X104229819Y-69304285D01*
X105134580Y-68542380D02*
X105182200Y-68494761D01*
X105182200Y-68494761D02*
X105229819Y-68542380D01*
X105229819Y-68542380D02*
X105182200Y-68589999D01*
X105182200Y-68589999D02*
X105134580Y-68542380D01*
X105134580Y-68542380D02*
X105229819Y-68542380D01*
X105229819Y-67542381D02*
X105229819Y-68113809D01*
X105229819Y-67828095D02*
X104229819Y-67828095D01*
X104229819Y-67828095D02*
X104372676Y-67923333D01*
X104372676Y-67923333D02*
X104467914Y-68018571D01*
X104467914Y-68018571D02*
X104515533Y-68113809D01*
X104563152Y-67113809D02*
X105563152Y-67113809D01*
X105086961Y-66637619D02*
X105182200Y-66590000D01*
X105182200Y-66590000D02*
X105229819Y-66494762D01*
X105086961Y-67113809D02*
X105182200Y-67066190D01*
X105182200Y-67066190D02*
X105229819Y-66970952D01*
X105229819Y-66970952D02*
X105229819Y-66780476D01*
X105229819Y-66780476D02*
X105182200Y-66685238D01*
X105182200Y-66685238D02*
X105086961Y-66637619D01*
X105086961Y-66637619D02*
X104563152Y-66637619D01*
X104706009Y-65732857D02*
X104706009Y-66066190D01*
X105229819Y-66066190D02*
X104229819Y-66066190D01*
X104229819Y-66066190D02*
X104229819Y-65590000D01*
X97074761Y-85180057D02*
X96979523Y-85132438D01*
X96979523Y-85132438D02*
X96884285Y-85037200D01*
X96884285Y-85037200D02*
X96741428Y-84894342D01*
X96741428Y-84894342D02*
X96646190Y-84846723D01*
X96646190Y-84846723D02*
X96550952Y-84846723D01*
X96598571Y-85084819D02*
X96503333Y-85037200D01*
X96503333Y-85037200D02*
X96408095Y-84941961D01*
X96408095Y-84941961D02*
X96360476Y-84751485D01*
X96360476Y-84751485D02*
X96360476Y-84418152D01*
X96360476Y-84418152D02*
X96408095Y-84227676D01*
X96408095Y-84227676D02*
X96503333Y-84132438D01*
X96503333Y-84132438D02*
X96598571Y-84084819D01*
X96598571Y-84084819D02*
X96789047Y-84084819D01*
X96789047Y-84084819D02*
X96884285Y-84132438D01*
X96884285Y-84132438D02*
X96979523Y-84227676D01*
X96979523Y-84227676D02*
X97027142Y-84418152D01*
X97027142Y-84418152D02*
X97027142Y-84751485D01*
X97027142Y-84751485D02*
X96979523Y-84941961D01*
X96979523Y-84941961D02*
X96884285Y-85037200D01*
X96884285Y-85037200D02*
X96789047Y-85084819D01*
X96789047Y-85084819D02*
X96598571Y-85084819D01*
X97979523Y-85084819D02*
X97408095Y-85084819D01*
X97693809Y-85084819D02*
X97693809Y-84084819D01*
X97693809Y-84084819D02*
X97598571Y-84227676D01*
X97598571Y-84227676D02*
X97503333Y-84322914D01*
X97503333Y-84322914D02*
X97408095Y-84370533D01*
X149526666Y-60184819D02*
X149526666Y-60899104D01*
X149526666Y-60899104D02*
X149479047Y-61041961D01*
X149479047Y-61041961D02*
X149383809Y-61137200D01*
X149383809Y-61137200D02*
X149240952Y-61184819D01*
X149240952Y-61184819D02*
X149145714Y-61184819D01*
X150431428Y-60184819D02*
X150240952Y-60184819D01*
X150240952Y-60184819D02*
X150145714Y-60232438D01*
X150145714Y-60232438D02*
X150098095Y-60280057D01*
X150098095Y-60280057D02*
X150002857Y-60422914D01*
X150002857Y-60422914D02*
X149955238Y-60613390D01*
X149955238Y-60613390D02*
X149955238Y-60994342D01*
X149955238Y-60994342D02*
X150002857Y-61089580D01*
X150002857Y-61089580D02*
X150050476Y-61137200D01*
X150050476Y-61137200D02*
X150145714Y-61184819D01*
X150145714Y-61184819D02*
X150336190Y-61184819D01*
X150336190Y-61184819D02*
X150431428Y-61137200D01*
X150431428Y-61137200D02*
X150479047Y-61089580D01*
X150479047Y-61089580D02*
X150526666Y-60994342D01*
X150526666Y-60994342D02*
X150526666Y-60756247D01*
X150526666Y-60756247D02*
X150479047Y-60661009D01*
X150479047Y-60661009D02*
X150431428Y-60613390D01*
X150431428Y-60613390D02*
X150336190Y-60565771D01*
X150336190Y-60565771D02*
X150145714Y-60565771D01*
X150145714Y-60565771D02*
X150050476Y-60613390D01*
X150050476Y-60613390D02*
X150002857Y-60661009D01*
X150002857Y-60661009D02*
X149955238Y-60756247D01*
X84771666Y-106134819D02*
X84771666Y-106849104D01*
X84771666Y-106849104D02*
X84724047Y-106991961D01*
X84724047Y-106991961D02*
X84628809Y-107087200D01*
X84628809Y-107087200D02*
X84485952Y-107134819D01*
X84485952Y-107134819D02*
X84390714Y-107134819D01*
X85771666Y-107134819D02*
X85200238Y-107134819D01*
X85485952Y-107134819D02*
X85485952Y-106134819D01*
X85485952Y-106134819D02*
X85390714Y-106277676D01*
X85390714Y-106277676D02*
X85295476Y-106372914D01*
X85295476Y-106372914D02*
X85200238Y-106420533D01*
X87463333Y-64589819D02*
X87130000Y-64113628D01*
X86891905Y-64589819D02*
X86891905Y-63589819D01*
X86891905Y-63589819D02*
X87272857Y-63589819D01*
X87272857Y-63589819D02*
X87368095Y-63637438D01*
X87368095Y-63637438D02*
X87415714Y-63685057D01*
X87415714Y-63685057D02*
X87463333Y-63780295D01*
X87463333Y-63780295D02*
X87463333Y-63923152D01*
X87463333Y-63923152D02*
X87415714Y-64018390D01*
X87415714Y-64018390D02*
X87368095Y-64066009D01*
X87368095Y-64066009D02*
X87272857Y-64113628D01*
X87272857Y-64113628D02*
X86891905Y-64113628D01*
X87844286Y-63685057D02*
X87891905Y-63637438D01*
X87891905Y-63637438D02*
X87987143Y-63589819D01*
X87987143Y-63589819D02*
X88225238Y-63589819D01*
X88225238Y-63589819D02*
X88320476Y-63637438D01*
X88320476Y-63637438D02*
X88368095Y-63685057D01*
X88368095Y-63685057D02*
X88415714Y-63780295D01*
X88415714Y-63780295D02*
X88415714Y-63875533D01*
X88415714Y-63875533D02*
X88368095Y-64018390D01*
X88368095Y-64018390D02*
X87796667Y-64589819D01*
X87796667Y-64589819D02*
X88415714Y-64589819D01*
X88904819Y-68899523D02*
X88904819Y-68280476D01*
X88904819Y-68280476D02*
X89285771Y-68613809D01*
X89285771Y-68613809D02*
X89285771Y-68470952D01*
X89285771Y-68470952D02*
X89333390Y-68375714D01*
X89333390Y-68375714D02*
X89381009Y-68328095D01*
X89381009Y-68328095D02*
X89476247Y-68280476D01*
X89476247Y-68280476D02*
X89714342Y-68280476D01*
X89714342Y-68280476D02*
X89809580Y-68328095D01*
X89809580Y-68328095D02*
X89857200Y-68375714D01*
X89857200Y-68375714D02*
X89904819Y-68470952D01*
X89904819Y-68470952D02*
X89904819Y-68756666D01*
X89904819Y-68756666D02*
X89857200Y-68851904D01*
X89857200Y-68851904D02*
X89809580Y-68899523D01*
X89904819Y-67851904D02*
X88904819Y-67851904D01*
X89523866Y-67756666D02*
X89904819Y-67470952D01*
X89238152Y-67470952D02*
X89619104Y-67851904D01*
X89904819Y-67089999D02*
X89904819Y-66851904D01*
X89904819Y-66851904D02*
X89714342Y-66851904D01*
X89714342Y-66851904D02*
X89666723Y-66947142D01*
X89666723Y-66947142D02*
X89571485Y-67042380D01*
X89571485Y-67042380D02*
X89428628Y-67089999D01*
X89428628Y-67089999D02*
X89190533Y-67089999D01*
X89190533Y-67089999D02*
X89047676Y-67042380D01*
X89047676Y-67042380D02*
X88952438Y-66947142D01*
X88952438Y-66947142D02*
X88904819Y-66804285D01*
X88904819Y-66804285D02*
X88904819Y-66613809D01*
X88904819Y-66613809D02*
X88952438Y-66470952D01*
X88952438Y-66470952D02*
X89047676Y-66375714D01*
X89047676Y-66375714D02*
X89190533Y-66328095D01*
X89190533Y-66328095D02*
X89428628Y-66328095D01*
X89428628Y-66328095D02*
X89571485Y-66375714D01*
X89571485Y-66375714D02*
X89666723Y-66470952D01*
X89666723Y-66470952D02*
X89714342Y-66566190D01*
X89714342Y-66566190D02*
X89904819Y-66566190D01*
X89904819Y-66566190D02*
X89904819Y-66328095D01*
X111751666Y-106134819D02*
X111751666Y-106849104D01*
X111751666Y-106849104D02*
X111704047Y-106991961D01*
X111704047Y-106991961D02*
X111608809Y-107087200D01*
X111608809Y-107087200D02*
X111465952Y-107134819D01*
X111465952Y-107134819D02*
X111370714Y-107134819D01*
X112180238Y-106230057D02*
X112227857Y-106182438D01*
X112227857Y-106182438D02*
X112323095Y-106134819D01*
X112323095Y-106134819D02*
X112561190Y-106134819D01*
X112561190Y-106134819D02*
X112656428Y-106182438D01*
X112656428Y-106182438D02*
X112704047Y-106230057D01*
X112704047Y-106230057D02*
X112751666Y-106325295D01*
X112751666Y-106325295D02*
X112751666Y-106420533D01*
X112751666Y-106420533D02*
X112704047Y-106563390D01*
X112704047Y-106563390D02*
X112132619Y-107134819D01*
X112132619Y-107134819D02*
X112751666Y-107134819D01*
X96393095Y-72019819D02*
X96393095Y-72829342D01*
X96393095Y-72829342D02*
X96440714Y-72924580D01*
X96440714Y-72924580D02*
X96488333Y-72972200D01*
X96488333Y-72972200D02*
X96583571Y-73019819D01*
X96583571Y-73019819D02*
X96774047Y-73019819D01*
X96774047Y-73019819D02*
X96869285Y-72972200D01*
X96869285Y-72972200D02*
X96916904Y-72924580D01*
X96916904Y-72924580D02*
X96964523Y-72829342D01*
X96964523Y-72829342D02*
X96964523Y-72019819D01*
X97964523Y-73019819D02*
X97393095Y-73019819D01*
X97678809Y-73019819D02*
X97678809Y-72019819D01*
X97678809Y-72019819D02*
X97583571Y-72162676D01*
X97583571Y-72162676D02*
X97488333Y-72257914D01*
X97488333Y-72257914D02*
X97393095Y-72305533D01*
X171283333Y-64589819D02*
X170950000Y-64113628D01*
X170711905Y-64589819D02*
X170711905Y-63589819D01*
X170711905Y-63589819D02*
X171092857Y-63589819D01*
X171092857Y-63589819D02*
X171188095Y-63637438D01*
X171188095Y-63637438D02*
X171235714Y-63685057D01*
X171235714Y-63685057D02*
X171283333Y-63780295D01*
X171283333Y-63780295D02*
X171283333Y-63923152D01*
X171283333Y-63923152D02*
X171235714Y-64018390D01*
X171235714Y-64018390D02*
X171188095Y-64066009D01*
X171188095Y-64066009D02*
X171092857Y-64113628D01*
X171092857Y-64113628D02*
X170711905Y-64113628D01*
X172140476Y-63589819D02*
X171950000Y-63589819D01*
X171950000Y-63589819D02*
X171854762Y-63637438D01*
X171854762Y-63637438D02*
X171807143Y-63685057D01*
X171807143Y-63685057D02*
X171711905Y-63827914D01*
X171711905Y-63827914D02*
X171664286Y-64018390D01*
X171664286Y-64018390D02*
X171664286Y-64399342D01*
X171664286Y-64399342D02*
X171711905Y-64494580D01*
X171711905Y-64494580D02*
X171759524Y-64542200D01*
X171759524Y-64542200D02*
X171854762Y-64589819D01*
X171854762Y-64589819D02*
X172045238Y-64589819D01*
X172045238Y-64589819D02*
X172140476Y-64542200D01*
X172140476Y-64542200D02*
X172188095Y-64494580D01*
X172188095Y-64494580D02*
X172235714Y-64399342D01*
X172235714Y-64399342D02*
X172235714Y-64161247D01*
X172235714Y-64161247D02*
X172188095Y-64066009D01*
X172188095Y-64066009D02*
X172140476Y-64018390D01*
X172140476Y-64018390D02*
X172045238Y-63970771D01*
X172045238Y-63970771D02*
X171854762Y-63970771D01*
X171854762Y-63970771D02*
X171759524Y-64018390D01*
X171759524Y-64018390D02*
X171711905Y-64066009D01*
X171711905Y-64066009D02*
X171664286Y-64161247D01*
X172809819Y-68328095D02*
X172809819Y-68804285D01*
X172809819Y-68804285D02*
X173286009Y-68851904D01*
X173286009Y-68851904D02*
X173238390Y-68804285D01*
X173238390Y-68804285D02*
X173190771Y-68709047D01*
X173190771Y-68709047D02*
X173190771Y-68470952D01*
X173190771Y-68470952D02*
X173238390Y-68375714D01*
X173238390Y-68375714D02*
X173286009Y-68328095D01*
X173286009Y-68328095D02*
X173381247Y-68280476D01*
X173381247Y-68280476D02*
X173619342Y-68280476D01*
X173619342Y-68280476D02*
X173714580Y-68328095D01*
X173714580Y-68328095D02*
X173762200Y-68375714D01*
X173762200Y-68375714D02*
X173809819Y-68470952D01*
X173809819Y-68470952D02*
X173809819Y-68709047D01*
X173809819Y-68709047D02*
X173762200Y-68804285D01*
X173762200Y-68804285D02*
X173714580Y-68851904D01*
X173809819Y-67851904D02*
X172809819Y-67851904D01*
X173428866Y-67756666D02*
X173809819Y-67470952D01*
X173143152Y-67470952D02*
X173524104Y-67851904D01*
X173809819Y-67089999D02*
X173809819Y-66851904D01*
X173809819Y-66851904D02*
X173619342Y-66851904D01*
X173619342Y-66851904D02*
X173571723Y-66947142D01*
X173571723Y-66947142D02*
X173476485Y-67042380D01*
X173476485Y-67042380D02*
X173333628Y-67089999D01*
X173333628Y-67089999D02*
X173095533Y-67089999D01*
X173095533Y-67089999D02*
X172952676Y-67042380D01*
X172952676Y-67042380D02*
X172857438Y-66947142D01*
X172857438Y-66947142D02*
X172809819Y-66804285D01*
X172809819Y-66804285D02*
X172809819Y-66613809D01*
X172809819Y-66613809D02*
X172857438Y-66470952D01*
X172857438Y-66470952D02*
X172952676Y-66375714D01*
X172952676Y-66375714D02*
X173095533Y-66328095D01*
X173095533Y-66328095D02*
X173333628Y-66328095D01*
X173333628Y-66328095D02*
X173476485Y-66375714D01*
X173476485Y-66375714D02*
X173571723Y-66470952D01*
X173571723Y-66470952D02*
X173619342Y-66566190D01*
X173619342Y-66566190D02*
X173809819Y-66566190D01*
X173809819Y-66566190D02*
X173809819Y-66328095D01*
X117943333Y-64494580D02*
X117895714Y-64542200D01*
X117895714Y-64542200D02*
X117752857Y-64589819D01*
X117752857Y-64589819D02*
X117657619Y-64589819D01*
X117657619Y-64589819D02*
X117514762Y-64542200D01*
X117514762Y-64542200D02*
X117419524Y-64446961D01*
X117419524Y-64446961D02*
X117371905Y-64351723D01*
X117371905Y-64351723D02*
X117324286Y-64161247D01*
X117324286Y-64161247D02*
X117324286Y-64018390D01*
X117324286Y-64018390D02*
X117371905Y-63827914D01*
X117371905Y-63827914D02*
X117419524Y-63732676D01*
X117419524Y-63732676D02*
X117514762Y-63637438D01*
X117514762Y-63637438D02*
X117657619Y-63589819D01*
X117657619Y-63589819D02*
X117752857Y-63589819D01*
X117752857Y-63589819D02*
X117895714Y-63637438D01*
X117895714Y-63637438D02*
X117943333Y-63685057D01*
X118800476Y-63923152D02*
X118800476Y-64589819D01*
X118562381Y-63542200D02*
X118324286Y-64256485D01*
X118324286Y-64256485D02*
X118943333Y-64256485D01*
X119469819Y-69304285D02*
X119469819Y-69209047D01*
X119469819Y-69209047D02*
X119517438Y-69113809D01*
X119517438Y-69113809D02*
X119565057Y-69066190D01*
X119565057Y-69066190D02*
X119660295Y-69018571D01*
X119660295Y-69018571D02*
X119850771Y-68970952D01*
X119850771Y-68970952D02*
X120088866Y-68970952D01*
X120088866Y-68970952D02*
X120279342Y-69018571D01*
X120279342Y-69018571D02*
X120374580Y-69066190D01*
X120374580Y-69066190D02*
X120422200Y-69113809D01*
X120422200Y-69113809D02*
X120469819Y-69209047D01*
X120469819Y-69209047D02*
X120469819Y-69304285D01*
X120469819Y-69304285D02*
X120422200Y-69399523D01*
X120422200Y-69399523D02*
X120374580Y-69447142D01*
X120374580Y-69447142D02*
X120279342Y-69494761D01*
X120279342Y-69494761D02*
X120088866Y-69542380D01*
X120088866Y-69542380D02*
X119850771Y-69542380D01*
X119850771Y-69542380D02*
X119660295Y-69494761D01*
X119660295Y-69494761D02*
X119565057Y-69447142D01*
X119565057Y-69447142D02*
X119517438Y-69399523D01*
X119517438Y-69399523D02*
X119469819Y-69304285D01*
X120374580Y-68542380D02*
X120422200Y-68494761D01*
X120422200Y-68494761D02*
X120469819Y-68542380D01*
X120469819Y-68542380D02*
X120422200Y-68589999D01*
X120422200Y-68589999D02*
X120374580Y-68542380D01*
X120374580Y-68542380D02*
X120469819Y-68542380D01*
X120469819Y-67542381D02*
X120469819Y-68113809D01*
X120469819Y-67828095D02*
X119469819Y-67828095D01*
X119469819Y-67828095D02*
X119612676Y-67923333D01*
X119612676Y-67923333D02*
X119707914Y-68018571D01*
X119707914Y-68018571D02*
X119755533Y-68113809D01*
X119803152Y-67113809D02*
X120803152Y-67113809D01*
X120326961Y-66637619D02*
X120422200Y-66590000D01*
X120422200Y-66590000D02*
X120469819Y-66494762D01*
X120326961Y-67113809D02*
X120422200Y-67066190D01*
X120422200Y-67066190D02*
X120469819Y-66970952D01*
X120469819Y-66970952D02*
X120469819Y-66780476D01*
X120469819Y-66780476D02*
X120422200Y-66685238D01*
X120422200Y-66685238D02*
X120326961Y-66637619D01*
X120326961Y-66637619D02*
X119803152Y-66637619D01*
X119946009Y-65732857D02*
X119946009Y-66066190D01*
X120469819Y-66066190D02*
X119469819Y-66066190D01*
X119469819Y-66066190D02*
X119469819Y-65590000D01*
X91273333Y-64494580D02*
X91225714Y-64542200D01*
X91225714Y-64542200D02*
X91082857Y-64589819D01*
X91082857Y-64589819D02*
X90987619Y-64589819D01*
X90987619Y-64589819D02*
X90844762Y-64542200D01*
X90844762Y-64542200D02*
X90749524Y-64446961D01*
X90749524Y-64446961D02*
X90701905Y-64351723D01*
X90701905Y-64351723D02*
X90654286Y-64161247D01*
X90654286Y-64161247D02*
X90654286Y-64018390D01*
X90654286Y-64018390D02*
X90701905Y-63827914D01*
X90701905Y-63827914D02*
X90749524Y-63732676D01*
X90749524Y-63732676D02*
X90844762Y-63637438D01*
X90844762Y-63637438D02*
X90987619Y-63589819D01*
X90987619Y-63589819D02*
X91082857Y-63589819D01*
X91082857Y-63589819D02*
X91225714Y-63637438D01*
X91225714Y-63637438D02*
X91273333Y-63685057D01*
X91654286Y-63685057D02*
X91701905Y-63637438D01*
X91701905Y-63637438D02*
X91797143Y-63589819D01*
X91797143Y-63589819D02*
X92035238Y-63589819D01*
X92035238Y-63589819D02*
X92130476Y-63637438D01*
X92130476Y-63637438D02*
X92178095Y-63685057D01*
X92178095Y-63685057D02*
X92225714Y-63780295D01*
X92225714Y-63780295D02*
X92225714Y-63875533D01*
X92225714Y-63875533D02*
X92178095Y-64018390D01*
X92178095Y-64018390D02*
X91606667Y-64589819D01*
X91606667Y-64589819D02*
X92225714Y-64589819D01*
X93744819Y-68256666D02*
X93744819Y-68828094D01*
X93744819Y-68542380D02*
X92744819Y-68542380D01*
X92744819Y-68542380D02*
X92887676Y-68637618D01*
X92887676Y-68637618D02*
X92982914Y-68732856D01*
X92982914Y-68732856D02*
X93030533Y-68828094D01*
X93078152Y-67828094D02*
X94078152Y-67828094D01*
X93601961Y-67351904D02*
X93697200Y-67304285D01*
X93697200Y-67304285D02*
X93744819Y-67209047D01*
X93601961Y-67828094D02*
X93697200Y-67780475D01*
X93697200Y-67780475D02*
X93744819Y-67685237D01*
X93744819Y-67685237D02*
X93744819Y-67494761D01*
X93744819Y-67494761D02*
X93697200Y-67399523D01*
X93697200Y-67399523D02*
X93601961Y-67351904D01*
X93601961Y-67351904D02*
X93078152Y-67351904D01*
X93221009Y-66447142D02*
X93221009Y-66780475D01*
X93744819Y-66780475D02*
X92744819Y-66780475D01*
X92744819Y-66780475D02*
X92744819Y-66304285D01*
X136445714Y-106849104D02*
X136921904Y-106849104D01*
X136350476Y-107134819D02*
X136683809Y-106134819D01*
X136683809Y-106134819D02*
X137017142Y-107134819D01*
X137874285Y-107134819D02*
X137302857Y-107134819D01*
X137588571Y-107134819D02*
X137588571Y-106134819D01*
X137588571Y-106134819D02*
X137493333Y-106277676D01*
X137493333Y-106277676D02*
X137398095Y-106372914D01*
X137398095Y-106372914D02*
X137302857Y-106420533D01*
X137329104Y-86645142D02*
X137329104Y-86168952D01*
X137614819Y-86740380D02*
X136614819Y-86407047D01*
X136614819Y-86407047D02*
X137614819Y-86073714D01*
X137614819Y-85740380D02*
X136948152Y-85740380D01*
X137138628Y-85740380D02*
X137043390Y-85692761D01*
X137043390Y-85692761D02*
X136995771Y-85645142D01*
X136995771Y-85645142D02*
X136948152Y-85549904D01*
X136948152Y-85549904D02*
X136948152Y-85454666D01*
X137614819Y-84692761D02*
X136614819Y-84692761D01*
X137567200Y-84692761D02*
X137614819Y-84787999D01*
X137614819Y-84787999D02*
X137614819Y-84978475D01*
X137614819Y-84978475D02*
X137567200Y-85073713D01*
X137567200Y-85073713D02*
X137519580Y-85121332D01*
X137519580Y-85121332D02*
X137424342Y-85168951D01*
X137424342Y-85168951D02*
X137138628Y-85168951D01*
X137138628Y-85168951D02*
X137043390Y-85121332D01*
X137043390Y-85121332D02*
X136995771Y-85073713D01*
X136995771Y-85073713D02*
X136948152Y-84978475D01*
X136948152Y-84978475D02*
X136948152Y-84787999D01*
X136948152Y-84787999D02*
X136995771Y-84692761D01*
X136948152Y-83787999D02*
X137614819Y-83787999D01*
X136948152Y-84216570D02*
X137471961Y-84216570D01*
X137471961Y-84216570D02*
X137567200Y-84168951D01*
X137567200Y-84168951D02*
X137614819Y-84073713D01*
X137614819Y-84073713D02*
X137614819Y-83930856D01*
X137614819Y-83930856D02*
X137567200Y-83835618D01*
X137567200Y-83835618D02*
X137519580Y-83787999D01*
X137614819Y-83311808D02*
X136948152Y-83311808D01*
X136614819Y-83311808D02*
X136662438Y-83359427D01*
X136662438Y-83359427D02*
X136710057Y-83311808D01*
X136710057Y-83311808D02*
X136662438Y-83264189D01*
X136662438Y-83264189D02*
X136614819Y-83311808D01*
X136614819Y-83311808D02*
X136710057Y-83311808D01*
X136948152Y-82835618D02*
X137614819Y-82835618D01*
X137043390Y-82835618D02*
X136995771Y-82787999D01*
X136995771Y-82787999D02*
X136948152Y-82692761D01*
X136948152Y-82692761D02*
X136948152Y-82549904D01*
X136948152Y-82549904D02*
X136995771Y-82454666D01*
X136995771Y-82454666D02*
X137091009Y-82407047D01*
X137091009Y-82407047D02*
X137614819Y-82407047D01*
X137614819Y-81787999D02*
X137567200Y-81883237D01*
X137567200Y-81883237D02*
X137519580Y-81930856D01*
X137519580Y-81930856D02*
X137424342Y-81978475D01*
X137424342Y-81978475D02*
X137138628Y-81978475D01*
X137138628Y-81978475D02*
X137043390Y-81930856D01*
X137043390Y-81930856D02*
X136995771Y-81883237D01*
X136995771Y-81883237D02*
X136948152Y-81787999D01*
X136948152Y-81787999D02*
X136948152Y-81645142D01*
X136948152Y-81645142D02*
X136995771Y-81549904D01*
X136995771Y-81549904D02*
X137043390Y-81502285D01*
X137043390Y-81502285D02*
X137138628Y-81454666D01*
X137138628Y-81454666D02*
X137424342Y-81454666D01*
X137424342Y-81454666D02*
X137519580Y-81502285D01*
X137519580Y-81502285D02*
X137567200Y-81549904D01*
X137567200Y-81549904D02*
X137614819Y-81645142D01*
X137614819Y-81645142D02*
X137614819Y-81787999D01*
X137614819Y-80264189D02*
X136614819Y-80264189D01*
X136614819Y-80264189D02*
X137614819Y-79692761D01*
X137614819Y-79692761D02*
X136614819Y-79692761D01*
X137614819Y-78787999D02*
X137091009Y-78787999D01*
X137091009Y-78787999D02*
X136995771Y-78835618D01*
X136995771Y-78835618D02*
X136948152Y-78930856D01*
X136948152Y-78930856D02*
X136948152Y-79121332D01*
X136948152Y-79121332D02*
X136995771Y-79216570D01*
X137567200Y-78787999D02*
X137614819Y-78883237D01*
X137614819Y-78883237D02*
X137614819Y-79121332D01*
X137614819Y-79121332D02*
X137567200Y-79216570D01*
X137567200Y-79216570D02*
X137471961Y-79264189D01*
X137471961Y-79264189D02*
X137376723Y-79264189D01*
X137376723Y-79264189D02*
X137281485Y-79216570D01*
X137281485Y-79216570D02*
X137233866Y-79121332D01*
X137233866Y-79121332D02*
X137233866Y-78883237D01*
X137233866Y-78883237D02*
X137186247Y-78787999D01*
X136948152Y-78311808D02*
X137614819Y-78311808D01*
X137043390Y-78311808D02*
X136995771Y-78264189D01*
X136995771Y-78264189D02*
X136948152Y-78168951D01*
X136948152Y-78168951D02*
X136948152Y-78026094D01*
X136948152Y-78026094D02*
X136995771Y-77930856D01*
X136995771Y-77930856D02*
X137091009Y-77883237D01*
X137091009Y-77883237D02*
X137614819Y-77883237D01*
X137614819Y-77264189D02*
X137567200Y-77359427D01*
X137567200Y-77359427D02*
X137519580Y-77407046D01*
X137519580Y-77407046D02*
X137424342Y-77454665D01*
X137424342Y-77454665D02*
X137138628Y-77454665D01*
X137138628Y-77454665D02*
X137043390Y-77407046D01*
X137043390Y-77407046D02*
X136995771Y-77359427D01*
X136995771Y-77359427D02*
X136948152Y-77264189D01*
X136948152Y-77264189D02*
X136948152Y-77121332D01*
X136948152Y-77121332D02*
X136995771Y-77026094D01*
X136995771Y-77026094D02*
X137043390Y-76978475D01*
X137043390Y-76978475D02*
X137138628Y-76930856D01*
X137138628Y-76930856D02*
X137424342Y-76930856D01*
X137424342Y-76930856D02*
X137519580Y-76978475D01*
X137519580Y-76978475D02*
X137567200Y-77026094D01*
X137567200Y-77026094D02*
X137614819Y-77121332D01*
X137614819Y-77121332D02*
X137614819Y-77264189D01*
X130990180Y-66778094D02*
X131990180Y-66778094D01*
X131990180Y-66778094D02*
X131990180Y-66539999D01*
X131990180Y-66539999D02*
X131942561Y-66397142D01*
X131942561Y-66397142D02*
X131847323Y-66301904D01*
X131847323Y-66301904D02*
X131752085Y-66254285D01*
X131752085Y-66254285D02*
X131561609Y-66206666D01*
X131561609Y-66206666D02*
X131418752Y-66206666D01*
X131418752Y-66206666D02*
X131228276Y-66254285D01*
X131228276Y-66254285D02*
X131133038Y-66301904D01*
X131133038Y-66301904D02*
X131037800Y-66397142D01*
X131037800Y-66397142D02*
X130990180Y-66539999D01*
X130990180Y-66539999D02*
X130990180Y-66778094D01*
X131990180Y-65587618D02*
X131990180Y-65492380D01*
X131990180Y-65492380D02*
X131942561Y-65397142D01*
X131942561Y-65397142D02*
X131894942Y-65349523D01*
X131894942Y-65349523D02*
X131799704Y-65301904D01*
X131799704Y-65301904D02*
X131609228Y-65254285D01*
X131609228Y-65254285D02*
X131371133Y-65254285D01*
X131371133Y-65254285D02*
X131180657Y-65301904D01*
X131180657Y-65301904D02*
X131085419Y-65349523D01*
X131085419Y-65349523D02*
X131037800Y-65397142D01*
X131037800Y-65397142D02*
X130990180Y-65492380D01*
X130990180Y-65492380D02*
X130990180Y-65587618D01*
X130990180Y-65587618D02*
X131037800Y-65682856D01*
X131037800Y-65682856D02*
X131085419Y-65730475D01*
X131085419Y-65730475D02*
X131180657Y-65778094D01*
X131180657Y-65778094D02*
X131371133Y-65825713D01*
X131371133Y-65825713D02*
X131609228Y-65825713D01*
X131609228Y-65825713D02*
X131799704Y-65778094D01*
X131799704Y-65778094D02*
X131894942Y-65730475D01*
X131894942Y-65730475D02*
X131942561Y-65682856D01*
X131942561Y-65682856D02*
X131990180Y-65587618D01*
X124126666Y-60184819D02*
X124126666Y-60899104D01*
X124126666Y-60899104D02*
X124079047Y-61041961D01*
X124079047Y-61041961D02*
X123983809Y-61137200D01*
X123983809Y-61137200D02*
X123840952Y-61184819D01*
X123840952Y-61184819D02*
X123745714Y-61184819D01*
X125079047Y-60184819D02*
X124602857Y-60184819D01*
X124602857Y-60184819D02*
X124555238Y-60661009D01*
X124555238Y-60661009D02*
X124602857Y-60613390D01*
X124602857Y-60613390D02*
X124698095Y-60565771D01*
X124698095Y-60565771D02*
X124936190Y-60565771D01*
X124936190Y-60565771D02*
X125031428Y-60613390D01*
X125031428Y-60613390D02*
X125079047Y-60661009D01*
X125079047Y-60661009D02*
X125126666Y-60756247D01*
X125126666Y-60756247D02*
X125126666Y-60994342D01*
X125126666Y-60994342D02*
X125079047Y-61089580D01*
X125079047Y-61089580D02*
X125031428Y-61137200D01*
X125031428Y-61137200D02*
X124936190Y-61184819D01*
X124936190Y-61184819D02*
X124698095Y-61184819D01*
X124698095Y-61184819D02*
X124602857Y-61137200D01*
X124602857Y-61137200D02*
X124555238Y-61089580D01*
X163663333Y-64589819D02*
X163330000Y-64113628D01*
X163091905Y-64589819D02*
X163091905Y-63589819D01*
X163091905Y-63589819D02*
X163472857Y-63589819D01*
X163472857Y-63589819D02*
X163568095Y-63637438D01*
X163568095Y-63637438D02*
X163615714Y-63685057D01*
X163615714Y-63685057D02*
X163663333Y-63780295D01*
X163663333Y-63780295D02*
X163663333Y-63923152D01*
X163663333Y-63923152D02*
X163615714Y-64018390D01*
X163615714Y-64018390D02*
X163568095Y-64066009D01*
X163568095Y-64066009D02*
X163472857Y-64113628D01*
X163472857Y-64113628D02*
X163091905Y-64113628D01*
X164520476Y-63923152D02*
X164520476Y-64589819D01*
X164282381Y-63542200D02*
X164044286Y-64256485D01*
X164044286Y-64256485D02*
X164663333Y-64256485D01*
X165189819Y-68328095D02*
X165189819Y-68804285D01*
X165189819Y-68804285D02*
X165666009Y-68851904D01*
X165666009Y-68851904D02*
X165618390Y-68804285D01*
X165618390Y-68804285D02*
X165570771Y-68709047D01*
X165570771Y-68709047D02*
X165570771Y-68470952D01*
X165570771Y-68470952D02*
X165618390Y-68375714D01*
X165618390Y-68375714D02*
X165666009Y-68328095D01*
X165666009Y-68328095D02*
X165761247Y-68280476D01*
X165761247Y-68280476D02*
X165999342Y-68280476D01*
X165999342Y-68280476D02*
X166094580Y-68328095D01*
X166094580Y-68328095D02*
X166142200Y-68375714D01*
X166142200Y-68375714D02*
X166189819Y-68470952D01*
X166189819Y-68470952D02*
X166189819Y-68709047D01*
X166189819Y-68709047D02*
X166142200Y-68804285D01*
X166142200Y-68804285D02*
X166094580Y-68851904D01*
X166189819Y-67851904D02*
X165189819Y-67851904D01*
X165808866Y-67756666D02*
X166189819Y-67470952D01*
X165523152Y-67470952D02*
X165904104Y-67851904D01*
X166189819Y-67089999D02*
X166189819Y-66851904D01*
X166189819Y-66851904D02*
X165999342Y-66851904D01*
X165999342Y-66851904D02*
X165951723Y-66947142D01*
X165951723Y-66947142D02*
X165856485Y-67042380D01*
X165856485Y-67042380D02*
X165713628Y-67089999D01*
X165713628Y-67089999D02*
X165475533Y-67089999D01*
X165475533Y-67089999D02*
X165332676Y-67042380D01*
X165332676Y-67042380D02*
X165237438Y-66947142D01*
X165237438Y-66947142D02*
X165189819Y-66804285D01*
X165189819Y-66804285D02*
X165189819Y-66613809D01*
X165189819Y-66613809D02*
X165237438Y-66470952D01*
X165237438Y-66470952D02*
X165332676Y-66375714D01*
X165332676Y-66375714D02*
X165475533Y-66328095D01*
X165475533Y-66328095D02*
X165713628Y-66328095D01*
X165713628Y-66328095D02*
X165856485Y-66375714D01*
X165856485Y-66375714D02*
X165951723Y-66470952D01*
X165951723Y-66470952D02*
X165999342Y-66566190D01*
X165999342Y-66566190D02*
X166189819Y-66566190D01*
X166189819Y-66566190D02*
X166189819Y-66328095D01*
X106513333Y-64589819D02*
X106180000Y-64113628D01*
X105941905Y-64589819D02*
X105941905Y-63589819D01*
X105941905Y-63589819D02*
X106322857Y-63589819D01*
X106322857Y-63589819D02*
X106418095Y-63637438D01*
X106418095Y-63637438D02*
X106465714Y-63685057D01*
X106465714Y-63685057D02*
X106513333Y-63780295D01*
X106513333Y-63780295D02*
X106513333Y-63923152D01*
X106513333Y-63923152D02*
X106465714Y-64018390D01*
X106465714Y-64018390D02*
X106418095Y-64066009D01*
X106418095Y-64066009D02*
X106322857Y-64113628D01*
X106322857Y-64113628D02*
X105941905Y-64113628D01*
X107084762Y-64018390D02*
X106989524Y-63970771D01*
X106989524Y-63970771D02*
X106941905Y-63923152D01*
X106941905Y-63923152D02*
X106894286Y-63827914D01*
X106894286Y-63827914D02*
X106894286Y-63780295D01*
X106894286Y-63780295D02*
X106941905Y-63685057D01*
X106941905Y-63685057D02*
X106989524Y-63637438D01*
X106989524Y-63637438D02*
X107084762Y-63589819D01*
X107084762Y-63589819D02*
X107275238Y-63589819D01*
X107275238Y-63589819D02*
X107370476Y-63637438D01*
X107370476Y-63637438D02*
X107418095Y-63685057D01*
X107418095Y-63685057D02*
X107465714Y-63780295D01*
X107465714Y-63780295D02*
X107465714Y-63827914D01*
X107465714Y-63827914D02*
X107418095Y-63923152D01*
X107418095Y-63923152D02*
X107370476Y-63970771D01*
X107370476Y-63970771D02*
X107275238Y-64018390D01*
X107275238Y-64018390D02*
X107084762Y-64018390D01*
X107084762Y-64018390D02*
X106989524Y-64066009D01*
X106989524Y-64066009D02*
X106941905Y-64113628D01*
X106941905Y-64113628D02*
X106894286Y-64208866D01*
X106894286Y-64208866D02*
X106894286Y-64399342D01*
X106894286Y-64399342D02*
X106941905Y-64494580D01*
X106941905Y-64494580D02*
X106989524Y-64542200D01*
X106989524Y-64542200D02*
X107084762Y-64589819D01*
X107084762Y-64589819D02*
X107275238Y-64589819D01*
X107275238Y-64589819D02*
X107370476Y-64542200D01*
X107370476Y-64542200D02*
X107418095Y-64494580D01*
X107418095Y-64494580D02*
X107465714Y-64399342D01*
X107465714Y-64399342D02*
X107465714Y-64208866D01*
X107465714Y-64208866D02*
X107418095Y-64113628D01*
X107418095Y-64113628D02*
X107370476Y-64066009D01*
X107370476Y-64066009D02*
X107275238Y-64018390D01*
X108039819Y-70089999D02*
X108039819Y-69470952D01*
X108039819Y-69470952D02*
X108420771Y-69804285D01*
X108420771Y-69804285D02*
X108420771Y-69661428D01*
X108420771Y-69661428D02*
X108468390Y-69566190D01*
X108468390Y-69566190D02*
X108516009Y-69518571D01*
X108516009Y-69518571D02*
X108611247Y-69470952D01*
X108611247Y-69470952D02*
X108849342Y-69470952D01*
X108849342Y-69470952D02*
X108944580Y-69518571D01*
X108944580Y-69518571D02*
X108992200Y-69566190D01*
X108992200Y-69566190D02*
X109039819Y-69661428D01*
X109039819Y-69661428D02*
X109039819Y-69947142D01*
X109039819Y-69947142D02*
X108992200Y-70042380D01*
X108992200Y-70042380D02*
X108944580Y-70089999D01*
X108944580Y-69042380D02*
X108992200Y-68994761D01*
X108992200Y-68994761D02*
X109039819Y-69042380D01*
X109039819Y-69042380D02*
X108992200Y-69089999D01*
X108992200Y-69089999D02*
X108944580Y-69042380D01*
X108944580Y-69042380D02*
X109039819Y-69042380D01*
X108039819Y-68661428D02*
X108039819Y-68042381D01*
X108039819Y-68042381D02*
X108420771Y-68375714D01*
X108420771Y-68375714D02*
X108420771Y-68232857D01*
X108420771Y-68232857D02*
X108468390Y-68137619D01*
X108468390Y-68137619D02*
X108516009Y-68090000D01*
X108516009Y-68090000D02*
X108611247Y-68042381D01*
X108611247Y-68042381D02*
X108849342Y-68042381D01*
X108849342Y-68042381D02*
X108944580Y-68090000D01*
X108944580Y-68090000D02*
X108992200Y-68137619D01*
X108992200Y-68137619D02*
X109039819Y-68232857D01*
X109039819Y-68232857D02*
X109039819Y-68518571D01*
X109039819Y-68518571D02*
X108992200Y-68613809D01*
X108992200Y-68613809D02*
X108944580Y-68661428D01*
X108135057Y-67661428D02*
X108087438Y-67613809D01*
X108087438Y-67613809D02*
X108039819Y-67518571D01*
X108039819Y-67518571D02*
X108039819Y-67280476D01*
X108039819Y-67280476D02*
X108087438Y-67185238D01*
X108087438Y-67185238D02*
X108135057Y-67137619D01*
X108135057Y-67137619D02*
X108230295Y-67090000D01*
X108230295Y-67090000D02*
X108325533Y-67090000D01*
X108325533Y-67090000D02*
X108468390Y-67137619D01*
X108468390Y-67137619D02*
X109039819Y-67709047D01*
X109039819Y-67709047D02*
X109039819Y-67090000D01*
X109039819Y-66661428D02*
X108039819Y-66661428D01*
X108658866Y-66566190D02*
X109039819Y-66280476D01*
X108373152Y-66280476D02*
X108754104Y-66661428D01*
X109039819Y-65899523D02*
X109039819Y-65661428D01*
X109039819Y-65661428D02*
X108849342Y-65661428D01*
X108849342Y-65661428D02*
X108801723Y-65756666D01*
X108801723Y-65756666D02*
X108706485Y-65851904D01*
X108706485Y-65851904D02*
X108563628Y-65899523D01*
X108563628Y-65899523D02*
X108325533Y-65899523D01*
X108325533Y-65899523D02*
X108182676Y-65851904D01*
X108182676Y-65851904D02*
X108087438Y-65756666D01*
X108087438Y-65756666D02*
X108039819Y-65613809D01*
X108039819Y-65613809D02*
X108039819Y-65423333D01*
X108039819Y-65423333D02*
X108087438Y-65280476D01*
X108087438Y-65280476D02*
X108182676Y-65185238D01*
X108182676Y-65185238D02*
X108325533Y-65137619D01*
X108325533Y-65137619D02*
X108563628Y-65137619D01*
X108563628Y-65137619D02*
X108706485Y-65185238D01*
X108706485Y-65185238D02*
X108801723Y-65280476D01*
X108801723Y-65280476D02*
X108849342Y-65375714D01*
X108849342Y-65375714D02*
X109039819Y-65375714D01*
X109039819Y-65375714D02*
X109039819Y-65137619D01*
X83653333Y-64589819D02*
X83320000Y-64113628D01*
X83081905Y-64589819D02*
X83081905Y-63589819D01*
X83081905Y-63589819D02*
X83462857Y-63589819D01*
X83462857Y-63589819D02*
X83558095Y-63637438D01*
X83558095Y-63637438D02*
X83605714Y-63685057D01*
X83605714Y-63685057D02*
X83653333Y-63780295D01*
X83653333Y-63780295D02*
X83653333Y-63923152D01*
X83653333Y-63923152D02*
X83605714Y-64018390D01*
X83605714Y-64018390D02*
X83558095Y-64066009D01*
X83558095Y-64066009D02*
X83462857Y-64113628D01*
X83462857Y-64113628D02*
X83081905Y-64113628D01*
X84605714Y-64589819D02*
X84034286Y-64589819D01*
X84320000Y-64589819D02*
X84320000Y-63589819D01*
X84320000Y-63589819D02*
X84224762Y-63732676D01*
X84224762Y-63732676D02*
X84129524Y-63827914D01*
X84129524Y-63827914D02*
X84034286Y-63875533D01*
X86094819Y-68280476D02*
X86094819Y-68851904D01*
X86094819Y-68566190D02*
X85094819Y-68566190D01*
X85094819Y-68566190D02*
X85237676Y-68661428D01*
X85237676Y-68661428D02*
X85332914Y-68756666D01*
X85332914Y-68756666D02*
X85380533Y-68851904D01*
X86094819Y-67851904D02*
X85094819Y-67851904D01*
X85713866Y-67756666D02*
X86094819Y-67470952D01*
X85428152Y-67470952D02*
X85809104Y-67851904D01*
X86094819Y-67089999D02*
X86094819Y-66851904D01*
X86094819Y-66851904D02*
X85904342Y-66851904D01*
X85904342Y-66851904D02*
X85856723Y-66947142D01*
X85856723Y-66947142D02*
X85761485Y-67042380D01*
X85761485Y-67042380D02*
X85618628Y-67089999D01*
X85618628Y-67089999D02*
X85380533Y-67089999D01*
X85380533Y-67089999D02*
X85237676Y-67042380D01*
X85237676Y-67042380D02*
X85142438Y-66947142D01*
X85142438Y-66947142D02*
X85094819Y-66804285D01*
X85094819Y-66804285D02*
X85094819Y-66613809D01*
X85094819Y-66613809D02*
X85142438Y-66470952D01*
X85142438Y-66470952D02*
X85237676Y-66375714D01*
X85237676Y-66375714D02*
X85380533Y-66328095D01*
X85380533Y-66328095D02*
X85618628Y-66328095D01*
X85618628Y-66328095D02*
X85761485Y-66375714D01*
X85761485Y-66375714D02*
X85856723Y-66470952D01*
X85856723Y-66470952D02*
X85904342Y-66566190D01*
X85904342Y-66566190D02*
X86094819Y-66566190D01*
X86094819Y-66566190D02*
X86094819Y-66328095D01*
X167473333Y-64589819D02*
X167140000Y-64113628D01*
X166901905Y-64589819D02*
X166901905Y-63589819D01*
X166901905Y-63589819D02*
X167282857Y-63589819D01*
X167282857Y-63589819D02*
X167378095Y-63637438D01*
X167378095Y-63637438D02*
X167425714Y-63685057D01*
X167425714Y-63685057D02*
X167473333Y-63780295D01*
X167473333Y-63780295D02*
X167473333Y-63923152D01*
X167473333Y-63923152D02*
X167425714Y-64018390D01*
X167425714Y-64018390D02*
X167378095Y-64066009D01*
X167378095Y-64066009D02*
X167282857Y-64113628D01*
X167282857Y-64113628D02*
X166901905Y-64113628D01*
X168378095Y-63589819D02*
X167901905Y-63589819D01*
X167901905Y-63589819D02*
X167854286Y-64066009D01*
X167854286Y-64066009D02*
X167901905Y-64018390D01*
X167901905Y-64018390D02*
X167997143Y-63970771D01*
X167997143Y-63970771D02*
X168235238Y-63970771D01*
X168235238Y-63970771D02*
X168330476Y-64018390D01*
X168330476Y-64018390D02*
X168378095Y-64066009D01*
X168378095Y-64066009D02*
X168425714Y-64161247D01*
X168425714Y-64161247D02*
X168425714Y-64399342D01*
X168425714Y-64399342D02*
X168378095Y-64494580D01*
X168378095Y-64494580D02*
X168330476Y-64542200D01*
X168330476Y-64542200D02*
X168235238Y-64589819D01*
X168235238Y-64589819D02*
X167997143Y-64589819D01*
X167997143Y-64589819D02*
X167901905Y-64542200D01*
X167901905Y-64542200D02*
X167854286Y-64494580D01*
X169914819Y-68756666D02*
X169914819Y-69328094D01*
X169914819Y-69042380D02*
X168914819Y-69042380D01*
X168914819Y-69042380D02*
X169057676Y-69137618D01*
X169057676Y-69137618D02*
X169152914Y-69232856D01*
X169152914Y-69232856D02*
X169200533Y-69328094D01*
X168914819Y-67851904D02*
X168914819Y-68328094D01*
X168914819Y-68328094D02*
X169391009Y-68375713D01*
X169391009Y-68375713D02*
X169343390Y-68328094D01*
X169343390Y-68328094D02*
X169295771Y-68232856D01*
X169295771Y-68232856D02*
X169295771Y-67994761D01*
X169295771Y-67994761D02*
X169343390Y-67899523D01*
X169343390Y-67899523D02*
X169391009Y-67851904D01*
X169391009Y-67851904D02*
X169486247Y-67804285D01*
X169486247Y-67804285D02*
X169724342Y-67804285D01*
X169724342Y-67804285D02*
X169819580Y-67851904D01*
X169819580Y-67851904D02*
X169867200Y-67899523D01*
X169867200Y-67899523D02*
X169914819Y-67994761D01*
X169914819Y-67994761D02*
X169914819Y-68232856D01*
X169914819Y-68232856D02*
X169867200Y-68328094D01*
X169867200Y-68328094D02*
X169819580Y-68375713D01*
X169914819Y-67375713D02*
X168914819Y-67375713D01*
X169533866Y-67280475D02*
X169914819Y-66994761D01*
X169248152Y-66994761D02*
X169629104Y-67375713D01*
X169914819Y-66613808D02*
X169914819Y-66375713D01*
X169914819Y-66375713D02*
X169724342Y-66375713D01*
X169724342Y-66375713D02*
X169676723Y-66470951D01*
X169676723Y-66470951D02*
X169581485Y-66566189D01*
X169581485Y-66566189D02*
X169438628Y-66613808D01*
X169438628Y-66613808D02*
X169200533Y-66613808D01*
X169200533Y-66613808D02*
X169057676Y-66566189D01*
X169057676Y-66566189D02*
X168962438Y-66470951D01*
X168962438Y-66470951D02*
X168914819Y-66328094D01*
X168914819Y-66328094D02*
X168914819Y-66137618D01*
X168914819Y-66137618D02*
X168962438Y-65994761D01*
X168962438Y-65994761D02*
X169057676Y-65899523D01*
X169057676Y-65899523D02*
X169200533Y-65851904D01*
X169200533Y-65851904D02*
X169438628Y-65851904D01*
X169438628Y-65851904D02*
X169581485Y-65899523D01*
X169581485Y-65899523D02*
X169676723Y-65994761D01*
X169676723Y-65994761D02*
X169724342Y-66089999D01*
X169724342Y-66089999D02*
X169914819Y-66089999D01*
X169914819Y-66089999D02*
X169914819Y-65851904D01*
X162576666Y-80734819D02*
X162576666Y-81449104D01*
X162576666Y-81449104D02*
X162529047Y-81591961D01*
X162529047Y-81591961D02*
X162433809Y-81687200D01*
X162433809Y-81687200D02*
X162290952Y-81734819D01*
X162290952Y-81734819D02*
X162195714Y-81734819D01*
X163481428Y-81068152D02*
X163481428Y-81734819D01*
X163243333Y-80687200D02*
X163005238Y-81401485D01*
X163005238Y-81401485D02*
X163624285Y-81401485D01*
X159853333Y-64589819D02*
X159520000Y-64113628D01*
X159281905Y-64589819D02*
X159281905Y-63589819D01*
X159281905Y-63589819D02*
X159662857Y-63589819D01*
X159662857Y-63589819D02*
X159758095Y-63637438D01*
X159758095Y-63637438D02*
X159805714Y-63685057D01*
X159805714Y-63685057D02*
X159853333Y-63780295D01*
X159853333Y-63780295D02*
X159853333Y-63923152D01*
X159853333Y-63923152D02*
X159805714Y-64018390D01*
X159805714Y-64018390D02*
X159758095Y-64066009D01*
X159758095Y-64066009D02*
X159662857Y-64113628D01*
X159662857Y-64113628D02*
X159281905Y-64113628D01*
X160186667Y-63589819D02*
X160805714Y-63589819D01*
X160805714Y-63589819D02*
X160472381Y-63970771D01*
X160472381Y-63970771D02*
X160615238Y-63970771D01*
X160615238Y-63970771D02*
X160710476Y-64018390D01*
X160710476Y-64018390D02*
X160758095Y-64066009D01*
X160758095Y-64066009D02*
X160805714Y-64161247D01*
X160805714Y-64161247D02*
X160805714Y-64399342D01*
X160805714Y-64399342D02*
X160758095Y-64494580D01*
X160758095Y-64494580D02*
X160710476Y-64542200D01*
X160710476Y-64542200D02*
X160615238Y-64589819D01*
X160615238Y-64589819D02*
X160329524Y-64589819D01*
X160329524Y-64589819D02*
X160234286Y-64542200D01*
X160234286Y-64542200D02*
X160186667Y-64494580D01*
X162294819Y-68756666D02*
X162294819Y-69328094D01*
X162294819Y-69042380D02*
X161294819Y-69042380D01*
X161294819Y-69042380D02*
X161437676Y-69137618D01*
X161437676Y-69137618D02*
X161532914Y-69232856D01*
X161532914Y-69232856D02*
X161580533Y-69328094D01*
X161294819Y-68137618D02*
X161294819Y-68042380D01*
X161294819Y-68042380D02*
X161342438Y-67947142D01*
X161342438Y-67947142D02*
X161390057Y-67899523D01*
X161390057Y-67899523D02*
X161485295Y-67851904D01*
X161485295Y-67851904D02*
X161675771Y-67804285D01*
X161675771Y-67804285D02*
X161913866Y-67804285D01*
X161913866Y-67804285D02*
X162104342Y-67851904D01*
X162104342Y-67851904D02*
X162199580Y-67899523D01*
X162199580Y-67899523D02*
X162247200Y-67947142D01*
X162247200Y-67947142D02*
X162294819Y-68042380D01*
X162294819Y-68042380D02*
X162294819Y-68137618D01*
X162294819Y-68137618D02*
X162247200Y-68232856D01*
X162247200Y-68232856D02*
X162199580Y-68280475D01*
X162199580Y-68280475D02*
X162104342Y-68328094D01*
X162104342Y-68328094D02*
X161913866Y-68375713D01*
X161913866Y-68375713D02*
X161675771Y-68375713D01*
X161675771Y-68375713D02*
X161485295Y-68328094D01*
X161485295Y-68328094D02*
X161390057Y-68280475D01*
X161390057Y-68280475D02*
X161342438Y-68232856D01*
X161342438Y-68232856D02*
X161294819Y-68137618D01*
X162294819Y-67375713D02*
X161294819Y-67375713D01*
X161913866Y-67280475D02*
X162294819Y-66994761D01*
X161628152Y-66994761D02*
X162009104Y-67375713D01*
X162294819Y-66613808D02*
X162294819Y-66375713D01*
X162294819Y-66375713D02*
X162104342Y-66375713D01*
X162104342Y-66375713D02*
X162056723Y-66470951D01*
X162056723Y-66470951D02*
X161961485Y-66566189D01*
X161961485Y-66566189D02*
X161818628Y-66613808D01*
X161818628Y-66613808D02*
X161580533Y-66613808D01*
X161580533Y-66613808D02*
X161437676Y-66566189D01*
X161437676Y-66566189D02*
X161342438Y-66470951D01*
X161342438Y-66470951D02*
X161294819Y-66328094D01*
X161294819Y-66328094D02*
X161294819Y-66137618D01*
X161294819Y-66137618D02*
X161342438Y-65994761D01*
X161342438Y-65994761D02*
X161437676Y-65899523D01*
X161437676Y-65899523D02*
X161580533Y-65851904D01*
X161580533Y-65851904D02*
X161818628Y-65851904D01*
X161818628Y-65851904D02*
X161961485Y-65899523D01*
X161961485Y-65899523D02*
X162056723Y-65994761D01*
X162056723Y-65994761D02*
X162104342Y-66089999D01*
X162104342Y-66089999D02*
X162294819Y-66089999D01*
X162294819Y-66089999D02*
X162294819Y-65851904D01*
X110323333Y-64514819D02*
X109990000Y-64038628D01*
X109751905Y-64514819D02*
X109751905Y-63514819D01*
X109751905Y-63514819D02*
X110132857Y-63514819D01*
X110132857Y-63514819D02*
X110228095Y-63562438D01*
X110228095Y-63562438D02*
X110275714Y-63610057D01*
X110275714Y-63610057D02*
X110323333Y-63705295D01*
X110323333Y-63705295D02*
X110323333Y-63848152D01*
X110323333Y-63848152D02*
X110275714Y-63943390D01*
X110275714Y-63943390D02*
X110228095Y-63991009D01*
X110228095Y-63991009D02*
X110132857Y-64038628D01*
X110132857Y-64038628D02*
X109751905Y-64038628D01*
X110799524Y-64514819D02*
X110990000Y-64514819D01*
X110990000Y-64514819D02*
X111085238Y-64467200D01*
X111085238Y-64467200D02*
X111132857Y-64419580D01*
X111132857Y-64419580D02*
X111228095Y-64276723D01*
X111228095Y-64276723D02*
X111275714Y-64086247D01*
X111275714Y-64086247D02*
X111275714Y-63705295D01*
X111275714Y-63705295D02*
X111228095Y-63610057D01*
X111228095Y-63610057D02*
X111180476Y-63562438D01*
X111180476Y-63562438D02*
X111085238Y-63514819D01*
X111085238Y-63514819D02*
X110894762Y-63514819D01*
X110894762Y-63514819D02*
X110799524Y-63562438D01*
X110799524Y-63562438D02*
X110751905Y-63610057D01*
X110751905Y-63610057D02*
X110704286Y-63705295D01*
X110704286Y-63705295D02*
X110704286Y-63943390D01*
X110704286Y-63943390D02*
X110751905Y-64038628D01*
X110751905Y-64038628D02*
X110799524Y-64086247D01*
X110799524Y-64086247D02*
X110894762Y-64133866D01*
X110894762Y-64133866D02*
X111085238Y-64133866D01*
X111085238Y-64133866D02*
X111180476Y-64086247D01*
X111180476Y-64086247D02*
X111228095Y-64038628D01*
X111228095Y-64038628D02*
X111275714Y-63943390D01*
X111764819Y-69566190D02*
X111764819Y-69756666D01*
X111764819Y-69756666D02*
X111812438Y-69851904D01*
X111812438Y-69851904D02*
X111860057Y-69899523D01*
X111860057Y-69899523D02*
X112002914Y-69994761D01*
X112002914Y-69994761D02*
X112193390Y-70042380D01*
X112193390Y-70042380D02*
X112574342Y-70042380D01*
X112574342Y-70042380D02*
X112669580Y-69994761D01*
X112669580Y-69994761D02*
X112717200Y-69947142D01*
X112717200Y-69947142D02*
X112764819Y-69851904D01*
X112764819Y-69851904D02*
X112764819Y-69661428D01*
X112764819Y-69661428D02*
X112717200Y-69566190D01*
X112717200Y-69566190D02*
X112669580Y-69518571D01*
X112669580Y-69518571D02*
X112574342Y-69470952D01*
X112574342Y-69470952D02*
X112336247Y-69470952D01*
X112336247Y-69470952D02*
X112241009Y-69518571D01*
X112241009Y-69518571D02*
X112193390Y-69566190D01*
X112193390Y-69566190D02*
X112145771Y-69661428D01*
X112145771Y-69661428D02*
X112145771Y-69851904D01*
X112145771Y-69851904D02*
X112193390Y-69947142D01*
X112193390Y-69947142D02*
X112241009Y-69994761D01*
X112241009Y-69994761D02*
X112336247Y-70042380D01*
X112669580Y-69042380D02*
X112717200Y-68994761D01*
X112717200Y-68994761D02*
X112764819Y-69042380D01*
X112764819Y-69042380D02*
X112717200Y-69089999D01*
X112717200Y-69089999D02*
X112669580Y-69042380D01*
X112669580Y-69042380D02*
X112764819Y-69042380D01*
X111764819Y-68137619D02*
X111764819Y-68328095D01*
X111764819Y-68328095D02*
X111812438Y-68423333D01*
X111812438Y-68423333D02*
X111860057Y-68470952D01*
X111860057Y-68470952D02*
X112002914Y-68566190D01*
X112002914Y-68566190D02*
X112193390Y-68613809D01*
X112193390Y-68613809D02*
X112574342Y-68613809D01*
X112574342Y-68613809D02*
X112669580Y-68566190D01*
X112669580Y-68566190D02*
X112717200Y-68518571D01*
X112717200Y-68518571D02*
X112764819Y-68423333D01*
X112764819Y-68423333D02*
X112764819Y-68232857D01*
X112764819Y-68232857D02*
X112717200Y-68137619D01*
X112717200Y-68137619D02*
X112669580Y-68090000D01*
X112669580Y-68090000D02*
X112574342Y-68042381D01*
X112574342Y-68042381D02*
X112336247Y-68042381D01*
X112336247Y-68042381D02*
X112241009Y-68090000D01*
X112241009Y-68090000D02*
X112193390Y-68137619D01*
X112193390Y-68137619D02*
X112145771Y-68232857D01*
X112145771Y-68232857D02*
X112145771Y-68423333D01*
X112145771Y-68423333D02*
X112193390Y-68518571D01*
X112193390Y-68518571D02*
X112241009Y-68566190D01*
X112241009Y-68566190D02*
X112336247Y-68613809D01*
X111764819Y-67137619D02*
X111764819Y-67613809D01*
X111764819Y-67613809D02*
X112241009Y-67661428D01*
X112241009Y-67661428D02*
X112193390Y-67613809D01*
X112193390Y-67613809D02*
X112145771Y-67518571D01*
X112145771Y-67518571D02*
X112145771Y-67280476D01*
X112145771Y-67280476D02*
X112193390Y-67185238D01*
X112193390Y-67185238D02*
X112241009Y-67137619D01*
X112241009Y-67137619D02*
X112336247Y-67090000D01*
X112336247Y-67090000D02*
X112574342Y-67090000D01*
X112574342Y-67090000D02*
X112669580Y-67137619D01*
X112669580Y-67137619D02*
X112717200Y-67185238D01*
X112717200Y-67185238D02*
X112764819Y-67280476D01*
X112764819Y-67280476D02*
X112764819Y-67518571D01*
X112764819Y-67518571D02*
X112717200Y-67613809D01*
X112717200Y-67613809D02*
X112669580Y-67661428D01*
X112764819Y-66661428D02*
X111764819Y-66661428D01*
X112383866Y-66566190D02*
X112764819Y-66280476D01*
X112098152Y-66280476D02*
X112479104Y-66661428D01*
X112764819Y-65899523D02*
X112764819Y-65661428D01*
X112764819Y-65661428D02*
X112574342Y-65661428D01*
X112574342Y-65661428D02*
X112526723Y-65756666D01*
X112526723Y-65756666D02*
X112431485Y-65851904D01*
X112431485Y-65851904D02*
X112288628Y-65899523D01*
X112288628Y-65899523D02*
X112050533Y-65899523D01*
X112050533Y-65899523D02*
X111907676Y-65851904D01*
X111907676Y-65851904D02*
X111812438Y-65756666D01*
X111812438Y-65756666D02*
X111764819Y-65613809D01*
X111764819Y-65613809D02*
X111764819Y-65423333D01*
X111764819Y-65423333D02*
X111812438Y-65280476D01*
X111812438Y-65280476D02*
X111907676Y-65185238D01*
X111907676Y-65185238D02*
X112050533Y-65137619D01*
X112050533Y-65137619D02*
X112288628Y-65137619D01*
X112288628Y-65137619D02*
X112431485Y-65185238D01*
X112431485Y-65185238D02*
X112526723Y-65280476D01*
X112526723Y-65280476D02*
X112574342Y-65375714D01*
X112574342Y-65375714D02*
X112764819Y-65375714D01*
X112764819Y-65375714D02*
X112764819Y-65137619D01*
X113657142Y-64589819D02*
X113323809Y-64113628D01*
X113085714Y-64589819D02*
X113085714Y-63589819D01*
X113085714Y-63589819D02*
X113466666Y-63589819D01*
X113466666Y-63589819D02*
X113561904Y-63637438D01*
X113561904Y-63637438D02*
X113609523Y-63685057D01*
X113609523Y-63685057D02*
X113657142Y-63780295D01*
X113657142Y-63780295D02*
X113657142Y-63923152D01*
X113657142Y-63923152D02*
X113609523Y-64018390D01*
X113609523Y-64018390D02*
X113561904Y-64066009D01*
X113561904Y-64066009D02*
X113466666Y-64113628D01*
X113466666Y-64113628D02*
X113085714Y-64113628D01*
X114609523Y-64589819D02*
X114038095Y-64589819D01*
X114323809Y-64589819D02*
X114323809Y-63589819D01*
X114323809Y-63589819D02*
X114228571Y-63732676D01*
X114228571Y-63732676D02*
X114133333Y-63827914D01*
X114133333Y-63827914D02*
X114038095Y-63875533D01*
X115228571Y-63589819D02*
X115323809Y-63589819D01*
X115323809Y-63589819D02*
X115419047Y-63637438D01*
X115419047Y-63637438D02*
X115466666Y-63685057D01*
X115466666Y-63685057D02*
X115514285Y-63780295D01*
X115514285Y-63780295D02*
X115561904Y-63970771D01*
X115561904Y-63970771D02*
X115561904Y-64208866D01*
X115561904Y-64208866D02*
X115514285Y-64399342D01*
X115514285Y-64399342D02*
X115466666Y-64494580D01*
X115466666Y-64494580D02*
X115419047Y-64542200D01*
X115419047Y-64542200D02*
X115323809Y-64589819D01*
X115323809Y-64589819D02*
X115228571Y-64589819D01*
X115228571Y-64589819D02*
X115133333Y-64542200D01*
X115133333Y-64542200D02*
X115085714Y-64494580D01*
X115085714Y-64494580D02*
X115038095Y-64399342D01*
X115038095Y-64399342D02*
X114990476Y-64208866D01*
X114990476Y-64208866D02*
X114990476Y-63970771D01*
X114990476Y-63970771D02*
X115038095Y-63780295D01*
X115038095Y-63780295D02*
X115085714Y-63685057D01*
X115085714Y-63685057D02*
X115133333Y-63637438D01*
X115133333Y-63637438D02*
X115228571Y-63589819D01*
X115659819Y-70089999D02*
X115659819Y-69470952D01*
X115659819Y-69470952D02*
X116040771Y-69804285D01*
X116040771Y-69804285D02*
X116040771Y-69661428D01*
X116040771Y-69661428D02*
X116088390Y-69566190D01*
X116088390Y-69566190D02*
X116136009Y-69518571D01*
X116136009Y-69518571D02*
X116231247Y-69470952D01*
X116231247Y-69470952D02*
X116469342Y-69470952D01*
X116469342Y-69470952D02*
X116564580Y-69518571D01*
X116564580Y-69518571D02*
X116612200Y-69566190D01*
X116612200Y-69566190D02*
X116659819Y-69661428D01*
X116659819Y-69661428D02*
X116659819Y-69947142D01*
X116659819Y-69947142D02*
X116612200Y-70042380D01*
X116612200Y-70042380D02*
X116564580Y-70089999D01*
X116564580Y-69042380D02*
X116612200Y-68994761D01*
X116612200Y-68994761D02*
X116659819Y-69042380D01*
X116659819Y-69042380D02*
X116612200Y-69089999D01*
X116612200Y-69089999D02*
X116564580Y-69042380D01*
X116564580Y-69042380D02*
X116659819Y-69042380D01*
X115659819Y-68661428D02*
X115659819Y-68042381D01*
X115659819Y-68042381D02*
X116040771Y-68375714D01*
X116040771Y-68375714D02*
X116040771Y-68232857D01*
X116040771Y-68232857D02*
X116088390Y-68137619D01*
X116088390Y-68137619D02*
X116136009Y-68090000D01*
X116136009Y-68090000D02*
X116231247Y-68042381D01*
X116231247Y-68042381D02*
X116469342Y-68042381D01*
X116469342Y-68042381D02*
X116564580Y-68090000D01*
X116564580Y-68090000D02*
X116612200Y-68137619D01*
X116612200Y-68137619D02*
X116659819Y-68232857D01*
X116659819Y-68232857D02*
X116659819Y-68518571D01*
X116659819Y-68518571D02*
X116612200Y-68613809D01*
X116612200Y-68613809D02*
X116564580Y-68661428D01*
X115755057Y-67661428D02*
X115707438Y-67613809D01*
X115707438Y-67613809D02*
X115659819Y-67518571D01*
X115659819Y-67518571D02*
X115659819Y-67280476D01*
X115659819Y-67280476D02*
X115707438Y-67185238D01*
X115707438Y-67185238D02*
X115755057Y-67137619D01*
X115755057Y-67137619D02*
X115850295Y-67090000D01*
X115850295Y-67090000D02*
X115945533Y-67090000D01*
X115945533Y-67090000D02*
X116088390Y-67137619D01*
X116088390Y-67137619D02*
X116659819Y-67709047D01*
X116659819Y-67709047D02*
X116659819Y-67090000D01*
X116659819Y-66661428D02*
X115659819Y-66661428D01*
X116278866Y-66566190D02*
X116659819Y-66280476D01*
X115993152Y-66280476D02*
X116374104Y-66661428D01*
X116659819Y-65899523D02*
X116659819Y-65661428D01*
X116659819Y-65661428D02*
X116469342Y-65661428D01*
X116469342Y-65661428D02*
X116421723Y-65756666D01*
X116421723Y-65756666D02*
X116326485Y-65851904D01*
X116326485Y-65851904D02*
X116183628Y-65899523D01*
X116183628Y-65899523D02*
X115945533Y-65899523D01*
X115945533Y-65899523D02*
X115802676Y-65851904D01*
X115802676Y-65851904D02*
X115707438Y-65756666D01*
X115707438Y-65756666D02*
X115659819Y-65613809D01*
X115659819Y-65613809D02*
X115659819Y-65423333D01*
X115659819Y-65423333D02*
X115707438Y-65280476D01*
X115707438Y-65280476D02*
X115802676Y-65185238D01*
X115802676Y-65185238D02*
X115945533Y-65137619D01*
X115945533Y-65137619D02*
X116183628Y-65137619D01*
X116183628Y-65137619D02*
X116326485Y-65185238D01*
X116326485Y-65185238D02*
X116421723Y-65280476D01*
X116421723Y-65280476D02*
X116469342Y-65375714D01*
X116469342Y-65375714D02*
X116659819Y-65375714D01*
X116659819Y-65375714D02*
X116659819Y-65137619D01*
X95083333Y-64494580D02*
X95035714Y-64542200D01*
X95035714Y-64542200D02*
X94892857Y-64589819D01*
X94892857Y-64589819D02*
X94797619Y-64589819D01*
X94797619Y-64589819D02*
X94654762Y-64542200D01*
X94654762Y-64542200D02*
X94559524Y-64446961D01*
X94559524Y-64446961D02*
X94511905Y-64351723D01*
X94511905Y-64351723D02*
X94464286Y-64161247D01*
X94464286Y-64161247D02*
X94464286Y-64018390D01*
X94464286Y-64018390D02*
X94511905Y-63827914D01*
X94511905Y-63827914D02*
X94559524Y-63732676D01*
X94559524Y-63732676D02*
X94654762Y-63637438D01*
X94654762Y-63637438D02*
X94797619Y-63589819D01*
X94797619Y-63589819D02*
X94892857Y-63589819D01*
X94892857Y-63589819D02*
X95035714Y-63637438D01*
X95035714Y-63637438D02*
X95083333Y-63685057D01*
X96035714Y-64589819D02*
X95464286Y-64589819D01*
X95750000Y-64589819D02*
X95750000Y-63589819D01*
X95750000Y-63589819D02*
X95654762Y-63732676D01*
X95654762Y-63732676D02*
X95559524Y-63827914D01*
X95559524Y-63827914D02*
X95464286Y-63875533D01*
X96554819Y-69304285D02*
X96554819Y-69209047D01*
X96554819Y-69209047D02*
X96602438Y-69113809D01*
X96602438Y-69113809D02*
X96650057Y-69066190D01*
X96650057Y-69066190D02*
X96745295Y-69018571D01*
X96745295Y-69018571D02*
X96935771Y-68970952D01*
X96935771Y-68970952D02*
X97173866Y-68970952D01*
X97173866Y-68970952D02*
X97364342Y-69018571D01*
X97364342Y-69018571D02*
X97459580Y-69066190D01*
X97459580Y-69066190D02*
X97507200Y-69113809D01*
X97507200Y-69113809D02*
X97554819Y-69209047D01*
X97554819Y-69209047D02*
X97554819Y-69304285D01*
X97554819Y-69304285D02*
X97507200Y-69399523D01*
X97507200Y-69399523D02*
X97459580Y-69447142D01*
X97459580Y-69447142D02*
X97364342Y-69494761D01*
X97364342Y-69494761D02*
X97173866Y-69542380D01*
X97173866Y-69542380D02*
X96935771Y-69542380D01*
X96935771Y-69542380D02*
X96745295Y-69494761D01*
X96745295Y-69494761D02*
X96650057Y-69447142D01*
X96650057Y-69447142D02*
X96602438Y-69399523D01*
X96602438Y-69399523D02*
X96554819Y-69304285D01*
X97459580Y-68542380D02*
X97507200Y-68494761D01*
X97507200Y-68494761D02*
X97554819Y-68542380D01*
X97554819Y-68542380D02*
X97507200Y-68589999D01*
X97507200Y-68589999D02*
X97459580Y-68542380D01*
X97459580Y-68542380D02*
X97554819Y-68542380D01*
X97554819Y-67542381D02*
X97554819Y-68113809D01*
X97554819Y-67828095D02*
X96554819Y-67828095D01*
X96554819Y-67828095D02*
X96697676Y-67923333D01*
X96697676Y-67923333D02*
X96792914Y-68018571D01*
X96792914Y-68018571D02*
X96840533Y-68113809D01*
X96888152Y-67113809D02*
X97888152Y-67113809D01*
X97411961Y-66637619D02*
X97507200Y-66590000D01*
X97507200Y-66590000D02*
X97554819Y-66494762D01*
X97411961Y-67113809D02*
X97507200Y-67066190D01*
X97507200Y-67066190D02*
X97554819Y-66970952D01*
X97554819Y-66970952D02*
X97554819Y-66780476D01*
X97554819Y-66780476D02*
X97507200Y-66685238D01*
X97507200Y-66685238D02*
X97411961Y-66637619D01*
X97411961Y-66637619D02*
X96888152Y-66637619D01*
X97031009Y-65732857D02*
X97031009Y-66066190D01*
X97554819Y-66066190D02*
X96554819Y-66066190D01*
X96554819Y-66066190D02*
X96554819Y-65590000D01*
X96408095Y-104704819D02*
X96408095Y-105514342D01*
X96408095Y-105514342D02*
X96455714Y-105609580D01*
X96455714Y-105609580D02*
X96503333Y-105657200D01*
X96503333Y-105657200D02*
X96598571Y-105704819D01*
X96598571Y-105704819D02*
X96789047Y-105704819D01*
X96789047Y-105704819D02*
X96884285Y-105657200D01*
X96884285Y-105657200D02*
X96931904Y-105609580D01*
X96931904Y-105609580D02*
X96979523Y-105514342D01*
X96979523Y-105514342D02*
X96979523Y-104704819D01*
X97408095Y-104800057D02*
X97455714Y-104752438D01*
X97455714Y-104752438D02*
X97550952Y-104704819D01*
X97550952Y-104704819D02*
X97789047Y-104704819D01*
X97789047Y-104704819D02*
X97884285Y-104752438D01*
X97884285Y-104752438D02*
X97931904Y-104800057D01*
X97931904Y-104800057D02*
X97979523Y-104895295D01*
X97979523Y-104895295D02*
X97979523Y-104990533D01*
X97979523Y-104990533D02*
X97931904Y-105133390D01*
X97931904Y-105133390D02*
X97360476Y-105704819D01*
X97360476Y-105704819D02*
X97979523Y-105704819D01*
D12*
%TO.C,C6*%
X95090000Y-109601248D02*
X95090000Y-111023752D01*
X96910000Y-109601248D02*
X96910000Y-111023752D01*
%TO.C,C5*%
X91090000Y-109601248D02*
X91090000Y-111023752D01*
X92910000Y-109601248D02*
X92910000Y-111023752D01*
%TO.C,R7*%
X98150000Y-68317064D02*
X98150000Y-66862936D01*
X99970000Y-68317064D02*
X99970000Y-66862936D01*
%TO.C,C3*%
X103780000Y-66891248D02*
X103780000Y-68313752D01*
X101960000Y-66891248D02*
X101960000Y-68313752D01*
%TO.C,Q1*%
X92050000Y-85630000D02*
X92050000Y-90271000D01*
X92050000Y-85630000D02*
X102290000Y-85630000D01*
X92050000Y-87140000D02*
X102290000Y-87140000D01*
X92050000Y-90271000D02*
X102290000Y-90271000D01*
X95320000Y-85630000D02*
X95320000Y-87140000D01*
X99021000Y-85630000D02*
X99021000Y-87140000D01*
X102290000Y-85630000D02*
X102290000Y-90271000D01*
%TO.C,J6*%
X148530000Y-64770000D02*
X148530000Y-100390000D01*
X148530000Y-64770000D02*
X151190000Y-64770000D01*
X148530000Y-100390000D02*
X151190000Y-100390000D01*
X149860000Y-62170000D02*
X151190000Y-62170000D01*
X151190000Y-62170000D02*
X151190000Y-63500000D01*
X151190000Y-64770000D02*
X151190000Y-100390000D01*
%TO.C,J1*%
X89390000Y-104910000D02*
X89390000Y-89890000D01*
X89390000Y-89890000D02*
X87215000Y-89890000D01*
X88205000Y-89200000D02*
X87605000Y-88900000D01*
X88205000Y-88600000D02*
X88205000Y-89200000D01*
X87605000Y-88900000D02*
X88205000Y-88600000D01*
X85405000Y-86790000D02*
X85405000Y-85510000D01*
X85105000Y-104910000D02*
X89390000Y-104910000D01*
X85105000Y-104910000D02*
X80820000Y-104910000D01*
X84805000Y-86790000D02*
X84805000Y-85510000D01*
X80820000Y-104910000D02*
X80820000Y-89890000D01*
X80820000Y-89890000D02*
X82995000Y-89890000D01*
X86865000Y-96200000D02*
G75*
G02*
X83345000Y-96200000I-1760000J0D01*
G01*
X83345000Y-96200000D02*
G75*
G02*
X86865000Y-96200000I1760000J0D01*
G01*
%TO.C,R2*%
X86720000Y-68462064D02*
X86720000Y-67007936D01*
X88540000Y-68462064D02*
X88540000Y-67007936D01*
%TO.C,J2*%
X118220000Y-104910000D02*
X118220000Y-89890000D01*
X118220000Y-89890000D02*
X117045000Y-89890000D01*
X118035000Y-89200000D02*
X117435000Y-88900000D01*
X118035000Y-88600000D02*
X118035000Y-89200000D01*
X117435000Y-88900000D02*
X118035000Y-88600000D01*
X115235000Y-86790000D02*
X115235000Y-85510000D01*
X114635000Y-86790000D02*
X114635000Y-85510000D01*
X112825000Y-89890000D02*
X111345000Y-89890000D01*
X112085000Y-104910000D02*
X118220000Y-104910000D01*
X112085000Y-104910000D02*
X105950000Y-104910000D01*
X109535000Y-86790000D02*
X109535000Y-85510000D01*
X108935000Y-86790000D02*
X108935000Y-85510000D01*
X105950000Y-104910000D02*
X105950000Y-89890000D01*
X105950000Y-89890000D02*
X107125000Y-89890000D01*
X113845000Y-96200000D02*
G75*
G02*
X110325000Y-96200000I-1760000J0D01*
G01*
X110325000Y-96200000D02*
G75*
G02*
X113845000Y-96200000I1760000J0D01*
G01*
%TO.C,U1*%
X92035000Y-73565000D02*
X92035000Y-78206000D01*
X92035000Y-73565000D02*
X102275000Y-73565000D01*
X92035000Y-75075000D02*
X102275000Y-75075000D01*
X92035000Y-78206000D02*
X102275000Y-78206000D01*
X95305000Y-73565000D02*
X95305000Y-75075000D01*
X99006000Y-73565000D02*
X99006000Y-75075000D01*
X102275000Y-73565000D02*
X102275000Y-78206000D01*
%TO.C,R6*%
X172360000Y-66862936D02*
X172360000Y-68317064D01*
X170540000Y-66862936D02*
X170540000Y-68317064D01*
%TO.C,C4*%
X119020000Y-66891248D02*
X119020000Y-68313752D01*
X117200000Y-66891248D02*
X117200000Y-68313752D01*
%TO.C,C2*%
X90530000Y-68383752D02*
X90530000Y-66961248D01*
X92350000Y-68383752D02*
X92350000Y-66961248D01*
D10*
%TO.C,A1*%
X128270000Y-59690000D02*
X128270000Y-102870000D01*
X128270000Y-59690000D02*
X146050000Y-59690000D01*
X128270000Y-102870000D02*
X146050000Y-102870000D01*
X146050000Y-59690000D02*
X146050000Y-102870000D01*
D12*
%TO.C,J5*%
X123130000Y-64770000D02*
X123130000Y-100390000D01*
X123130000Y-64770000D02*
X125790000Y-64770000D01*
X123130000Y-100390000D02*
X125790000Y-100390000D01*
X124460000Y-62170000D02*
X125790000Y-62170000D01*
X125790000Y-62170000D02*
X125790000Y-63500000D01*
X125790000Y-64770000D02*
X125790000Y-100390000D01*
%TO.C,R4*%
X164740000Y-66862936D02*
X164740000Y-68317064D01*
X162920000Y-66862936D02*
X162920000Y-68317064D01*
%TO.C,R8*%
X107590000Y-66887936D02*
X107590000Y-68342064D01*
X105770000Y-66887936D02*
X105770000Y-68342064D01*
%TO.C,R1*%
X82910000Y-68387064D02*
X82910000Y-66932936D01*
X84730000Y-68387064D02*
X84730000Y-66932936D01*
%TO.C,R5*%
X166730000Y-68317064D02*
X166730000Y-66862936D01*
X168550000Y-68317064D02*
X168550000Y-66862936D01*
%TO.C,J4*%
X153475000Y-75135000D02*
X153475000Y-78210000D01*
X153475000Y-78210000D02*
X172345000Y-78210000D01*
X154895000Y-73620000D02*
X154895000Y-74120000D01*
X154895000Y-74120000D02*
X170925000Y-74120000D01*
X154915000Y-73620000D02*
X154895000Y-73620000D01*
X170925000Y-73620000D02*
X170905000Y-73620000D01*
X170925000Y-74120000D02*
X170925000Y-73620000D01*
X172345000Y-78210000D02*
X172345000Y-75135000D01*
%TO.C,R3*%
X159110000Y-68317064D02*
X159110000Y-66862936D01*
X160930000Y-68317064D02*
X160930000Y-66862936D01*
%TO.C,R9*%
X109580000Y-68317064D02*
X109580000Y-66862936D01*
X111400000Y-68317064D02*
X111400000Y-66862936D01*
%TO.C,R10*%
X115210000Y-66862936D02*
X115210000Y-68317064D01*
X113390000Y-66862936D02*
X113390000Y-68317064D01*
%TO.C,C1*%
X94340000Y-68383752D02*
X94340000Y-66961248D01*
X96160000Y-68383752D02*
X96160000Y-66961248D01*
%TO.C,U2*%
X97170000Y-104160000D02*
X100620000Y-104160000D01*
X97170000Y-104160000D02*
X95220000Y-104160000D01*
X97170000Y-99040000D02*
X99120000Y-99040000D01*
X97170000Y-99040000D02*
X95220000Y-99040000D01*
%TD*%
M02*
