%TF.GenerationSoftware,KiCad,Pcbnew,7.0.10*%
%TF.CreationDate,2024-02-15T22:12:48-05:00*%
%TF.ProjectId,heaterboard-2,68656174-6572-4626-9f61-72642d322e6b,2*%
%TF.SameCoordinates,Original*%
%TF.FileFunction,Profile,NP*%
%FSLAX46Y46*%
G04 Gerber Fmt 4.6, Leading zero omitted, Abs format (unit mm)*
G04 Created by KiCad (PCBNEW 7.0.10) date 2024-02-15 22:12:48*
%MOMM*%
%LPD*%
G01*
G04 APERTURE LIST*
%TA.AperFunction,Profile*%
%ADD10C,0.200000*%
%TD*%
G04 APERTURE END LIST*
D10*
X174720000Y-58020000D02*
X174720000Y-70120000D01*
X181470000Y-75120000D02*
G75*
G03*
X176970000Y-75120000I-2250000J0D01*
G01*
X176970000Y-75120000D02*
G75*
G03*
X181470000Y-75120000I2250000J0D01*
G01*
X77720000Y-122220000D02*
G75*
G03*
X79720000Y-124220000I2000000J0D01*
G01*
X75720000Y-64120000D02*
X71620000Y-64120000D01*
X181470000Y-90120000D02*
G75*
G03*
X176970000Y-90120000I-2250000J0D01*
G01*
X176970000Y-90120000D02*
G75*
G03*
X181470000Y-90120000I2250000J0D01*
G01*
X176720000Y-116120000D02*
G75*
G03*
X174720000Y-118120000I0J-2000000D01*
G01*
X77720000Y-110120000D02*
G75*
G03*
X75720000Y-108120000I-2000000J0D01*
G01*
X69620000Y-66120000D02*
X69620000Y-106120000D01*
X172720000Y-124220000D02*
G75*
G03*
X174720000Y-122220000I0J2000000D01*
G01*
X75720000Y-108120000D02*
X71620000Y-108120000D01*
X174720000Y-58020000D02*
G75*
G03*
X172720000Y-56020000I-2000000J0D01*
G01*
X77720000Y-58020000D02*
X77720000Y-62120000D01*
X75470000Y-105120000D02*
G75*
G03*
X70970000Y-105120000I-2250000J0D01*
G01*
X70970000Y-105120000D02*
G75*
G03*
X75470000Y-105120000I2250000J0D01*
G01*
X180820000Y-116120000D02*
G75*
G03*
X182820000Y-114120000I0J2000000D01*
G01*
X71620000Y-64120000D02*
G75*
G03*
X69620000Y-66120000I0J-2000000D01*
G01*
X69620000Y-106120000D02*
G75*
G03*
X71620000Y-108120000I2000000J0D01*
G01*
X172720000Y-56020000D02*
X79720000Y-56020000D01*
X182820000Y-74120000D02*
X182820000Y-114120000D01*
X77720000Y-110120000D02*
X77720000Y-122220000D01*
X172720000Y-124220000D02*
X79720000Y-124220000D01*
X75720000Y-64120000D02*
G75*
G03*
X77720000Y-62120000I0J2000000D01*
G01*
X176720000Y-116120000D02*
X180820000Y-116120000D01*
X75470000Y-90120000D02*
G75*
G03*
X70970000Y-90120000I-2250000J0D01*
G01*
X70970000Y-90120000D02*
G75*
G03*
X75470000Y-90120000I2250000J0D01*
G01*
X174720000Y-70120000D02*
G75*
G03*
X176720000Y-72120000I2000000J0D01*
G01*
X174720000Y-118120000D02*
X174720000Y-122220000D01*
X79720000Y-56020000D02*
G75*
G03*
X77720000Y-58020000I0J-2000000D01*
G01*
X182820000Y-74120000D02*
G75*
G03*
X180820000Y-72120000I-2000000J0D01*
G01*
X176720000Y-72120000D02*
X180820000Y-72120000D01*
M02*
