%TF.GenerationSoftware,KiCad,Pcbnew,7.0.10*%
%TF.CreationDate,2024-02-15T22:29:50-05:00*%
%TF.ProjectId,heaterboard-2,68656174-6572-4626-9f61-72642d322e6b,2*%
%TF.SameCoordinates,Original*%
%TF.FileFunction,Copper,L4,Bot*%
%TF.FilePolarity,Positive*%
%FSLAX46Y46*%
G04 Gerber Fmt 4.6, Leading zero omitted, Abs format (unit mm)*
G04 Created by KiCad (PCBNEW 7.0.10) date 2024-02-15 22:29:50*
%MOMM*%
%LPD*%
G01*
G04 APERTURE LIST*
G04 Aperture macros list*
%AMRoundRect*
0 Rectangle with rounded corners*
0 $1 Rounding radius*
0 $2 $3 $4 $5 $6 $7 $8 $9 X,Y pos of 4 corners*
0 Add a 4 corners polygon primitive as box body*
4,1,4,$2,$3,$4,$5,$6,$7,$8,$9,$2,$3,0*
0 Add four circle primitives for the rounded corners*
1,1,$1+$1,$2,$3*
1,1,$1+$1,$4,$5*
1,1,$1+$1,$6,$7*
1,1,$1+$1,$8,$9*
0 Add four rect primitives between the rounded corners*
20,1,$1+$1,$2,$3,$4,$5,0*
20,1,$1+$1,$4,$5,$6,$7,0*
20,1,$1+$1,$6,$7,$8,$9,0*
20,1,$1+$1,$8,$9,$2,$3,0*%
G04 Aperture macros list end*
%TA.AperFunction,ComponentPad*%
%ADD10R,1.905000X2.000000*%
%TD*%
%TA.AperFunction,ComponentPad*%
%ADD11O,1.905000X2.000000*%
%TD*%
%TA.AperFunction,ComponentPad*%
%ADD12RoundRect,0.250002X1.599998X1.599998X-1.599998X1.599998X-1.599998X-1.599998X1.599998X-1.599998X0*%
%TD*%
%TA.AperFunction,ComponentPad*%
%ADD13C,3.700000*%
%TD*%
%TA.AperFunction,ComponentPad*%
%ADD14C,1.727200*%
%TD*%
%TA.AperFunction,ComponentPad*%
%ADD15R,1.727200X1.727200*%
%TD*%
%TA.AperFunction,ComponentPad*%
%ADD16RoundRect,0.250001X-0.499999X-0.759999X0.499999X-0.759999X0.499999X0.759999X-0.499999X0.759999X0*%
%TD*%
%TA.AperFunction,ComponentPad*%
%ADD17O,1.500000X2.020000*%
%TD*%
%TA.AperFunction,ComponentPad*%
%ADD18RoundRect,0.250001X0.499999X0.759999X-0.499999X0.759999X-0.499999X-0.759999X0.499999X-0.759999X0*%
%TD*%
%TA.AperFunction,ViaPad*%
%ADD19C,0.800000*%
%TD*%
%TA.AperFunction,Conductor*%
%ADD20C,0.635000*%
%TD*%
%TA.AperFunction,Conductor*%
%ADD21C,1.016000*%
%TD*%
G04 APERTURE END LIST*
D10*
%TO.P,Q1,1,G*%
%TO.N,/D9*%
X99060000Y-99060000D03*
D11*
%TO.P,Q1,2,D*%
%TO.N,Net-(J2-Pin_1)*%
X101600000Y-99060000D03*
%TO.P,Q1,3,S*%
%TO.N,GND*%
X104140000Y-99060000D03*
%TD*%
D12*
%TO.P,J1,1,Pin_1*%
%TO.N,GND*%
X86360000Y-87165000D03*
D13*
%TO.P,J1,2,Pin_2*%
%TO.N,+12V*%
X86360000Y-81665000D03*
%TD*%
D10*
%TO.P,U1,1,ADJ*%
%TO.N,Net-(U1-ADJ)*%
X99060000Y-81845000D03*
D11*
%TO.P,U1,2,VO*%
%TO.N,+9V*%
X101600000Y-81845000D03*
%TO.P,U1,3,VI*%
%TO.N,+12V*%
X104140000Y-81845000D03*
%TD*%
D14*
%TO.P,A1,3V3,3.3V*%
%TO.N,+3V3*%
X144780000Y-96520000D03*
%TO.P,A1,5V,5V*%
%TO.N,+5V*%
X144780000Y-71120000D03*
%TO.P,A1,A0,A0*%
%TO.N,/A0*%
X144780000Y-91440000D03*
%TO.P,A1,A1,A1*%
%TO.N,/A1*%
X144780000Y-88900000D03*
%TO.P,A1,A2,A2*%
%TO.N,/A2*%
X144780000Y-86360000D03*
%TO.P,A1,A3,A3*%
%TO.N,/A3*%
X144780000Y-83820000D03*
%TO.P,A1,A4,A4/SDA*%
%TO.N,/A4*%
X144780000Y-81280000D03*
%TO.P,A1,A5,A5/SCL*%
%TO.N,/A5*%
X144780000Y-78740000D03*
%TO.P,A1,A6,A6*%
%TO.N,/A6*%
X144780000Y-76200000D03*
%TO.P,A1,A7,A7*%
%TO.N,/A7*%
X144780000Y-73660000D03*
%TO.P,A1,AREF,AREF*%
%TO.N,/AREF*%
X144780000Y-93980000D03*
%TO.P,A1,D0,D0/RX*%
%TO.N,/D0*%
X129540000Y-66040000D03*
%TO.P,A1,D1,D1/TX*%
%TO.N,/D1*%
X129540000Y-63500000D03*
%TO.P,A1,D2,D2_INT0*%
%TO.N,/D2*%
X129540000Y-73660000D03*
%TO.P,A1,D3,D3_INT1*%
%TO.N,/D3*%
X129540000Y-76200000D03*
%TO.P,A1,D4,D4*%
%TO.N,/D4*%
X129540000Y-78740000D03*
%TO.P,A1,D5,D5*%
%TO.N,/D5*%
X129540000Y-81280000D03*
%TO.P,A1,D6,D6*%
%TO.N,/D6*%
X129540000Y-83820000D03*
%TO.P,A1,D7,D7*%
%TO.N,/D7*%
X129540000Y-86360000D03*
%TO.P,A1,D8,D8*%
%TO.N,/D8*%
X129540000Y-88900000D03*
%TO.P,A1,D9,D9*%
%TO.N,/D9*%
X129540000Y-91440000D03*
%TO.P,A1,D10,D10*%
%TO.N,/D10*%
X129540000Y-93980000D03*
%TO.P,A1,D11,D11_MOSI*%
%TO.N,/D11*%
X129540000Y-96520000D03*
%TO.P,A1,D12,D12_MISO*%
%TO.N,/D12*%
X129540000Y-99060000D03*
%TO.P,A1,D13,D13_SCK*%
%TO.N,/D13*%
X144780000Y-99060000D03*
D15*
%TO.P,A1,GND1,GND*%
%TO.N,GND*%
X129540000Y-71120000D03*
%TO.P,A1,GND2,GND*%
X144780000Y-66040000D03*
D14*
%TO.P,A1,RST1,RESET*%
%TO.N,unconnected-(A1-RESET-PadRST1)*%
X129540000Y-68580000D03*
%TO.P,A1,RST2,RESET*%
%TO.N,unconnected-(A1-RESET-PadRST2)*%
X144780000Y-68580000D03*
%TO.P,A1,VIN,VIN*%
%TO.N,+9V*%
X144780000Y-63500000D03*
%TD*%
D16*
%TO.P,J4,1,Pin_1*%
%TO.N,unconnected-(J4-Pin_1-Pad1)*%
X154940000Y-79375000D03*
D17*
%TO.P,J4,2,Pin_2*%
%TO.N,+12V*%
X157940000Y-79375000D03*
%TO.P,J4,3,Pin_3*%
%TO.N,Net-(J4-Pin_3)*%
X160940000Y-79375000D03*
%TO.P,J4,4,Pin_4*%
%TO.N,+12V*%
X163940000Y-79375000D03*
%TO.P,J4,5,Pin_5*%
%TO.N,GND*%
X166940000Y-79375000D03*
%TD*%
D12*
%TO.P,J2,1,Pin_1*%
%TO.N,Net-(J2-Pin_1)*%
X116840000Y-86780000D03*
D13*
%TO.P,J2,2,Pin_2*%
%TO.N,+12V*%
X116840000Y-81280000D03*
%TD*%
D18*
%TO.P,J3,1,Pin_1*%
%TO.N,+5V*%
X164520000Y-94740000D03*
D17*
%TO.P,J3,2,Pin_2*%
%TO.N,GND*%
X161520000Y-94740000D03*
%TO.P,J3,3,Pin_3*%
%TO.N,/A5*%
X158520000Y-94740000D03*
%TO.P,J3,4,Pin_4*%
%TO.N,/A4*%
X155520000Y-94740000D03*
%TD*%
D19*
%TO.N,GND*%
X164465000Y-65405000D03*
X105410000Y-70485000D03*
X101600000Y-70485000D03*
X156845000Y-65405000D03*
X97790000Y-70485000D03*
%TO.N,+9V*%
X93980000Y-76835000D03*
X101600000Y-76835000D03*
%TO.N,+12V*%
X105410000Y-77470000D03*
X151130000Y-72390000D03*
%TO.N,+5V*%
X164465000Y-90170000D03*
X154658322Y-85725000D03*
X154658322Y-85725000D03*
X151130000Y-85725000D03*
%TD*%
D20*
%TO.N,+9V*%
X97145500Y-76835000D02*
X93980000Y-76835000D01*
X101600000Y-76835000D02*
X101600000Y-81845000D01*
D21*
X105410000Y-79375000D02*
X104070000Y-79375000D01*
X144780000Y-63500000D02*
X139700000Y-58420000D01*
X126365000Y-58420000D02*
X105410000Y-79375000D01*
X139700000Y-58420000D02*
X126365000Y-58420000D01*
D20*
X101600000Y-81845000D02*
X101600000Y-81289500D01*
X101600000Y-81289500D02*
X97145500Y-76835000D01*
D21*
X104070000Y-79375000D02*
X101600000Y-81845000D01*
D20*
%TO.N,+5V*%
X151130000Y-85725000D02*
X154658322Y-85725000D01*
X154658322Y-85725000D02*
X148590000Y-79656678D01*
X148590000Y-79656678D02*
X148590000Y-74930000D01*
X164465000Y-86360000D02*
X163830000Y-85725000D01*
X148590000Y-74930000D02*
X144780000Y-71120000D01*
X164465000Y-90170000D02*
X164465000Y-86360000D01*
X163830000Y-85725000D02*
X154658322Y-85725000D01*
%TD*%
M02*
