%TF.GenerationSoftware,KiCad,Pcbnew,7.0.10*%
%TF.CreationDate,2024-02-15T22:12:48-05:00*%
%TF.ProjectId,heaterboard-2,68656174-6572-4626-9f61-72642d322e6b,2*%
%TF.SameCoordinates,Original*%
%TF.FileFunction,Legend,Bot*%
%TF.FilePolarity,Positive*%
%FSLAX46Y46*%
G04 Gerber Fmt 4.6, Leading zero omitted, Abs format (unit mm)*
G04 Created by KiCad (PCBNEW 7.0.10) date 2024-02-15 22:12:48*
%MOMM*%
%LPD*%
G01*
G04 APERTURE LIST*
%ADD10C,0.150000*%
G04 APERTURE END LIST*
D10*
X130990180Y-66778094D02*
X131990180Y-66778094D01*
X131990180Y-66778094D02*
X131990180Y-66539999D01*
X131990180Y-66539999D02*
X131942561Y-66397142D01*
X131942561Y-66397142D02*
X131847323Y-66301904D01*
X131847323Y-66301904D02*
X131752085Y-66254285D01*
X131752085Y-66254285D02*
X131561609Y-66206666D01*
X131561609Y-66206666D02*
X131418752Y-66206666D01*
X131418752Y-66206666D02*
X131228276Y-66254285D01*
X131228276Y-66254285D02*
X131133038Y-66301904D01*
X131133038Y-66301904D02*
X131037800Y-66397142D01*
X131037800Y-66397142D02*
X130990180Y-66539999D01*
X130990180Y-66539999D02*
X130990180Y-66778094D01*
X131990180Y-65587618D02*
X131990180Y-65492380D01*
X131990180Y-65492380D02*
X131942561Y-65397142D01*
X131942561Y-65397142D02*
X131894942Y-65349523D01*
X131894942Y-65349523D02*
X131799704Y-65301904D01*
X131799704Y-65301904D02*
X131609228Y-65254285D01*
X131609228Y-65254285D02*
X131371133Y-65254285D01*
X131371133Y-65254285D02*
X131180657Y-65301904D01*
X131180657Y-65301904D02*
X131085419Y-65349523D01*
X131085419Y-65349523D02*
X131037800Y-65397142D01*
X131037800Y-65397142D02*
X130990180Y-65492380D01*
X130990180Y-65492380D02*
X130990180Y-65587618D01*
X130990180Y-65587618D02*
X131037800Y-65682856D01*
X131037800Y-65682856D02*
X131085419Y-65730475D01*
X131085419Y-65730475D02*
X131180657Y-65778094D01*
X131180657Y-65778094D02*
X131371133Y-65825713D01*
X131371133Y-65825713D02*
X131609228Y-65825713D01*
X131609228Y-65825713D02*
X131799704Y-65778094D01*
X131799704Y-65778094D02*
X131894942Y-65730475D01*
X131894942Y-65730475D02*
X131942561Y-65682856D01*
X131942561Y-65682856D02*
X131990180Y-65587618D01*
M02*
