%TF.GenerationSoftware,KiCad,Pcbnew,7.0.10*%
%TF.CreationDate,2024-02-15T22:12:48-05:00*%
%TF.ProjectId,heaterboard-2,68656174-6572-4626-9f61-72642d322e6b,2*%
%TF.SameCoordinates,Original*%
%TF.FileFunction,Copper,L3,Inr*%
%TF.FilePolarity,Positive*%
%FSLAX46Y46*%
G04 Gerber Fmt 4.6, Leading zero omitted, Abs format (unit mm)*
G04 Created by KiCad (PCBNEW 7.0.10) date 2024-02-15 22:12:48*
%MOMM*%
%LPD*%
G01*
G04 APERTURE LIST*
G04 Aperture macros list*
%AMRoundRect*
0 Rectangle with rounded corners*
0 $1 Rounding radius*
0 $2 $3 $4 $5 $6 $7 $8 $9 X,Y pos of 4 corners*
0 Add a 4 corners polygon primitive as box body*
4,1,4,$2,$3,$4,$5,$6,$7,$8,$9,$2,$3,0*
0 Add four circle primitives for the rounded corners*
1,1,$1+$1,$2,$3*
1,1,$1+$1,$4,$5*
1,1,$1+$1,$6,$7*
1,1,$1+$1,$8,$9*
0 Add four rect primitives between the rounded corners*
20,1,$1+$1,$2,$3,$4,$5,0*
20,1,$1+$1,$4,$5,$6,$7,0*
20,1,$1+$1,$6,$7,$8,$9,0*
20,1,$1+$1,$8,$9,$2,$3,0*%
G04 Aperture macros list end*
%TA.AperFunction,ComponentPad*%
%ADD10R,1.905000X2.000000*%
%TD*%
%TA.AperFunction,ComponentPad*%
%ADD11O,1.905000X2.000000*%
%TD*%
%TA.AperFunction,ComponentPad*%
%ADD12RoundRect,0.250002X1.599998X1.599998X-1.599998X1.599998X-1.599998X-1.599998X1.599998X-1.599998X0*%
%TD*%
%TA.AperFunction,ComponentPad*%
%ADD13C,3.700000*%
%TD*%
%TA.AperFunction,ComponentPad*%
%ADD14C,1.727200*%
%TD*%
%TA.AperFunction,ComponentPad*%
%ADD15R,1.727200X1.727200*%
%TD*%
%TA.AperFunction,ComponentPad*%
%ADD16RoundRect,0.250001X-0.499999X-0.759999X0.499999X-0.759999X0.499999X0.759999X-0.499999X0.759999X0*%
%TD*%
%TA.AperFunction,ComponentPad*%
%ADD17O,1.500000X2.020000*%
%TD*%
%TA.AperFunction,ComponentPad*%
%ADD18RoundRect,0.250001X0.499999X0.759999X-0.499999X0.759999X-0.499999X-0.759999X0.499999X-0.759999X0*%
%TD*%
%TA.AperFunction,ViaPad*%
%ADD19C,0.800000*%
%TD*%
G04 APERTURE END LIST*
D10*
%TO.N,/D9*%
%TO.C,Q1*%
X99060000Y-99060000D03*
D11*
%TO.N,Net-(J2-Pin_1)*%
X101600000Y-99060000D03*
%TO.N,GND*%
X104140000Y-99060000D03*
%TD*%
D12*
%TO.N,GND*%
%TO.C,J1*%
X86360000Y-87165000D03*
D13*
%TO.N,+12V*%
X86360000Y-81665000D03*
%TD*%
D10*
%TO.N,Net-(U1-ADJ)*%
%TO.C,U1*%
X99060000Y-81845000D03*
D11*
%TO.N,+9V*%
X101600000Y-81845000D03*
%TO.N,+12V*%
X104140000Y-81845000D03*
%TD*%
D14*
%TO.N,+3V3*%
%TO.C,A1*%
X144780000Y-96520000D03*
%TO.N,+5V*%
X144780000Y-71120000D03*
%TO.N,/A0*%
X144780000Y-91440000D03*
%TO.N,/A1*%
X144780000Y-88900000D03*
%TO.N,/A2*%
X144780000Y-86360000D03*
%TO.N,/A3*%
X144780000Y-83820000D03*
%TO.N,/A4*%
X144780000Y-81280000D03*
%TO.N,/A5*%
X144780000Y-78740000D03*
%TO.N,/A6*%
X144780000Y-76200000D03*
%TO.N,/A7*%
X144780000Y-73660000D03*
%TO.N,/AREF*%
X144780000Y-93980000D03*
%TO.N,/D0*%
X129540000Y-66040000D03*
%TO.N,/D1*%
X129540000Y-63500000D03*
%TO.N,/D2*%
X129540000Y-73660000D03*
%TO.N,/D3*%
X129540000Y-76200000D03*
%TO.N,/D4*%
X129540000Y-78740000D03*
%TO.N,/D5*%
X129540000Y-81280000D03*
%TO.N,/D6*%
X129540000Y-83820000D03*
%TO.N,/D7*%
X129540000Y-86360000D03*
%TO.N,/D8*%
X129540000Y-88900000D03*
%TO.N,/D9*%
X129540000Y-91440000D03*
%TO.N,/D10*%
X129540000Y-93980000D03*
%TO.N,/D11*%
X129540000Y-96520000D03*
%TO.N,/D12*%
X129540000Y-99060000D03*
%TO.N,/D13*%
X144780000Y-99060000D03*
D15*
%TO.N,GND*%
X129540000Y-71120000D03*
X144780000Y-66040000D03*
D14*
%TO.N,unconnected-(A1-RESET-PadRST1)*%
X129540000Y-68580000D03*
%TO.N,unconnected-(A1-RESET-PadRST2)*%
X144780000Y-68580000D03*
%TO.N,+9V*%
X144780000Y-63500000D03*
%TD*%
D16*
%TO.N,unconnected-(J4-Pin_1-Pad1)*%
%TO.C,J4*%
X154940000Y-79375000D03*
D17*
%TO.N,+12V*%
X157940000Y-79375000D03*
%TO.N,Net-(J4-Pin_3)*%
X160940000Y-79375000D03*
%TO.N,+12V*%
X163940000Y-79375000D03*
%TO.N,GND*%
X166940000Y-79375000D03*
%TD*%
D12*
%TO.N,Net-(J2-Pin_1)*%
%TO.C,J2*%
X116840000Y-86780000D03*
D13*
%TO.N,+12V*%
X116840000Y-81280000D03*
%TD*%
D18*
%TO.N,+5V*%
%TO.C,J3*%
X164520000Y-94740000D03*
D17*
%TO.N,GND*%
X161520000Y-94740000D03*
%TO.N,/A5*%
X158520000Y-94740000D03*
%TO.N,/A4*%
X155520000Y-94740000D03*
%TD*%
D19*
%TO.N,GND*%
X164465000Y-65405000D03*
X105410000Y-70485000D03*
X101600000Y-70485000D03*
X156845000Y-65405000D03*
X97790000Y-70485000D03*
%TO.N,+9V*%
X93980000Y-76835000D03*
X101600000Y-76835000D03*
%TO.N,+12V*%
X105410000Y-77470000D03*
X151130000Y-72390000D03*
%TO.N,+5V*%
X164465000Y-90170000D03*
X154658322Y-85725000D03*
X154658322Y-85725000D03*
X151130000Y-85725000D03*
%TD*%
%TA.AperFunction,Conductor*%
%TO.N,+12V*%
G36*
X172724487Y-56528821D02*
G01*
X172768071Y-56531938D01*
X172923281Y-56543038D01*
X172941054Y-56545593D01*
X173131411Y-56587003D01*
X173148633Y-56592060D01*
X173331152Y-56660136D01*
X173347501Y-56667603D01*
X173518458Y-56760952D01*
X173533582Y-56770672D01*
X173689513Y-56887401D01*
X173703099Y-56899174D01*
X173840825Y-57036900D01*
X173852598Y-57050486D01*
X173969327Y-57206417D01*
X173979047Y-57221541D01*
X174072396Y-57392498D01*
X174079864Y-57408850D01*
X174147937Y-57591359D01*
X174152998Y-57608597D01*
X174194403Y-57798933D01*
X174196961Y-57816721D01*
X174211179Y-58015511D01*
X174211500Y-58024500D01*
X174211500Y-70271739D01*
X174248079Y-70572992D01*
X174248081Y-70573002D01*
X174320704Y-70867647D01*
X174428316Y-71151398D01*
X174428323Y-71151414D01*
X174569347Y-71420111D01*
X174569353Y-71420121D01*
X174602695Y-71468424D01*
X174624932Y-71535848D01*
X174625000Y-71540001D01*
X174625000Y-104140000D01*
X122555000Y-104140000D01*
X122555000Y-99060000D01*
X128163198Y-99060000D01*
X128181977Y-99286621D01*
X128237795Y-99507043D01*
X128237798Y-99507050D01*
X128329138Y-99715284D01*
X128387910Y-99805242D01*
X128453510Y-99905649D01*
X128607517Y-100072946D01*
X128786961Y-100212612D01*
X128786963Y-100212613D01*
X128786966Y-100212615D01*
X128959902Y-100306204D01*
X128986945Y-100320839D01*
X128986951Y-100320841D01*
X129022310Y-100332980D01*
X129080246Y-100374016D01*
X129106798Y-100439861D01*
X129093537Y-100509608D01*
X129044673Y-100561114D01*
X129037563Y-100564943D01*
X128931745Y-100617634D01*
X128931744Y-100617635D01*
X128761591Y-100746129D01*
X128617946Y-100903699D01*
X128617945Y-100903701D01*
X128505705Y-101084974D01*
X128505703Y-101084979D01*
X128428679Y-101283800D01*
X128428679Y-101283802D01*
X128389500Y-101493390D01*
X128389500Y-101706610D01*
X128428679Y-101916198D01*
X128505702Y-102115019D01*
X128505703Y-102115020D01*
X128505705Y-102115025D01*
X128617945Y-102296298D01*
X128617946Y-102296300D01*
X128617948Y-102296302D01*
X128761593Y-102453872D01*
X128931745Y-102582366D01*
X129122611Y-102677405D01*
X129327690Y-102735756D01*
X129486806Y-102750500D01*
X129486813Y-102750500D01*
X129593187Y-102750500D01*
X129593194Y-102750500D01*
X129752310Y-102735756D01*
X129957389Y-102677405D01*
X130148255Y-102582366D01*
X130318407Y-102453872D01*
X130462052Y-102296302D01*
X130574298Y-102115019D01*
X130651321Y-101916198D01*
X130690500Y-101706610D01*
X130690500Y-101493390D01*
X130651321Y-101283802D01*
X130574298Y-101084981D01*
X130462052Y-100903698D01*
X130318407Y-100746128D01*
X130148255Y-100617634D01*
X130042435Y-100564942D01*
X129990374Y-100516675D01*
X129972671Y-100447921D01*
X129994950Y-100380510D01*
X130050137Y-100335846D01*
X130057670Y-100332986D01*
X130093055Y-100320839D01*
X130293039Y-100212612D01*
X130472483Y-100072946D01*
X130626490Y-99905649D01*
X130750861Y-99715285D01*
X130842203Y-99507047D01*
X130898024Y-99286614D01*
X130916802Y-99060000D01*
X143403198Y-99060000D01*
X143421977Y-99286621D01*
X143477795Y-99507043D01*
X143477798Y-99507050D01*
X143569138Y-99715284D01*
X143627910Y-99805242D01*
X143693510Y-99905649D01*
X143847517Y-100072946D01*
X144026961Y-100212612D01*
X144026963Y-100212613D01*
X144026966Y-100212615D01*
X144199902Y-100306204D01*
X144226945Y-100320839D01*
X144226951Y-100320841D01*
X144262310Y-100332980D01*
X144320246Y-100374016D01*
X144346798Y-100439861D01*
X144333537Y-100509608D01*
X144284673Y-100561114D01*
X144277563Y-100564943D01*
X144171745Y-100617634D01*
X144171744Y-100617635D01*
X144001591Y-100746129D01*
X143857946Y-100903699D01*
X143857945Y-100903701D01*
X143745705Y-101084974D01*
X143745703Y-101084979D01*
X143668679Y-101283800D01*
X143668679Y-101283802D01*
X143629500Y-101493390D01*
X143629500Y-101706610D01*
X143668679Y-101916198D01*
X143745702Y-102115019D01*
X143745703Y-102115020D01*
X143745705Y-102115025D01*
X143857945Y-102296298D01*
X143857946Y-102296300D01*
X143857948Y-102296302D01*
X144001593Y-102453872D01*
X144171745Y-102582366D01*
X144362611Y-102677405D01*
X144567690Y-102735756D01*
X144726806Y-102750500D01*
X144726813Y-102750500D01*
X144833187Y-102750500D01*
X144833194Y-102750500D01*
X144992310Y-102735756D01*
X145197389Y-102677405D01*
X145388255Y-102582366D01*
X145558407Y-102453872D01*
X145702052Y-102296302D01*
X145814298Y-102115019D01*
X145891321Y-101916198D01*
X145930500Y-101706610D01*
X145930500Y-101493390D01*
X145891321Y-101283802D01*
X145814298Y-101084981D01*
X145702052Y-100903698D01*
X145558407Y-100746128D01*
X145388255Y-100617634D01*
X145282435Y-100564942D01*
X145230374Y-100516675D01*
X145212671Y-100447921D01*
X145234950Y-100380510D01*
X145290137Y-100335846D01*
X145297670Y-100332986D01*
X145333055Y-100320839D01*
X145533039Y-100212612D01*
X145712483Y-100072946D01*
X145866490Y-99905649D01*
X145990861Y-99715285D01*
X146082203Y-99507047D01*
X146138024Y-99286614D01*
X146145932Y-99191182D01*
X155919500Y-99191182D01*
X155941224Y-99335311D01*
X155958604Y-99450619D01*
X156035933Y-99701314D01*
X156035938Y-99701327D01*
X156149773Y-99937706D01*
X156149777Y-99937713D01*
X156266313Y-100108638D01*
X156297567Y-100154479D01*
X156476019Y-100346805D01*
X156681143Y-100510386D01*
X156681146Y-100510388D01*
X156908352Y-100641566D01*
X156908356Y-100641567D01*
X156908357Y-100641568D01*
X157152584Y-100737420D01*
X157408370Y-100795802D01*
X157604506Y-100810500D01*
X157604507Y-100810500D01*
X157735493Y-100810500D01*
X157735494Y-100810500D01*
X157931630Y-100795802D01*
X158187416Y-100737420D01*
X158431643Y-100641568D01*
X158431645Y-100641566D01*
X158431647Y-100641566D01*
X158545250Y-100575977D01*
X158658857Y-100510386D01*
X158863981Y-100346805D01*
X159042433Y-100154479D01*
X159190228Y-99937704D01*
X159304063Y-99701323D01*
X159363989Y-99507047D01*
X159381395Y-99450619D01*
X159381396Y-99450615D01*
X159420500Y-99191182D01*
X160619500Y-99191182D01*
X160641224Y-99335311D01*
X160658604Y-99450619D01*
X160735933Y-99701314D01*
X160735938Y-99701327D01*
X160849773Y-99937706D01*
X160849777Y-99937713D01*
X160966313Y-100108638D01*
X160997567Y-100154479D01*
X161176019Y-100346805D01*
X161381143Y-100510386D01*
X161381146Y-100510388D01*
X161608352Y-100641566D01*
X161608356Y-100641567D01*
X161608357Y-100641568D01*
X161852584Y-100737420D01*
X162108370Y-100795802D01*
X162304506Y-100810500D01*
X162304507Y-100810500D01*
X162435493Y-100810500D01*
X162435494Y-100810500D01*
X162631630Y-100795802D01*
X162887416Y-100737420D01*
X163131643Y-100641568D01*
X163131645Y-100641566D01*
X163131647Y-100641566D01*
X163245250Y-100575977D01*
X163358857Y-100510386D01*
X163563981Y-100346805D01*
X163742433Y-100154479D01*
X163890228Y-99937704D01*
X164004063Y-99701323D01*
X164063989Y-99507047D01*
X164081395Y-99450619D01*
X164081396Y-99450615D01*
X164120500Y-99191182D01*
X164120500Y-98928818D01*
X164081396Y-98669385D01*
X164081395Y-98669383D01*
X164081395Y-98669380D01*
X164004066Y-98418685D01*
X164004061Y-98418672D01*
X163905666Y-98214354D01*
X163890228Y-98182296D01*
X163890226Y-98182293D01*
X163890222Y-98182286D01*
X163742437Y-97965527D01*
X163742433Y-97965521D01*
X163563981Y-97773195D01*
X163358857Y-97609614D01*
X163358852Y-97609611D01*
X163358853Y-97609611D01*
X163131647Y-97478433D01*
X163131639Y-97478430D01*
X162887419Y-97382581D01*
X162887417Y-97382580D01*
X162631633Y-97324198D01*
X162484528Y-97313174D01*
X162435494Y-97309500D01*
X162304506Y-97309500D01*
X162265278Y-97312439D01*
X162108366Y-97324198D01*
X161852582Y-97382580D01*
X161852580Y-97382581D01*
X161608360Y-97478430D01*
X161608352Y-97478433D01*
X161381146Y-97609611D01*
X161176018Y-97773195D01*
X160997566Y-97965522D01*
X160997562Y-97965527D01*
X160849777Y-98182286D01*
X160849773Y-98182293D01*
X160735938Y-98418672D01*
X160735933Y-98418685D01*
X160658604Y-98669380D01*
X160643257Y-98771203D01*
X160619500Y-98928818D01*
X160619500Y-99191182D01*
X159420500Y-99191182D01*
X159420500Y-98928818D01*
X159381396Y-98669385D01*
X159381395Y-98669383D01*
X159381395Y-98669380D01*
X159304066Y-98418685D01*
X159304061Y-98418672D01*
X159205666Y-98214354D01*
X159190228Y-98182296D01*
X159190226Y-98182293D01*
X159190222Y-98182286D01*
X159042437Y-97965527D01*
X159042433Y-97965521D01*
X158863981Y-97773195D01*
X158658857Y-97609614D01*
X158658852Y-97609611D01*
X158658853Y-97609611D01*
X158431647Y-97478433D01*
X158431639Y-97478430D01*
X158187419Y-97382581D01*
X158187417Y-97382580D01*
X157931633Y-97324198D01*
X157784528Y-97313174D01*
X157735494Y-97309500D01*
X157604506Y-97309500D01*
X157565278Y-97312439D01*
X157408366Y-97324198D01*
X157152582Y-97382580D01*
X157152580Y-97382581D01*
X156908360Y-97478430D01*
X156908352Y-97478433D01*
X156681146Y-97609611D01*
X156476018Y-97773195D01*
X156297566Y-97965522D01*
X156297562Y-97965527D01*
X156149777Y-98182286D01*
X156149773Y-98182293D01*
X156035938Y-98418672D01*
X156035933Y-98418685D01*
X155958604Y-98669380D01*
X155943257Y-98771203D01*
X155919500Y-98928818D01*
X155919500Y-99191182D01*
X146145932Y-99191182D01*
X146156802Y-99060000D01*
X146138024Y-98833386D01*
X146122277Y-98771203D01*
X146082204Y-98612956D01*
X146082201Y-98612949D01*
X145990861Y-98404715D01*
X145866492Y-98214354D01*
X145866491Y-98214353D01*
X145866490Y-98214351D01*
X145712483Y-98047054D01*
X145533039Y-97907388D01*
X145533038Y-97907387D01*
X145528198Y-97904768D01*
X145520890Y-97900813D01*
X145470500Y-97850803D01*
X145455147Y-97781486D01*
X145479706Y-97714873D01*
X145520889Y-97679186D01*
X145533039Y-97672612D01*
X145712483Y-97532946D01*
X145866490Y-97365649D01*
X145990861Y-97175285D01*
X146082203Y-96967047D01*
X146138024Y-96746614D01*
X146156802Y-96520000D01*
X146138024Y-96293386D01*
X146114579Y-96200802D01*
X146082204Y-96072956D01*
X146082201Y-96072949D01*
X146074134Y-96054559D01*
X145990861Y-95864715D01*
X145866490Y-95674351D01*
X145712483Y-95507054D01*
X145533039Y-95367388D01*
X145533038Y-95367387D01*
X145528198Y-95364768D01*
X145520890Y-95360813D01*
X145470500Y-95310803D01*
X145455147Y-95241486D01*
X145479706Y-95174873D01*
X145520889Y-95139186D01*
X145533039Y-95132612D01*
X145630805Y-95056518D01*
X154261500Y-95056518D01*
X154276718Y-95225623D01*
X154336984Y-95443990D01*
X154435271Y-95648086D01*
X154435275Y-95648093D01*
X154568429Y-95831363D01*
X154568430Y-95831364D01*
X154732166Y-95987912D01*
X154900501Y-96099029D01*
X154921226Y-96112709D01*
X155129530Y-96201743D01*
X155350385Y-96252151D01*
X155576691Y-96262315D01*
X155801175Y-96231906D01*
X156016621Y-96161903D01*
X156216106Y-96054556D01*
X156393218Y-95913314D01*
X156542263Y-95742718D01*
X156658453Y-95548250D01*
X156738051Y-95336161D01*
X156742653Y-95310803D01*
X156778500Y-95113270D01*
X156778500Y-95056518D01*
X157261500Y-95056518D01*
X157276718Y-95225623D01*
X157336984Y-95443990D01*
X157435271Y-95648086D01*
X157435275Y-95648093D01*
X157568429Y-95831363D01*
X157568430Y-95831364D01*
X157732166Y-95987912D01*
X157900501Y-96099029D01*
X157921226Y-96112709D01*
X158129530Y-96201743D01*
X158350385Y-96252151D01*
X158576691Y-96262315D01*
X158801175Y-96231906D01*
X159016621Y-96161903D01*
X159216106Y-96054556D01*
X159393218Y-95913314D01*
X159542263Y-95742718D01*
X159658453Y-95548250D01*
X159738051Y-95336161D01*
X159742653Y-95310803D01*
X159778500Y-95113270D01*
X159778500Y-95056518D01*
X160261500Y-95056518D01*
X160276718Y-95225623D01*
X160336984Y-95443990D01*
X160435271Y-95648086D01*
X160435275Y-95648093D01*
X160568429Y-95831363D01*
X160568430Y-95831364D01*
X160732166Y-95987912D01*
X160900501Y-96099029D01*
X160921226Y-96112709D01*
X161129530Y-96201743D01*
X161350385Y-96252151D01*
X161576691Y-96262315D01*
X161801175Y-96231906D01*
X162016621Y-96161903D01*
X162216106Y-96054556D01*
X162393218Y-95913314D01*
X162542263Y-95742718D01*
X162657078Y-95550552D01*
X163261499Y-95550552D01*
X163272112Y-95654421D01*
X163272112Y-95654423D01*
X163272113Y-95654425D01*
X163327885Y-95822738D01*
X163385033Y-95915388D01*
X163420970Y-95973651D01*
X163420975Y-95973657D01*
X163546342Y-96099024D01*
X163546348Y-96099029D01*
X163546349Y-96099030D01*
X163697262Y-96192115D01*
X163865575Y-96247887D01*
X163893906Y-96250781D01*
X163969448Y-96258500D01*
X163969456Y-96258500D01*
X165070552Y-96258500D01*
X165139798Y-96251424D01*
X165174425Y-96247887D01*
X165342738Y-96192115D01*
X165493651Y-96099030D01*
X165619030Y-95973651D01*
X165712115Y-95822738D01*
X165767887Y-95654425D01*
X165771424Y-95619798D01*
X165778500Y-95550552D01*
X165778500Y-93929447D01*
X165770540Y-93851545D01*
X165767887Y-93825575D01*
X165712115Y-93657262D01*
X165619030Y-93506349D01*
X165619029Y-93506348D01*
X165619024Y-93506342D01*
X165493657Y-93380975D01*
X165493651Y-93380970D01*
X165435335Y-93345000D01*
X165342738Y-93287885D01*
X165174425Y-93232113D01*
X165174423Y-93232112D01*
X165174421Y-93232112D01*
X165070552Y-93221500D01*
X165070544Y-93221500D01*
X163969456Y-93221500D01*
X163969448Y-93221500D01*
X163865578Y-93232112D01*
X163697262Y-93287885D01*
X163697260Y-93287886D01*
X163546348Y-93380970D01*
X163546342Y-93380975D01*
X163420975Y-93506342D01*
X163420970Y-93506348D01*
X163327886Y-93657260D01*
X163327885Y-93657262D01*
X163272112Y-93825578D01*
X163261500Y-93929447D01*
X163261500Y-95550552D01*
X163261499Y-95550552D01*
X162657078Y-95550552D01*
X162658453Y-95548250D01*
X162738051Y-95336161D01*
X162742653Y-95310803D01*
X162778500Y-95113270D01*
X162778500Y-94423484D01*
X162778500Y-94423478D01*
X162763281Y-94254378D01*
X162763281Y-94254376D01*
X162703015Y-94036009D01*
X162604728Y-93831913D01*
X162604724Y-93831906D01*
X162600127Y-93825578D01*
X162471571Y-93648637D01*
X162350578Y-93532956D01*
X162307833Y-93492087D01*
X162118778Y-93367293D01*
X162118770Y-93367289D01*
X161910470Y-93278257D01*
X161910468Y-93278256D01*
X161689615Y-93227849D01*
X161463313Y-93217685D01*
X161463312Y-93217685D01*
X161463309Y-93217685D01*
X161356807Y-93232112D01*
X161238821Y-93248094D01*
X161023373Y-93318099D01*
X160823899Y-93425440D01*
X160823892Y-93425444D01*
X160646780Y-93566687D01*
X160497737Y-93737280D01*
X160381550Y-93931743D01*
X160381548Y-93931747D01*
X160301947Y-94143843D01*
X160261500Y-94366729D01*
X160261500Y-95056518D01*
X159778500Y-95056518D01*
X159778500Y-94423484D01*
X159778500Y-94423478D01*
X159763281Y-94254378D01*
X159763281Y-94254376D01*
X159703015Y-94036009D01*
X159604728Y-93831913D01*
X159604724Y-93831906D01*
X159600127Y-93825578D01*
X159471571Y-93648637D01*
X159350578Y-93532956D01*
X159307833Y-93492087D01*
X159118778Y-93367293D01*
X159118770Y-93367289D01*
X158910470Y-93278257D01*
X158910468Y-93278256D01*
X158689615Y-93227849D01*
X158463313Y-93217685D01*
X158463312Y-93217685D01*
X158463309Y-93217685D01*
X158356807Y-93232112D01*
X158238821Y-93248094D01*
X158023373Y-93318099D01*
X157823899Y-93425440D01*
X157823892Y-93425444D01*
X157646780Y-93566687D01*
X157497737Y-93737280D01*
X157381550Y-93931743D01*
X157381548Y-93931747D01*
X157301947Y-94143843D01*
X157261500Y-94366729D01*
X157261500Y-95056518D01*
X156778500Y-95056518D01*
X156778500Y-94423484D01*
X156778500Y-94423478D01*
X156763281Y-94254378D01*
X156763281Y-94254376D01*
X156703015Y-94036009D01*
X156604728Y-93831913D01*
X156604724Y-93831906D01*
X156600127Y-93825578D01*
X156471571Y-93648637D01*
X156350578Y-93532956D01*
X156307833Y-93492087D01*
X156118778Y-93367293D01*
X156118770Y-93367289D01*
X155910470Y-93278257D01*
X155910468Y-93278256D01*
X155689615Y-93227849D01*
X155463313Y-93217685D01*
X155463312Y-93217685D01*
X155463309Y-93217685D01*
X155356807Y-93232112D01*
X155238821Y-93248094D01*
X155023373Y-93318099D01*
X154823899Y-93425440D01*
X154823892Y-93425444D01*
X154646780Y-93566687D01*
X154497737Y-93737280D01*
X154381550Y-93931743D01*
X154381548Y-93931747D01*
X154301947Y-94143843D01*
X154261500Y-94366729D01*
X154261500Y-95056518D01*
X145630805Y-95056518D01*
X145712483Y-94992946D01*
X145866490Y-94825649D01*
X145990861Y-94635285D01*
X146082203Y-94427047D01*
X146138024Y-94206614D01*
X146156802Y-93980000D01*
X146138024Y-93753386D01*
X146111498Y-93648635D01*
X146082204Y-93532956D01*
X146082201Y-93532949D01*
X146040849Y-93438677D01*
X145990861Y-93324715D01*
X145866490Y-93134351D01*
X145712483Y-92967054D01*
X145533039Y-92827388D01*
X145533038Y-92827387D01*
X145528198Y-92824768D01*
X145520890Y-92820813D01*
X145470500Y-92770803D01*
X145455147Y-92701486D01*
X145479706Y-92634873D01*
X145520889Y-92599186D01*
X145533039Y-92592612D01*
X145712483Y-92452946D01*
X145866490Y-92285649D01*
X145990861Y-92095285D01*
X146082203Y-91887047D01*
X146138024Y-91666614D01*
X146156802Y-91440000D01*
X146138024Y-91213386D01*
X146138022Y-91213378D01*
X146082204Y-90992956D01*
X146082201Y-90992949D01*
X145990861Y-90784715D01*
X145866492Y-90594354D01*
X145866491Y-90594353D01*
X145866490Y-90594351D01*
X145712483Y-90427054D01*
X145533039Y-90287388D01*
X145533038Y-90287387D01*
X145528198Y-90284768D01*
X145520890Y-90280813D01*
X145470500Y-90230803D01*
X145457033Y-90170000D01*
X163551496Y-90170000D01*
X163571457Y-90359927D01*
X163593269Y-90427054D01*
X163630473Y-90541556D01*
X163630476Y-90541561D01*
X163725958Y-90706941D01*
X163725965Y-90706951D01*
X163853744Y-90848864D01*
X163853747Y-90848866D01*
X164008248Y-90961118D01*
X164182712Y-91038794D01*
X164369513Y-91078500D01*
X164560487Y-91078500D01*
X164747288Y-91038794D01*
X164921752Y-90961118D01*
X165076253Y-90848866D01*
X165204040Y-90706944D01*
X165299527Y-90541556D01*
X165358542Y-90359928D01*
X165378504Y-90170000D01*
X165358542Y-89980072D01*
X165299527Y-89798444D01*
X165204040Y-89633056D01*
X165204038Y-89633054D01*
X165204034Y-89633048D01*
X165076255Y-89491135D01*
X164921752Y-89378882D01*
X164747288Y-89301206D01*
X164560487Y-89261500D01*
X164369513Y-89261500D01*
X164182711Y-89301206D01*
X164008247Y-89378882D01*
X163853744Y-89491135D01*
X163725965Y-89633048D01*
X163725958Y-89633058D01*
X163630476Y-89798438D01*
X163630473Y-89798445D01*
X163571457Y-89980072D01*
X163551496Y-90170000D01*
X145457033Y-90170000D01*
X145455147Y-90161486D01*
X145479706Y-90094873D01*
X145520889Y-90059186D01*
X145533039Y-90052612D01*
X145712483Y-89912946D01*
X145866490Y-89745649D01*
X145990861Y-89555285D01*
X146082203Y-89347047D01*
X146138024Y-89126614D01*
X146156802Y-88900000D01*
X146138024Y-88673386D01*
X146138022Y-88673378D01*
X146082204Y-88452956D01*
X146082201Y-88452949D01*
X145990861Y-88244715D01*
X145866492Y-88054354D01*
X145866491Y-88054353D01*
X145866490Y-88054351D01*
X145712483Y-87887054D01*
X145533039Y-87747388D01*
X145533038Y-87747387D01*
X145528198Y-87744768D01*
X145520890Y-87740813D01*
X145470500Y-87690803D01*
X145455147Y-87621486D01*
X145479706Y-87554873D01*
X145520889Y-87519186D01*
X145533039Y-87512612D01*
X145712483Y-87372946D01*
X145866490Y-87205649D01*
X145990861Y-87015285D01*
X146082203Y-86807047D01*
X146138024Y-86586614D01*
X146156802Y-86360000D01*
X146138024Y-86133386D01*
X146082203Y-85912953D01*
X145999759Y-85725000D01*
X150216496Y-85725000D01*
X150236457Y-85914927D01*
X150266526Y-86007470D01*
X150295473Y-86096556D01*
X150295476Y-86096561D01*
X150390958Y-86261941D01*
X150390965Y-86261951D01*
X150518744Y-86403864D01*
X150518747Y-86403866D01*
X150673248Y-86516118D01*
X150847712Y-86593794D01*
X151034513Y-86633500D01*
X151225487Y-86633500D01*
X151412288Y-86593794D01*
X151586752Y-86516118D01*
X151741253Y-86403866D01*
X151869040Y-86261944D01*
X151964527Y-86096556D01*
X152023542Y-85914928D01*
X152043504Y-85725000D01*
X153744818Y-85725000D01*
X153764779Y-85914927D01*
X153794848Y-86007470D01*
X153823795Y-86096556D01*
X153823798Y-86096561D01*
X153919280Y-86261941D01*
X153919287Y-86261951D01*
X154047066Y-86403864D01*
X154047069Y-86403866D01*
X154201570Y-86516118D01*
X154376034Y-86593794D01*
X154562835Y-86633500D01*
X154753809Y-86633500D01*
X154940610Y-86593794D01*
X155115074Y-86516118D01*
X155269575Y-86403866D01*
X155397362Y-86261944D01*
X155492849Y-86096556D01*
X155551864Y-85914928D01*
X155571826Y-85725000D01*
X155551864Y-85535072D01*
X155492849Y-85353444D01*
X155397362Y-85188056D01*
X155397360Y-85188054D01*
X155397356Y-85188048D01*
X155269577Y-85046135D01*
X155115074Y-84933882D01*
X154940610Y-84856206D01*
X154753809Y-84816500D01*
X154562835Y-84816500D01*
X154376033Y-84856206D01*
X154201569Y-84933882D01*
X154047066Y-85046135D01*
X153919287Y-85188048D01*
X153919280Y-85188058D01*
X153823798Y-85353438D01*
X153823795Y-85353445D01*
X153764779Y-85535072D01*
X153744818Y-85725000D01*
X152043504Y-85725000D01*
X152023542Y-85535072D01*
X151964527Y-85353444D01*
X151869040Y-85188056D01*
X151869038Y-85188054D01*
X151869034Y-85188048D01*
X151741255Y-85046135D01*
X151586752Y-84933882D01*
X151412288Y-84856206D01*
X151225487Y-84816500D01*
X151034513Y-84816500D01*
X150847711Y-84856206D01*
X150673247Y-84933882D01*
X150518744Y-85046135D01*
X150390965Y-85188048D01*
X150390958Y-85188058D01*
X150295476Y-85353438D01*
X150295473Y-85353445D01*
X150236457Y-85535072D01*
X150216496Y-85725000D01*
X145999759Y-85725000D01*
X145990861Y-85704715D01*
X145866490Y-85514351D01*
X145718366Y-85353445D01*
X145712485Y-85347056D01*
X145712484Y-85347055D01*
X145712483Y-85347054D01*
X145533039Y-85207388D01*
X145533038Y-85207387D01*
X145528198Y-85204768D01*
X145520890Y-85200813D01*
X145470500Y-85150803D01*
X145455147Y-85081486D01*
X145479706Y-85014873D01*
X145520889Y-84979186D01*
X145533039Y-84972612D01*
X145712483Y-84832946D01*
X145866490Y-84665649D01*
X145990861Y-84475285D01*
X146082203Y-84267047D01*
X146138024Y-84046614D01*
X146156802Y-83820000D01*
X146138024Y-83593386D01*
X146082203Y-83372953D01*
X145990861Y-83164715D01*
X145866490Y-82974351D01*
X145712483Y-82807054D01*
X145533039Y-82667388D01*
X145533038Y-82667387D01*
X145528198Y-82664768D01*
X145520890Y-82660813D01*
X145470500Y-82610803D01*
X145455147Y-82541486D01*
X145479706Y-82474873D01*
X145520889Y-82439186D01*
X145533039Y-82432612D01*
X145712483Y-82292946D01*
X145866490Y-82125649D01*
X145990861Y-81935285D01*
X146082203Y-81727047D01*
X146138024Y-81506614D01*
X146156802Y-81280000D01*
X146138024Y-81053386D01*
X146124594Y-81000353D01*
X146082204Y-80832956D01*
X146082201Y-80832949D01*
X146079820Y-80827522D01*
X145990861Y-80624715D01*
X145986431Y-80617935D01*
X145866492Y-80434354D01*
X145866491Y-80434353D01*
X145866490Y-80434351D01*
X145712483Y-80267054D01*
X145607769Y-80185552D01*
X153681499Y-80185552D01*
X153692112Y-80289421D01*
X153692112Y-80289423D01*
X153692113Y-80289425D01*
X153747885Y-80457738D01*
X153813907Y-80564776D01*
X153840970Y-80608651D01*
X153840975Y-80608657D01*
X153966342Y-80734024D01*
X153966348Y-80734029D01*
X153966349Y-80734030D01*
X154117262Y-80827115D01*
X154285575Y-80882887D01*
X154313906Y-80885781D01*
X154389448Y-80893500D01*
X154389456Y-80893500D01*
X155490552Y-80893500D01*
X155559798Y-80886424D01*
X155594425Y-80882887D01*
X155762738Y-80827115D01*
X155913651Y-80734030D01*
X156039030Y-80608651D01*
X156132115Y-80457738D01*
X156132650Y-80456120D01*
X156133316Y-80455158D01*
X156135215Y-80451088D01*
X156135910Y-80451412D01*
X156173055Y-80397749D01*
X156238608Y-80370485D01*
X156308495Y-80382991D01*
X156360526Y-80431295D01*
X156361376Y-80432744D01*
X156476768Y-80632609D01*
X156641801Y-80839553D01*
X156835830Y-81019586D01*
X156835835Y-81019590D01*
X157054514Y-81168683D01*
X157054522Y-81168687D01*
X157292995Y-81283531D01*
X157293007Y-81283536D01*
X157432000Y-81326409D01*
X157432000Y-79455138D01*
X157471318Y-79589040D01*
X157550605Y-79712413D01*
X157661438Y-79808451D01*
X157794839Y-79869373D01*
X157903527Y-79885000D01*
X157976473Y-79885000D01*
X158085161Y-79869373D01*
X158218562Y-79808451D01*
X158329395Y-79712413D01*
X158408682Y-79589040D01*
X158448000Y-79455138D01*
X158448000Y-81326408D01*
X158586992Y-81283536D01*
X158587004Y-81283531D01*
X158825477Y-81168687D01*
X158825485Y-81168683D01*
X159044164Y-81019590D01*
X159044169Y-81019586D01*
X159238198Y-80839553D01*
X159403231Y-80632609D01*
X159535574Y-80403384D01*
X159535576Y-80403380D01*
X159599632Y-80240168D01*
X159643138Y-80184064D01*
X159710071Y-80160387D01*
X159779178Y-80176656D01*
X159828520Y-80227704D01*
X159830444Y-80231532D01*
X159855271Y-80283086D01*
X159855275Y-80283093D01*
X159988429Y-80466363D01*
X159988430Y-80466364D01*
X160152166Y-80622912D01*
X160320501Y-80734029D01*
X160341226Y-80747709D01*
X160549530Y-80836743D01*
X160770385Y-80887151D01*
X160996691Y-80897315D01*
X161221175Y-80866906D01*
X161436621Y-80796903D01*
X161636106Y-80689556D01*
X161813218Y-80548314D01*
X161962263Y-80377718D01*
X162055168Y-80222221D01*
X162107278Y-80174003D01*
X162177184Y-80161612D01*
X162242693Y-80188982D01*
X162280622Y-80240815D01*
X162344423Y-80403380D01*
X162344425Y-80403384D01*
X162476768Y-80632609D01*
X162641801Y-80839553D01*
X162835830Y-81019586D01*
X162835835Y-81019590D01*
X163054514Y-81168683D01*
X163054522Y-81168687D01*
X163292995Y-81283531D01*
X163293007Y-81283536D01*
X163432000Y-81326409D01*
X163432000Y-79455138D01*
X163471318Y-79589040D01*
X163550605Y-79712413D01*
X163661438Y-79808451D01*
X163794839Y-79869373D01*
X163903527Y-79885000D01*
X163976473Y-79885000D01*
X164085161Y-79869373D01*
X164218562Y-79808451D01*
X164329395Y-79712413D01*
X164408682Y-79589040D01*
X164448000Y-79455138D01*
X164448000Y-81326408D01*
X164586992Y-81283536D01*
X164587004Y-81283531D01*
X164825477Y-81168687D01*
X164825485Y-81168683D01*
X165044164Y-81019590D01*
X165044169Y-81019586D01*
X165238198Y-80839553D01*
X165403231Y-80632609D01*
X165535574Y-80403384D01*
X165535576Y-80403380D01*
X165599632Y-80240168D01*
X165643138Y-80184064D01*
X165710071Y-80160387D01*
X165779178Y-80176656D01*
X165828520Y-80227704D01*
X165830444Y-80231532D01*
X165855271Y-80283086D01*
X165855275Y-80283093D01*
X165988429Y-80466363D01*
X165988430Y-80466364D01*
X166152166Y-80622912D01*
X166320501Y-80734029D01*
X166341226Y-80747709D01*
X166549530Y-80836743D01*
X166770385Y-80887151D01*
X166996691Y-80897315D01*
X167221175Y-80866906D01*
X167436621Y-80796903D01*
X167636106Y-80689556D01*
X167813218Y-80548314D01*
X167962263Y-80377718D01*
X168078453Y-80183250D01*
X168158051Y-79971161D01*
X168172305Y-79892615D01*
X168198500Y-79748270D01*
X168198500Y-79058484D01*
X168198500Y-79058478D01*
X168183281Y-78889378D01*
X168183281Y-78889376D01*
X168123015Y-78671009D01*
X168024728Y-78466913D01*
X168024724Y-78466906D01*
X168020127Y-78460578D01*
X167891571Y-78283637D01*
X167742742Y-78141342D01*
X167727833Y-78127087D01*
X167538778Y-78002293D01*
X167538770Y-78002289D01*
X167330470Y-77913257D01*
X167330468Y-77913256D01*
X167109615Y-77862849D01*
X166883313Y-77852685D01*
X166883312Y-77852685D01*
X166883309Y-77852685D01*
X166776807Y-77867112D01*
X166658821Y-77883094D01*
X166443373Y-77953099D01*
X166243899Y-78060440D01*
X166243892Y-78060444D01*
X166066780Y-78201687D01*
X165917737Y-78372280D01*
X165824831Y-78527777D01*
X165772721Y-78575996D01*
X165702814Y-78588387D01*
X165637305Y-78561017D01*
X165599377Y-78509183D01*
X165535578Y-78346623D01*
X165535574Y-78346615D01*
X165403231Y-78117390D01*
X165238198Y-77910446D01*
X165044169Y-77730413D01*
X165044164Y-77730409D01*
X164825485Y-77581316D01*
X164825477Y-77581312D01*
X164673390Y-77508070D01*
X169054500Y-77508070D01*
X169093200Y-77690142D01*
X169168912Y-77860193D01*
X169278321Y-78010781D01*
X169416648Y-78135331D01*
X169416650Y-78135332D01*
X169427072Y-78141349D01*
X169577851Y-78228401D01*
X169577853Y-78228401D01*
X169577856Y-78228403D01*
X169754878Y-78285921D01*
X169791796Y-78289801D01*
X169893589Y-78300500D01*
X169893592Y-78300500D01*
X169986408Y-78300500D01*
X169986411Y-78300500D01*
X170106661Y-78287861D01*
X170125121Y-78285921D01*
X170302143Y-78228403D01*
X170302143Y-78228402D01*
X170302149Y-78228401D01*
X170463351Y-78135331D01*
X170472507Y-78127087D01*
X170601678Y-78010781D01*
X170601678Y-78010780D01*
X170601680Y-78010779D01*
X170711090Y-77860189D01*
X170786800Y-77690142D01*
X170825500Y-77508070D01*
X170825500Y-77321930D01*
X170786800Y-77139858D01*
X170711090Y-76969811D01*
X170711088Y-76969808D01*
X170711087Y-76969806D01*
X170601678Y-76819218D01*
X170463351Y-76694668D01*
X170463349Y-76694667D01*
X170302151Y-76601600D01*
X170302143Y-76601596D01*
X170125121Y-76544078D01*
X169986414Y-76529500D01*
X169986411Y-76529500D01*
X169893589Y-76529500D01*
X169893585Y-76529500D01*
X169754878Y-76544078D01*
X169577856Y-76601596D01*
X169577848Y-76601600D01*
X169416650Y-76694667D01*
X169416648Y-76694668D01*
X169278321Y-76819218D01*
X169168912Y-76969806D01*
X169093200Y-77139857D01*
X169077665Y-77212946D01*
X169054500Y-77321930D01*
X169054500Y-77508070D01*
X164673390Y-77508070D01*
X164587004Y-77466468D01*
X164448000Y-77423590D01*
X164448000Y-79294861D01*
X164408682Y-79160960D01*
X164329395Y-79037587D01*
X164218562Y-78941549D01*
X164085161Y-78880627D01*
X163976473Y-78865000D01*
X163903527Y-78865000D01*
X163794839Y-78880627D01*
X163661438Y-78941549D01*
X163550605Y-79037587D01*
X163471318Y-79160960D01*
X163432000Y-79294861D01*
X163432000Y-77423590D01*
X163431999Y-77423590D01*
X163292995Y-77466468D01*
X163054522Y-77581312D01*
X163054514Y-77581316D01*
X162835835Y-77730409D01*
X162835830Y-77730413D01*
X162641801Y-77910446D01*
X162476768Y-78117390D01*
X162344425Y-78346615D01*
X162280367Y-78509832D01*
X162236860Y-78565936D01*
X162169927Y-78589612D01*
X162100820Y-78573343D01*
X162051479Y-78522294D01*
X162049555Y-78518466D01*
X162024730Y-78466917D01*
X162024724Y-78466906D01*
X162020127Y-78460578D01*
X161891571Y-78283637D01*
X161742742Y-78141342D01*
X161727833Y-78127087D01*
X161538778Y-78002293D01*
X161538770Y-78002289D01*
X161330470Y-77913257D01*
X161330468Y-77913256D01*
X161109615Y-77862849D01*
X160883313Y-77852685D01*
X160883312Y-77852685D01*
X160883309Y-77852685D01*
X160776807Y-77867112D01*
X160658821Y-77883094D01*
X160443373Y-77953099D01*
X160243899Y-78060440D01*
X160243892Y-78060444D01*
X160066780Y-78201687D01*
X159917737Y-78372280D01*
X159824831Y-78527777D01*
X159772721Y-78575996D01*
X159702814Y-78588387D01*
X159637305Y-78561017D01*
X159599377Y-78509183D01*
X159535578Y-78346623D01*
X159535574Y-78346615D01*
X159403231Y-78117390D01*
X159238198Y-77910446D01*
X159044169Y-77730413D01*
X159044164Y-77730409D01*
X158825485Y-77581316D01*
X158825477Y-77581312D01*
X158587004Y-77466468D01*
X158448000Y-77423590D01*
X158448000Y-79294861D01*
X158408682Y-79160960D01*
X158329395Y-79037587D01*
X158218562Y-78941549D01*
X158085161Y-78880627D01*
X157976473Y-78865000D01*
X157903527Y-78865000D01*
X157794839Y-78880627D01*
X157661438Y-78941549D01*
X157550605Y-79037587D01*
X157471318Y-79160960D01*
X157432000Y-79294861D01*
X157432000Y-77423590D01*
X157431999Y-77423590D01*
X157292995Y-77466468D01*
X157054522Y-77581312D01*
X157054514Y-77581316D01*
X156835835Y-77730409D01*
X156835830Y-77730413D01*
X156641801Y-77910446D01*
X156476768Y-78117390D01*
X156361376Y-78317255D01*
X156309993Y-78366248D01*
X156240280Y-78379684D01*
X156174369Y-78353297D01*
X156135535Y-78298762D01*
X156135215Y-78298912D01*
X156134405Y-78297176D01*
X156133187Y-78295465D01*
X156132714Y-78294071D01*
X156132115Y-78292262D01*
X156039030Y-78141349D01*
X156039029Y-78141348D01*
X156039024Y-78141342D01*
X155913657Y-78015975D01*
X155913651Y-78015970D01*
X155811722Y-77953099D01*
X155762738Y-77922885D01*
X155594425Y-77867113D01*
X155594423Y-77867112D01*
X155594421Y-77867112D01*
X155490552Y-77856500D01*
X155490544Y-77856500D01*
X154389456Y-77856500D01*
X154389448Y-77856500D01*
X154285578Y-77867112D01*
X154117262Y-77922885D01*
X154117260Y-77922886D01*
X153966348Y-78015970D01*
X153966342Y-78015975D01*
X153840975Y-78141342D01*
X153840970Y-78141348D01*
X153747886Y-78292260D01*
X153747885Y-78292262D01*
X153692112Y-78460578D01*
X153681500Y-78564447D01*
X153681500Y-80185552D01*
X153681499Y-80185552D01*
X145607769Y-80185552D01*
X145533039Y-80127388D01*
X145533038Y-80127387D01*
X145528198Y-80124768D01*
X145520890Y-80120813D01*
X145470500Y-80070803D01*
X145455147Y-80001486D01*
X145479706Y-79934873D01*
X145520889Y-79899186D01*
X145533039Y-79892612D01*
X145712483Y-79752946D01*
X145866490Y-79585649D01*
X145990861Y-79395285D01*
X146082203Y-79187047D01*
X146138024Y-78966614D01*
X146156802Y-78740000D01*
X146138024Y-78513386D01*
X146136960Y-78509183D01*
X146082204Y-78292956D01*
X146082201Y-78292949D01*
X146081898Y-78292259D01*
X145990861Y-78084715D01*
X145866490Y-77894351D01*
X145715575Y-77730413D01*
X145712485Y-77727056D01*
X145712484Y-77727055D01*
X145712483Y-77727054D01*
X145533039Y-77587388D01*
X145533038Y-77587387D01*
X145528198Y-77584768D01*
X145520890Y-77580813D01*
X145470500Y-77530803D01*
X145465465Y-77508070D01*
X151054500Y-77508070D01*
X151093200Y-77690142D01*
X151168912Y-77860193D01*
X151278321Y-78010781D01*
X151416648Y-78135331D01*
X151416650Y-78135332D01*
X151427072Y-78141349D01*
X151577851Y-78228401D01*
X151577853Y-78228401D01*
X151577856Y-78228403D01*
X151754878Y-78285921D01*
X151791796Y-78289801D01*
X151893589Y-78300500D01*
X151893592Y-78300500D01*
X151986408Y-78300500D01*
X151986411Y-78300500D01*
X152106661Y-78287861D01*
X152125121Y-78285921D01*
X152302143Y-78228403D01*
X152302143Y-78228402D01*
X152302149Y-78228401D01*
X152463351Y-78135331D01*
X152472507Y-78127087D01*
X152601678Y-78010781D01*
X152601678Y-78010780D01*
X152601680Y-78010779D01*
X152711090Y-77860189D01*
X152786800Y-77690142D01*
X152825500Y-77508070D01*
X152825500Y-77321930D01*
X152786800Y-77139858D01*
X152711090Y-76969811D01*
X152711088Y-76969808D01*
X152711087Y-76969806D01*
X152601678Y-76819218D01*
X152463351Y-76694668D01*
X152463349Y-76694667D01*
X152302151Y-76601600D01*
X152302143Y-76601596D01*
X152125121Y-76544078D01*
X151986414Y-76529500D01*
X151986411Y-76529500D01*
X151893589Y-76529500D01*
X151893585Y-76529500D01*
X151754878Y-76544078D01*
X151577856Y-76601596D01*
X151577848Y-76601600D01*
X151416650Y-76694667D01*
X151416648Y-76694668D01*
X151278321Y-76819218D01*
X151168912Y-76969806D01*
X151093200Y-77139857D01*
X151077665Y-77212946D01*
X151054500Y-77321930D01*
X151054500Y-77508070D01*
X145465465Y-77508070D01*
X145455147Y-77461486D01*
X145479706Y-77394873D01*
X145520889Y-77359186D01*
X145533039Y-77352612D01*
X145712483Y-77212946D01*
X145866490Y-77045649D01*
X145990861Y-76855285D01*
X146082203Y-76647047D01*
X146138024Y-76426614D01*
X146156802Y-76200000D01*
X146138024Y-75973386D01*
X146082203Y-75752953D01*
X145990861Y-75544715D01*
X145866490Y-75354351D01*
X145712483Y-75187054D01*
X145533039Y-75047388D01*
X145533038Y-75047387D01*
X145528198Y-75044768D01*
X145520890Y-75040813D01*
X145470500Y-74990803D01*
X145455147Y-74921486D01*
X145479706Y-74854873D01*
X145520889Y-74819186D01*
X145533039Y-74812612D01*
X145712483Y-74672946D01*
X145866490Y-74505649D01*
X145990861Y-74315285D01*
X146082203Y-74107047D01*
X146138024Y-73886614D01*
X146156802Y-73660000D01*
X146138024Y-73433386D01*
X146082203Y-73212953D01*
X145990861Y-73004715D01*
X145866490Y-72814351D01*
X145712483Y-72647054D01*
X145533039Y-72507388D01*
X145533038Y-72507387D01*
X145528198Y-72504768D01*
X145520890Y-72500813D01*
X145470500Y-72450803D01*
X145455147Y-72381486D01*
X145479706Y-72314873D01*
X145520889Y-72279186D01*
X145533039Y-72272612D01*
X145712483Y-72132946D01*
X145866490Y-71965649D01*
X145990861Y-71775285D01*
X146082203Y-71567047D01*
X146138024Y-71346614D01*
X146156802Y-71120000D01*
X146138024Y-70893386D01*
X146082203Y-70672953D01*
X145990861Y-70464715D01*
X145866490Y-70274351D01*
X145718366Y-70113445D01*
X145712485Y-70107056D01*
X145712484Y-70107055D01*
X145712483Y-70107054D01*
X145533039Y-69967388D01*
X145533038Y-69967387D01*
X145528198Y-69964768D01*
X145520890Y-69960813D01*
X145470500Y-69910803D01*
X145455147Y-69841486D01*
X145479706Y-69774873D01*
X145520889Y-69739186D01*
X145533039Y-69732612D01*
X145712483Y-69592946D01*
X145866490Y-69425649D01*
X145990861Y-69235285D01*
X146082203Y-69027047D01*
X146138024Y-68806614D01*
X146156802Y-68580000D01*
X146138024Y-68353386D01*
X146082203Y-68132953D01*
X145990861Y-67924715D01*
X145866490Y-67734351D01*
X145739080Y-67595946D01*
X145707660Y-67532281D01*
X145715647Y-67461735D01*
X145760506Y-67406706D01*
X145787742Y-67392556D01*
X145889804Y-67354489D01*
X146006861Y-67266861D01*
X146094489Y-67149804D01*
X146145589Y-67012801D01*
X146152100Y-66952238D01*
X146152100Y-65405000D01*
X155931496Y-65405000D01*
X155951457Y-65594927D01*
X155981526Y-65687470D01*
X156010473Y-65776556D01*
X156010476Y-65776561D01*
X156105958Y-65941941D01*
X156105965Y-65941951D01*
X156233744Y-66083864D01*
X156233747Y-66083866D01*
X156388248Y-66196118D01*
X156562712Y-66273794D01*
X156749513Y-66313500D01*
X156940487Y-66313500D01*
X157127288Y-66273794D01*
X157301752Y-66196118D01*
X157456253Y-66083866D01*
X157584040Y-65941944D01*
X157679527Y-65776556D01*
X157738542Y-65594928D01*
X157758504Y-65405000D01*
X163551496Y-65405000D01*
X163571457Y-65594927D01*
X163601526Y-65687470D01*
X163630473Y-65776556D01*
X163630476Y-65776561D01*
X163725958Y-65941941D01*
X163725965Y-65941951D01*
X163853744Y-66083864D01*
X163853747Y-66083866D01*
X164008248Y-66196118D01*
X164182712Y-66273794D01*
X164369513Y-66313500D01*
X164560487Y-66313500D01*
X164747288Y-66273794D01*
X164921752Y-66196118D01*
X165076253Y-66083866D01*
X165204040Y-65941944D01*
X165299527Y-65776556D01*
X165358542Y-65594928D01*
X165378504Y-65405000D01*
X165358542Y-65215072D01*
X165299527Y-65033444D01*
X165204040Y-64868056D01*
X165204038Y-64868054D01*
X165204034Y-64868048D01*
X165076255Y-64726135D01*
X164921752Y-64613882D01*
X164747288Y-64536206D01*
X164560487Y-64496500D01*
X164369513Y-64496500D01*
X164182711Y-64536206D01*
X164008247Y-64613882D01*
X163853744Y-64726135D01*
X163725965Y-64868048D01*
X163725958Y-64868058D01*
X163630476Y-65033438D01*
X163630473Y-65033445D01*
X163571457Y-65215072D01*
X163551496Y-65405000D01*
X157758504Y-65405000D01*
X157738542Y-65215072D01*
X157679527Y-65033444D01*
X157584040Y-64868056D01*
X157584038Y-64868054D01*
X157584034Y-64868048D01*
X157456255Y-64726135D01*
X157301752Y-64613882D01*
X157127288Y-64536206D01*
X156940487Y-64496500D01*
X156749513Y-64496500D01*
X156562711Y-64536206D01*
X156388247Y-64613882D01*
X156233744Y-64726135D01*
X156105965Y-64868048D01*
X156105958Y-64868058D01*
X156010476Y-65033438D01*
X156010473Y-65033445D01*
X155951457Y-65215072D01*
X155931496Y-65405000D01*
X146152100Y-65405000D01*
X146152100Y-65127762D01*
X146152099Y-65127750D01*
X146145590Y-65067203D01*
X146145588Y-65067195D01*
X146094489Y-64930197D01*
X146094487Y-64930192D01*
X146006861Y-64813138D01*
X145889807Y-64725512D01*
X145889804Y-64725511D01*
X145787748Y-64687445D01*
X145730913Y-64644898D01*
X145706103Y-64578377D01*
X145721195Y-64509003D01*
X145739081Y-64484053D01*
X145866490Y-64345649D01*
X145885682Y-64316274D01*
X145990861Y-64155285D01*
X146082203Y-63947047D01*
X146138024Y-63726614D01*
X146156802Y-63500000D01*
X146138024Y-63273386D01*
X146082203Y-63052953D01*
X145990861Y-62844715D01*
X145866490Y-62654351D01*
X145712483Y-62487054D01*
X145533039Y-62347388D01*
X145533033Y-62347384D01*
X145333058Y-62239162D01*
X145333055Y-62239161D01*
X145297687Y-62227019D01*
X145239752Y-62185981D01*
X145213201Y-62120136D01*
X145226463Y-62050389D01*
X145275328Y-61998884D01*
X145282411Y-61995069D01*
X145388255Y-61942366D01*
X145558407Y-61813872D01*
X145702052Y-61656302D01*
X145814298Y-61475019D01*
X145891321Y-61276198D01*
X145930500Y-61066610D01*
X145930500Y-60853390D01*
X145891321Y-60643802D01*
X145814298Y-60444981D01*
X145702052Y-60263698D01*
X145558407Y-60106128D01*
X145388255Y-59977634D01*
X145197389Y-59882595D01*
X145197386Y-59882594D01*
X145197384Y-59882593D01*
X144992311Y-59824244D01*
X144972420Y-59822401D01*
X144833194Y-59809500D01*
X144726806Y-59809500D01*
X144603049Y-59820967D01*
X144567688Y-59824244D01*
X144362615Y-59882593D01*
X144362611Y-59882595D01*
X144171745Y-59977634D01*
X144171744Y-59977635D01*
X144001591Y-60106129D01*
X143857946Y-60263699D01*
X143857945Y-60263701D01*
X143745705Y-60444974D01*
X143745703Y-60444979D01*
X143668679Y-60643800D01*
X143668679Y-60643802D01*
X143629500Y-60853390D01*
X143629500Y-61066610D01*
X143668679Y-61276198D01*
X143745702Y-61475019D01*
X143745703Y-61475020D01*
X143745705Y-61475025D01*
X143857945Y-61656298D01*
X143857946Y-61656300D01*
X143857948Y-61656302D01*
X144001593Y-61813872D01*
X144171745Y-61942366D01*
X144277562Y-61995056D01*
X144329625Y-62043324D01*
X144347328Y-62112078D01*
X144325049Y-62179488D01*
X144269862Y-62224153D01*
X144262313Y-62227018D01*
X144226952Y-62239158D01*
X144226941Y-62239162D01*
X144026966Y-62347384D01*
X144026960Y-62347388D01*
X143847514Y-62487056D01*
X143693507Y-62654354D01*
X143569138Y-62844715D01*
X143477798Y-63052949D01*
X143477795Y-63052956D01*
X143421977Y-63273378D01*
X143403198Y-63500000D01*
X143421977Y-63726621D01*
X143477795Y-63947043D01*
X143477798Y-63947050D01*
X143569138Y-64155284D01*
X143589823Y-64186945D01*
X143693510Y-64345649D01*
X143773209Y-64432226D01*
X143820919Y-64484053D01*
X143852339Y-64547718D01*
X143844352Y-64618264D01*
X143799493Y-64673293D01*
X143772251Y-64687445D01*
X143670195Y-64725511D01*
X143670192Y-64725512D01*
X143553138Y-64813138D01*
X143465512Y-64930192D01*
X143465510Y-64930197D01*
X143414411Y-65067195D01*
X143414409Y-65067203D01*
X143407900Y-65127750D01*
X143407900Y-66952249D01*
X143414409Y-67012796D01*
X143414411Y-67012804D01*
X143465510Y-67149802D01*
X143465512Y-67149807D01*
X143553138Y-67266861D01*
X143670192Y-67354487D01*
X143670194Y-67354488D01*
X143670196Y-67354489D01*
X143713935Y-67370803D01*
X143772250Y-67392554D01*
X143829086Y-67435101D01*
X143853896Y-67501621D01*
X143838804Y-67570995D01*
X143820919Y-67595946D01*
X143693507Y-67734354D01*
X143569138Y-67924715D01*
X143477798Y-68132949D01*
X143477795Y-68132956D01*
X143421977Y-68353378D01*
X143403198Y-68580000D01*
X143421977Y-68806621D01*
X143477795Y-69027043D01*
X143477798Y-69027050D01*
X143569138Y-69235284D01*
X143569139Y-69235285D01*
X143693510Y-69425649D01*
X143847517Y-69592946D01*
X144026961Y-69732612D01*
X144026963Y-69732613D01*
X144026966Y-69732615D01*
X144039110Y-69739187D01*
X144089500Y-69789200D01*
X144104852Y-69858517D01*
X144080291Y-69925130D01*
X144039110Y-69960813D01*
X144026966Y-69967384D01*
X144026960Y-69967388D01*
X143847514Y-70107056D01*
X143693507Y-70274354D01*
X143569138Y-70464715D01*
X143477798Y-70672949D01*
X143477795Y-70672956D01*
X143421977Y-70893378D01*
X143421976Y-70893384D01*
X143421976Y-70893386D01*
X143403198Y-71120000D01*
X143416134Y-71276118D01*
X143421977Y-71346621D01*
X143477795Y-71567043D01*
X143477798Y-71567050D01*
X143569138Y-71775284D01*
X143648671Y-71897019D01*
X143693510Y-71965649D01*
X143773973Y-72053055D01*
X143815585Y-72098259D01*
X143847517Y-72132946D01*
X144026961Y-72272612D01*
X144026963Y-72272613D01*
X144026966Y-72272615D01*
X144039110Y-72279187D01*
X144089500Y-72329200D01*
X144104852Y-72398517D01*
X144080291Y-72465130D01*
X144039110Y-72500813D01*
X144026966Y-72507384D01*
X144026960Y-72507388D01*
X143847514Y-72647056D01*
X143693507Y-72814354D01*
X143569138Y-73004715D01*
X143477798Y-73212949D01*
X143477795Y-73212956D01*
X143421977Y-73433378D01*
X143403198Y-73660000D01*
X143421977Y-73886621D01*
X143477795Y-74107043D01*
X143477798Y-74107050D01*
X143569138Y-74315284D01*
X143569139Y-74315285D01*
X143693510Y-74505649D01*
X143847517Y-74672946D01*
X144026961Y-74812612D01*
X144026963Y-74812613D01*
X144026966Y-74812615D01*
X144039110Y-74819187D01*
X144089500Y-74869200D01*
X144104852Y-74938517D01*
X144080291Y-75005130D01*
X144039110Y-75040813D01*
X144026966Y-75047384D01*
X144026960Y-75047388D01*
X143847514Y-75187056D01*
X143693507Y-75354354D01*
X143569138Y-75544715D01*
X143477798Y-75752949D01*
X143477795Y-75752956D01*
X143421977Y-75973378D01*
X143421976Y-75973384D01*
X143421976Y-75973386D01*
X143403198Y-76200000D01*
X143411323Y-76298058D01*
X143421977Y-76426621D01*
X143477795Y-76647043D01*
X143477798Y-76647050D01*
X143569138Y-76855284D01*
X143679971Y-77024927D01*
X143693510Y-77045649D01*
X143780234Y-77139857D01*
X143841634Y-77206556D01*
X143847517Y-77212946D01*
X144026961Y-77352612D01*
X144026963Y-77352613D01*
X144026966Y-77352615D01*
X144039110Y-77359187D01*
X144089500Y-77409200D01*
X144104852Y-77478517D01*
X144080291Y-77545130D01*
X144039110Y-77580813D01*
X144026966Y-77587384D01*
X144026960Y-77587388D01*
X143847514Y-77727056D01*
X143693507Y-77894354D01*
X143569138Y-78084715D01*
X143477798Y-78292949D01*
X143477795Y-78292956D01*
X143421977Y-78513378D01*
X143421976Y-78513384D01*
X143421976Y-78513386D01*
X143403198Y-78740000D01*
X143417678Y-78914750D01*
X143421977Y-78966621D01*
X143477795Y-79187043D01*
X143477798Y-79187050D01*
X143569138Y-79395284D01*
X143569139Y-79395285D01*
X143693510Y-79585649D01*
X143801007Y-79702422D01*
X143843209Y-79748267D01*
X143847517Y-79752946D01*
X144026961Y-79892612D01*
X144026963Y-79892613D01*
X144026966Y-79892615D01*
X144039110Y-79899187D01*
X144089500Y-79949200D01*
X144104852Y-80018517D01*
X144080291Y-80085130D01*
X144039110Y-80120813D01*
X144026966Y-80127384D01*
X144026960Y-80127388D01*
X143847514Y-80267056D01*
X143693507Y-80434354D01*
X143569138Y-80624715D01*
X143477798Y-80832949D01*
X143477795Y-80832956D01*
X143421977Y-81053378D01*
X143421976Y-81053384D01*
X143421976Y-81053386D01*
X143403198Y-81280000D01*
X143411036Y-81374594D01*
X143421977Y-81506621D01*
X143477795Y-81727043D01*
X143477798Y-81727050D01*
X143569138Y-81935284D01*
X143688171Y-82117478D01*
X143693510Y-82125649D01*
X143847517Y-82292946D01*
X144026961Y-82432612D01*
X144026963Y-82432613D01*
X144026966Y-82432615D01*
X144039110Y-82439187D01*
X144089500Y-82489200D01*
X144104852Y-82558517D01*
X144080291Y-82625130D01*
X144039110Y-82660813D01*
X144026966Y-82667384D01*
X144026960Y-82667388D01*
X143847514Y-82807056D01*
X143693507Y-82974354D01*
X143569138Y-83164715D01*
X143477798Y-83372949D01*
X143477795Y-83372956D01*
X143421977Y-83593378D01*
X143421976Y-83593384D01*
X143421976Y-83593386D01*
X143403198Y-83820000D01*
X143419717Y-84019358D01*
X143421977Y-84046621D01*
X143477795Y-84267043D01*
X143477798Y-84267050D01*
X143569138Y-84475284D01*
X143580217Y-84492242D01*
X143693510Y-84665649D01*
X143847517Y-84832946D01*
X144026961Y-84972612D01*
X144026963Y-84972613D01*
X144026966Y-84972615D01*
X144039110Y-84979187D01*
X144089500Y-85029200D01*
X144104852Y-85098517D01*
X144080291Y-85165130D01*
X144039110Y-85200813D01*
X144026966Y-85207384D01*
X144026960Y-85207388D01*
X143847514Y-85347056D01*
X143693507Y-85514354D01*
X143569138Y-85704715D01*
X143477798Y-85912949D01*
X143477795Y-85912956D01*
X143421977Y-86133378D01*
X143421976Y-86133384D01*
X143421976Y-86133386D01*
X143403198Y-86360000D01*
X143416134Y-86516118D01*
X143421977Y-86586621D01*
X143477795Y-86807043D01*
X143477798Y-86807050D01*
X143569138Y-87015284D01*
X143569139Y-87015285D01*
X143693510Y-87205649D01*
X143847517Y-87372946D01*
X144026961Y-87512612D01*
X144026963Y-87512613D01*
X144026966Y-87512615D01*
X144039110Y-87519187D01*
X144089500Y-87569200D01*
X144104852Y-87638517D01*
X144080291Y-87705130D01*
X144039110Y-87740813D01*
X144026966Y-87747384D01*
X144026960Y-87747388D01*
X143847514Y-87887056D01*
X143693507Y-88054354D01*
X143569138Y-88244715D01*
X143477798Y-88452949D01*
X143477795Y-88452956D01*
X143421977Y-88673378D01*
X143403198Y-88900000D01*
X143421977Y-89126621D01*
X143477795Y-89347043D01*
X143477798Y-89347050D01*
X143569138Y-89555284D01*
X143619950Y-89633058D01*
X143693510Y-89745649D01*
X143847517Y-89912946D01*
X144026961Y-90052612D01*
X144026963Y-90052613D01*
X144026966Y-90052615D01*
X144039110Y-90059187D01*
X144089500Y-90109200D01*
X144104852Y-90178517D01*
X144080291Y-90245130D01*
X144039110Y-90280813D01*
X144026966Y-90287384D01*
X144026960Y-90287388D01*
X143847514Y-90427056D01*
X143693507Y-90594354D01*
X143569138Y-90784715D01*
X143477798Y-90992949D01*
X143477795Y-90992956D01*
X143421977Y-91213378D01*
X143403198Y-91440000D01*
X143421977Y-91666621D01*
X143477795Y-91887043D01*
X143477798Y-91887050D01*
X143569138Y-92095284D01*
X143569139Y-92095285D01*
X143693510Y-92285649D01*
X143847517Y-92452946D01*
X144026961Y-92592612D01*
X144026963Y-92592613D01*
X144026966Y-92592615D01*
X144039110Y-92599187D01*
X144089500Y-92649200D01*
X144104852Y-92718517D01*
X144080291Y-92785130D01*
X144039110Y-92820813D01*
X144026966Y-92827384D01*
X144026960Y-92827388D01*
X143847514Y-92967056D01*
X143693507Y-93134354D01*
X143569138Y-93324715D01*
X143477798Y-93532949D01*
X143477795Y-93532956D01*
X143421977Y-93753378D01*
X143421976Y-93753384D01*
X143421976Y-93753386D01*
X143403198Y-93980000D01*
X143416774Y-94143839D01*
X143421977Y-94206621D01*
X143477795Y-94427043D01*
X143477798Y-94427050D01*
X143569138Y-94635284D01*
X143569139Y-94635285D01*
X143693510Y-94825649D01*
X143847517Y-94992946D01*
X144026961Y-95132612D01*
X144026963Y-95132613D01*
X144026966Y-95132615D01*
X144039110Y-95139187D01*
X144089500Y-95189200D01*
X144104852Y-95258517D01*
X144080291Y-95325130D01*
X144039110Y-95360813D01*
X144026966Y-95367384D01*
X144026960Y-95367388D01*
X143847514Y-95507056D01*
X143693507Y-95674354D01*
X143569138Y-95864715D01*
X143477798Y-96072949D01*
X143477795Y-96072956D01*
X143421977Y-96293378D01*
X143403198Y-96520000D01*
X143421977Y-96746621D01*
X143477795Y-96967043D01*
X143477798Y-96967050D01*
X143569138Y-97175284D01*
X143666428Y-97324198D01*
X143693510Y-97365649D01*
X143847517Y-97532946D01*
X144026961Y-97672612D01*
X144026963Y-97672613D01*
X144026966Y-97672615D01*
X144039110Y-97679187D01*
X144089500Y-97729200D01*
X144104852Y-97798517D01*
X144080291Y-97865130D01*
X144039110Y-97900813D01*
X144026966Y-97907384D01*
X144026960Y-97907388D01*
X143847514Y-98047056D01*
X143693507Y-98214354D01*
X143569138Y-98404715D01*
X143477798Y-98612949D01*
X143477795Y-98612956D01*
X143421977Y-98833378D01*
X143403198Y-99060000D01*
X130916802Y-99060000D01*
X130898024Y-98833386D01*
X130882277Y-98771203D01*
X130842204Y-98612956D01*
X130842201Y-98612949D01*
X130750861Y-98404715D01*
X130626492Y-98214354D01*
X130626491Y-98214353D01*
X130626490Y-98214351D01*
X130472483Y-98047054D01*
X130293039Y-97907388D01*
X130293038Y-97907387D01*
X130288198Y-97904768D01*
X130280890Y-97900813D01*
X130230500Y-97850803D01*
X130215147Y-97781486D01*
X130239706Y-97714873D01*
X130280889Y-97679186D01*
X130293039Y-97672612D01*
X130472483Y-97532946D01*
X130626490Y-97365649D01*
X130750861Y-97175285D01*
X130842203Y-96967047D01*
X130898024Y-96746614D01*
X130916802Y-96520000D01*
X130898024Y-96293386D01*
X130874579Y-96200802D01*
X130842204Y-96072956D01*
X130842201Y-96072949D01*
X130834134Y-96054559D01*
X130750861Y-95864715D01*
X130626490Y-95674351D01*
X130472483Y-95507054D01*
X130293039Y-95367388D01*
X130293038Y-95367387D01*
X130288198Y-95364768D01*
X130280890Y-95360813D01*
X130230500Y-95310803D01*
X130215147Y-95241486D01*
X130239706Y-95174873D01*
X130280889Y-95139186D01*
X130293039Y-95132612D01*
X130472483Y-94992946D01*
X130626490Y-94825649D01*
X130750861Y-94635285D01*
X130842203Y-94427047D01*
X130898024Y-94206614D01*
X130916802Y-93980000D01*
X130898024Y-93753386D01*
X130871498Y-93648635D01*
X130842204Y-93532956D01*
X130842201Y-93532949D01*
X130800849Y-93438677D01*
X130750861Y-93324715D01*
X130626490Y-93134351D01*
X130472483Y-92967054D01*
X130293039Y-92827388D01*
X130293038Y-92827387D01*
X130288198Y-92824768D01*
X130280890Y-92820813D01*
X130230500Y-92770803D01*
X130215147Y-92701486D01*
X130239706Y-92634873D01*
X130280889Y-92599186D01*
X130293039Y-92592612D01*
X130472483Y-92452946D01*
X130626490Y-92285649D01*
X130750861Y-92095285D01*
X130842203Y-91887047D01*
X130898024Y-91666614D01*
X130916802Y-91440000D01*
X130898024Y-91213386D01*
X130898022Y-91213378D01*
X130842204Y-90992956D01*
X130842201Y-90992949D01*
X130750861Y-90784715D01*
X130626492Y-90594354D01*
X130626491Y-90594353D01*
X130626490Y-90594351D01*
X130472483Y-90427054D01*
X130293039Y-90287388D01*
X130293038Y-90287387D01*
X130288198Y-90284768D01*
X130280890Y-90280813D01*
X130230500Y-90230803D01*
X130215147Y-90161486D01*
X130239706Y-90094873D01*
X130280889Y-90059186D01*
X130293039Y-90052612D01*
X130472483Y-89912946D01*
X130626490Y-89745649D01*
X130750861Y-89555285D01*
X130842203Y-89347047D01*
X130898024Y-89126614D01*
X130916802Y-88900000D01*
X130898024Y-88673386D01*
X130898022Y-88673378D01*
X130842204Y-88452956D01*
X130842201Y-88452949D01*
X130750861Y-88244715D01*
X130626492Y-88054354D01*
X130626491Y-88054353D01*
X130626490Y-88054351D01*
X130472483Y-87887054D01*
X130293039Y-87747388D01*
X130293038Y-87747387D01*
X130288198Y-87744768D01*
X130280890Y-87740813D01*
X130230500Y-87690803D01*
X130215147Y-87621486D01*
X130239706Y-87554873D01*
X130280889Y-87519186D01*
X130293039Y-87512612D01*
X130472483Y-87372946D01*
X130626490Y-87205649D01*
X130750861Y-87015285D01*
X130842203Y-86807047D01*
X130898024Y-86586614D01*
X130916802Y-86360000D01*
X130898024Y-86133386D01*
X130842203Y-85912953D01*
X130750861Y-85704715D01*
X130626490Y-85514351D01*
X130478366Y-85353445D01*
X130472485Y-85347056D01*
X130472484Y-85347055D01*
X130472483Y-85347054D01*
X130293039Y-85207388D01*
X130293038Y-85207387D01*
X130288198Y-85204768D01*
X130280890Y-85200813D01*
X130230500Y-85150803D01*
X130215147Y-85081486D01*
X130239706Y-85014873D01*
X130280889Y-84979186D01*
X130293039Y-84972612D01*
X130472483Y-84832946D01*
X130626490Y-84665649D01*
X130750861Y-84475285D01*
X130842203Y-84267047D01*
X130898024Y-84046614D01*
X130916802Y-83820000D01*
X130898024Y-83593386D01*
X130842203Y-83372953D01*
X130750861Y-83164715D01*
X130626490Y-82974351D01*
X130472483Y-82807054D01*
X130293039Y-82667388D01*
X130293038Y-82667387D01*
X130288198Y-82664768D01*
X130280890Y-82660813D01*
X130230500Y-82610803D01*
X130215147Y-82541486D01*
X130239706Y-82474873D01*
X130280889Y-82439186D01*
X130293039Y-82432612D01*
X130472483Y-82292946D01*
X130626490Y-82125649D01*
X130750861Y-81935285D01*
X130842203Y-81727047D01*
X130898024Y-81506614D01*
X130916802Y-81280000D01*
X130898024Y-81053386D01*
X130884594Y-81000353D01*
X130842204Y-80832956D01*
X130842201Y-80832949D01*
X130839820Y-80827522D01*
X130750861Y-80624715D01*
X130746431Y-80617935D01*
X130626492Y-80434354D01*
X130626491Y-80434353D01*
X130626490Y-80434351D01*
X130472483Y-80267054D01*
X130293039Y-80127388D01*
X130293038Y-80127387D01*
X130288198Y-80124768D01*
X130280890Y-80120813D01*
X130230500Y-80070803D01*
X130215147Y-80001486D01*
X130239706Y-79934873D01*
X130280889Y-79899186D01*
X130293039Y-79892612D01*
X130472483Y-79752946D01*
X130626490Y-79585649D01*
X130750861Y-79395285D01*
X130842203Y-79187047D01*
X130898024Y-78966614D01*
X130916802Y-78740000D01*
X130898024Y-78513386D01*
X130896960Y-78509183D01*
X130842204Y-78292956D01*
X130842201Y-78292949D01*
X130841898Y-78292259D01*
X130750861Y-78084715D01*
X130626490Y-77894351D01*
X130475575Y-77730413D01*
X130472485Y-77727056D01*
X130472484Y-77727055D01*
X130472483Y-77727054D01*
X130293039Y-77587388D01*
X130293038Y-77587387D01*
X130288198Y-77584768D01*
X130280890Y-77580813D01*
X130230500Y-77530803D01*
X130215147Y-77461486D01*
X130239706Y-77394873D01*
X130280889Y-77359186D01*
X130293039Y-77352612D01*
X130472483Y-77212946D01*
X130626490Y-77045649D01*
X130750861Y-76855285D01*
X130842203Y-76647047D01*
X130898024Y-76426614D01*
X130916802Y-76200000D01*
X130898024Y-75973386D01*
X130842203Y-75752953D01*
X130750861Y-75544715D01*
X130626490Y-75354351D01*
X130472483Y-75187054D01*
X130293039Y-75047388D01*
X130293038Y-75047387D01*
X130288198Y-75044768D01*
X130280890Y-75040813D01*
X130230500Y-74990803D01*
X130215147Y-74921486D01*
X130239706Y-74854873D01*
X130280889Y-74819186D01*
X130293039Y-74812612D01*
X130472483Y-74672946D01*
X130626490Y-74505649D01*
X130750861Y-74315285D01*
X130842203Y-74107047D01*
X130898024Y-73886614D01*
X130916802Y-73660000D01*
X130898024Y-73433386D01*
X130842203Y-73212953D01*
X130750861Y-73004715D01*
X130626490Y-72814351D01*
X130499080Y-72675946D01*
X130467660Y-72612281D01*
X130475647Y-72541735D01*
X130520506Y-72486706D01*
X130547742Y-72472556D01*
X130649804Y-72434489D01*
X130766861Y-72346861D01*
X130854489Y-72229804D01*
X130905589Y-72092801D01*
X130912100Y-72032238D01*
X130912100Y-70207762D01*
X130912099Y-70207750D01*
X130905590Y-70147203D01*
X130905588Y-70147195D01*
X130854489Y-70010197D01*
X130854487Y-70010192D01*
X130766861Y-69893138D01*
X130649807Y-69805512D01*
X130649804Y-69805511D01*
X130547748Y-69767445D01*
X130490913Y-69724898D01*
X130466103Y-69658377D01*
X130481195Y-69589003D01*
X130499081Y-69564053D01*
X130626490Y-69425649D01*
X130626493Y-69425645D01*
X130750861Y-69235285D01*
X130842203Y-69027047D01*
X130898024Y-68806614D01*
X130916802Y-68580000D01*
X130898024Y-68353386D01*
X130842203Y-68132953D01*
X130750861Y-67924715D01*
X130626490Y-67734351D01*
X130472483Y-67567054D01*
X130293039Y-67427388D01*
X130293038Y-67427387D01*
X130288198Y-67424768D01*
X130280890Y-67420813D01*
X130230500Y-67370803D01*
X130215147Y-67301486D01*
X130239706Y-67234873D01*
X130280889Y-67199186D01*
X130293039Y-67192612D01*
X130472483Y-67052946D01*
X130626490Y-66885649D01*
X130750861Y-66695285D01*
X130842203Y-66487047D01*
X130898024Y-66266614D01*
X130916802Y-66040000D01*
X130898024Y-65813386D01*
X130842203Y-65592953D01*
X130750861Y-65384715D01*
X130626490Y-65194351D01*
X130478366Y-65033445D01*
X130472485Y-65027056D01*
X130472484Y-65027055D01*
X130472483Y-65027054D01*
X130293039Y-64887388D01*
X130293038Y-64887387D01*
X130288198Y-64884768D01*
X130280890Y-64880813D01*
X130230500Y-64830803D01*
X130215147Y-64761486D01*
X130239706Y-64694873D01*
X130280889Y-64659186D01*
X130293039Y-64652612D01*
X130472483Y-64512946D01*
X130626490Y-64345649D01*
X130750861Y-64155285D01*
X130842203Y-63947047D01*
X130898024Y-63726614D01*
X130916802Y-63500000D01*
X130898024Y-63273386D01*
X130842203Y-63052953D01*
X130750861Y-62844715D01*
X130626490Y-62654351D01*
X130472483Y-62487054D01*
X130293039Y-62347388D01*
X130293033Y-62347384D01*
X130093058Y-62239162D01*
X130093055Y-62239161D01*
X130057687Y-62227019D01*
X129999752Y-62185981D01*
X129973201Y-62120136D01*
X129986463Y-62050389D01*
X130035328Y-61998884D01*
X130042411Y-61995069D01*
X130148255Y-61942366D01*
X130318407Y-61813872D01*
X130462052Y-61656302D01*
X130574298Y-61475019D01*
X130651321Y-61276198D01*
X130690500Y-61066610D01*
X130690500Y-60853390D01*
X130651321Y-60643802D01*
X130574298Y-60444981D01*
X130462052Y-60263698D01*
X130318407Y-60106128D01*
X130148255Y-59977634D01*
X129957389Y-59882595D01*
X129957386Y-59882594D01*
X129957384Y-59882593D01*
X129752311Y-59824244D01*
X129732420Y-59822401D01*
X129593194Y-59809500D01*
X129486806Y-59809500D01*
X129363049Y-59820967D01*
X129327688Y-59824244D01*
X129122615Y-59882593D01*
X129122611Y-59882595D01*
X128931745Y-59977634D01*
X128931744Y-59977635D01*
X128761591Y-60106129D01*
X128617946Y-60263699D01*
X128617945Y-60263701D01*
X128505705Y-60444974D01*
X128505703Y-60444979D01*
X128428679Y-60643800D01*
X128428679Y-60643802D01*
X128389500Y-60853390D01*
X128389500Y-61066610D01*
X128428679Y-61276198D01*
X128505702Y-61475019D01*
X128505703Y-61475020D01*
X128505705Y-61475025D01*
X128617945Y-61656298D01*
X128617946Y-61656300D01*
X128617948Y-61656302D01*
X128761593Y-61813872D01*
X128931745Y-61942366D01*
X129037562Y-61995056D01*
X129089625Y-62043324D01*
X129107328Y-62112078D01*
X129085049Y-62179488D01*
X129029862Y-62224153D01*
X129022313Y-62227018D01*
X128986952Y-62239158D01*
X128986941Y-62239162D01*
X128786966Y-62347384D01*
X128786960Y-62347388D01*
X128607514Y-62487056D01*
X128453507Y-62654354D01*
X128329138Y-62844715D01*
X128237798Y-63052949D01*
X128237795Y-63052956D01*
X128181977Y-63273378D01*
X128163198Y-63500000D01*
X128181977Y-63726621D01*
X128237795Y-63947043D01*
X128237798Y-63947050D01*
X128329138Y-64155284D01*
X128349823Y-64186945D01*
X128453510Y-64345649D01*
X128607517Y-64512946D01*
X128786961Y-64652612D01*
X128786963Y-64652613D01*
X128786966Y-64652615D01*
X128799110Y-64659187D01*
X128849500Y-64709200D01*
X128864852Y-64778517D01*
X128840291Y-64845130D01*
X128799110Y-64880813D01*
X128786966Y-64887384D01*
X128786960Y-64887388D01*
X128607514Y-65027056D01*
X128453507Y-65194354D01*
X128329138Y-65384715D01*
X128237798Y-65592949D01*
X128237795Y-65592956D01*
X128181977Y-65813378D01*
X128181976Y-65813384D01*
X128181976Y-65813386D01*
X128163198Y-66040000D01*
X128176134Y-66196118D01*
X128181977Y-66266621D01*
X128237795Y-66487043D01*
X128237798Y-66487050D01*
X128329138Y-66695284D01*
X128329139Y-66695285D01*
X128453510Y-66885649D01*
X128607517Y-67052946D01*
X128786961Y-67192612D01*
X128786963Y-67192613D01*
X128786966Y-67192615D01*
X128799110Y-67199187D01*
X128849500Y-67249200D01*
X128864852Y-67318517D01*
X128840291Y-67385130D01*
X128799110Y-67420813D01*
X128786966Y-67427384D01*
X128786960Y-67427388D01*
X128607514Y-67567056D01*
X128453507Y-67734354D01*
X128329138Y-67924715D01*
X128237798Y-68132949D01*
X128237795Y-68132956D01*
X128181977Y-68353378D01*
X128163198Y-68580000D01*
X128181977Y-68806621D01*
X128237795Y-69027043D01*
X128237798Y-69027050D01*
X128329138Y-69235284D01*
X128329139Y-69235285D01*
X128453510Y-69425649D01*
X128547032Y-69527241D01*
X128580919Y-69564053D01*
X128612339Y-69627718D01*
X128604352Y-69698264D01*
X128559493Y-69753293D01*
X128532251Y-69767445D01*
X128430195Y-69805511D01*
X128430192Y-69805512D01*
X128313138Y-69893138D01*
X128225512Y-70010192D01*
X128225510Y-70010197D01*
X128174411Y-70147195D01*
X128174409Y-70147203D01*
X128167900Y-70207750D01*
X128167900Y-72032249D01*
X128174409Y-72092796D01*
X128174411Y-72092804D01*
X128225510Y-72229802D01*
X128225512Y-72229807D01*
X128313138Y-72346861D01*
X128430192Y-72434487D01*
X128430194Y-72434488D01*
X128430196Y-72434489D01*
X128473935Y-72450803D01*
X128532250Y-72472554D01*
X128589086Y-72515101D01*
X128613896Y-72581621D01*
X128598804Y-72650995D01*
X128580919Y-72675946D01*
X128453507Y-72814354D01*
X128329138Y-73004715D01*
X128237798Y-73212949D01*
X128237795Y-73212956D01*
X128181977Y-73433378D01*
X128163198Y-73660000D01*
X128181977Y-73886621D01*
X128237795Y-74107043D01*
X128237798Y-74107050D01*
X128329138Y-74315284D01*
X128329139Y-74315285D01*
X128453510Y-74505649D01*
X128607517Y-74672946D01*
X128786961Y-74812612D01*
X128786963Y-74812613D01*
X128786966Y-74812615D01*
X128799110Y-74819187D01*
X128849500Y-74869200D01*
X128864852Y-74938517D01*
X128840291Y-75005130D01*
X128799110Y-75040813D01*
X128786966Y-75047384D01*
X128786960Y-75047388D01*
X128607514Y-75187056D01*
X128453507Y-75354354D01*
X128329138Y-75544715D01*
X128237798Y-75752949D01*
X128237795Y-75752956D01*
X128181977Y-75973378D01*
X128181976Y-75973384D01*
X128181976Y-75973386D01*
X128163198Y-76200000D01*
X128171323Y-76298058D01*
X128181977Y-76426621D01*
X128237795Y-76647043D01*
X128237798Y-76647050D01*
X128329138Y-76855284D01*
X128439971Y-77024927D01*
X128453510Y-77045649D01*
X128540234Y-77139857D01*
X128601634Y-77206556D01*
X128607517Y-77212946D01*
X128786961Y-77352612D01*
X128786963Y-77352613D01*
X128786966Y-77352615D01*
X128799110Y-77359187D01*
X128849500Y-77409200D01*
X128864852Y-77478517D01*
X128840291Y-77545130D01*
X128799110Y-77580813D01*
X128786966Y-77587384D01*
X128786960Y-77587388D01*
X128607514Y-77727056D01*
X128453507Y-77894354D01*
X128329138Y-78084715D01*
X128237798Y-78292949D01*
X128237795Y-78292956D01*
X128181977Y-78513378D01*
X128181976Y-78513384D01*
X128181976Y-78513386D01*
X128163198Y-78740000D01*
X128177678Y-78914750D01*
X128181977Y-78966621D01*
X128237795Y-79187043D01*
X128237798Y-79187050D01*
X128329138Y-79395284D01*
X128329139Y-79395285D01*
X128453510Y-79585649D01*
X128561007Y-79702422D01*
X128603209Y-79748267D01*
X128607517Y-79752946D01*
X128786961Y-79892612D01*
X128786963Y-79892613D01*
X128786966Y-79892615D01*
X128799110Y-79899187D01*
X128849500Y-79949200D01*
X128864852Y-80018517D01*
X128840291Y-80085130D01*
X128799110Y-80120813D01*
X128786966Y-80127384D01*
X128786960Y-80127388D01*
X128607514Y-80267056D01*
X128453507Y-80434354D01*
X128329138Y-80624715D01*
X128237798Y-80832949D01*
X128237795Y-80832956D01*
X128181977Y-81053378D01*
X128181976Y-81053384D01*
X128181976Y-81053386D01*
X128163198Y-81280000D01*
X128171036Y-81374594D01*
X128181977Y-81506621D01*
X128237795Y-81727043D01*
X128237798Y-81727050D01*
X128329138Y-81935284D01*
X128448171Y-82117478D01*
X128453510Y-82125649D01*
X128607517Y-82292946D01*
X128786961Y-82432612D01*
X128786963Y-82432613D01*
X128786966Y-82432615D01*
X128799110Y-82439187D01*
X128849500Y-82489200D01*
X128864852Y-82558517D01*
X128840291Y-82625130D01*
X128799110Y-82660813D01*
X128786966Y-82667384D01*
X128786960Y-82667388D01*
X128607514Y-82807056D01*
X128453507Y-82974354D01*
X128329138Y-83164715D01*
X128237798Y-83372949D01*
X128237795Y-83372956D01*
X128181977Y-83593378D01*
X128181976Y-83593384D01*
X128181976Y-83593386D01*
X128163198Y-83820000D01*
X128179717Y-84019358D01*
X128181977Y-84046621D01*
X128237795Y-84267043D01*
X128237798Y-84267050D01*
X128329138Y-84475284D01*
X128340217Y-84492242D01*
X128453510Y-84665649D01*
X128607517Y-84832946D01*
X128786961Y-84972612D01*
X128786963Y-84972613D01*
X128786966Y-84972615D01*
X128799110Y-84979187D01*
X128849500Y-85029200D01*
X128864852Y-85098517D01*
X128840291Y-85165130D01*
X128799110Y-85200813D01*
X128786966Y-85207384D01*
X128786960Y-85207388D01*
X128607514Y-85347056D01*
X128453507Y-85514354D01*
X128329138Y-85704715D01*
X128237798Y-85912949D01*
X128237795Y-85912956D01*
X128181977Y-86133378D01*
X128181976Y-86133384D01*
X128181976Y-86133386D01*
X128163198Y-86360000D01*
X128176134Y-86516118D01*
X128181977Y-86586621D01*
X128237795Y-86807043D01*
X128237798Y-86807050D01*
X128329138Y-87015284D01*
X128329139Y-87015285D01*
X128453510Y-87205649D01*
X128607517Y-87372946D01*
X128786961Y-87512612D01*
X128786963Y-87512613D01*
X128786966Y-87512615D01*
X128799110Y-87519187D01*
X128849500Y-87569200D01*
X128864852Y-87638517D01*
X128840291Y-87705130D01*
X128799110Y-87740813D01*
X128786966Y-87747384D01*
X128786960Y-87747388D01*
X128607514Y-87887056D01*
X128453507Y-88054354D01*
X128329138Y-88244715D01*
X128237798Y-88452949D01*
X128237795Y-88452956D01*
X128181977Y-88673378D01*
X128163198Y-88900000D01*
X128181977Y-89126621D01*
X128237795Y-89347043D01*
X128237798Y-89347050D01*
X128329138Y-89555284D01*
X128379950Y-89633058D01*
X128453510Y-89745649D01*
X128607517Y-89912946D01*
X128786961Y-90052612D01*
X128786963Y-90052613D01*
X128786966Y-90052615D01*
X128799110Y-90059187D01*
X128849500Y-90109200D01*
X128864852Y-90178517D01*
X128840291Y-90245130D01*
X128799110Y-90280813D01*
X128786966Y-90287384D01*
X128786960Y-90287388D01*
X128607514Y-90427056D01*
X128453507Y-90594354D01*
X128329138Y-90784715D01*
X128237798Y-90992949D01*
X128237795Y-90992956D01*
X128181977Y-91213378D01*
X128163198Y-91440000D01*
X128181977Y-91666621D01*
X128237795Y-91887043D01*
X128237798Y-91887050D01*
X128329138Y-92095284D01*
X128329139Y-92095285D01*
X128453510Y-92285649D01*
X128607517Y-92452946D01*
X128786961Y-92592612D01*
X128786963Y-92592613D01*
X128786966Y-92592615D01*
X128799110Y-92599187D01*
X128849500Y-92649200D01*
X128864852Y-92718517D01*
X128840291Y-92785130D01*
X128799110Y-92820813D01*
X128786966Y-92827384D01*
X128786960Y-92827388D01*
X128607514Y-92967056D01*
X128453507Y-93134354D01*
X128329138Y-93324715D01*
X128237798Y-93532949D01*
X128237795Y-93532956D01*
X128181977Y-93753378D01*
X128181976Y-93753384D01*
X128181976Y-93753386D01*
X128163198Y-93980000D01*
X128176774Y-94143839D01*
X128181977Y-94206621D01*
X128237795Y-94427043D01*
X128237798Y-94427050D01*
X128329138Y-94635284D01*
X128329139Y-94635285D01*
X128453510Y-94825649D01*
X128607517Y-94992946D01*
X128786961Y-95132612D01*
X128786963Y-95132613D01*
X128786966Y-95132615D01*
X128799110Y-95139187D01*
X128849500Y-95189200D01*
X128864852Y-95258517D01*
X128840291Y-95325130D01*
X128799110Y-95360813D01*
X128786966Y-95367384D01*
X128786960Y-95367388D01*
X128607514Y-95507056D01*
X128453507Y-95674354D01*
X128329138Y-95864715D01*
X128237798Y-96072949D01*
X128237795Y-96072956D01*
X128181977Y-96293378D01*
X128163198Y-96520000D01*
X128181977Y-96746621D01*
X128237795Y-96967043D01*
X128237798Y-96967050D01*
X128329138Y-97175284D01*
X128426428Y-97324198D01*
X128453510Y-97365649D01*
X128607517Y-97532946D01*
X128786961Y-97672612D01*
X128786963Y-97672613D01*
X128786966Y-97672615D01*
X128799110Y-97679187D01*
X128849500Y-97729200D01*
X128864852Y-97798517D01*
X128840291Y-97865130D01*
X128799110Y-97900813D01*
X128786966Y-97907384D01*
X128786960Y-97907388D01*
X128607514Y-98047056D01*
X128453507Y-98214354D01*
X128329138Y-98404715D01*
X128237798Y-98612949D01*
X128237795Y-98612956D01*
X128181977Y-98833378D01*
X128163198Y-99060000D01*
X122555000Y-99060000D01*
X122555000Y-83820000D01*
X118596499Y-83820000D01*
X118528378Y-83799998D01*
X118481885Y-83746342D01*
X118471152Y-83681193D01*
X118475937Y-83634357D01*
X117008797Y-82167216D01*
X117028151Y-82165182D01*
X117208079Y-82106719D01*
X117371920Y-82012126D01*
X117512514Y-81885534D01*
X117623716Y-81732479D01*
X117700665Y-81559647D01*
X117724751Y-81446331D01*
X119194785Y-82916366D01*
X119194786Y-82916365D01*
X119238564Y-82857563D01*
X119238571Y-82857552D01*
X119405490Y-82568440D01*
X119405493Y-82568435D01*
X119537719Y-82261898D01*
X119537721Y-82261892D01*
X119633472Y-81942064D01*
X119633472Y-81942063D01*
X119691444Y-81613284D01*
X119691445Y-81613275D01*
X119710856Y-81280000D01*
X119691445Y-80946724D01*
X119691444Y-80946715D01*
X119633472Y-80617936D01*
X119633472Y-80617935D01*
X119537721Y-80298107D01*
X119537719Y-80298101D01*
X119405493Y-79991564D01*
X119405490Y-79991559D01*
X119238572Y-79702449D01*
X119238555Y-79702422D01*
X119194786Y-79643632D01*
X117724751Y-81113667D01*
X117700665Y-81000353D01*
X117623716Y-80827522D01*
X117512514Y-80674466D01*
X117371920Y-80547874D01*
X117208079Y-80453281D01*
X117028151Y-80394818D01*
X117008796Y-80392783D01*
X118475937Y-78925641D01*
X118275436Y-78793769D01*
X117977083Y-78643931D01*
X117663373Y-78529750D01*
X117663370Y-78529749D01*
X117338524Y-78452759D01*
X117338514Y-78452757D01*
X117006928Y-78414000D01*
X116673072Y-78414000D01*
X116341485Y-78452757D01*
X116341475Y-78452759D01*
X116016629Y-78529749D01*
X116016626Y-78529750D01*
X115702916Y-78643931D01*
X115404569Y-78793766D01*
X115204061Y-78925641D01*
X116671203Y-80392783D01*
X116651849Y-80394818D01*
X116471921Y-80453281D01*
X116308080Y-80547874D01*
X116167486Y-80674466D01*
X116056284Y-80827521D01*
X115979335Y-81000353D01*
X115955248Y-81113668D01*
X114485213Y-79643633D01*
X114485212Y-79643633D01*
X114441437Y-79702433D01*
X114441427Y-79702449D01*
X114274509Y-79991559D01*
X114274506Y-79991564D01*
X114142280Y-80298101D01*
X114142278Y-80298107D01*
X114046527Y-80617935D01*
X114046527Y-80617936D01*
X113988555Y-80946715D01*
X113988554Y-80946724D01*
X113969143Y-81280000D01*
X113988554Y-81613275D01*
X113988555Y-81613284D01*
X114046527Y-81942063D01*
X114046527Y-81942064D01*
X114142278Y-82261892D01*
X114142280Y-82261898D01*
X114274506Y-82568435D01*
X114274509Y-82568440D01*
X114441427Y-82857550D01*
X114441444Y-82857577D01*
X114485212Y-82916366D01*
X115955248Y-81446330D01*
X115979335Y-81559647D01*
X116056284Y-81732478D01*
X116167486Y-81885534D01*
X116308080Y-82012126D01*
X116471921Y-82106719D01*
X116651849Y-82165182D01*
X116671202Y-82167216D01*
X115204061Y-83634357D01*
X115208847Y-83681193D01*
X115195873Y-83750994D01*
X115147221Y-83802700D01*
X115083500Y-83820000D01*
X111125000Y-83820000D01*
X111125000Y-93219000D01*
X111104998Y-93287121D01*
X111051342Y-93333614D01*
X110999000Y-93345000D01*
X95885000Y-93345000D01*
X95885000Y-104140000D01*
X78105000Y-104140000D01*
X78105000Y-94596182D01*
X84609500Y-94596182D01*
X84615394Y-94635284D01*
X84648604Y-94855619D01*
X84725933Y-95106314D01*
X84725938Y-95106327D01*
X84839773Y-95342706D01*
X84839777Y-95342713D01*
X84987562Y-95559472D01*
X84987567Y-95559479D01*
X85094155Y-95674354D01*
X85157587Y-95742718D01*
X85166019Y-95751805D01*
X85371143Y-95915386D01*
X85371146Y-95915388D01*
X85598352Y-96046566D01*
X85598356Y-96046567D01*
X85598357Y-96046568D01*
X85842584Y-96142420D01*
X86098370Y-96200802D01*
X86294506Y-96215500D01*
X86294507Y-96215500D01*
X86425493Y-96215500D01*
X86425494Y-96215500D01*
X86621630Y-96200802D01*
X86877416Y-96142420D01*
X87121643Y-96046568D01*
X87121645Y-96046566D01*
X87121647Y-96046566D01*
X87247939Y-95973651D01*
X87348857Y-95915386D01*
X87553981Y-95751805D01*
X87732433Y-95559479D01*
X87867880Y-95360815D01*
X87880222Y-95342713D01*
X87880222Y-95342711D01*
X87880228Y-95342704D01*
X87994063Y-95106323D01*
X88071396Y-94855615D01*
X88110500Y-94596182D01*
X88110500Y-94333818D01*
X88071396Y-94074385D01*
X88071395Y-94074383D01*
X88071395Y-94074380D01*
X87994066Y-93823685D01*
X87994061Y-93823672D01*
X87909768Y-93648637D01*
X87880228Y-93587296D01*
X87880226Y-93587293D01*
X87880222Y-93587286D01*
X87732437Y-93370527D01*
X87732433Y-93370521D01*
X87553981Y-93178195D01*
X87348857Y-93014614D01*
X87348852Y-93014611D01*
X87348853Y-93014611D01*
X87121647Y-92883433D01*
X87121639Y-92883430D01*
X86877419Y-92787581D01*
X86877417Y-92787580D01*
X86621633Y-92729198D01*
X86474528Y-92718174D01*
X86425494Y-92714500D01*
X86294506Y-92714500D01*
X86255278Y-92717439D01*
X86098366Y-92729198D01*
X85842582Y-92787580D01*
X85842580Y-92787581D01*
X85598360Y-92883430D01*
X85598352Y-92883433D01*
X85371146Y-93014611D01*
X85166018Y-93178195D01*
X84987566Y-93370522D01*
X84987562Y-93370527D01*
X84839777Y-93587286D01*
X84839773Y-93587293D01*
X84725938Y-93823672D01*
X84725933Y-93823685D01*
X84648604Y-94074380D01*
X84628673Y-94206614D01*
X84609500Y-94333818D01*
X84609500Y-94596182D01*
X78105000Y-94596182D01*
X78105000Y-88815552D01*
X84001499Y-88815552D01*
X84012112Y-88919424D01*
X84012113Y-88919425D01*
X84067885Y-89087737D01*
X84160970Y-89238651D01*
X84160975Y-89238657D01*
X84286342Y-89364024D01*
X84286348Y-89364029D01*
X84286349Y-89364030D01*
X84310428Y-89378882D01*
X84437262Y-89457114D01*
X84493035Y-89475594D01*
X84605575Y-89512887D01*
X84709448Y-89523500D01*
X84709456Y-89523500D01*
X88010552Y-89523500D01*
X88102882Y-89514066D01*
X88114425Y-89512887D01*
X88282737Y-89457114D01*
X88433651Y-89364030D01*
X88559030Y-89238651D01*
X88652114Y-89087737D01*
X88707887Y-88919425D01*
X88714607Y-88853651D01*
X88718500Y-88815552D01*
X88718500Y-85514447D01*
X88707887Y-85410575D01*
X88652114Y-85242263D01*
X88652114Y-85242262D01*
X88559029Y-85091348D01*
X88559024Y-85091342D01*
X88433657Y-84965975D01*
X88433651Y-84965970D01*
X88282737Y-84872885D01*
X88114425Y-84817113D01*
X88114424Y-84817112D01*
X88010552Y-84806500D01*
X88010544Y-84806500D01*
X84709456Y-84806500D01*
X84709448Y-84806500D01*
X84605575Y-84817112D01*
X84605574Y-84817113D01*
X84437262Y-84872885D01*
X84286348Y-84965970D01*
X84286342Y-84965975D01*
X84160975Y-85091342D01*
X84160970Y-85091348D01*
X84067885Y-85242262D01*
X84012113Y-85410574D01*
X84012112Y-85410575D01*
X84001500Y-85514447D01*
X84001500Y-88815552D01*
X84001499Y-88815552D01*
X78105000Y-88815552D01*
X78105000Y-81665000D01*
X83489143Y-81665000D01*
X83508554Y-81998275D01*
X83508555Y-81998284D01*
X83566527Y-82327063D01*
X83566527Y-82327064D01*
X83662278Y-82646892D01*
X83662280Y-82646898D01*
X83794506Y-82953435D01*
X83794509Y-82953440D01*
X83961427Y-83242550D01*
X83961444Y-83242577D01*
X84005212Y-83301366D01*
X85475248Y-81831330D01*
X85499335Y-81944647D01*
X85576284Y-82117478D01*
X85687486Y-82270534D01*
X85828080Y-82397126D01*
X85991921Y-82491719D01*
X86171849Y-82550182D01*
X86191202Y-82552216D01*
X84724061Y-84019357D01*
X84724061Y-84019358D01*
X84924563Y-84151230D01*
X85222916Y-84301068D01*
X85536626Y-84415249D01*
X85536629Y-84415250D01*
X85861475Y-84492240D01*
X85861485Y-84492242D01*
X86193072Y-84531000D01*
X86526928Y-84531000D01*
X86858514Y-84492242D01*
X86858524Y-84492240D01*
X87183370Y-84415250D01*
X87183373Y-84415249D01*
X87497083Y-84301068D01*
X87795436Y-84151230D01*
X87995937Y-84019358D01*
X87995937Y-84019357D01*
X86528797Y-82552216D01*
X86548151Y-82550182D01*
X86728079Y-82491719D01*
X86891920Y-82397126D01*
X87032514Y-82270534D01*
X87143716Y-82117479D01*
X87220665Y-81944647D01*
X87244751Y-81831331D01*
X88714785Y-83301366D01*
X88714786Y-83301365D01*
X88758564Y-83242563D01*
X88758571Y-83242552D01*
X88925490Y-82953440D01*
X88925493Y-82953435D01*
X88951282Y-82893649D01*
X97599000Y-82893649D01*
X97605509Y-82954196D01*
X97605511Y-82954204D01*
X97656610Y-83091202D01*
X97656612Y-83091207D01*
X97744238Y-83208261D01*
X97861292Y-83295887D01*
X97861294Y-83295888D01*
X97861296Y-83295889D01*
X97908904Y-83313646D01*
X97998295Y-83346988D01*
X97998303Y-83346990D01*
X98058850Y-83353499D01*
X98058855Y-83353499D01*
X98058862Y-83353500D01*
X98058868Y-83353500D01*
X100061132Y-83353500D01*
X100061138Y-83353500D01*
X100061145Y-83353499D01*
X100061149Y-83353499D01*
X100121696Y-83346990D01*
X100121699Y-83346989D01*
X100121701Y-83346989D01*
X100258704Y-83295889D01*
X100329957Y-83242550D01*
X100375761Y-83208261D01*
X100463387Y-83091207D01*
X100463388Y-83091205D01*
X100463387Y-83091205D01*
X100463389Y-83091204D01*
X100470460Y-83072245D01*
X100513005Y-83015411D01*
X100579525Y-82990599D01*
X100648899Y-83005690D01*
X100665900Y-83016842D01*
X100798170Y-83119792D01*
X101011112Y-83235030D01*
X101240117Y-83313648D01*
X101478938Y-83353500D01*
X101478942Y-83353500D01*
X101721058Y-83353500D01*
X101721062Y-83353500D01*
X101959883Y-83313648D01*
X102188888Y-83235030D01*
X102401830Y-83119792D01*
X102425586Y-83101301D01*
X102491627Y-83075245D01*
X102561273Y-83089030D01*
X102603845Y-83125224D01*
X102648508Y-83184887D01*
X102648516Y-83184896D01*
X102847603Y-83383983D01*
X102847612Y-83383991D01*
X103073030Y-83552736D01*
X103320168Y-83687684D01*
X103320167Y-83687684D01*
X103583994Y-83786085D01*
X103632000Y-83796528D01*
X103632000Y-82060087D01*
X103686442Y-82165156D01*
X103789638Y-82275652D01*
X103918819Y-82354209D01*
X104064404Y-82395000D01*
X104177622Y-82395000D01*
X104289783Y-82379584D01*
X104350986Y-82353000D01*
X104648000Y-82353000D01*
X104648000Y-83796527D01*
X104696005Y-83786085D01*
X104959832Y-83687684D01*
X105206969Y-83552736D01*
X105432387Y-83383991D01*
X105432396Y-83383983D01*
X105631483Y-83184896D01*
X105631491Y-83184887D01*
X105800236Y-82959469D01*
X105935184Y-82712332D01*
X106033585Y-82448507D01*
X106054361Y-82353000D01*
X104648000Y-82353000D01*
X104350986Y-82353000D01*
X104428458Y-82319349D01*
X104545739Y-82223934D01*
X104632928Y-82100415D01*
X104683559Y-81957953D01*
X104693877Y-81807114D01*
X104663116Y-81659085D01*
X104593558Y-81524844D01*
X104490362Y-81414348D01*
X104361181Y-81335791D01*
X104215596Y-81295000D01*
X104102378Y-81295000D01*
X103990217Y-81310416D01*
X103851542Y-81370651D01*
X103734261Y-81466066D01*
X103647072Y-81589585D01*
X103632000Y-81631993D01*
X103632000Y-79893470D01*
X103631999Y-79893469D01*
X104648000Y-79893469D01*
X104648000Y-81337000D01*
X106054361Y-81337000D01*
X106033585Y-81241492D01*
X105935184Y-80977667D01*
X105800236Y-80730530D01*
X105631491Y-80505112D01*
X105631483Y-80505103D01*
X105432396Y-80306016D01*
X105432387Y-80306008D01*
X105206969Y-80137263D01*
X104959831Y-80002315D01*
X104959832Y-80002315D01*
X104696001Y-79903912D01*
X104648000Y-79893469D01*
X103631999Y-79893469D01*
X103583998Y-79903912D01*
X103320168Y-80002315D01*
X103073030Y-80137263D01*
X102847612Y-80306008D01*
X102847610Y-80306010D01*
X102648504Y-80505117D01*
X102648500Y-80505122D01*
X102603843Y-80564776D01*
X102547007Y-80607322D01*
X102476191Y-80612386D01*
X102425585Y-80588697D01*
X102401837Y-80570213D01*
X102401834Y-80570211D01*
X102401830Y-80570208D01*
X102188888Y-80454970D01*
X102188885Y-80454969D01*
X102188884Y-80454968D01*
X101959887Y-80376353D01*
X101959880Y-80376351D01*
X101857670Y-80359295D01*
X101721062Y-80336500D01*
X101478938Y-80336500D01*
X101359421Y-80356443D01*
X101240119Y-80376351D01*
X101240112Y-80376353D01*
X101011115Y-80454968D01*
X101011112Y-80454970D01*
X100798170Y-80570207D01*
X100798169Y-80570208D01*
X100665906Y-80673153D01*
X100599863Y-80699209D01*
X100530218Y-80685423D01*
X100479081Y-80636173D01*
X100470462Y-80617760D01*
X100463389Y-80598796D01*
X100463387Y-80598794D01*
X100463387Y-80598792D01*
X100375761Y-80481738D01*
X100258707Y-80394112D01*
X100258702Y-80394110D01*
X100121704Y-80343011D01*
X100121696Y-80343009D01*
X100061149Y-80336500D01*
X100061138Y-80336500D01*
X98058862Y-80336500D01*
X98058850Y-80336500D01*
X97998303Y-80343009D01*
X97998295Y-80343011D01*
X97861297Y-80394110D01*
X97861292Y-80394112D01*
X97744238Y-80481738D01*
X97656612Y-80598792D01*
X97656610Y-80598797D01*
X97605511Y-80735795D01*
X97605509Y-80735803D01*
X97599000Y-80796350D01*
X97599000Y-82893649D01*
X88951282Y-82893649D01*
X89057719Y-82646898D01*
X89057721Y-82646892D01*
X89153472Y-82327064D01*
X89153472Y-82327063D01*
X89211444Y-81998284D01*
X89211445Y-81998275D01*
X89230856Y-81665000D01*
X89211445Y-81331724D01*
X89211444Y-81331715D01*
X89153472Y-81002936D01*
X89153472Y-81002935D01*
X89057721Y-80683107D01*
X89057719Y-80683101D01*
X88925493Y-80376564D01*
X88925490Y-80376559D01*
X88758572Y-80087449D01*
X88758555Y-80087422D01*
X88714786Y-80028632D01*
X87244751Y-81498667D01*
X87220665Y-81385353D01*
X87143716Y-81212522D01*
X87032514Y-81059466D01*
X86891920Y-80932874D01*
X86728079Y-80838281D01*
X86548151Y-80779818D01*
X86528796Y-80777783D01*
X87995937Y-79310641D01*
X87795436Y-79178769D01*
X87497083Y-79028931D01*
X87183373Y-78914750D01*
X87183370Y-78914749D01*
X86858524Y-78837759D01*
X86858514Y-78837757D01*
X86526928Y-78799000D01*
X86193072Y-78799000D01*
X85861485Y-78837757D01*
X85861475Y-78837759D01*
X85536629Y-78914749D01*
X85536626Y-78914750D01*
X85222916Y-79028931D01*
X84924569Y-79178766D01*
X84724061Y-79310641D01*
X86191203Y-80777783D01*
X86171849Y-80779818D01*
X85991921Y-80838281D01*
X85828080Y-80932874D01*
X85687486Y-81059466D01*
X85576284Y-81212521D01*
X85499335Y-81385353D01*
X85475248Y-81498668D01*
X84005213Y-80028633D01*
X84005212Y-80028633D01*
X83961437Y-80087433D01*
X83961427Y-80087449D01*
X83794509Y-80376559D01*
X83794506Y-80376564D01*
X83662280Y-80683101D01*
X83662278Y-80683107D01*
X83566527Y-81002935D01*
X83566527Y-81002936D01*
X83508555Y-81331715D01*
X83508554Y-81331724D01*
X83489143Y-81665000D01*
X78105000Y-81665000D01*
X78105000Y-76835000D01*
X93066496Y-76835000D01*
X93086457Y-77024927D01*
X93116526Y-77117470D01*
X93145473Y-77206556D01*
X93145476Y-77206561D01*
X93240958Y-77371941D01*
X93240965Y-77371951D01*
X93368744Y-77513864D01*
X93368747Y-77513866D01*
X93523248Y-77626118D01*
X93697712Y-77703794D01*
X93884513Y-77743500D01*
X94075487Y-77743500D01*
X94262288Y-77703794D01*
X94436752Y-77626118D01*
X94591253Y-77513866D01*
X94596473Y-77508069D01*
X94719034Y-77371951D01*
X94719035Y-77371949D01*
X94719040Y-77371944D01*
X94814527Y-77206556D01*
X94873542Y-77024928D01*
X94893504Y-76835000D01*
X100686496Y-76835000D01*
X100706457Y-77024927D01*
X100736526Y-77117470D01*
X100765473Y-77206556D01*
X100765476Y-77206561D01*
X100860958Y-77371941D01*
X100860965Y-77371951D01*
X100988744Y-77513864D01*
X100988747Y-77513866D01*
X101143248Y-77626118D01*
X101317712Y-77703794D01*
X101504513Y-77743500D01*
X101695487Y-77743500D01*
X101882288Y-77703794D01*
X102056752Y-77626118D01*
X102211253Y-77513866D01*
X102216473Y-77508069D01*
X102339034Y-77371951D01*
X102339035Y-77371949D01*
X102339040Y-77371944D01*
X102434527Y-77206556D01*
X102493542Y-77024928D01*
X102513504Y-76835000D01*
X102493542Y-76645072D01*
X102434527Y-76463444D01*
X102339040Y-76298056D01*
X102339038Y-76298054D01*
X102339034Y-76298048D01*
X102211255Y-76156135D01*
X102056752Y-76043882D01*
X101882288Y-75966206D01*
X101695487Y-75926500D01*
X101504513Y-75926500D01*
X101317711Y-75966206D01*
X101143247Y-76043882D01*
X100988744Y-76156135D01*
X100860965Y-76298048D01*
X100860958Y-76298058D01*
X100765476Y-76463438D01*
X100765473Y-76463445D01*
X100706457Y-76645072D01*
X100686496Y-76835000D01*
X94893504Y-76835000D01*
X94873542Y-76645072D01*
X94814527Y-76463444D01*
X94719040Y-76298056D01*
X94719038Y-76298054D01*
X94719034Y-76298048D01*
X94591255Y-76156135D01*
X94436752Y-76043882D01*
X94262288Y-75966206D01*
X94075487Y-75926500D01*
X93884513Y-75926500D01*
X93697711Y-75966206D01*
X93523247Y-76043882D01*
X93368744Y-76156135D01*
X93240965Y-76298048D01*
X93240958Y-76298058D01*
X93145476Y-76463438D01*
X93145473Y-76463445D01*
X93086457Y-76645072D01*
X93066496Y-76835000D01*
X78105000Y-76835000D01*
X78105000Y-70485000D01*
X96876496Y-70485000D01*
X96896457Y-70674927D01*
X96917468Y-70739591D01*
X96955473Y-70856556D01*
X96955476Y-70856561D01*
X97050958Y-71021941D01*
X97050965Y-71021951D01*
X97178744Y-71163864D01*
X97178747Y-71163866D01*
X97333248Y-71276118D01*
X97507712Y-71353794D01*
X97694513Y-71393500D01*
X97885487Y-71393500D01*
X98072288Y-71353794D01*
X98246752Y-71276118D01*
X98401253Y-71163866D01*
X98529040Y-71021944D01*
X98624527Y-70856556D01*
X98683542Y-70674928D01*
X98703504Y-70485000D01*
X100686496Y-70485000D01*
X100706457Y-70674927D01*
X100727468Y-70739591D01*
X100765473Y-70856556D01*
X100765476Y-70856561D01*
X100860958Y-71021941D01*
X100860965Y-71021951D01*
X100988744Y-71163864D01*
X100988747Y-71163866D01*
X101143248Y-71276118D01*
X101317712Y-71353794D01*
X101504513Y-71393500D01*
X101695487Y-71393500D01*
X101882288Y-71353794D01*
X102056752Y-71276118D01*
X102211253Y-71163866D01*
X102339040Y-71021944D01*
X102434527Y-70856556D01*
X102493542Y-70674928D01*
X102513504Y-70485000D01*
X104496496Y-70485000D01*
X104516457Y-70674927D01*
X104537468Y-70739591D01*
X104575473Y-70856556D01*
X104575476Y-70856561D01*
X104670958Y-71021941D01*
X104670965Y-71021951D01*
X104798744Y-71163864D01*
X104798747Y-71163866D01*
X104953248Y-71276118D01*
X105127712Y-71353794D01*
X105314513Y-71393500D01*
X105505487Y-71393500D01*
X105692288Y-71353794D01*
X105866752Y-71276118D01*
X106021253Y-71163866D01*
X106149040Y-71021944D01*
X106244527Y-70856556D01*
X106303542Y-70674928D01*
X106323504Y-70485000D01*
X106303542Y-70295072D01*
X106244527Y-70113444D01*
X106149040Y-69948056D01*
X106149038Y-69948054D01*
X106149034Y-69948048D01*
X106021255Y-69806135D01*
X105866752Y-69693882D01*
X105692288Y-69616206D01*
X105505487Y-69576500D01*
X105314513Y-69576500D01*
X105127711Y-69616206D01*
X104953247Y-69693882D01*
X104798744Y-69806135D01*
X104670965Y-69948048D01*
X104670958Y-69948058D01*
X104575476Y-70113438D01*
X104575473Y-70113445D01*
X104516457Y-70295072D01*
X104496496Y-70485000D01*
X102513504Y-70485000D01*
X102493542Y-70295072D01*
X102434527Y-70113444D01*
X102339040Y-69948056D01*
X102339038Y-69948054D01*
X102339034Y-69948048D01*
X102211255Y-69806135D01*
X102056752Y-69693882D01*
X101882288Y-69616206D01*
X101695487Y-69576500D01*
X101504513Y-69576500D01*
X101317711Y-69616206D01*
X101143247Y-69693882D01*
X100988744Y-69806135D01*
X100860965Y-69948048D01*
X100860958Y-69948058D01*
X100765476Y-70113438D01*
X100765473Y-70113445D01*
X100706457Y-70295072D01*
X100686496Y-70485000D01*
X98703504Y-70485000D01*
X98683542Y-70295072D01*
X98624527Y-70113444D01*
X98529040Y-69948056D01*
X98529038Y-69948054D01*
X98529034Y-69948048D01*
X98401255Y-69806135D01*
X98246752Y-69693882D01*
X98072288Y-69616206D01*
X97885487Y-69576500D01*
X97694513Y-69576500D01*
X97507711Y-69616206D01*
X97333247Y-69693882D01*
X97178744Y-69806135D01*
X97050965Y-69948048D01*
X97050958Y-69948058D01*
X96955476Y-70113438D01*
X96955473Y-70113445D01*
X96896457Y-70295072D01*
X96876496Y-70485000D01*
X78105000Y-70485000D01*
X78105000Y-62928433D01*
X78113188Y-62883752D01*
X78119295Y-62867650D01*
X78191920Y-62572996D01*
X78228500Y-62271736D01*
X78228500Y-62120000D01*
X78228500Y-62053055D01*
X78228500Y-58024500D01*
X78228821Y-58015512D01*
X78243038Y-57816722D01*
X78245593Y-57798947D01*
X78287004Y-57608584D01*
X78292058Y-57591369D01*
X78360138Y-57408842D01*
X78367599Y-57392505D01*
X78460955Y-57221535D01*
X78470668Y-57206422D01*
X78587407Y-57050478D01*
X78599167Y-57036907D01*
X78736907Y-56899167D01*
X78750478Y-56887407D01*
X78906422Y-56770668D01*
X78921535Y-56760955D01*
X79092505Y-56667599D01*
X79108842Y-56660138D01*
X79291369Y-56592058D01*
X79308584Y-56587004D01*
X79498947Y-56545593D01*
X79516716Y-56543038D01*
X79678346Y-56531479D01*
X79715513Y-56528821D01*
X79724501Y-56528500D01*
X79786945Y-56528500D01*
X172653055Y-56528500D01*
X172715499Y-56528500D01*
X172724487Y-56528821D01*
G37*
%TD.AperFunction*%
%TD*%
%TA.AperFunction,Conductor*%
%TO.N,Net-(J2-Pin_1)*%
G36*
X114113859Y-84353502D02*
G01*
X114160352Y-84407158D01*
X114170456Y-84477432D01*
X114149311Y-84531255D01*
X114134455Y-84552697D01*
X114040216Y-84760172D01*
X114040213Y-84760181D01*
X113984534Y-84981150D01*
X113974000Y-85114989D01*
X113974000Y-86272000D01*
X116096623Y-86272000D01*
X116056284Y-86327521D01*
X115979335Y-86500353D01*
X115940000Y-86685406D01*
X115940000Y-86874594D01*
X115979335Y-87059647D01*
X116056284Y-87232478D01*
X116096623Y-87288000D01*
X113974000Y-87288000D01*
X113974000Y-88445010D01*
X113984534Y-88578849D01*
X114040213Y-88799818D01*
X114040216Y-88799827D01*
X114134456Y-89007303D01*
X114134459Y-89007309D01*
X114264229Y-89194620D01*
X114264243Y-89194637D01*
X114425362Y-89355756D01*
X114425379Y-89355770D01*
X114612690Y-89485540D01*
X114612696Y-89485543D01*
X114820172Y-89579783D01*
X114820181Y-89579786D01*
X115041150Y-89635465D01*
X115174989Y-89646000D01*
X116332000Y-89646000D01*
X116332000Y-87525936D01*
X116471921Y-87606719D01*
X116651849Y-87665182D01*
X116792836Y-87680000D01*
X116887164Y-87680000D01*
X117028151Y-87665182D01*
X117208079Y-87606719D01*
X117348000Y-87525936D01*
X117348000Y-89646000D01*
X118505011Y-89646000D01*
X118638849Y-89635465D01*
X118859818Y-89579786D01*
X118859827Y-89579783D01*
X119067303Y-89485543D01*
X119067309Y-89485540D01*
X119254620Y-89355770D01*
X119254637Y-89355756D01*
X119415756Y-89194637D01*
X119415770Y-89194620D01*
X119545540Y-89007309D01*
X119545543Y-89007303D01*
X119639783Y-88799827D01*
X119639786Y-88799818D01*
X119695465Y-88578849D01*
X119706000Y-88445010D01*
X119706000Y-87288000D01*
X117583377Y-87288000D01*
X117623716Y-87232479D01*
X117700665Y-87059647D01*
X117740000Y-86874594D01*
X117740000Y-86685406D01*
X117700665Y-86500353D01*
X117623716Y-86327522D01*
X117583377Y-86272000D01*
X119706000Y-86272000D01*
X119706000Y-85114989D01*
X119695465Y-84981150D01*
X119639786Y-84760181D01*
X119639783Y-84760172D01*
X119545544Y-84552697D01*
X119530689Y-84531255D01*
X119508338Y-84463868D01*
X119525966Y-84395095D01*
X119577978Y-84346770D01*
X119634262Y-84333500D01*
X121794000Y-84333500D01*
X121862121Y-84353502D01*
X121908614Y-84407158D01*
X121920000Y-84459500D01*
X121920000Y-104014000D01*
X121899998Y-104082121D01*
X121846342Y-104128614D01*
X121794000Y-104140000D01*
X96646000Y-104140000D01*
X96577879Y-104119998D01*
X96531386Y-104066342D01*
X96520000Y-104014000D01*
X96520000Y-100108649D01*
X97599000Y-100108649D01*
X97605509Y-100169196D01*
X97605511Y-100169204D01*
X97656610Y-100306202D01*
X97656612Y-100306207D01*
X97744238Y-100423261D01*
X97861292Y-100510887D01*
X97861294Y-100510888D01*
X97861296Y-100510889D01*
X97908904Y-100528646D01*
X97998295Y-100561988D01*
X97998303Y-100561990D01*
X98058850Y-100568499D01*
X98058855Y-100568499D01*
X98058862Y-100568500D01*
X98058868Y-100568500D01*
X100061132Y-100568500D01*
X100061138Y-100568500D01*
X100061145Y-100568499D01*
X100061149Y-100568499D01*
X100121696Y-100561990D01*
X100121697Y-100561989D01*
X100121701Y-100561989D01*
X100154287Y-100549834D01*
X100225099Y-100544768D01*
X100287412Y-100578790D01*
X100287417Y-100578795D01*
X100307611Y-100598990D01*
X100307612Y-100598991D01*
X100533030Y-100767736D01*
X100780168Y-100902684D01*
X100780167Y-100902684D01*
X101043994Y-101001085D01*
X101092000Y-101011528D01*
X101092000Y-99275087D01*
X101146442Y-99380156D01*
X101249638Y-99490652D01*
X101378819Y-99569209D01*
X101524404Y-99610000D01*
X101637622Y-99610000D01*
X101749783Y-99594584D01*
X101888458Y-99534349D01*
X102005739Y-99438934D01*
X102092928Y-99315415D01*
X102108000Y-99273006D01*
X102108000Y-101011527D01*
X102156005Y-101001085D01*
X102419832Y-100902684D01*
X102666969Y-100767736D01*
X102892387Y-100598991D01*
X102892396Y-100598983D01*
X103091493Y-100399886D01*
X103136154Y-100340225D01*
X103192990Y-100297678D01*
X103263805Y-100292612D01*
X103314412Y-100316300D01*
X103338170Y-100334792D01*
X103551112Y-100450030D01*
X103780117Y-100528648D01*
X104018938Y-100568500D01*
X104018942Y-100568500D01*
X104261058Y-100568500D01*
X104261062Y-100568500D01*
X104499883Y-100528648D01*
X104728888Y-100450030D01*
X104941830Y-100334792D01*
X105132900Y-100186076D01*
X105140683Y-100177622D01*
X105296886Y-100007940D01*
X105429315Y-99805242D01*
X105526575Y-99583512D01*
X105586013Y-99348797D01*
X105601000Y-99167927D01*
X105601000Y-98952073D01*
X105586013Y-98771203D01*
X105555307Y-98649949D01*
X105526576Y-98536491D01*
X105526573Y-98536484D01*
X105524093Y-98530831D01*
X105429315Y-98314758D01*
X105335599Y-98171314D01*
X105296886Y-98112059D01*
X105132906Y-97933929D01*
X104999062Y-97829754D01*
X104941830Y-97785208D01*
X104941829Y-97785207D01*
X104844125Y-97732332D01*
X104728888Y-97669970D01*
X104728885Y-97669969D01*
X104728884Y-97669968D01*
X104499887Y-97591353D01*
X104499880Y-97591351D01*
X104397670Y-97574295D01*
X104261062Y-97551500D01*
X104018938Y-97551500D01*
X103899421Y-97571443D01*
X103780119Y-97591351D01*
X103780112Y-97591353D01*
X103551115Y-97669968D01*
X103551112Y-97669970D01*
X103338170Y-97785207D01*
X103338165Y-97785211D01*
X103314410Y-97803700D01*
X103248367Y-97829754D01*
X103178722Y-97815967D01*
X103136154Y-97779775D01*
X103091491Y-97720112D01*
X103091483Y-97720103D01*
X102892396Y-97521016D01*
X102892387Y-97521008D01*
X102666969Y-97352263D01*
X102419831Y-97217315D01*
X102419832Y-97217315D01*
X102156001Y-97118912D01*
X102108000Y-97108469D01*
X102108000Y-98844912D01*
X102053558Y-98739844D01*
X101950362Y-98629348D01*
X101821181Y-98550791D01*
X101675596Y-98510000D01*
X101562378Y-98510000D01*
X101450217Y-98525416D01*
X101311542Y-98585651D01*
X101194261Y-98681066D01*
X101107072Y-98804585D01*
X101092000Y-98846993D01*
X101092000Y-97108470D01*
X101091999Y-97108469D01*
X101043998Y-97118912D01*
X100780168Y-97217315D01*
X100533030Y-97352263D01*
X100307616Y-97521004D01*
X100307613Y-97521006D01*
X100287414Y-97541206D01*
X100225101Y-97575230D01*
X100154290Y-97570165D01*
X100121705Y-97558012D01*
X100121695Y-97558009D01*
X100061149Y-97551500D01*
X100061138Y-97551500D01*
X98058862Y-97551500D01*
X98058850Y-97551500D01*
X97998303Y-97558009D01*
X97998295Y-97558011D01*
X97861297Y-97609110D01*
X97861292Y-97609112D01*
X97744238Y-97696738D01*
X97656612Y-97813792D01*
X97656610Y-97813797D01*
X97605511Y-97950795D01*
X97605509Y-97950803D01*
X97599000Y-98011350D01*
X97599000Y-100108649D01*
X96520000Y-100108649D01*
X96520000Y-94211182D01*
X115089500Y-94211182D01*
X115096820Y-94259743D01*
X115128604Y-94470619D01*
X115205933Y-94721314D01*
X115205938Y-94721327D01*
X115319773Y-94957706D01*
X115319777Y-94957713D01*
X115439670Y-95133562D01*
X115467567Y-95174479D01*
X115646019Y-95366805D01*
X115851143Y-95530386D01*
X115851146Y-95530388D01*
X116078352Y-95661566D01*
X116078356Y-95661567D01*
X116078357Y-95661568D01*
X116322584Y-95757420D01*
X116578370Y-95815802D01*
X116774506Y-95830500D01*
X116774507Y-95830500D01*
X116905493Y-95830500D01*
X116905494Y-95830500D01*
X117101630Y-95815802D01*
X117357416Y-95757420D01*
X117601643Y-95661568D01*
X117601645Y-95661566D01*
X117601647Y-95661566D01*
X117734578Y-95584818D01*
X117828857Y-95530386D01*
X118033981Y-95366805D01*
X118212433Y-95174479D01*
X118360228Y-94957704D01*
X118474063Y-94721323D01*
X118495664Y-94651294D01*
X118551395Y-94470619D01*
X118560089Y-94412942D01*
X118590500Y-94211182D01*
X118590500Y-93948818D01*
X118551396Y-93689385D01*
X118551395Y-93689383D01*
X118551395Y-93689380D01*
X118474066Y-93438685D01*
X118474061Y-93438672D01*
X118374827Y-93232612D01*
X118360228Y-93202296D01*
X118360226Y-93202293D01*
X118360222Y-93202286D01*
X118212437Y-92985527D01*
X118212433Y-92985521D01*
X118033981Y-92793195D01*
X117828857Y-92629614D01*
X117828852Y-92629611D01*
X117828853Y-92629611D01*
X117601647Y-92498433D01*
X117601639Y-92498430D01*
X117357419Y-92402581D01*
X117357417Y-92402580D01*
X117101633Y-92344198D01*
X116954528Y-92333174D01*
X116905494Y-92329500D01*
X116774506Y-92329500D01*
X116735278Y-92332439D01*
X116578366Y-92344198D01*
X116322582Y-92402580D01*
X116322580Y-92402581D01*
X116078360Y-92498430D01*
X116078352Y-92498433D01*
X115851146Y-92629611D01*
X115646018Y-92793195D01*
X115467566Y-92985522D01*
X115467562Y-92985527D01*
X115319777Y-93202286D01*
X115319773Y-93202293D01*
X115205938Y-93438672D01*
X115205933Y-93438685D01*
X115128604Y-93689380D01*
X115118496Y-93756443D01*
X115089500Y-93948818D01*
X115089500Y-94211182D01*
X96520000Y-94211182D01*
X96520000Y-94106000D01*
X96540002Y-94037879D01*
X96593658Y-93991386D01*
X96646000Y-93980000D01*
X111760000Y-93980000D01*
X111760000Y-84459500D01*
X111780002Y-84391379D01*
X111833658Y-84344886D01*
X111886000Y-84333500D01*
X114045738Y-84333500D01*
X114113859Y-84353502D01*
G37*
%TD.AperFunction*%
%TD*%
%TA.AperFunction,Conductor*%
%TO.N,+12V*%
G36*
X95885000Y-104775000D02*
G01*
X122555000Y-104775000D01*
X122555000Y-104140000D01*
X174625000Y-104140000D01*
X174625000Y-116700621D01*
X174605315Y-116767660D01*
X174603050Y-116771061D01*
X174569353Y-116819879D01*
X174569348Y-116819888D01*
X174428321Y-117088590D01*
X174428321Y-117088591D01*
X174320706Y-117372344D01*
X174248081Y-117666998D01*
X174211500Y-117968261D01*
X174211500Y-122215572D01*
X174211184Y-122224418D01*
X174196951Y-122423418D01*
X174194433Y-122440930D01*
X174152970Y-122631533D01*
X174147986Y-122648509D01*
X174079812Y-122831288D01*
X174072462Y-122847380D01*
X173978983Y-123018576D01*
X173969418Y-123033461D01*
X173852512Y-123189628D01*
X173840926Y-123202998D01*
X173702998Y-123340926D01*
X173689628Y-123352512D01*
X173533461Y-123469418D01*
X173518576Y-123478983D01*
X173347380Y-123572462D01*
X173331288Y-123579812D01*
X173148509Y-123647986D01*
X173131533Y-123652970D01*
X172940930Y-123694433D01*
X172923418Y-123696951D01*
X172724418Y-123711184D01*
X172715572Y-123711500D01*
X79724428Y-123711500D01*
X79715582Y-123711184D01*
X79516581Y-123696951D01*
X79499069Y-123694433D01*
X79308466Y-123652970D01*
X79291490Y-123647986D01*
X79108711Y-123579812D01*
X79092619Y-123572462D01*
X78921423Y-123478983D01*
X78906538Y-123469418D01*
X78750371Y-123352512D01*
X78737001Y-123340926D01*
X78599073Y-123202998D01*
X78587487Y-123189628D01*
X78470581Y-123033461D01*
X78461016Y-123018576D01*
X78367537Y-122847380D01*
X78360187Y-122831288D01*
X78292010Y-122648501D01*
X78287031Y-122631542D01*
X78245565Y-122440924D01*
X78243048Y-122423418D01*
X78228816Y-122224418D01*
X78228500Y-122215572D01*
X78228500Y-109968261D01*
X78220353Y-109901171D01*
X78191920Y-109667004D01*
X78119295Y-109372350D01*
X78113058Y-109355904D01*
X78105000Y-109311933D01*
X78105000Y-104140000D01*
X95885000Y-104140000D01*
X95885000Y-104775000D01*
G37*
%TD.AperFunction*%
%TD*%
M02*
