M48
; DRILL file {KiCad 7.0.10} date Thu Feb 15 22:29:53 2024
; FORMAT={-:-/ absolute / inch / decimal}
; #@! TF.CreationDate,2024-02-15T22:29:53-05:00
; #@! TF.GenerationSoftware,Kicad,Pcbnew,7.0.10
; #@! TF.FileFunction,Plated,1,4,PTH
FMAT,2
INCH
; #@! TA.AperFunction,Plated,PTH,ViaDrill
T1C0.0157
; #@! TA.AperFunction,Plated,PTH,ComponentDrill
T2C0.0400
; #@! TA.AperFunction,Plated,PTH,ComponentDrill
T3C0.0402
; #@! TA.AperFunction,Plated,PTH,ComponentDrill
T4C0.0433
; #@! TA.AperFunction,Plated,PTH,ComponentDrill
T5C0.0709
%
G90
G05
T1
X3.7Y-3.025
X3.85Y-2.775
X4.0Y-2.775
X4.0Y-3.025
X4.15Y-2.775
X4.15Y-3.05
X5.95Y-2.85
X5.95Y-3.375
X6.0889Y-3.375
X6.0889Y-3.375
X6.175Y-2.575
X6.475Y-2.575
X6.475Y-3.55
T2
X5.1Y-2.5
X5.1Y-2.6
X5.1Y-2.7
X5.1Y-2.8
X5.1Y-2.9
X5.1Y-3.0
X5.1Y-3.1
X5.1Y-3.2
X5.1Y-3.3
X5.1Y-3.4
X5.1Y-3.5
X5.1Y-3.6
X5.1Y-3.7
X5.1Y-3.8
X5.1Y-3.9
X5.7Y-2.5
X5.7Y-2.6
X5.7Y-2.7
X5.7Y-2.8
X5.7Y-2.9
X5.7Y-3.0
X5.7Y-3.1
X5.7Y-3.2
X5.7Y-3.3
X5.7Y-3.4
X5.7Y-3.5
X5.7Y-3.6
X5.7Y-3.7
X5.7Y-3.8
X5.7Y-3.9
T3
X6.1Y-3.125
X6.1228Y-3.7299
X6.2181Y-3.125
X6.2409Y-3.7299
X6.3362Y-3.125
X6.3591Y-3.7299
X6.4543Y-3.125
X6.4772Y-3.7299
X6.5724Y-3.125
T4
X3.9Y-3.2222
X3.9Y-3.9
X4.0Y-3.2222
X4.0Y-3.9
X4.1Y-3.2222
X4.1Y-3.9
T5
X3.4Y-3.2152
X3.4Y-3.4317
X4.6Y-3.2
X4.6Y-3.4165
M30
