%TF.GenerationSoftware,KiCad,Pcbnew,7.0.10*%
%TF.CreationDate,2024-02-15T22:29:50-05:00*%
%TF.ProjectId,heaterboard-2,68656174-6572-4626-9f61-72642d322e6b,2*%
%TF.SameCoordinates,Original*%
%TF.FileFunction,Soldermask,Top*%
%TF.FilePolarity,Negative*%
%FSLAX46Y46*%
G04 Gerber Fmt 4.6, Leading zero omitted, Abs format (unit mm)*
G04 Created by KiCad (PCBNEW 7.0.10) date 2024-02-15 22:29:50*
%MOMM*%
%LPD*%
G01*
G04 APERTURE LIST*
G04 Aperture macros list*
%AMRoundRect*
0 Rectangle with rounded corners*
0 $1 Rounding radius*
0 $2 $3 $4 $5 $6 $7 $8 $9 X,Y pos of 4 corners*
0 Add a 4 corners polygon primitive as box body*
4,1,4,$2,$3,$4,$5,$6,$7,$8,$9,$2,$3,0*
0 Add four circle primitives for the rounded corners*
1,1,$1+$1,$2,$3*
1,1,$1+$1,$4,$5*
1,1,$1+$1,$6,$7*
1,1,$1+$1,$8,$9*
0 Add four rect primitives between the rounded corners*
20,1,$1+$1,$2,$3,$4,$5,0*
20,1,$1+$1,$4,$5,$6,$7,0*
20,1,$1+$1,$6,$7,$8,$9,0*
20,1,$1+$1,$8,$9,$2,$3,0*%
G04 Aperture macros list end*
%ADD10R,1.905000X2.000000*%
%ADD11O,1.905000X2.000000*%
%ADD12C,3.000000*%
%ADD13RoundRect,0.250002X1.599998X1.599998X-1.599998X1.599998X-1.599998X-1.599998X1.599998X-1.599998X0*%
%ADD14C,3.700000*%
%ADD15RoundRect,0.250000X0.625000X-0.400000X0.625000X0.400000X-0.625000X0.400000X-0.625000X-0.400000X0*%
%ADD16RoundRect,0.250000X-0.625000X0.400000X-0.625000X-0.400000X0.625000X-0.400000X0.625000X0.400000X0*%
%ADD17RoundRect,0.250000X0.650000X-0.412500X0.650000X0.412500X-0.650000X0.412500X-0.650000X-0.412500X0*%
%ADD18C,1.800000*%
%ADD19C,1.727200*%
%ADD20R,1.727200X1.727200*%
%ADD21C,1.270000*%
%ADD22RoundRect,0.250001X-0.499999X-0.759999X0.499999X-0.759999X0.499999X0.759999X-0.499999X0.759999X0*%
%ADD23O,1.500000X2.020000*%
%ADD24RoundRect,0.250001X0.499999X0.759999X-0.499999X0.759999X-0.499999X-0.759999X0.499999X-0.759999X0*%
G04 APERTURE END LIST*
D10*
%TO.C,Q1*%
X99060000Y-99060000D03*
D11*
X101600000Y-99060000D03*
X104140000Y-99060000D03*
%TD*%
D12*
%TO.C,J1*%
X86360000Y-94465000D03*
D13*
X86360000Y-87165000D03*
D14*
X86360000Y-81665000D03*
%TD*%
D15*
%TO.C,R2*%
X97790000Y-75565000D03*
X97790000Y-72465000D03*
%TD*%
D16*
%TO.C,R7*%
X156845000Y-88340000D03*
X156845000Y-91440000D03*
%TD*%
D10*
%TO.C,U1*%
X99060000Y-81845000D03*
D11*
X101600000Y-81845000D03*
X104140000Y-81845000D03*
%TD*%
D15*
%TO.C,R6*%
X164465000Y-70485000D03*
X164465000Y-67385000D03*
%TD*%
D17*
%TO.C,C2*%
X101600000Y-75515000D03*
X101600000Y-72390000D03*
%TD*%
D18*
%TO.C,A1*%
X129540000Y-60960000D03*
X129540000Y-101600000D03*
X144780000Y-60960000D03*
X144780000Y-101600000D03*
D19*
X144780000Y-96520000D03*
X144780000Y-71120000D03*
X144780000Y-91440000D03*
X144780000Y-88900000D03*
X144780000Y-86360000D03*
X144780000Y-83820000D03*
X144780000Y-81280000D03*
X144780000Y-78740000D03*
X144780000Y-76200000D03*
X144780000Y-73660000D03*
X144780000Y-93980000D03*
X129540000Y-66040000D03*
X129540000Y-63500000D03*
X129540000Y-73660000D03*
X129540000Y-76200000D03*
X129540000Y-78740000D03*
X129540000Y-81280000D03*
X129540000Y-83820000D03*
X129540000Y-86360000D03*
X129540000Y-88900000D03*
X129540000Y-91440000D03*
X129540000Y-93980000D03*
X129540000Y-96520000D03*
X129540000Y-99060000D03*
X144780000Y-99060000D03*
D20*
X129540000Y-71120000D03*
X144780000Y-66040000D03*
D19*
X129540000Y-68580000D03*
X144780000Y-68580000D03*
X144780000Y-63500000D03*
%TD*%
D15*
%TO.C,R4*%
X156845000Y-70485000D03*
X156845000Y-67385000D03*
%TD*%
%TO.C,R1*%
X93980000Y-75490000D03*
X93980000Y-72390000D03*
%TD*%
%TO.C,R5*%
X160655000Y-70485000D03*
X160655000Y-67385000D03*
%TD*%
D21*
%TO.C,J4*%
X151940000Y-77415000D03*
X169940000Y-77415000D03*
D22*
X154940000Y-79375000D03*
D23*
X157940000Y-79375000D03*
X160940000Y-79375000D03*
X163940000Y-79375000D03*
X166940000Y-79375000D03*
%TD*%
D15*
%TO.C,R3*%
X153035000Y-70485000D03*
X153035000Y-67385000D03*
%TD*%
D12*
%TO.C,J2*%
X116840000Y-94080000D03*
D13*
X116840000Y-86780000D03*
D14*
X116840000Y-81280000D03*
%TD*%
D12*
%TO.C,J3*%
X162370000Y-99060000D03*
X157670000Y-99060000D03*
D24*
X164520000Y-94740000D03*
D23*
X161520000Y-94740000D03*
X158520000Y-94740000D03*
X155520000Y-94740000D03*
%TD*%
D16*
%TO.C,R8*%
X153035000Y-88340000D03*
X153035000Y-91440000D03*
%TD*%
D17*
%TO.C,C1*%
X105410000Y-75515000D03*
X105410000Y-72390000D03*
%TD*%
M02*
